<svg width="300" height="300" viewBox="0 0 300 300" fill="none" xmlns="http://www.w3.org/2000/svg">
<path d="M150 125C79.9063 125 25 100.294 25 68.75C25 37.2063 79.9063 12.5 150 12.5C220.094 12.5 275 37.2063 275 68.75C275 100.294 220.094 125 150 125ZM150 25C96.7875 25 37.5 42.9688 37.5 68.75C37.5 94.5312 96.7875 112.5 150 112.5C203.213 112.5 262.5 94.5312 262.5 68.75C262.5 42.9688 203.213 25 150 25Z" fill="#FF5F00" stroke="#FF5F00" stroke-width="3"/>
<path d="M150 175C79.9063 175 25 150.294 25 118.75V68.75C25 65.2938 27.7938 62.5 31.25 62.5C34.7063 62.5 37.5 65.2938 37.5 68.75V118.75C37.5 144.531 96.7875 162.5 150 162.5C203.213 162.5 262.5 144.531 262.5 118.75V68.75C262.5 65.2938 265.294 62.5 268.75 62.5C272.206 62.5 275 65.2938 275 68.75V118.75C275 150.294 220.094 175 150 175Z" fill="#FF5F00" stroke="#FF5F00" stroke-width="3"/>
<path d="M150 231.25C79.9063 231.25 25 206.544 25 175V118.75C25 115.294 27.7938 112.5 31.25 112.5C34.7063 112.5 37.5 115.294 37.5 118.75V175C37.5 200.781 96.7875 218.75 150 218.75C203.213 218.75 262.5 200.781 262.5 175V118.75C262.5 115.294 265.294 112.5 268.75 112.5C272.206 112.5 275 115.294 275 118.75V175C275 206.544 220.094 231.25 150 231.25Z" fill="#FF5F00" stroke="#FF5F00" stroke-width="3"/>
<path d="M150 287.5C79.9063 287.5 25 262.794 25 231.25V175C25 171.544 27.7938 168.75 31.25 168.75C34.7063 168.75 37.5 171.544 37.5 175V231.25C37.5 257.031 96.7875 275 150 275C203.213 275 262.5 257.031 262.5 231.25V175C262.5 171.544 265.294 168.75 268.75 168.75C272.206 168.75 275 171.544 275 175V231.25C275 262.794 220.094 287.5 150 287.5Z" fill="#FF5F00" stroke="#FF5F00" stroke-width="3"/>
</svg>
