<svg width="300" height="300" viewBox="0 0 300 300" fill="none" xmlns="http://www.w3.org/2000/svg">
<path d="M157.031 70.1784C176.411 70.1784 192.121 54.4684 192.121 35.0892C192.121 15.71 176.411 0 157.031 0C137.651 0 121.94 15.71 121.94 35.0892C121.94 54.4684 137.651 70.1784 157.031 70.1784Z" fill="#00BB6F"/>
<path d="M157.031 300C168.657 300 178.083 290.575 178.083 278.949C178.083 267.322 168.657 257.897 157.031 257.897C145.404 257.897 135.979 267.322 135.979 278.949C135.979 290.575 145.404 300 157.031 300Z" fill="#00BB6F"/>
<path d="M70.8071 102.376C88.2503 102.376 102.391 88.2358 102.391 70.7932C102.391 53.3507 88.2503 39.2107 70.8071 39.2107C53.3639 39.2107 39.2234 53.3507 39.2234 70.7932C39.2234 88.2358 53.3639 102.376 70.8071 102.376Z" fill="#00BB6F"/>
<path d="M243.254 260.766C252.944 260.766 260.799 252.911 260.799 243.222C260.799 233.532 252.944 225.677 243.254 225.677C233.564 225.677 225.709 233.532 225.709 243.222C225.709 252.911 233.564 260.766 243.254 260.766Z" fill="#00BB6F"/>
<path d="M35.0905 185.089C50.5907 185.089 63.1561 172.524 63.1561 157.025C63.1561 141.525 50.5907 128.96 35.0905 128.96C19.5903 128.96 7.0249 141.525 7.0249 157.025C7.0249 172.524 19.5903 185.089 35.0905 185.089Z" fill="#00BB6F"/>
<path d="M278.959 171.04C286.706 171.04 292.986 164.76 292.986 157.013C292.986 149.267 286.706 142.987 278.959 142.987C271.212 142.987 264.932 149.267 264.932 157.013C264.932 164.76 271.212 171.04 278.959 171.04Z" fill="#00BB6F"/>
<path d="M53.4442 225.882C43.8461 235.48 43.8461 251.009 53.4442 260.607C63.0309 270.205 78.5836 270.205 88.1704 260.607C97.7684 251.009 97.7684 235.48 88.1704 225.882C78.5836 216.273 63.0423 216.182 53.4442 225.882Z" fill="#00BB6F"/>
<path d="M243.242 81.313C249.053 81.313 253.763 76.6031 253.763 70.7931C253.763 64.9831 249.053 60.2732 243.242 60.2732C237.432 60.2732 232.722 64.9831 232.722 70.7931C232.722 76.6031 237.432 81.313 243.242 81.313Z" fill="#00BB6F"/>
<g clip-path="url(#clip0_549_495)">
<path d="M193.044 107.143H124.099C119.476 107.143 115.714 110.904 115.714 115.528V184.472C115.714 189.096 119.476 192.857 124.099 192.857H193.044C197.667 192.857 201.429 189.096 201.429 184.472V115.528C201.429 110.904 197.667 107.143 193.044 107.143ZM190.248 156.296L175.455 141.502C174.363 140.411 172.593 140.411 171.502 141.502L153.913 159.091L143.777 149.887C142.686 148.795 140.917 148.795 139.825 149.887L126.895 161.886V121.118C126.895 119.573 128.145 118.323 129.69 118.323H187.454C188.998 118.323 190.249 119.573 190.249 121.118V156.296H190.248Z" fill="#00BB6F"/>
</g>
<defs>
<clipPath id="clip0_549_495">
<rect width="85.7143" height="85.7143" fill="white" transform="translate(115.714 107.143)"/>
</clipPath>
</defs>
</svg>
