<svg width="100" height="100" viewBox="0 0 100 100" fill="none" xmlns="http://www.w3.org/2000/svg">
<mask id="mask0" mask-type="alpha" maskUnits="userSpaceOnUse" x="0" y="6" width="100" height="89">
<path d="M43.5279 9.73663C46.4044 4.75444 53.5956 4.75444 56.472 9.73663L98.9876 83.3757C101.864 88.3579 98.2685 94.5857 92.5156 94.5857L7.48445 94.5857C1.73151 94.5857 -1.86407 88.3579 1.01239 83.3757L43.5279 9.73663Z" fill="#C4C4C4"/>
</mask>
<g mask="url(#mask0)">
<path fill-rule="evenodd" clip-rule="evenodd" d="M-14.0392 120.201L114.039 120.201L114.039 -7.87726L-14.0392 -7.87725L-14.0392 120.201ZM10.2957 94.5856C10.6431 89.2387 17.7307 81.0511 32.1831 70.3541C48.3382 58.397 47.7012 50.0975 45.5588 46.0399C51.2333 42.7408 63.6246 44.3024 63.6246 61.1393C63.6246 77.9762 85.2805 90.4522 96.1084 94.5856L10.2957 94.5856Z" fill="#00DC82"/>
<ellipse rx="43.9503" ry="32.8743" transform="matrix(-0.960125 0.279571 -0.75312 -0.657883 74.4011 4.26407)" fill="#E0E0E0" fill-opacity="0.5"/>
<ellipse cx="21.9869" cy="9.52762" rx="53.9571" ry="27.6512" transform="rotate(180 21.9869 9.52762)" fill="white" fill-opacity="0.5"/>
</g>
</svg>
