<?xml version="1.0" encoding="UTF-8" standalone="no"?>
<svg
   xmlns:svg="http://www.w3.org/2000/svg"
   xmlns="http://www.w3.org/2000/svg"
   enable-background="new 0 0 91 91"
   height="91px"
   id="Layer_1"
   version="1.1"
   viewBox="0 0 91 91"
   width="91px"
   xml:space="preserve"><g
     id="g1162"><path
       d="M30.35,19.333v2.76h-9.639V32.79v3.4v36.625h44.781c3.595,0,6.519-2.926,6.519-6.52V36.19v-3.4V22.093h-9.64v-2.76h-3.399   v2.76H48.061v-2.76h-3.399v2.76H33.75v-2.76H30.35z M68.61,66.296c0,1.719-1.398,3.119-3.118,3.119H24.111V36.19H68.61V66.296z    M44.661,25.493v2.906h3.399v-2.906h10.911v2.906h3.399v-2.906h6.239v7.297H24.111v-7.297h6.239v2.906h3.4v-2.906H44.661z"
       id="path1148" /><path
       d="M38.073,40.157H27.448v10.625h10.625V40.157z M34.673,47.382h-3.825v-3.824h3.825V47.382z"
       id="path1150" /><path
       d="M51.673,40.157H41.048v10.625h10.625V40.157z M48.273,47.382h-3.825v-3.824h3.825V47.382z"
       id="path1152" /><path
       d="M65.273,40.157H54.648v10.625h10.625V40.157z M61.873,47.382h-3.825v-3.824h3.825V47.382z"
       id="path1154" /><path
       d="M38.073,54.476H27.448v10.625h10.625V54.476z M34.673,61.7h-3.825v-3.826h3.825V61.7z"
       id="path1156" /><path
       d="M51.673,54.476H41.048v10.625h10.625V54.476z M48.273,61.7h-3.825v-3.826h3.825V61.7z"
       id="path1158" /><path
       d="M65.273,54.476H54.648v10.625h10.625V54.476z M61.873,61.7h-3.825v-3.826h3.825V61.7z"
       id="path1160" /></g><path
     style="fill:#52b1ad;stroke-width:0.135417"
     d="M 24.239583,29.182292 V 25.59375 h 3.046875 3.046875 v 1.421875 1.421875 h 1.760417 1.760417 V 27.015625 25.59375 h 5.348958 5.348958 V 27.015625 28.4375 H 46.3125 48.072917 V 27.015625 25.59375 h 5.416666 5.416667 v 1.421875 1.421875 h 1.760417 1.760416 V 27.015625 25.59375 h 3.046875 3.046875 v 3.588542 3.588541 H 46.380208 24.239583 Z"
     id="path1171" /><path
     style="fill:#52b1ad;stroke-width:0.135417"
     d="M 24.239583,52.8125 V 36.291667 h 22.140625 22.140625 l -0.003,15.335937 c -0.0028,14.543613 -0.01572,15.363923 -0.249668,15.877604 -0.317236,0.696557 -1.209586,1.499393 -1.870586,1.682942 -0.354376,0.0984 -7.077483,0.14391 -21.33771,0.144428 l -20.820307,7.55e-4 z M 38.1875,59.786458 V 54.4375 h -5.416667 -5.416666 v 5.348958 5.348959 h 5.416666 5.416667 z m 13.541667,0 V 54.4375 H 46.380208 41.03125 v 5.348958 5.348959 h 5.348958 5.348959 z m 13.677083,0 V 54.4375 h -5.416667 -5.416666 v 5.348958 5.348959 h 5.416666 5.416667 z M 38.1875,45.432292 v -5.348959 h -5.416667 -5.416666 v 5.348959 5.348958 h 5.416666 5.416667 z m 13.541667,0 V 40.083333 H 46.380208 41.03125 v 5.348959 5.348958 h 5.348958 5.348959 z m 13.644801,0.03385 -0.03543,-5.315104 -5.382813,-0.03541 -5.382812,-0.03541 v 5.350512 5.350512 h 5.418239 5.418237 z"
     id="path1173" /><path
     style="fill:#3e6886;fill-opacity:1;stroke-width:0.135417"
     d="M 24.307292,29.182292 V 25.59375 h 2.979166 2.979167 v 1.421875 1.421875 h 1.828125 1.828125 V 27.015625 25.59375 h 5.28125 5.28125 V 27.015625 28.4375 H 46.3125 48.140625 V 27.015625 25.59375 h 5.348958 5.348959 v 1.421875 1.421875 h 1.828125 1.828125 V 27.015625 25.59375 h 2.979166 2.979167 v 3.588542 3.588541 H 46.380208 24.307292 Z"
     id="path1736" /></svg>
