<svg width="100" height="100" viewBox="0 0 100 100" fill="none" xmlns="http://www.w3.org/2000/svg">
<rect width="100" height="100" fill="#003C3C"/>
<path d="M27.7835 49H23.4551V41.4594H17.0431V49H12.6898V30.9422H17.0431V38.1107H23.4551V30.9422H27.7835V49ZM41.7485 41.3478H34.9024V45.6514H42.9888V49H30.5492V30.9422H43.0136V34.3032H34.9024V38.1107H41.7485V41.3478ZM49.1155 45.6514H56.6934V49H44.7623V30.9422H49.1155V45.6514ZM62.8821 45.6514H70.46V49H58.5289V30.9422H62.8821V45.6514ZM86.7938 40.3432C86.7938 42.1043 86.4672 43.6629 85.8141 45.0188C85.1609 46.3748 84.2307 47.4208 83.0235 48.1566C81.8246 48.8842 80.4562 49.248 78.9184 49.248C77.3805 49.248 76.0162 48.8966 74.8256 48.1938C73.635 47.4828 72.7048 46.4699 72.0351 45.1553C71.3736 43.8406 71.0263 42.3317 70.9933 40.6284V39.6114C70.9933 37.842 71.3157 36.2835 71.9606 34.9357C72.6138 33.5798 73.544 32.5338 74.7512 31.7979C75.9666 31.0621 77.3474 30.6941 78.8936 30.6941C80.4232 30.6941 81.7874 31.0579 82.9863 31.7855C84.1852 32.5132 85.1154 33.5508 85.7769 34.8985C86.4466 36.238 86.7856 37.7759 86.7938 39.5122V40.3432ZM82.3662 39.5866C82.3662 37.7924 82.0644 36.4323 81.4608 35.5063C80.8655 34.5719 80.0098 34.1048 78.8936 34.1048C76.7107 34.1048 75.5573 35.7419 75.4333 39.0161L75.4209 40.3432C75.4209 42.1126 75.7144 43.4727 76.3015 44.4235C76.8885 45.3744 77.7608 45.8498 78.9184 45.8498C80.018 45.8498 80.8655 45.3826 81.4608 44.4483C82.0561 43.514 82.3579 42.1704 82.3662 40.4176V39.5866ZM25.2411 61.1299L27.0465 51.2598H30.8086L27.4681 67H23.5331L21.425 58.0272L19.3602 67H15.436L12.0847 51.2598H15.8576L17.6629 61.1299L19.8251 51.2598H23.0466L25.2411 61.1299ZM45.619 59.4542C45.619 60.9893 45.3343 62.3479 44.765 63.5298C44.1956 64.7118 43.3848 65.6235 42.3326 66.2649C41.2876 66.8991 40.0948 67.2162 38.7543 67.2162C37.4138 67.2162 36.2246 66.9099 35.1868 66.2973C34.149 65.6775 33.3382 64.7946 32.7545 63.6487C32.1779 62.5028 31.8752 61.1875 31.8464 59.7029V58.8164C31.8464 57.2741 32.1275 55.9156 32.6896 54.7408C33.259 53.5589 34.0697 52.6472 35.122 52.0058C36.1814 51.3643 37.385 51.0436 38.7327 51.0436C40.066 51.0436 41.2552 51.3607 42.3002 51.995C43.3452 52.6292 44.156 53.5337 44.7325 54.7084C45.3163 55.8759 45.6118 57.2165 45.619 58.7299V59.4542ZM41.7596 58.7948C41.7596 57.2309 41.4966 56.0453 40.9705 55.2381C40.4516 54.4237 39.7056 54.0165 38.7327 54.0165C36.83 54.0165 35.8247 55.4435 35.7166 58.2975L35.7057 59.4542C35.7057 60.9965 35.9616 62.1821 36.4733 63.0109C36.985 63.8397 37.7453 64.2541 38.7543 64.2541C39.7129 64.2541 40.4516 63.8469 40.9705 63.0325C41.4894 62.2181 41.7524 61.047 41.7596 59.5191V58.7948ZM53.4242 61.4434H51.3702V67H47.5757V51.2598H53.7702C55.6368 51.2598 57.0962 51.6742 58.1484 52.5031C59.2007 53.3319 59.7268 54.503 59.7268 56.0165C59.7268 57.112 59.5034 58.02 59.0565 58.7407C58.6169 59.4614 57.925 60.0452 56.9809 60.4921L60.2673 66.8378V67H56.2025L53.4242 61.4434ZM51.3702 58.5137H53.7702C54.4909 58.5137 55.0314 58.3263 55.3917 57.9516C55.7593 57.5696 55.9431 57.0399 55.9431 56.3624C55.9431 55.685 55.7593 55.1552 55.3917 54.7733C55.0242 54.3841 54.4837 54.1895 53.7702 54.1895H51.3702V58.5137ZM65.8131 64.0812H72.4184V67H62.0186V51.2598H65.8131V64.0812ZM74.0183 67V51.2598H79.0885C80.4794 51.2598 81.7298 51.577 82.8397 52.2112C83.9496 52.8382 84.8145 53.7283 85.4343 54.8814C86.0613 56.0273 86.3784 57.3138 86.3856 58.7407V59.465C86.3856 60.9065 86.0793 62.2001 85.4667 63.346C84.8613 64.4847 84.0037 65.3784 82.8938 66.0271C81.7911 66.6685 80.5587 66.9928 79.1966 67H74.0183ZM77.8128 54.1895V64.0812H79.1317C80.22 64.0812 81.056 63.6956 81.6398 62.9244C82.2235 62.1461 82.5154 60.9929 82.5154 59.465V58.784C82.5154 57.2633 82.2235 56.1174 81.6398 55.3462C81.056 54.5751 80.2056 54.1895 79.0885 54.1895H77.8128Z" fill="white"/>
</svg>
