<svg xmlns="http://www.w3.org/2000/svg" enable-background="new 0 0 394 102" height="102" viewBox="0 0 394 102" width="394"><path d="m15.79 37.6c0 3.77-.5 6.6-1.5 8.49s-2.85 3.56-5.54 5.02c2.62 1.39 4.45 3.1 5.48 5.14 1.04 2.04 1.56 4.87 1.56 8.49v18.59c0 4.23.73 7.02 2.19 8.37s4.43 2.02 8.89 2.02v7.28h-3.35c-5.85 0-10.01-1.29-12.47-3.87s-3.7-6.95-3.7-13.11v-19.05c0-3.31-.5-5.77-1.5-7.39s-2.7-2.73-5.08-3.35v-6.81c4.39-1.23 6.58-4.66 6.58-10.28v-20.32c0-5.62 1.29-9.66 3.87-12.12 2.59-2.47 6.72-3.7 12.42-3.7h3.23v7.27c-4.47.08-7.43.77-8.89 2.08s-2.19 3.97-2.19 7.97z" fill="#2f495e"/><g fill="#00c58e"><path d="m46.07 74.38c0 1.09-.47 2.09-1.4 3.02 1.4 1.03 2.83 1.55 4.29 1.55 2.92 0 5.01-.85 6.29-2.56 1.27-1.71 1.91-4.45 1.91-8.22l.08-24.35c0-4.55-.13-7.35-.39-8.41s-.96-1.59-2.11-1.59c-.57 0-1.31.1-2.19.31-.47.16-.94.23-1.41.23-1.67 0-2.5-.83-2.5-2.48 0-1.71 1.09-2.56 3.26-2.56.78 0 1.45.03 2.02.08 1.65.16 2.82.23 3.49.23.41 0 1.06-.06 1.94-.19s1.52-.19 1.94-.19c1.5 0 2.25.83 2.25 2.48 0 .26-.03.78-.08 1.55-.05.93-.08 1.68-.08 2.25-.05.83-.13 2.69-.23 5.58-.1 3.26-.16 5.77-.16 7.52v17.53c0 3.1-.13 5.4-.39 6.9-.47 2.43-1.4 4.5-2.79 6.2-2.48 3-5.95 4.5-10.39 4.5-3.1 0-5.69-.78-7.76-2.33s-3.1-3.49-3.1-5.82c0-1.29.38-2.37 1.12-3.22.75-.85 1.69-1.28 2.83-1.28.98 0 1.82.32 2.52.97.69.66 1.04 1.42 1.04 2.3zm13.02-49.17c-1.19 0-2.21-.43-3.06-1.28s-1.28-1.87-1.28-3.06.43-2.2 1.28-3.02c.85-.83 1.87-1.24 3.06-1.24s2.22.43 3.1 1.28 1.32 1.85 1.32 2.99c0 1.19-.44 2.21-1.32 3.06-.87.85-1.91 1.27-3.1 1.27z"/><path d="m91.46 27.93c3.45 0 6.34.91 8.66 2.71v-.31c0-1.91.83-2.87 2.48-2.87 1.71 0 2.56.83 2.56 2.48 0 .31-.04 1.09-.13 2.33-.17 1.03-.26 2.07-.26 3.1 0 .62.06 1.53.19 2.71.13 1.19.19 2.09.19 2.71 0 1.97-.84 2.95-2.52 2.95-1.63 0-2.47-.83-2.52-2.48v-2.56c-.05-1.55-.94-2.88-2.68-3.99-1.73-1.11-3.76-1.67-6.09-1.67-2.38 0-4.37.61-5.97 1.82-1.6 1.22-2.4 2.73-2.4 4.54 0 3.31 2.27 5.27 6.82 5.89l4.5.62c8.79 1.19 13.18 4.83 13.18 10.94 0 3.72-1.42 6.73-4.25 9.03-2.84 2.3-6.55 3.45-11.13 3.45-4.28 0-7.99-1.22-11.13-3.64v1.47c0 1.86-.88 2.79-2.64 2.79-1.91 0-2.87-1.06-2.87-3.18 0 .36.16-.98.47-4.03.1-.72.16-1.45.16-2.17 0-1.24-.1-2.4-.31-3.49s-.31-1.94-.31-2.56c0-1.81.83-2.71 2.48-2.71 1.09 0 1.77.26 2.06.78.28.52.45 1.89.5 4.11s1.21 4.03 3.49 5.43c2.27 1.4 5.17 2.09 8.69 2.09 2.53 0 4.63-.65 6.28-1.94s2.48-2.92 2.48-4.89c0-3.52-2.79-5.56-8.38-6.13-5.33-.57-9.38-1.62-12.18-3.14-2.79-1.52-4.19-4.2-4.19-8.03 0-3.62 1.37-6.55 4.1-8.8 2.74-2.24 6.29-3.36 10.67-3.36z"/><path d="m133.39 69.34c-5.43 0-9.77-1.87-13.03-5.62s-4.89-8.78-4.89-15.08c0-6.31 1.64-11.33 4.92-15.08s7.69-5.62 13.22-5.62c5.63 0 10.08 1.84 13.34 5.51s4.89 8.66 4.89 14.97-1.68 11.37-5.04 15.2c-3.36 3.81-7.83 5.72-13.41 5.72zm.39-36.3c-3.62 0-6.46 1.27-8.53 3.8s-3.21 6.13-3.41 10.78v1.01c0 4.86 1.02 8.67 3.06 11.44s4.9 4.15 8.57 4.15c3.77 0 6.73-1.38 8.88-4.15 2.14-2.77 3.22-6.6 3.22-11.52-.01-10.33-3.94-15.51-11.79-15.51z"/><path d="m172.01 31.61v2.21c3.1-3.93 7.24-5.89 12.41-5.89 2.79 0 5.43.71 7.91 2.13s4.16 3.19 5.04 5.31c.72 1.76 1.09 4.06 1.09 6.9v14.74c0 2.22.03 3.54.08 3.95.26 1.76.96 2.64 2.09 2.64.47 0 1.07-.06 1.82-.19s1.28-.19 1.59-.19c.67 0 1.25.23 1.74.7s.74 1.04.74 1.71c0 .78-.31 1.42-.93 1.94s-1.37.78-2.25.78c-.72 0-1.91-.1-3.57-.31s-3.21-.31-4.65-.31c-1.35 0-2.46.05-3.33.16-2.59.31-3.96.47-4.11.47-2.07 0-3.1-.9-3.1-2.71 0-1.6.9-2.4 2.69-2.4.42 0 .9.05 1.42.16 1 .21 1.63.31 1.9.31 1.27 0 1.95-1.42 2.06-4.27v-3.95-4.73-5.89c0-2.74-.13-4.63-.39-5.66-.46-1.96-1.47-3.49-3.01-4.58-1.7-1.19-3.63-1.78-5.79-1.78-4.12 0-7.08 1.47-8.88 4.42-1.24 2.02-1.85 5.45-1.85 10.31v10.31c0 2.28.16 3.83.47 4.65.31.83.88 1.24 1.71 1.24.41 0 .98-.09 1.71-.27.72-.18 1.32-.27 1.78-.27 1.6 0 2.4.87 2.4 2.6 0 1.68-1.03 2.52-3.1 2.52-.41 0-1.76-.16-4.03-.47-1.14-.16-2.4-.23-3.8-.23-1.09 0-2.53.1-4.34.31-2.28.26-3.57.39-3.88.39-2.17 0-3.26-.88-3.26-2.64 0-1.65.84-2.48 2.53-2.48.26 0 .75.08 1.46.23.71.16 1.41.23 2.09.23 1.58 0 2.4-1.5 2.45-4.5v-8.61-9.38-2.71c-.11-1.76-.33-2.96-.67-3.61s-.94-.97-1.78-.97c-.37 0-.91.07-1.62.19-.71.13-1.25.19-1.62.19-1.9 0-2.84-.83-2.84-2.48 0-1.71 1.16-2.56 3.49-2.56.31 0 .57.03.78.08l2.87.31c.83 0 1.55-.06 2.17-.19 1.34-.13 2.04-.19 2.09-.19 1.47-.04 2.22.75 2.22 2.33z"/></g><path d="m219.32 43.13c-1.35 0-2.48-.48-3.41-1.43-.93-.96-1.4-2.11-1.4-3.45s.47-2.49 1.4-3.45 2.07-1.43 3.41-1.43 2.48.48 3.41 1.43c.93.96 1.4 2.11 1.4 3.45s-.47 2.49-1.4 3.45c-.93.95-2.07 1.43-3.41 1.43zm0 26.21c-1.35 0-2.48-.48-3.41-1.43-.93-.96-1.4-2.11-1.4-3.45s.47-2.49 1.4-3.45 2.07-1.43 3.41-1.43 2.48.48 3.41 1.43c.93.96 1.4 2.11 1.4 3.45 0 1.35-.47 2.5-1.4 3.45s-2.07 1.43-3.41 1.43z" fill="#2f495e"/><path d="m268.56 69.03c-4.24 0-6.85-1.83-7.83-5.51-2.64 3.88-6.77 5.82-12.41 5.82-4.19 0-7.54-1.03-10.04-3.1-2.51-2.07-3.76-4.83-3.76-8.3 0-4.29 1.83-7.45 5.51-9.46 1.4-.78 2.6-1.28 3.61-1.51s3.04-.53 6.09-.89c4.34-.47 7.17-1.11 8.49-1.94s1.98-2.35 1.98-4.58c0-2.12-.74-3.79-2.21-5s-3.53-1.82-6.17-1.82c-2.33 0-4.5.65-6.51 1.94-.78.52-1.16 1.06-1.16 1.63 0 .21.23.47.7.78.72.52 1.09 1.4 1.09 2.64 0 1.03-.38 1.89-1.12 2.56-.75.67-1.69 1.01-2.83 1.01-1.35 0-2.47-.47-3.37-1.4-.91-.93-1.36-2.07-1.36-3.41 0-2.89 1.43-5.38 4.3-7.45s6.35-3.1 10.43-3.1c9.41 0 14.11 4.51 14.11 13.54v15.62c0 2.48.05 3.95.16 4.41.31 1.81 1.19 2.71 2.64 2.71 1.81 0 2.71-1.64 2.71-4.93v-3.77c0-1.64.79-2.46 2.37-2.46 1.68 0 2.52 1.24 2.52 3.72v.39 4.42c-.13 4.96-2.77 7.44-7.94 7.44zm-8.61-15.43v-5.51c-1.13 1.03-2.33 1.76-3.59 2.17s-3.52.78-6.76 1.09c-5.87.57-8.81 2.74-8.81 6.51 0 1.97.71 3.52 2.13 4.65 1.42 1.14 3.35 1.71 5.78 1.71 3.46 0 6.19-.94 8.18-2.83 2-1.89 3.02-4.48 3.07-7.79z" fill="#108775"/><path d="m293.07 31.49v2.48c2.9-4.03 6.85-6.05 11.87-6.05 5.17 0 9.28 1.78 12.33 5.35s4.58 8.4 4.58 14.5c0 6.57-1.62 11.8-4.85 15.7s-7.56 5.86-12.99 5.86c-4.5 0-8.14-1.58-10.94-4.73v6.44c0 1.96.05 3.23.15 3.8.31 1.6 1.06 2.4 2.25 2.4.36 0 .9-.08 1.63-.23.72-.16 1.27-.23 1.63-.23 1.65 0 2.48.85 2.48 2.56s-1.08 2.56-3.25 2.56c-.77 0-1.93-.1-3.48-.31-1.13-.16-2.83-.23-5.1-.23-1.24 0-2.27.05-3.09.16-2.06.26-3.43.39-4.1.39-.88 0-1.62-.27-2.24-.8-.62-.54-.93-1.16-.93-1.87 0-1.63.87-2.44 2.61-2.44.31 0 .79.07 1.46.2.87.18 1.51.27 1.92.27.97 0 1.58-.5 1.81-1.51s.37-3.81.42-8.41v-29.96c-.05-2.38-.72-3.57-2-3.57-.36 0-.91.09-1.65.27s-1.32.27-1.73.27c-1.9 0-2.84-.85-2.84-2.56 0-1.65 1.14-2.48 3.41-2.48.57 0 1.19.03 1.86.08 1.29.1 2.25.16 2.87.16.47 0 1.14-.04 2.02-.12s1.52-.12 1.94-.12c1.3 0 1.95.73 1.95 2.17zm1.16 9.46c-.47 2.02-.72 4.47-.78 7.37 0 .21-.03.6-.08 1.16v1.09c0 3.46.28 5.99.85 7.56.57 1.58 1.69 2.99 3.37 4.23s3.76 1.86 6.24 1.86c3.72 0 6.6-1.36 8.65-4.07 2.04-2.71 3.06-6.58 3.06-11.59 0-10.34-3.67-15.51-11.01-15.51-2.48 0-4.69.75-6.63 2.25-1.92 1.49-3.15 3.38-3.67 5.65z" fill="#108775"/><path d="m342.55 45.53v10.08c0 2.59.03 4.11.08 4.58.26 2.33.96 3.49 2.09 3.49.26 0 .9-.13 1.94-.39.26-.1.65-.16 1.16-.16 1.96 0 2.95.85 2.95 2.56 0 .72-.32 1.35-.97 1.86-.65.52-1.47.78-2.45.78-.83 0-2.09-.12-3.77-.35-1.69-.23-2.94-.35-3.77-.35-1.35 0-2.85.1-4.51.31-2.02.26-3.37.39-4.05.39-2.08 0-3.11-.88-3.11-2.64 0-1.71.89-2.56 2.66-2.56.42 0 1.03.08 1.84.23.81.16 1.42.23 1.84.23 1.25 0 2.01-1.65 2.27-4.96 0-.21 0-2.45 0-6.75v-6.36c0-4.29 0-6.54 0-6.75-.26-3.26-1.04-4.89-2.35-4.89-.42 0-1.01.09-1.76.27-.76.18-1.32.27-1.68.27-1.88 0-2.82-.83-2.82-2.48 0-1.76 1.14-2.64 3.41-2.64.98 0 1.68.03 2.09.08 1.65.21 2.71.31 3.18.31.41 0 1.05-.06 1.9-.19s1.49-.19 1.9-.19c1.5 0 2.25 1.01 2.25 3.02 0 .21-.02.52-.06.93s-.06.72-.06.93c-.04.41-.08 2.02-.12 4.81-.06 2.14-.08 4.31-.08 6.53zm-4.04-20.32c-1.19 0-2.21-.43-3.06-1.28s-1.28-1.87-1.28-3.06.43-2.2 1.28-3.02c.85-.83 1.87-1.24 3.06-1.24s2.21.41 3.06 1.24 1.28 1.84 1.28 3.02c0 1.19-.43 2.21-1.28 3.06-.85.86-1.87 1.28-3.06 1.28z" fill="#108775"/><path d="m378.21 64.4c0-3.7.5-6.51 1.5-8.43s2.85-3.62 5.54-5.08c-2.62-1.39-4.45-3.1-5.48-5.14-1.04-2.04-1.56-4.87-1.56-8.49v-18.59c0-4.23-.73-7.02-2.19-8.37s-4.43-2.02-8.89-2.02v-7.28h3.23c5.85 0 10.03 1.29 12.53 3.87s3.75 6.95 3.75 13.11v19.05c0 6.08 2.19 9.66 6.58 10.74v6.81c-4.39 1.23-6.58 4.66-6.58 10.28v20.32c0 5.62-1.27 9.66-3.81 12.12s-6.7 3.69-12.47 3.69h-3.23v-7.27c4.46-.08 7.43-.77 8.89-2.08s2.19-3.97 2.19-7.97z" fill="#2f495e"/></svg>