<svg version="1.1" xmlns="http://www.w3.org/2000/svg" xmlns:xlink="http://www.w3.org/1999/xlink" x="0px" y="0px" width="40" height="40" viewBox="0 0 64 88" style="enable-background:new 0 0 64 88;" xml:space="preserve">
<style type="text/css">
	.st0{fill:#0DC54C;}
	.st1{fill:#08962D;}
	.st2{fill:#FDFFFF;}
</style>
<g id="Layer_4">
	<path class="st0" d="M58,88H6c-3.3,0-6-2.7-6-6V6c0-3.3,2.7-6,6-6h36l22,22v60C64,85.3,61.3,88,58,88z"/>
	<path class="st1" d="M42,0l22,22H42V0z"/>
	<path class="st2" d="M12,34.5v28h40v-28H12z M17,39.5h12.5V46H17V39.5z M17,51h12.5v6.5H17V51z M47,57.5H34.5V51H47V57.5z M47,46   H34.5v-6.5H47V46z"/>
</g>
</svg>
