<?xml version="1.0" encoding="UTF-8" standalone="no"?>
<svg
   xmlns:svg="http://www.w3.org/2000/svg"
   xmlns="http://www.w3.org/2000/svg"
   version="1.1"
   width="512"
   height="512"
   viewBox="0 0 512 512">
  <g
     inkscape:groupmode="layer"
     inkscape:label="Image"
     id="g198">
    <g
       id="g216"
       transform="translate(0.6484386,0.6732235)">
      <path
         style="fill:#fefefe"
         d="M 0,256 V 0 H 256 512 V 256 512 H 256 0 Z m 286.5,250.9066 c 29.54859,-2.962 57.14878,-11.10517 84.80306,-25.02031 C 471.31355,431.56278 526.31448,321.26255 505.94773,211.86653 496.40176,160.59224 469.79761,111.57679 432.14831,75.898581 396.39924,42.021126 352.04247,19.384643 304,10.500975 276.89603,5.4891025 241.20853,5.4988614 213.80519,10.52564 173.99547,17.828204 134.22531,36.026812 102.5,61.458283 61.689395,94.172659 31.372377,139.55802 17.637258,188.5 -9.9292814,286.72712 23.104296,389.89696 102.5,453.54172 c 13.46533,10.794 29.27964,20.81853 45.60732,28.90999 43.46099,21.53786 88.35434,29.47081 138.39268,24.45489 z M 236.71711,478.88337 C 194.76419,474.84072 148.72338,455.3308 116.37378,427.88754 75.552547,393.2575 49.677491,348.20737 39.761136,294.5 c -1.908438,-10.33617 -2.215641,-15.4663 -2.215641,-37 0,-21.5337 0.307203,-26.66383 2.215641,-37 C 44.14327,196.76619 50.070139,178.75375 60.073338,158.76886 71.764064,135.41254 83.000171,119.89088 101.94292,100.92983 121.93517,80.918272 137.54387,69.653896 161.5,57.949102 198.5995,39.822556 239.7768,32.190107 279.57632,36.062977 376.6838,45.512454 457.09173,117.33204 476.55229,212 480.07051,229.11474 481,238.62339 481,257.5 c 0,18.87661 -0.92949,28.38526 -4.44771,45.5 -13.6669,66.48409 -57.88045,123.36974 -119.64732,153.93956 -36.78925,18.20783 -78.99318,25.91339 -120.18786,21.94381 z m 30.44512,-27.504 c 1.46422,-0.73697 6.85578,-1.815 11.98125,-2.39562 39.16201,-4.43633 77.22498,-21.54482 106.19808,-47.73375 5.46419,-4.9391 8.81984,-7.25 10.52772,-7.25 C 401.71392,394 408,386.75714 408,380.02291 c 0,-2.2076 1.32263,-4.90345 4.3414,-8.84887 18.40266,-24.05157 32.8411,-61.88806 35.26674,-92.41792 0.57948,-7.29346 0.98809,-8.58838 3.50441,-11.10571 5.72024,-5.72254 5.72194,-14.58393 0.004,-20.2905 -2.52504,-2.51997 -3.00919,-4.02813 -4.0732,-12.68816 -4.41407,-35.92649 -21.76293,-74.36781 -45.29324,-100.36001 -5.5184,-6.09577 -5.75,-6.57093 -5.75,-11.79687 0,-4.64418 -0.44871,-5.95633 -3.04998,-8.91902 -3.62056,-4.12358 -8.58567,-5.99168 -13.72075,-5.16236 -3.40512,0.54993 -4.50487,0.0449 -12.65245,-5.81021 C 343.88428,86.315662 314.1412,74.657575 284.26467,70.36024 273.75978,68.849254 272.37278,68.408043 270.26936,65.908269 265.21112,59.896895 256.50153,59.745228 250.06913,65.556506 247.67146,67.722665 245.23734,69 243.50714,69 c -1.51276,0 -7.53322,0.703068 -13.3788,1.562373 -36.03057,5.296516 -67.59473,19.62407 -96.10812,43.625247 -5.36353,4.51476 -7.64353,5.81321 -10.21266,5.81612 -6.92569,0.008 -12.80425,6.24204 -13.2031,14.00187 -0.14535,2.82796 -1.74549,5.82047 -6.73821,12.60153 -19.866992,26.98311 -32.213978,58.58048 -35.826412,91.68396 -0.683578,6.26415 -1.545791,9.53666 -2.999585,11.38486 -2.736051,3.47832 -2.828165,12.05182 -0.16588,15.43918 1.24772,1.58754 2.103236,4.89231 2.55892,9.88486 3.849855,42.17967 19.479512,78.75469 47.171037,110.38513 3.90737,4.46318 7.42597,9.1298 7.8191,10.37027 1.21161,3.82313 5.46084,8.0524 9.3593,9.31535 2.0445,0.66234 7.97084,4.32572 13.16964,8.14084 28.08469,20.60981 59.00935,32.51488 93.04763,35.82054 6.325,0.61426 12.4,1.61069 13.5,2.21429 5.04443,2.768 10.33762,2.81293 15.66223,0.13295 z"
         id="path232" />
      <path
         style="fill:#fbe296"
         d="m 231.90743,448.48455 c -32.25857,-4.40323 -61.26239,-16.2365 -87.59011,-35.7359 l -8.26784,-6.1235 3.30384,-1.13581 c 1.81712,-0.62469 4.19994,-1.77785 5.29516,-2.56257 3.38239,-2.42348 29.42826,-31.25108 31.07225,-34.39081 5.15006,-9.8357 -2.5949,-21.37903 -13.63259,-20.31845 -2.63118,0.25282 -5.8649,1.28885 -7.18605,2.30229 -3.20052,2.45507 -30.0708,32.0342 -31.61665,34.804 -0.66802,1.19691 -1.25,3.5262 -1.2933,5.1762 l -0.0787,3 -5.04701,-5.5 C 88.560983,357.15409 71.363037,317.92224 67.466431,275.30908 l -0.657547,-7.19092 3.807,1.94092 C 74.051007,271.81041 76.626025,272 96.977044,272 c 24.759166,0 27.041666,-0.46568 31.490776,-6.42477 2.81138,-3.76555 2.81138,-12.38491 0,-16.15046 C 124.01871,243.46568 121.73621,243 96.977044,243 c -20.138905,0 -22.950975,0.20231 -26.259701,1.88919 l -3.70554,1.88919 0.461971,-3.63919 c 2.107925,-16.60523 3.063505,-22.05296 5.589723,-31.86687 6.175567,-23.99096 16.903907,-46.33465 31.663013,-65.9439 5.53676,-7.35625 5.65651,-7.44501 6.88384,-5.10258 1.22872,2.34511 30.53346,29.75363 35.36216,33.07399 3.37725,2.3223 10.70655,2.19325 14.72894,-0.25935 5.72671,-3.49177 8.07151,-11.34597 5.34927,-17.91802 -1.44062,-3.47797 -33.03071,-32.77455 -36.99449,-34.30862 l -2.55623,-0.98931 4,-3.54993 C 152.89274,97.288975 182.88755,81.27195 209.5,74.623131 219.78584,72.05333 238.40933,69 243.79773,69 c 2.97638,0 3.02107,0.07238 2.10146,3.402922 -0.56418,2.0433 -0.83163,40.570318 -0.66939,96.427058 0.26776,92.18266 0.28885,93.0491 2.33199,95.78529 1.13398,1.51863 3.30402,3.68896 4.8223,4.82294 2.68095,2.00236 4.07708,2.06941 48.43821,2.32607 41.97761,0.24288 45.9596,0.12137 49.15777,-1.5 10.57653,-5.36196 10.57653,-20.19889 0,-25.51273 -3.1216,-1.56834 -7.21406,-1.7486 -39.73007,-1.75 L 274,243 v -85.41821 c 0,-46.98002 -0.28862,-86.170349 -0.64138,-87.089623 -0.57191,-1.490376 -0.003,-1.59642 5.25,-0.979072 22.52597,2.647181 44.43173,9.22921 64.89138,19.497927 13.64493,6.848404 33.78163,20.061768 31.65416,20.770928 -1.8278,0.60926 -30.8268,32.68433 -32.5332,35.98415 -5.93324,11.47361 6.93192,24.49542 18.84023,19.06963 2.31864,-1.05644 28.91738,-29.25502 32.73085,-34.69952 l 1.59541,-2.27776 4.61753,4.93652 c 24.77094,26.48213 43.33506,68.01572 47.14396,105.4754 l 0.68842,6.77037 -2.68378,-1.02037 C 444.02425,243.43892 433.41722,243 420.89506,243 c -20.21004,0 -22.2988,0.16532 -26.01006,2.05867 -4.10341,2.0934 -7.84108,8.0239 -7.84108,12.44133 0,4.41743 3.73767,10.34793 7.84108,12.44133 3.71126,1.89335 5.80002,2.05867 26.01006,2.05867 12.68784,0 23.12219,-0.43626 24.68985,-1.03228 l 2.71511,-1.03228 -0.64582,8.40182 c -2.33234,30.34296 -16.57298,68.00455 -34.94321,92.41274 -3.94963,5.2478 -5.71099,6.44827 -5.71099,3.89236 0,-2.05004 -30.98376,-31.34154 -36.34183,-34.35692 -6.07779,-3.42043 -15.4888,-0.0682 -18.90662,6.73449 -4.14785,8.25579 -1.91268,12.35537 15.24845,27.96762 6.875,6.2545 13.90614,12.67461 15.62477,14.26692 1.71862,1.5923 4.71423,3.44153 6.65691,4.10939 l 3.53215,1.2143 -8.15692,7.2557 C 372.42737,412.71223 360.02635,421.173 345,428.89033 c -22.90056,11.76142 -42.32421,17.49399 -69.7568,20.58755 l -5.25679,0.59281 2.00306,-3.28535 c 1.85917,-3.04934 2.00332,-5.03677 2.00679,-27.66731 0.004,-23.0144 -0.11385,-24.57223 -2.0928,-27.77424 -5.39779,-8.7338 -17.88259,-8.79026 -24.07462,-0.10888 -2.28726,3.2068 -2.32884,3.70546 -2.32884,27.93131 0,24.10737 0.0517,24.73609 2.27994,27.75 l 2.27993,3.08378 -4.27993,-0.10304 c -2.35397,-0.0567 -8.5966,-0.69226 -13.87251,-1.41241 z"
         id="path230" />
      <path
         style="fill:#cfbb81"
         d="m 245.42476,419 c 0,-11.825 0.14466,-16.6625 0.32145,-10.75 0.1768,5.9125 0.1768,15.5875 0,21.5 -0.17679,5.9125 -0.32145,1.075 -0.32145,-10.75 z M 137.8125,405.31689 c 0.72187,-0.28887 1.58437,-0.25335 1.91667,0.0789 0.33229,0.33229 -0.25834,0.56864 -1.3125,0.52522 -1.16495,-0.048 -1.4019,-0.28494 -0.60417,-0.60416 z M 156.5,390 c 0.99549,-1.1 2.03498,-2 2.30998,-2 0.275,0 -0.31449,0.9 -1.30998,2 -0.99549,1.1 -2.03498,2 -2.30998,2 -0.275,0 0.31449,-0.9 1.30998,-2 z m 112.37244,-1.75 c -1.24387,-1.58606 -1.2085,-1.62143 0.37756,-0.37756 1.66575,1.30637 2.19548,2.12756 1.37244,2.12756 -0.20765,0 -0.99515,-0.7875 -1.75,-1.75 z m 107.53255,-4.5 -1.90499,-2.25 2.25,1.90499 c 2.11444,1.79022 2.70524,2.59501 1.90499,2.59501 -0.18976,0 -1.20226,-1.0125 -2.25,-2.25 z M 167.5,378 c 0.99549,-1.1 2.03498,-2 2.30998,-2 0.275,0 -0.31449,0.9 -1.30998,2 -0.99549,1.1 -2.03498,2 -2.30998,2 -0.275,0 0.31449,-0.9 1.30998,-2 z m -35,-4 c 0.99549,-1.1 2.03498,-2 2.30998,-2 0.275,0 -0.31449,0.9 -1.30998,2 -0.99549,1.1 -2.03498,2 -2.30998,2 -0.275,0 0.31449,-0.9 1.30998,-2 z m 231.90499,-1.25 -1.90499,-2.25 2.25,1.90499 c 1.2375,1.04774 2.25,2.06024 2.25,2.25 0,0.80025 -0.80479,0.20945 -2.59501,-1.90499 z M 143,362.5 c 1.29175,-1.375 2.57363,-2.5 2.84863,-2.5 0.275,0 -0.55688,1.125 -1.84863,2.5 -1.29175,1.375 -2.57363,2.5 -2.84863,2.5 -0.275,0 0.55688,-1.125 1.84863,-2.5 z m 249.40499,-2.75 -1.90499,-2.25 2.25,1.90499 c 2.11444,1.79022 2.70524,2.59501 1.90499,2.59501 -0.18976,0 -1.20226,-1.0125 -2.25,-2.25 z m -219.53255,-7.5 c -1.24387,-1.58606 -1.2085,-1.62143 0.37756,-0.37756 1.66575,1.30637 2.19548,2.12756 1.37244,2.12756 -0.20765,0 -0.99515,-0.7875 -1.75,-1.75 z m 208.53255,-2.5 -1.90499,-2.25 2.25,1.90499 c 1.2375,1.04774 2.25,2.06024 2.25,2.25 0,0.80025 -0.80479,0.20945 -2.59501,-1.90499 z M 85.25,271.25323 c 6.4625,-0.17418 17.0375,-0.17418 23.5,0 6.4625,0.17419 1.175,0.3167 -11.75,0.3167 -12.925,0 -18.2125,-0.14251 -11.75,-0.3167 z m 194,-0.002 c 12.5125,-0.15868 32.9875,-0.15868 45.5,0 12.5125,0.15868 2.275,0.28851 -22.75,0.28851 -25.025,0 -35.2625,-0.12983 -22.75,-0.28851 z m 130,0.002 c 6.4625,-0.17418 17.0375,-0.17418 23.5,0 6.4625,0.17419 1.175,0.3167 -11.75,0.3167 -12.925,0 -18.2125,-0.14251 -11.75,-0.3167 z M 390.87244,267.25 c -1.24387,-1.58606 -1.2085,-1.62143 0.37756,-0.37756 1.66575,1.30637 2.19548,2.12756 1.37244,2.12756 -0.20765,0 -0.99515,-0.7875 -1.75,-1.75 z m -3.67749,-9.75 c 0.0204,-1.65 0.2445,-2.20394 0.49804,-1.23097 0.25354,0.97297 0.23687,2.32297 -0.0371,3 -0.27393,0.67703 -0.48137,-0.11903 -0.46099,-1.76903 z m -141.71531,-91 c 5e-5,-51.15 0.12163,-71.928451 0.27017,-46.17434 0.14853,25.75412 0.14849,67.60412 -1.1e-4,93 -0.14859,25.39589 -0.27012,4.32434 -0.27006,-46.82566 z M 390,248.62244 c 0,-0.20765 0.7875,-0.99515 1.75,-1.75 1.58606,-1.24387 1.62143,-1.2085 0.37756,0.37756 C 390.82119,248.91575 390,249.44548 390,248.62244 Z m -272.1875,-5.30555 c 0.72187,-0.28887 1.58437,-0.25335 1.91667,0.0789 0.33229,0.33229 -0.25834,0.56864 -1.3125,0.52522 -1.16495,-0.048 -1.4019,-0.28494 -0.60417,-0.60416 z m 227,0 c 0.72187,-0.28887 1.58438,-0.25335 1.91667,0.0789 0.33229,0.33229 -0.25834,0.56864 -1.3125,0.52522 -1.16495,-0.048 -1.4019,-0.28494 -0.60417,-0.60416 z m 54,0 c 0.72187,-0.28887 1.58438,-0.25335 1.91667,0.0789 0.33229,0.33229 -0.25834,0.56864 -1.3125,0.52522 -1.16495,-0.048 -1.4019,-0.28494 -0.60417,-0.60416 z M 163.5,171 c 0.99549,-1.1 2.03498,-2 2.30998,-2 0.275,0 -0.31449,0.9 -1.30998,2 -0.99549,1.1 -2.03498,2 -2.30998,2 -0.275,0 0.31449,-0.9 1.30998,-2 z m -21.09501,-1.25 -1.90499,-2.25 2.25,1.90499 c 2.11444,1.79022 2.70524,2.59501 1.90499,2.59501 -0.18976,0 -1.20226,-1.0125 -2.25,-2.25 z m -11,-10 -1.90499,-2.25 2.25,1.90499 c 2.11444,1.79022 2.70524,2.59501 1.90499,2.59501 -0.18976,0 -1.20226,-1.0125 -2.25,-2.25 z M 368.5,158 c 0.99549,-1.1 2.03498,-2 2.30998,-2 0.275,0 -0.31449,0.9 -1.30998,2 -0.99549,1.1 -2.03498,2 -2.30998,2 -0.275,0 0.31449,-0.9 1.30998,-2 z M 119.40499,148.75 117.5,146.5 l 2.25,1.90499 c 2.11444,1.79022 2.70524,2.59501 1.90499,2.59501 -0.18976,0 -1.20226,-1.0125 -2.25,-2.25 z m 40,-2 -1.90499,-2.25 2.25,1.90499 c 2.11444,1.79022 2.70524,2.59501 1.90499,2.59501 -0.18976,0 -1.20226,-1.0125 -2.25,-2.25 z M 379.5,146 c 0.99549,-1.1 2.03498,-2 2.30998,-2 0.275,0 -0.31449,0.9 -1.30998,2 -0.99549,1.1 -2.03498,2 -2.30998,2 -0.275,0 0.31449,-0.9 1.30998,-2 z m -34,-5 c 0.99549,-1.1 2.03498,-2 2.30998,-2 0.275,0 -0.31449,0.9 -1.30998,2 -0.99549,1.1 -2.03498,2 -2.30998,2 -0.275,0 0.31449,-0.9 1.30998,-2 z M 147.40499,135.75 145.5,133.5 l 2.25,1.90499 c 2.11444,1.79022 2.70524,2.59501 1.90499,2.59501 -0.18976,0 -1.20226,-1.0125 -2.25,-2.25 z M 389.5,135 c 0.99549,-1.1 2.03498,-2 2.30998,-2 0.275,0 -0.31449,0.9 -1.30998,2 -0.99549,1.1 -2.03498,2 -2.30998,2 -0.275,0 0.31449,-0.9 1.30998,-2 z m -33,-6 c 0.99549,-1.1 2.03498,-2 2.30998,-2 0.275,0 -0.31449,0.9 -1.30998,2 -0.99549,1.1 -2.03498,2 -2.30998,2 -0.275,0 0.31449,-0.9 1.30998,-2 z M 136.40499,125.75 134.5,123.5 l 2.25,1.90499 c 2.11444,1.79022 2.70524,2.59501 1.90499,2.59501 -0.18976,0 -1.20226,-1.0125 -2.25,-2.25 z M 366.5,118 c 0.99549,-1.1 2.03498,-2 2.30998,-2 0.275,0 -0.31449,0.9 -1.30998,2 -0.99549,1.1 -2.03498,2 -2.30998,2 -0.275,0 0.31449,-0.9 1.30998,-2 z"
         id="path228" />
      <path
         style="fill:#a0a3a7"
         d="m 257.25,508.31067 c 0.9625,-0.25152 2.5375,-0.25152 3.5,0 0.9625,0.25153 0.175,0.45733 -1.75,0.45733 -1.925,0 -2.7125,-0.2058 -1.75,-0.45733 z m -20.5,-0.97295 c 0.6875,-0.27741 1.8125,-0.27741 2.5,0 0.6875,0.27741 0.125,0.50439 -1.25,0.50439 -1.375,0 -1.9375,-0.22698 -1.25,-0.50439 z m 42,0 c 0.6875,-0.27741 1.8125,-0.27741 2.5,0 0.6875,0.27741 0.125,0.50439 -1.25,0.50439 -1.375,0 -1.9375,-0.22698 -1.25,-0.50439 z m -37,-28 c 0.6875,-0.27741 1.8125,-0.27741 2.5,0 0.6875,0.27741 0.125,0.50439 -1.25,0.50439 -1.375,0 -1.9375,-0.22698 -1.25,-0.50439 z m 33.0625,-0.0208 c 0.72187,-0.28887 1.58438,-0.25335 1.91667,0.0789 0.33229,0.33229 -0.25834,0.56864 -1.3125,0.52522 -1.16495,-0.048 -1.4019,-0.28494 -0.60417,-0.60416 z M 419,450.62244 c 0,-0.20765 0.7875,-0.99515 1.75,-1.75 1.58606,-1.24387 1.62143,-1.2085 0.37756,0.37756 C 419.82119,450.91575 419,451.44548 419,450.62244 Z M 95.872445,448.25 c -1.243871,-1.58606 -1.208501,-1.62143 0.377555,-0.37756 0.9625,0.75485 1.75,1.54235 1.75,1.75 0,0.82304 -0.821186,0.29331 -2.127555,-1.37244 z M 429,441.5 c 1.29175,-1.375 2.57363,-2.5 2.84863,-2.5 0.275,0 -0.55688,1.125 -1.84863,2.5 -1.29175,1.375 -2.57363,2.5 -2.84863,2.5 -0.275,0 0.55688,-1.125 1.84863,-2.5 z M 86.437091,439.75 83.5,436.5 l 3.25,2.93709 C 89.779455,442.17487 90.459652,443 89.687091,443 c -0.1721,0 -1.6346,-1.4625 -3.25,-3.25 z M 75.946167,429.25 72.5,425.5 l 3.75,3.44617 C 79.740419,432.15378 80.459787,433 79.696167,433 c -0.167108,0 -1.854608,-1.6875 -3.75,-3.75 z M 443,427.5 c 1.29175,-1.375 2.57363,-2.5 2.84863,-2.5 0.275,0 -0.55688,1.125 -1.84863,2.5 -1.29175,1.375 -2.57363,2.5 -2.84863,2.5 -0.275,0 0.55688,-1.125 1.84863,-2.5 z m -42,1.12244 c 0,-0.20765 0.7875,-0.99515 1.75,-1.75 1.58606,-1.24387 1.62143,-1.2085 0.37756,0.37756 C 401.82119,428.91575 401,429.44548 401,428.62244 Z M 113.87244,426.25 c -1.24387,-1.58606 -1.2085,-1.62143 0.37756,-0.37756 0.9625,0.75485 1.75,1.54235 1.75,1.75 0,0.82304 -0.82119,0.29331 -2.12756,-1.37244 z M 415.5,415 c 4.37419,-4.4 8.17808,-8 8.45308,-8 0.275,0 -3.07889,3.6 -7.45308,8 -4.37419,4.4 -8.17808,8 -8.45308,8 -0.275,0 3.07889,-3.6 7.45308,-8 z m 33.5,5.62244 c 0,-0.20765 0.7875,-0.99515 1.75,-1.75 1.58606,-1.24387 1.62143,-1.2085 0.37756,0.37756 C 449.82119,420.91575 449,421.44548 449,420.62244 Z M 100.96584,414.25 95.5,408.5 l 5.75,5.46584 c 5.34193,5.07794 6.20809,6.03416 5.46584,6.03416 -0.15629,0 -2.74379,-2.5875 -5.75,-5.75 z m -12.093395,-13 c -1.243871,-1.58606 -1.208501,-1.62143 0.377555,-0.37756 0.9625,0.75485 1.75,1.54235 1.75,1.75 0,0.82304 -0.821186,0.29331 -2.127555,-1.37244 z M 428,401.62244 c 0,-0.20765 0.7875,-0.99515 1.75,-1.75 1.58606,-1.24387 1.62143,-1.2085 0.37756,0.37756 C 428.82119,401.91575 428,402.44548 428,401.62244 Z M 40.078947,299.41667 c 0.04798,-1.16495 0.284941,-1.4019 0.604167,-0.60417 0.288871,0.72187 0.253344,1.58438 -0.07895,1.91667 -0.332292,0.33229 -0.568641,-0.25834 -0.52522,-1.3125 z m 467.000003,-6 c 0.048,-1.16495 0.28494,-1.4019 0.60416,-0.60417 0.28887,0.72187 0.25335,1.58438 -0.0789,1.91667 -0.33229,0.33229 -0.56864,-0.25834 -0.52522,-1.3125 z m -497.000003,-1 c 0.04798,-1.16495 0.284941,-1.4019 0.604167,-0.60417 0.288871,0.72187 0.253344,1.58438 -0.07895,1.91667 -0.332292,0.33229 -0.568641,-0.25834 -0.52522,-1.3125 z m 498.000003,-7 c 0.048,-1.16495 0.28494,-1.4019 0.60416,-0.60417 0.28887,0.72187 0.25335,1.58438 -0.0789,1.91667 -0.33229,0.33229 -0.56864,-0.25834 -0.52522,-1.3125 z m -499.0000026,-1 c 0.047984,-1.16495 0.2849403,-1.4019 0.6041666,-0.60417 0.2888706,0.72187 0.2533443,1.58438 -0.078947,1.91667 -0.3322917,0.33229 -0.5686404,-0.25834 -0.5252196,-1.3125 z M 480.15789,280 c 0,-1.375 0.22698,-1.9375 0.50439,-1.25 0.27741,0.6875 0.27741,1.8125 0,2.5 -0.27741,0.6875 -0.50439,0.125 -0.50439,-1.25 z M 37.194949,278.5 c 0.02038,-1.65 0.244498,-2.20394 0.498042,-1.23097 0.253543,0.97297 0.236869,2.32297 -0.03705,3 C 37.382014,280.94606 37.174569,280.15 37.194949,278.5 Z M 509.15789,274 c 0,-1.375 0.22698,-1.9375 0.50439,-1.25 0.27741,0.6875 0.27741,1.8125 0,2.5 -0.27741,0.6875 -0.50439,0.125 -0.50439,-1.25 z M 8.1578947,272 c 0,-1.375 0.2269737,-1.9375 0.504386,-1.25 0.2774123,0.6875 0.2774123,1.8125 0,2.5 -0.2774123,0.6875 -0.504386,0.125 -0.504386,-1.25 z M 481.36523,257.5 c 0.003,-5.5 0.17053,-7.62242 0.37317,-4.71648 0.20265,2.90594 0.20052,7.40594 -0.005,10 -0.20525,2.59406 -0.37104,0.21648 -0.36844,-5.28352 z m -445.079216,0 c 0.0075,-2.75 0.201713,-3.75631 0.431567,-2.23625 0.229855,1.52006 0.223712,3.77006 -0.01365,5 -0.237362,1.22994 -0.425424,-0.0138 -0.417917,-2.76375 z m 418.792936,-0.0833 c 0.048,-1.16495 0.28494,-1.4019 0.60416,-0.60417 0.28887,0.72187 0.25335,1.58438 -0.0789,1.91667 -0.33229,0.33229 -0.56864,-0.25834 -0.52522,-1.3125 z M 8.1578947,243 c 0,-1.375 0.2269737,-1.9375 0.504386,-1.25 0.2774123,0.6875 0.2774123,1.8125 0,2.5 -0.2774123,0.6875 -0.504386,0.125 -0.504386,-1.25 z M 509.15789,241 c 0,-1.375 0.22698,-1.9375 0.50439,-1.25 0.27741,0.6875 0.27741,1.8125 0,2.5 -0.27741,0.6875 -0.50439,0.125 -0.50439,-1.25 z M 37.194949,236.5 c 0.02038,-1.65 0.244498,-2.20394 0.498042,-1.23097 0.253543,0.97297 0.236869,2.32297 -0.03705,3 C 37.382014,238.94606 37.174569,238.15 37.194949,236.5 Z M 480.15789,235 c 0,-1.375 0.22698,-1.9375 0.50439,-1.25 0.27741,0.6875 0.27741,1.8125 0,2.5 -0.27741,0.6875 -0.50439,0.125 -0.50439,-1.25 z M 9.0789474,230.41667 c 0.047984,-1.16495 0.2849403,-1.4019 0.6041666,-0.60417 0.2888706,0.72187 0.2533443,1.58437 -0.078947,1.91667 -0.3322917,0.33229 -0.5686404,-0.25834 -0.5252196,-1.3125 z m 499.0000026,-1 c 0.048,-1.16495 0.28494,-1.4019 0.60416,-0.60417 0.28887,0.72187 0.25335,1.58437 -0.0789,1.91667 -0.33229,0.33229 -0.56864,-0.25834 -0.52522,-1.3125 z m -498.000003,-7 c 0.04798,-1.16495 0.284941,-1.4019 0.604167,-0.60417 0.288871,0.72187 0.253344,1.58437 -0.07895,1.91667 -0.332292,0.33229 -0.568641,-0.25834 -0.52522,-1.3125 z m 497.000003,-1 c 0.048,-1.16495 0.28494,-1.4019 0.60416,-0.60417 0.28887,0.72187 0.25335,1.58437 -0.0789,1.91667 -0.33229,0.33229 -0.56864,-0.25834 -0.52522,-1.3125 z m -467.000003,-6 c 0.04798,-1.16495 0.284941,-1.4019 0.604167,-0.60417 0.288871,0.72187 0.253344,1.58437 -0.07895,1.91667 -0.332292,0.33229 -0.568641,-0.25834 -0.52522,-1.3125 z m 70.000003,-81 c 0.048,-1.16495 0.28494,-1.4019 0.60416,-0.60417 0.28887,0.72187 0.25335,1.58437 -0.0789,1.91667 -0.3323,0.33229 -0.56864,-0.25834 -0.52522,-1.3125 z M 88,114.62244 c 0,-0.20765 0.7875,-0.99515 1.75,-1.75 1.586056,-1.24387 1.621426,-1.2085 0.377555,0.37756 C 88.821186,114.91575 88,115.44548 88,114.62244 Z m 292.25,-6.31177 c 0.9625,-0.25152 2.5375,-0.25152 3.5,0 0.9625,0.25153 0.175,0.45733 -1.75,0.45733 -1.925,0 -2.7125,-0.2058 -1.75,-0.45733 z M 415.47654,99.75 407.5,91.5 l 8.25,7.97654 c 7.66235,7.40837 8.70589,8.52346 7.97654,8.52346 -0.1504,0 -3.8629,-3.7125 -8.25,-8.25 z M 101,100.5 c 2.98742,-3.025 5.65668,-5.5 5.93168,-5.5 0.275,0 -1.94426,2.475 -4.93168,5.5 -2.987424,3.025 -5.65668,5.5 -5.93168,5.5 -0.275,0 1.944256,-2.475 4.93168,-5.5 z M 449.87244,95.25 C 448.62857,93.663944 448.66394,93.628574 450.25,94.872445 451.91575,96.178814 452.44548,97 451.62244,97 c -0.20765,0 -0.99515,-0.7875 -1.75,-1.75 z M 113,89.622445 c 0,-0.207656 0.7875,-0.995156 1.75,-1.75 1.58606,-1.243871 1.62143,-1.208501 0.37756,0.377555 C 113.82119,89.915748 113,90.445479 113,89.622445 Z M 442.92431,87.25 440.5,84.5 l 2.75,2.424314 c 1.5125,1.333373 2.75,2.570873 2.75,2.75 0,0.784274 -0.8098,0.145975 -3.07569,-2.424314 z M 76,85.5 C 77.865783,83.575 79.617334,82 79.892334,82 80.167334,82 78.865783,83.575 77,85.5 75.134217,87.425 73.382666,89 73.107666,89 72.832666,89 74.134217,87.425 76,85.5 Z m 325.87244,1.75 C 400.62857,85.663944 400.66394,85.628574 402.25,86.872445 403.91575,88.178814 404.44548,89 403.62244,89 c -0.20765,0 -0.99515,-0.7875 -1.75,-1.75 z M 84,77.687091 c 0,-0.1721 1.4625,-1.6346 3.25,-3.25 L 90.5,71.5 87.562909,74.75 C 84.825128,77.779455 84,78.459652 84,77.687091 Z M 428.92431,73.25 426.5,70.5 l 2.75,2.424314 C 431.82029,75.190201 432.45859,76 431.67431,76 c -0.17912,0 -1.41662,-1.2375 -2.75,-2.75 z M 95,67.622445 c 0,-0.207656 0.7875,-0.995156 1.75,-1.75 C 98.336056,64.628574 98.371426,64.663944 97.127555,66.25 95.821186,67.915748 95,68.445479 95,67.622445 Z M 419.87244,65.25 C 418.62857,63.663944 418.66394,63.628574 420.25,64.872445 421.91575,66.178814 422.44548,67 421.62244,67 c -0.20765,0 -0.99515,-0.7875 -1.75,-1.75 z M 260.8125,61.316886 c 0.72187,-0.288871 1.58438,-0.253344 1.91667,0.07895 0.33229,0.332292 -0.25834,0.568641 -1.3125,0.52522 -1.16495,-0.04798 -1.4019,-0.284941 -0.60417,-0.604167 z m 24,-25 c 0.72187,-0.288871 1.58438,-0.253344 1.91667,0.07895 0.33229,0.332292 -0.25834,0.568641 -1.3125,0.52522 -1.16495,-0.04798 -1.4019,-0.284941 -0.60417,-0.604167 z m -42,-1 c 0.72187,-0.288871 1.58437,-0.253344 1.91667,0.07895 0.33229,0.332292 -0.25834,0.568641 -1.3125,0.52522 -1.16495,-0.04798 -1.4019,-0.284941 -0.60417,-0.604167 z m 30.9375,0.02083 c 0.6875,-0.277412 1.8125,-0.277412 2.5,0 0.6875,0.277413 0.125,0.504386 -1.25,0.504386 -1.375,0 -1.9375,-0.226973 -1.25,-0.504386 z m -37,-27.9999997 c 0.6875,-0.2774123 1.8125,-0.2774123 2.5,0 0.6875,0.2774123 0.125,0.504386 -1.25,0.504386 -1.375,0 -1.9375,-0.2269737 -1.25,-0.504386 z m 42,0 c 0.6875,-0.2774123 1.8125,-0.2774123 2.5,0 0.6875,0.2774123 0.125,0.504386 -1.25,0.504386 -1.375,0 -1.9375,-0.2269737 -1.25,-0.504386 z m -21.5,-1.0270448 c 0.9625,-0.2515276 2.5375,-0.2515276 3.5,0 0.9625,0.2515275 0.175,0.4573228 -1.75,0.4573228 -1.925,0 -2.7125,-0.2057953 -1.75,-0.4573228 z"
         id="path226" />
      <path
         style="fill:#a89a71"
         d="m 152.5,394 c 0.99549,-1.1 2.03498,-2 2.30998,-2 0.275,0 -0.31449,0.9 -1.30998,2 -0.99549,1.1 -2.03498,2 -2.30998,2 -0.275,0 0.31449,-0.9 1.30998,-2 z m 11,-12 c 0.99549,-1.1 2.03498,-2 2.30998,-2 0.275,0 -0.31449,0.9 -1.30998,2 -0.99549,1.1 -2.03498,2 -2.30998,2 -0.275,0 0.31449,-0.9 1.30998,-2 z m 209.37244,-1.75 c -1.24387,-1.58606 -1.2085,-1.62143 0.37756,-0.37756 1.66575,1.30637 2.19548,2.12756 1.37244,2.12756 -0.20765,0 -0.99515,-0.7875 -1.75,-1.75 z M 135,371.62244 c 0,-0.20765 0.7875,-0.99515 1.75,-1.75 1.58606,-1.24387 1.62143,-1.2085 0.37756,0.37756 C 135.82119,371.91575 135,372.44548 135,371.62244 Z M 360.87244,369.25 c -1.24387,-1.58606 -1.2085,-1.62143 0.37756,-0.37756 0.9625,0.75485 1.75,1.54235 1.75,1.75 0,0.82304 -0.82119,0.29331 -2.12756,-1.37244 z m 35,-6 c -1.24387,-1.58606 -1.2085,-1.62143 0.37756,-0.37756 1.66575,1.30637 2.19548,2.12756 1.37244,2.12756 -0.20765,0 -0.99515,-0.7875 -1.75,-1.75 z M 146,359.62244 c 0,-0.20765 0.7875,-0.99515 1.75,-1.75 1.58606,-1.24387 1.62143,-1.2085 0.37756,0.37756 C 146.82119,359.91575 146,360.44548 146,359.62244 Z M 350.15789,353 c 0,-1.375 0.22698,-1.9375 0.50439,-1.25 0.27741,0.6875 0.27741,1.8125 0,2.5 -0.27741,0.6875 -0.50439,0.125 -0.50439,-1.25 z m 34.71455,0.25 c -1.24387,-1.58606 -1.2085,-1.62143 0.37756,-0.37756 1.66575,1.30637 2.19548,2.12756 1.37244,2.12756 -0.20765,0 -0.99515,-0.7875 -1.75,-1.75 z M 352,268.62244 c 0,-0.20765 0.7875,-0.99515 1.75,-1.75 1.58606,-1.24387 1.62143,-1.2085 0.37756,0.37756 C 352.82119,268.91575 352,269.44548 352,268.62244 Z M 130.19495,257.5 c 0.0204,-1.65 0.2445,-2.20394 0.49804,-1.23097 0.25354,0.97297 0.23687,2.32297 -0.0371,3 -0.27393,0.67703 -0.48137,-0.11903 -0.46099,-1.76903 z m 222.67749,-10.25 c -1.24387,-1.58606 -1.2085,-1.62143 0.37756,-0.37756 1.66575,1.30637 2.19548,2.12756 1.37244,2.12756 -0.20765,0 -0.99515,-0.7875 -1.75,-1.75 z M 86.304351,243.25324 c 5.942393,-0.17711 15.392389,-0.17644 20.999999,0.001 5.60761,0.17792 0.74565,0.32282 -10.80435,0.322 -11.55,-8.2e-4 -16.138042,-0.14638 -10.195649,-0.32348 z M 291.25,243.25152 c 9.7625,-0.16372 25.7375,-0.16372 35.5,0 9.7625,0.16372 1.775,0.29768 -17.75,0.29768 -19.525,0 -27.5125,-0.13396 -17.75,-0.29768 z m 120.05435,0.002 c 5.94239,-0.17711 15.39239,-0.17644 21,0.001 5.60761,0.17792 0.74565,0.32282 -10.80435,0.322 -11.55,-8.2e-4 -16.13804,-0.14638 -10.19565,-0.32348 z M 138.87244,166.25 c -1.24387,-1.58606 -1.2085,-1.62143 0.37756,-0.37756 0.9625,0.75485 1.75,1.54235 1.75,1.75 0,0.82304 -0.82119,0.29331 -2.12756,-1.37244 z M 364,162.62244 c 0,-0.20765 0.7875,-0.99515 1.75,-1.75 1.58606,-1.24387 1.62143,-1.2085 0.37756,0.37756 C 364.82119,162.91575 364,163.44548 364,162.62244 Z M 127.87244,156.25 c -1.24387,-1.58606 -1.2085,-1.62143 0.37756,-0.37756 0.9625,0.75485 1.75,1.54235 1.75,1.75 0,0.82304 -0.82119,0.29331 -2.12756,-1.37244 z m 213.32251,-4.75 c 0.0204,-1.65 0.2445,-2.20394 0.49804,-1.23097 0.25354,0.97297 0.23687,2.32297 -0.0371,3 -0.27393,0.67703 -0.48137,-0.11903 -0.46099,-1.76903 z m -178.32251,-1.25 c -1.24387,-1.58606 -1.2085,-1.62143 0.37756,-0.37756 0.9625,0.75485 1.75,1.54235 1.75,1.75 0,0.82304 -0.82119,0.29331 -2.12756,-1.37244 z M 375,150.62244 c 0,-0.20765 0.7875,-0.99515 1.75,-1.75 1.58606,-1.24387 1.62143,-1.2085 0.37756,0.37756 C 375.82119,150.91575 375,151.44548 375,150.62244 Z M 114.92431,144.25 112.5,141.5 l 2.75,2.42431 c 2.57029,2.26589 3.20859,3.07569 2.42431,3.07569 -0.17912,0 -1.41662,-1.2375 -2.75,-2.75 z m 35.94813,-5 c -1.24387,-1.58606 -1.2085,-1.62143 0.37756,-0.37756 1.66575,1.30637 2.19548,2.12756 1.37244,2.12756 -0.20765,0 -0.99515,-0.7875 -1.75,-1.75 z M 385,139.62244 c 0,-0.20765 0.7875,-0.99515 1.75,-1.75 1.58606,-1.24387 1.62143,-1.2085 0.37756,0.37756 C 385.82119,139.91575 385,140.44548 385,139.62244 Z m -37,-1 c 0,-0.20765 0.7875,-0.99515 1.75,-1.75 1.58606,-1.24387 1.62143,-1.2085 0.37756,0.37756 C 348.82119,138.91575 348,139.44548 348,138.62244 Z M 139.87244,129.25 c -1.24387,-1.58606 -1.2085,-1.62143 0.37756,-0.37756 0.9625,0.75485 1.75,1.54235 1.75,1.75 0,0.82304 -0.82119,0.29331 -2.12756,-1.37244 z M 359,126.62244 c 0,-0.20765 0.7875,-0.99515 1.75,-1.75 1.58606,-1.24387 1.62143,-1.2085 0.37756,0.37756 C 359.82119,126.91575 359,127.44548 359,126.62244 Z M 371,113.5 c 1.29175,-1.375 2.57363,-2.5 2.84863,-2.5 0.275,0 -0.55688,1.125 -1.84863,2.5 -1.29175,1.375 -2.57363,2.5 -2.84863,2.5 -0.275,0 0.55688,-1.125 1.84863,-2.5 z"
         id="path224" />
      <path
         style="fill:#7e838a"
         d="M 81.404988,434.75 79.5,432.5 l 2.25,1.90499 C 83.864445,436.19521 84.455241,437 83.654988,437 c -0.189757,0 -1.202257,-1.0125 -2.25,-2.25 z M 438,432.62244 c 0,-0.20765 0.7875,-0.99515 1.75,-1.75 1.58606,-1.24387 1.62143,-1.2085 0.37756,0.37756 C 438.82119,432.91575 438,433.44548 438,432.62244 Z M 107.87244,421.25 c -1.24387,-1.58606 -1.2085,-1.62143 0.37756,-0.37756 0.9625,0.75485 1.75,1.54235 1.75,1.75 0,0.82304 -0.82119,0.29331 -2.12756,-1.37244 z M 8.1949487,267.5 c 0.02038,-1.65 0.2444986,-2.20394 0.498042,-1.23097 0.2535434,0.97297 0.2368691,2.32297 -0.037054,3 C 8.3820136,269.94606 8.174569,269.15 8.1949487,267.5 Z m 472.8840013,0.91667 c 0.048,-1.16495 0.28494,-1.4019 0.60416,-0.60417 0.28887,0.72187 0.25335,1.58438 -0.0789,1.91667 -0.33229,0.33229 -0.56864,-0.25834 -0.52522,-1.3125 z M 36.194949,264.5 c 0.02038,-1.65 0.244498,-2.20394 0.498042,-1.23097 0.253543,0.97297 0.236869,2.32297 -0.03705,3 C 36.382014,266.94606 36.174569,266.15 36.194949,264.5 Z m 0,-14 c 0.02038,-1.65 0.244498,-2.20394 0.498042,-1.23097 0.253543,0.97297 0.236869,2.32297 -0.03705,3 C 36.382014,252.94606 36.174569,252.15 36.194949,250.5 Z m -28.0000003,-3 c 0.02038,-1.65 0.2444986,-2.20394 0.498042,-1.23097 0.2535434,0.97297 0.2368691,2.32297 -0.037054,3 C 8.3820136,249.94606 8.174569,249.15 8.1949487,247.5 Z M 481.07895,246.41667 c 0.048,-1.16495 0.28494,-1.4019 0.60416,-0.60417 0.28887,0.72187 0.25335,1.58437 -0.0789,1.91667 -0.33229,0.33229 -0.56864,-0.25834 -0.52522,-1.3125 z M 107,94.622445 c 0,-0.207656 0.7875,-0.995156 1.75,-1.75 1.58606,-1.243871 1.62143,-1.208501 0.37756,0.377555 C 107.82119,94.915748 107,95.445479 107,94.622445 Z M 438.87244,83.25 c -1.24387,-1.586056 -1.2085,-1.621426 0.37756,-0.377555 0.9625,0.754844 1.75,1.542344 1.75,1.75 0,0.823034 -0.82119,0.293303 -2.12756,-1.372445 z M 81.5,80 c 0.995486,-1.1 2.034975,-2 2.309975,-2 0.275,0 -0.314489,0.9 -1.309975,2 -0.995486,1.1 -2.034975,2 -2.309975,2 -0.275,0 0.314489,-0.9 1.309975,-2 z"
         id="path222" />
      <path
         style="fill:#7a7f84"
         d="m 240.8125,507.31689 c 0.72187,-0.28887 1.58437,-0.25335 1.91667,0.0789 0.33229,0.33229 -0.25834,0.56864 -1.3125,0.52522 -1.16495,-0.048 -1.4019,-0.28494 -0.60417,-0.60416 z m 35,0 c 0.72187,-0.28887 1.58438,-0.25335 1.91667,0.0789 0.33229,0.33229 -0.25834,0.56864 -1.3125,0.52522 -1.16495,-0.048 -1.4019,-0.28494 -0.60417,-0.60416 z M 257.75,480.33772 c 0.6875,-0.27741 1.8125,-0.27741 2.5,0 0.6875,0.27741 0.125,0.50439 -1.25,0.50439 -1.375,0 -1.9375,-0.22698 -1.25,-0.50439 z m -19.9375,-1.02083 c 0.72187,-0.28887 1.58437,-0.25335 1.91667,0.0789 0.33229,0.33229 -0.25834,0.56864 -1.3125,0.52522 -1.16495,-0.048 -1.4019,-0.28494 -0.60417,-0.60416 z m 41,0 c 0.72187,-0.28887 1.58438,-0.25335 1.91667,0.0789 0.33229,0.33229 -0.25834,0.56864 -1.3125,0.52522 -1.16495,-0.048 -1.4019,-0.28494 -0.60417,-0.60416 z M 435.5,435 c 0.99549,-1.1 2.03498,-2 2.30998,-2 0.275,0 -0.31449,0.9 -1.30998,2 -0.99549,1.1 -2.03498,2 -2.30998,2 -0.275,0 0.31449,-0.9 1.30998,-2 z M 122.07895,391.41667 c 0.048,-1.16495 0.28494,-1.4019 0.60416,-0.60417 0.28887,0.72187 0.25335,1.58438 -0.0789,1.91667 -0.3323,0.33229 -0.56864,-0.25834 -0.52522,-1.3125 z M 380.87244,387.25 c -1.24387,-1.58606 -1.2085,-1.62143 0.37756,-0.37756 1.66575,1.30637 2.19548,2.12756 1.37244,2.12756 -0.20765,0 -0.99515,-0.7875 -1.75,-1.75 z M 127,380.62244 c 0,-0.20765 0.7875,-0.99515 1.75,-1.75 1.58606,-1.24387 1.62143,-1.2085 0.37756,0.37756 C 127.82119,380.91575 127,381.44548 127,380.62244 Z M 369.87244,377.25 c -1.24387,-1.58606 -1.2085,-1.62143 0.37756,-0.37756 1.66575,1.30637 2.19548,2.12756 1.37244,2.12756 -0.20765,0 -0.99515,-0.7875 -1.75,-1.75 z M 138,368.62244 c 0,-0.20765 0.7875,-0.99515 1.75,-1.75 1.58606,-1.24387 1.62143,-1.2085 0.37756,0.37756 C 138.82119,368.91575 138,369.44548 138,368.62244 Z M 357.87244,366.25 c -1.24387,-1.58606 -1.2085,-1.62143 0.37756,-0.37756 1.66575,1.30637 2.19548,2.12756 1.37244,2.12756 -0.20765,0 -0.99515,-0.7875 -1.75,-1.75 z m 41,0 c -1.24387,-1.58606 -1.2085,-1.62143 0.37756,-0.37756 1.66575,1.30637 2.19548,2.12756 1.37244,2.12756 -0.20765,0 -0.99515,-0.7875 -1.75,-1.75 z M 149,356.62244 c 0,-0.20765 0.7875,-0.99515 1.75,-1.75 1.58606,-1.24387 1.62143,-1.2085 0.37756,0.37756 C 149.82119,356.91575 149,357.44548 149,356.62244 Z M 375.87244,345.25 c -1.24387,-1.58606 -1.2085,-1.62143 0.37756,-0.37756 1.66575,1.30637 2.19548,2.12756 1.37244,2.12756 -0.20765,0 -0.99515,-0.7875 -1.75,-1.75 z M 36.078947,268.41667 c 0.04798,-1.16495 0.284941,-1.4019 0.604167,-0.60417 0.288871,0.72187 0.253344,1.58438 -0.07895,1.91667 -0.332292,0.33229 -0.568641,-0.25834 -0.52522,-1.3125 z M 509.19495,267.5 c 0.0204,-1.65 0.2445,-2.20394 0.49804,-1.23097 0.25354,0.97297 0.23687,2.32297 -0.0371,3 -0.27393,0.67703 -0.48137,-0.11903 -0.46099,-1.76903 z m -501.0000013,-5 c 0.02038,-1.65 0.2444986,-2.20394 0.498042,-1.23097 0.2535434,0.97297 0.2368691,2.32297 -0.037054,3 C 8.3820136,264.94606 8.174569,264.15 8.1949487,262.5 Z M 357.07895,257.41667 c 0.048,-1.16495 0.28494,-1.4019 0.60416,-0.60417 0.28887,0.72187 0.25335,1.58438 -0.0789,1.91667 -0.33229,0.33229 -0.56864,-0.25834 -0.52522,-1.3125 z M 8.1949487,252.5 c 0.02038,-1.65 0.2444986,-2.20394 0.498042,-1.23097 0.2535434,0.97297 0.2368691,2.32297 -0.037054,3 C 8.3820136,254.94606 8.174569,254.15 8.1949487,252.5 Z m 501.0000013,-5 c 0.0204,-1.65 0.2445,-2.20394 0.49804,-1.23097 0.25354,0.97297 0.23687,2.32297 -0.0371,3 -0.27393,0.67703 -0.48137,-0.11903 -0.46099,-1.76903 z M 36.078947,246.41667 c 0.04798,-1.16495 0.284941,-1.4019 0.604167,-0.60417 0.288871,0.72187 0.253344,1.58437 -0.07895,1.91667 -0.332292,0.33229 -0.568641,-0.25834 -0.52522,-1.3125 z M 124.87244,153.25 c -1.24387,-1.58606 -1.2085,-1.62143 0.37756,-0.37756 0.9625,0.75485 1.75,1.54235 1.75,1.75 0,0.82304 -0.82119,0.29331 -2.12756,-1.37244 z M 372,153.62244 c 0,-0.20765 0.7875,-0.99515 1.75,-1.75 1.58606,-1.24387 1.62143,-1.2085 0.37756,0.37756 C 372.82119,153.91575 372,154.44548 372,153.62244 Z M 153.87244,142.25 c -1.24387,-1.58606 -1.2085,-1.62143 0.37756,-0.37756 1.66575,1.30637 2.19548,2.12756 1.37244,2.12756 -0.20765,0 -0.99515,-0.7875 -1.75,-1.75 z M 351,135.62244 c 0,-0.20765 0.7875,-0.99515 1.75,-1.75 1.58606,-1.24387 1.62143,-1.2085 0.37756,0.37756 C 351.82119,135.91575 351,136.44548 351,135.62244 Z M 142.87244,132.25 c -1.24387,-1.58606 -1.2085,-1.62143 0.37756,-0.37756 0.9625,0.75485 1.75,1.54235 1.75,1.75 0,0.82304 -0.82119,0.29331 -2.12756,-1.37244 z M 362,123.62244 c 0,-0.20765 0.7875,-0.99515 1.75,-1.75 1.58606,-1.24387 1.62143,-1.2085 0.37756,0.37756 C 362.82119,123.91575 362,124.44548 362,123.62244 Z M 435.40499,79.75 433.5,77.5 l 2.25,1.904988 C 437.86444,81.195206 438.45524,82 437.65499,82 c -0.18976,0 -1.20226,-1.0125 -2.25,-2.25 z M 238.8125,35.316886 c 0.72187,-0.288871 1.58437,-0.253344 1.91667,0.07895 0.33229,0.332292 -0.25834,0.568641 -1.3125,0.52522 -1.16495,-0.04798 -1.4019,-0.284941 -0.60417,-0.604167 z m 39,0 c 0.72187,-0.288871 1.58438,-0.253344 1.91667,0.07895 0.33229,0.332292 -0.25834,0.568641 -1.3125,0.52522 -1.16495,-0.04798 -1.4019,-0.284941 -0.60417,-0.604167 z m -37,-28 c 0.72187,-0.2888706 1.58437,-0.2533443 1.91667,0.078947 0.33229,0.3322917 -0.25834,0.5686404 -1.3125,0.5252193 -1.16495,-0.047984 -1.4019,-0.2849403 -0.60417,-0.6041663 z m 35,0 c 0.72187,-0.2888706 1.58438,-0.2533443 1.91667,0.078947 0.33229,0.3322917 -0.25834,0.5686404 -1.3125,0.5252193 -1.16495,-0.047984 -1.4019,-0.2849403 -0.60417,-0.6041663 z"
         id="path220" />
      <path
         style="fill:#444a52"
         d="M 234,506.90652 C 206.92046,504.15942 174.34538,494.78901 149.5,482.5996 103.3105,459.93853 66.482999,425.22013 40.667611,380 10.841857,327.75502 1.3406921,263.22247 14.607798,203 40.405319,85.899067 147.99557,2.8217633 268,7.3396941 c 36.84547,1.3871595 68.5663,9.3994639 101.5,25.6376919 68.856,33.950013 117.77542,96.410084 134.42637,171.634914 7.24262,32.72033 7.24262,73.05507 0,105.7754 -16.65191,75.22917 -65.56639,137.68294 -134.42637,171.63491 -23.70834,11.68959 -48.95719,19.65305 -74.5,23.49721 -12.7452,1.91814 -47.88658,2.717 -61,1.3867 z m 51,-28.01523 C 358.95703,470.74643 425.27776,423.72558 459.03769,355.5 496.23293,280.33199 487.65855,191.21955 436.66711,123.00527 427.9937,111.40235 406.37019,89.508681 395.47828,81.30186 367.94445,60.555709 336.13531,45.823516 305.16901,39.475725 287.68197,35.89105 278.38164,34.999533 258.52623,35.004606 182.42871,35.024048 113.98612,72.401643 71.761185,137 55.19442,162.34488 44.282041,190.80371 38.784972,223 c -3.056771,17.90349 -3.056771,51.09651 0,69 2.690044,15.75556 6.262327,29.52932 10.857677,41.86426 20.280807,54.43818 59.319511,97.76393 111.279481,123.49965 C 199.72452,476.5827 240.97545,483.73969 285,478.89129 Z M 253.24086,451.0054 c -1.79253,-1.09292 -4.15334,-3.45373 -5.24626,-5.24626 -1.82898,-2.99977 -1.98742,-5.07223 -1.99086,-26.04126 -0.004,-24.78809 0.48382,-27.59643 5.47653,-31.5237 6.03632,-4.74817 14.57126,-3.61531 19.28077,2.55917 l 2.73896,3.59097 v 24.62182 c 0,22.04767 -0.18864,24.90972 -1.80433,27.37558 -4.15209,6.33688 -12.32364,8.4019 -18.45481,4.66368 z M 130.41844,404.03115 c -1.14486,-0.46315 -3.28236,-2.26915 -4.75,-4.01334 C 123.49542,397.43533 123,395.84019 123,391.42616 123,385.2899 121.77566,386.99657 141.95766,365 c 6.30785,-6.875 12.28712,-13.098 13.28726,-13.82889 7.27564,-5.31696 18.32496,-1.67647 20.8893,6.88254 2.07231,6.91674 0.39415,9.856 -15.65221,27.41454 -8.02166,8.77761 -15.79921,16.76014 -17.28343,17.73896 -2.8269,1.86429 -9.19386,2.2748 -12.78014,0.824 z M 388.5,392.59881 c -3.75044,-1.76982 -33.33316,-28.77559 -35.8734,-32.74846 -1.41799,-2.2177 -1.75645,-4.14713 -1.3923,-7.93691 1.12327,-11.69013 14.26652,-16.34548 23.13787,-8.19544 1.72031,1.58044 8.52783,7.76249 15.12783,13.7379 15.52287,14.05385 16.23553,14.84823 17.48553,19.49037 2.80112,10.40256 -8.79801,20.22407 -18.48553,15.65254 z M 70.061664,269.17273 C 66.134216,267.06642 63,261.88565 63,257.5 c 0,-4.38565 3.134216,-9.56642 7.061664,-11.67273 C 73.08236,244.20725 76.113213,244 96.784058,244 c 19.093692,0 23.857472,0.28039 26.309822,1.54855 6.44683,3.33378 8.8704,12.71766 4.9466,19.1529 C 124.42152,270.63675 122.61888,271 96.784058,271 76.113213,271 73.08236,270.79275 70.061664,269.17273 Z M 253.5,269.43807 c -1.65,-0.83401 -3.9,-2.73627 -5,-4.22723 -1.96235,-2.6598 -2.00499,-4.4959 -2.26495,-97.52821 -0.23952,-85.714728 -0.10929,-95.145386 1.35646,-98.234233 5.20505,-10.968825 22.1307,-9.307013 25.40924,2.494757 0.61462,2.212439 0.9902,35.401436 0.99367,87.806846 L 274,244 h 36.54966 c 39.65437,0 39.97756,0.0409 44.36204,5.61488 2.90144,3.68858 2.90144,12.08166 0,15.77024 -4.46432,5.67547 -3.9075,5.61684 -53.11204,5.59211 -38.46654,-0.0193 -45.75219,-0.25151 -48.29966,-1.53916 z m 140.79855,-0.39759 c -6.15509,-3.75298 -8.17047,-12.45816 -4.33903,-18.74193 3.62965,-5.95284 5.37489,-6.29895 31.74082,-6.29481 21.52132,0.003 24.09451,0.18354 26.8797,1.88194 C 452.01126,247.97803 455,253.38495 455,257.5 c 0,4.11505 -2.98874,9.52197 -6.41996,11.61432 -2.7876,1.69988 -5.35875,1.8782 -27.08004,1.8782 -22.04341,0 -24.261,-0.15914 -27.20145,-1.95204 z M 149.15287,173.50182 c -4.22237,-1.87578 -34.74617,-29.81466 -36.69912,-33.59127 -5.46514,-10.56841 5.91199,-23.12719 16.82169,-18.56882 1.91544,0.80032 10.95218,8.27816 20.08164,16.61741 13.53871,12.36687 16.81661,15.88856 17.77926,19.10157 3.22873,10.77655 -7.87779,20.93051 -17.98347,16.44111 z m 202.19873,-8.61901 c -1.73161,-0.48803 -4.54411,-2.47698 -6.25,-4.41987 -2.53626,-2.88865 -3.1016,-4.397 -3.1016,-8.27523 0,-2.81289 0.68819,-5.74876 1.69131,-7.2152 3.61113,-5.27909 29.82282,-33.18702 32.44203,-34.54146 11.28788,-5.83719 24.21341,6.71193 18.39757,17.8618 -2.01799,3.8688 -31.2681,35.50761 -33.34376,36.06677 -4.47918,1.20662 -6.9452,1.3378 -9.83555,0.52319 z"
         id="path218" />
    </g>
    <path
       style="fill:#52b1ad;stroke:none;stroke-width:7.64343"
       d="m 235.04762,507.26946 c -7.25868,-0.67621 -22.90328,-3.50867 -32.76191,-5.93156 -34.73326,-8.53619 -65.02347,-22.81244 -92.95238,-43.80992 C 78.163466,434.09389 53.407465,404.22684 35.44174,368.38095 23.555672,344.66542 15.574636,318.05848 11.673431,289.14286 9.7614107,274.97102 9.7528273,240.44938 11.657897,226.66667 16.798258,189.47742 28.134195,157.52973 47.073116,126.85714 80.786203,72.257013 136.75829,31.374318 199.2381,15.713972 c 20.74945,-5.200779 37.6651,-7.2325455 60.19047,-7.2295782 41.64902,0.00549 75.86415,8.1702892 112.76191,26.9085262 15.42986,7.835937 24.76191,13.630968 38.09523,23.656443 42.58896,32.023109 73.36432,76.280187 89.00709,127.998257 13.8886,45.91842 13.75916,97.48718 -0.36022,143.51177 -16.43146,53.56125 -50.22384,100.03884 -96.26591,132.4029 -35.20518,24.74654 -80.94404,41.38262 -121.14286,44.06193 -10.75259,0.71667 -39.77186,0.8698 -46.47619,0.24524 z m 58.28571,-28.33172 c 84.68519,-13.09187 154.61314,-73.68877 179.89247,-155.888 6.75449,-21.96318 9.40105,-40.54416 9.33309,-65.52593 -0.0657,-24.15287 -2.41715,-40.47332 -9.09438,-63.1205 -6.84738,-23.22429 -19.53257,-48.79833 -33.8748,-68.29347 C 432.68734,116.72756 419.29326,102.08273 408.7619,92.403291 380.81202,66.71437 343.09607,47.505525 305.14286,39.629795 288.42763,36.161191 276.6645,35.212566 256,35.666718 c -25.36722,0.557504 -40.8881,2.890967 -62.28465,9.364084 -34.97795,10.581909 -63.91338,28.123473 -90.90942,55.112128 -34.141539,34.13219 -54.813669,73.524 -63.15521,120.3455 -3.713768,20.84557 -3.711785,54.86367 0.0044,75.54549 6.791517,37.79706 22.374668,72.25293 46.158651,102.06132 7.26714,9.10788 25.116899,26.83769 34.402779,34.17162 31.74214,25.0697 70.55871,41.87296 108.35487,46.90561 13.64975,1.8175 13.70962,1.82023 34.66667,1.58126 15.40742,-0.17569 22.09523,-0.57924 30.09524,-1.81599 z"
       id="path1079" />
    <path
       style="fill:#52b1ad;stroke:none;stroke-width:7.64343"
       d="m 231.93666,448.7307 c -32.44974,-4.7374 -60.22516,-16.26803 -87.7136,-36.41327 l -6.25313,-4.58269 3.68494,-1.82365 c 5.99596,-2.96737 31.47107,-30.01744 35.24964,-37.4289 4.31286,-8.45942 -1.76279,-18.79613 -11.60366,-19.74171 -6.49648,-0.62423 -9.48285,1.09169 -17.99175,10.33774 -4.12477,4.48212 -9.2427,10.03738 -11.37318,12.34506 -7.54574,8.17333 -12.47939,14.48879 -12.94216,16.56699 -1.12884,5.06945 -0.991,5.04447 -4.76532,0.8638 -27.684853,-30.66535 -44.261583,-67.27905 -49.273032,-108.83132 -0.630236,-5.22558 -1.145884,-9.77541 -1.145884,-10.11072 0,-0.33532 1.457143,0.15031 3.238095,1.07917 3.014654,1.5723 4.473595,1.71052 21.142857,2.00304 19.911104,0.3494 30.483804,-0.52526 33.523814,-2.77338 6.72516,-4.97332 7.81714,-15.42355 2.27164,-21.73953 -4.21072,-4.79575 -6.09583,-5.0857 -31.643009,-4.86707 -20.416588,0.17471 -23.087273,0.34156 -25.366106,1.58478 -1.400847,0.76423 -2.630138,1.27851 -2.731758,1.14286 -0.10162,-0.13567 0.606748,-5.68049 1.57415,-12.32184 4.836795,-33.20523 16.543966,-61.59016 36.572453,-88.67269 l 4.32479,-5.848 1.84108,2.38737 c 1.01259,1.31305 6.52996,6.7457 12.26082,12.07256 5.73086,5.32685 12.47689,11.63082 14.99117,14.00881 6.68536,6.32295 9.22529,7.65415 14.56612,7.63421 6.87072,-0.0257 10.56396,-2.0343 12.87746,-7.00369 4.16802,-8.95285 2.35025,-13.10497 -11.27195,-25.74726 -5.54202,-5.14335 -11.95447,-11.09775 -14.2499,-13.23201 -4.12576,-3.83605 -10.15644,-8.31163 -12.03273,-8.9299 -0.5426,-0.17879 1.58574,-2.49352 4.84212,-5.26614 23.6709,-20.154497 54.88391,-35.634864 83.54565,-41.435198 12.20746,-2.470449 27.37974,-4.484697 27.98725,-3.715546 0.25394,0.321512 0.22988,5.555995 -0.0535,11.632186 -0.67282,14.428027 -0.69668,127.681338 -0.0334,158.266778 l 0.51597,23.7906 3.40128,3.46565 c 2.0193,2.05751 4.54305,3.77309 6.21139,4.22233 1.67075,0.44988 20.82912,0.82867 47.25213,0.93423 l 44.44205,0.17755 3.23725,-1.72933 c 6.43845,-3.43942 9.31765,-11.24695 6.68739,-18.13419 -1.5571,-4.0772 -3.46823,-6.0839 -7.63892,-8.02092 -2.8325,-1.31552 -5.58869,-1.41661 -39.04762,-1.43216 l -36,-0.0167 -0.003,-75.61905 c -0.002,-41.59047 -0.22879,-80.559787 -0.50503,-86.598474 l -0.50224,-10.97943 5.6695,0.479249 c 13.2381,1.119006 33.21142,6.275542 49.81701,12.861242 13.37288,5.303626 35.02444,17.393713 42.72014,23.854643 l 2.93926,2.46766 -9.49637,10.24335 c -24.65053,26.58956 -26.10252,28.84924 -23.4603,36.51045 1.44558,4.19153 3.73487,6.696 8.05087,8.80762 7.11334,3.48024 12.57207,1.64961 20.0083,-6.70993 2.30477,-2.59092 8.03744,-8.86453 12.73927,-13.94134 4.70185,-5.07681 9.67328,-10.70179 11.04762,-12.49996 l 2.49883,-3.26939 4.02592,4.43478 c 24.46167,26.94588 42.4583,66.47017 46.8739,102.94472 0.9464,7.81763 0.9311,8.55452 -0.16714,8.05167 -0.66488,-0.30443 -11.66601,-0.68569 -24.44697,-0.84726 l -23.23809,-0.29375 -4.19048,2.14684 c -3.47659,1.7811 -4.49992,2.79583 -6.00693,5.95636 -2.48864,5.21924 -2.33008,9.23167 0.5636,14.26251 1.87616,3.26182 3.00672,4.31159 5.97395,5.54702 3.38681,1.41012 5.36515,1.52252 26.517,1.5066 16.58436,-0.0125 23.31241,-0.27307 24.51609,-0.94957 1.63537,-0.91911 1.65364,-0.87015 1.28577,3.44578 -2.10041,24.64245 -9.04584,48.92534 -20.42932,71.42576 -5.67857,11.22418 -10.25303,18.67052 -15.58338,25.36669 l -3.21068,4.03337 -3.57495,-4.00155 c -8.15682,-9.13016 -27.37012,-26.93886 -32.86698,-30.46422 -11.43787,-7.33558 -26.5542,5.38439 -20.82303,17.52199 1.40807,2.98203 11.54464,13.4996 22.68648,23.53922 8.81664,7.94444 10.67349,9.37222 14.7334,11.32892 l 3.34405,1.61168 -6.75301,5.93403 C 358.59339,425.4444 327.1325,440.92056 292.95238,447.21047 282.78444,449.08159 272,450.38322 272,449.73931 c 0,-0.19929 0.6,-1.5293 1.33333,-2.95558 1.15917,-2.25453 1.36621,-5.45562 1.58504,-24.5069 0.32765,-28.52538 -0.51339,-32.37513 -7.79538,-35.68222 -7.23126,-3.28404 -15.31911,-0.71684 -19.42974,6.16729 -1.52642,2.55632 -1.59231,3.67562 -1.59231,27.04762 0,23.02471 0.0846,24.51972 1.52096,26.87556 0.83652,1.37203 1.52096,2.65775 1.52096,2.85714 0,0.68381 -10.28691,0.19864 -17.2062,-0.81152 z"
       id="path1081" />
    <path
       style="fill:#3e6886;stroke:none;stroke-width:7.64343;fill-opacity:1"
       d="m 269.57763,270.9036 c -15.52077,-0.46611 -16.27934,-0.68121 -20.00674,-5.67289 -1.54796,-2.073 -1.57946,-3.0843 -2.1582,-69.28626 -0.32301,-36.9504 -0.37892,-79.69683 -0.12423,-94.99207 0.40581,-24.370333 0.63136,-28.194894 1.82385,-30.925657 3.16461,-7.246868 13.36359,-9.07369 19.90903,-3.566068 5.11196,4.301434 4.79668,-1.427028 5.11682,92.967915 l 0.29005,85.52381 32.50018,0.0235 c 33.34896,0.0242 42.1419,0.54398 45.40887,2.68458 3.05512,2.00179 5.24357,7.40047 4.81365,11.87478 -0.38511,4.0079 -1.98776,6.78934 -5.36475,9.31062 -1.76604,1.31853 -3.80234,1.58533 -15.95293,2.09012 -15.39842,0.63971 -44.347,0.62555 -66.2556,-0.0324 z"
       id="path1085" />
    <path
       style="fill:#3e6886;fill-opacity:1;stroke:none;stroke-width:7.64343"
       d="m 350.49528,164.35226 c -3.5444,-1.96131 -6.83236,-6.15823 -7.35693,-9.39076 -0.78137,-4.81498 0.88309,-8.46055 7.14038,-15.63922 8.76123,-10.05131 25.42441,-26.94568 27.77673,-28.16211 2.68399,-1.38795 6.07307,-1.35002 9.56017,0.10698 3.61928,1.51223 5.35007,3.11565 7.13211,6.60726 1.80055,3.52787 1.83869,7.13012 0.1094,10.33374 -1.73229,3.20919 -17.18333,20.67471 -26.30778,29.73774 -6.95235,6.90556 -7.24364,7.09887 -11.27164,7.48008 -3.18721,0.30165 -4.74165,0.0556 -6.78244,-1.07371 z"
       id="path1087" />
    <path
       style="fill:#3e6886;fill-opacity:1;stroke:none;stroke-width:7.64343"
       d="m 403.28945,270.91871 c -6.88397,-0.48863 -9.16377,-1.64197 -12.30858,-6.22686 -2.52576,-3.68237 -2.11525,-10.74543 0.85053,-14.63376 3.41031,-4.47115 5.07565,-4.72476 31.02574,-4.72476 22.61959,0 23.30985,0.0446 25.93379,1.67664 7.44,4.62748 8.14519,14.80902 1.46871,21.20548 -2.04766,1.96179 -2.91756,2.19809 -10.06008,2.73272 -8.7684,0.65633 -27.4586,0.64142 -36.91011,-0.0295 z"
       id="path1089" />
    <path
       style="fill:#3e6886;fill-opacity:1;stroke:none;stroke-width:7.64343"
       d="m 389.46071,392.57143 c -4.0972,-2.22278 -14.72261,-11.47112 -26.91706,-23.42857 -8.14337,-7.98511 -9.79432,-9.99034 -10.21861,-12.41138 -1.02572,-5.85292 2.77364,-13.15372 7.84955,-15.08357 2.65687,-1.01014 7.50175,-0.85234 10.32607,0.33632 2.42194,1.01932 29.12085,25.02614 33.84271,30.4303 5.8573,6.70366 3.23465,16.49141 -5.47969,20.45025 -4.00453,1.81921 -5.60071,1.76942 -9.40297,-0.29335 z"
       id="path1091" />
    <path
       style="fill:#3e6886;fill-opacity:1;stroke:none;stroke-width:7.64343"
       d="m 254.85714,451.52226 c -7.12512,-4.44026 -7.96402,-7.61432 -7.9789,-30.18893 -0.0114,-17.32924 0.90752,-26.64236 2.89354,-29.32529 2.57791,-3.48249 6.13662,-5.34137 10.22575,-5.34137 4.80438,0 8.35999,1.6963 11.27789,5.38045 l 2.30786,2.91392 -0.22021,24.99567 c -0.21849,24.80034 -0.23411,25.01516 -1.99866,27.48911 -3.61515,5.06854 -11.70824,7.06712 -16.50727,4.07644 z"
       id="path1093" />
    <path
       style="fill:#3e6886;fill-opacity:1;stroke:none;stroke-width:7.64343"
       d="m 128.3071,401.72699 c -3.29024,-3.10872 -3.62009,-3.74981 -3.94497,-7.66735 -0.48207,-5.81315 -0.0317,-7.13375 4.08327,-11.97366 9.47344,-11.14234 27.95888,-30.37062 30.01682,-31.22305 3.1977,-1.32453 10.23587,-0.63538 12.7604,1.24945 3.48358,2.60087 5.01013,5.32594 5.36116,9.57031 0.30478,3.68506 0.0812,4.40328 -2.60136,8.35578 -3.48163,5.12989 -15.83084,18.99476 -24.96708,28.03138 l -6.52192,6.45079 -5.29793,0.29936 -5.29793,0.29936 z"
       id="path1095" />
    <path
       style="fill:#3e6886;fill-opacity:1;stroke:none;stroke-width:7.64343"
       d="m 78.857143,270.89307 c -6.773384,-0.54458 -8.472268,-1.23294 -11.280916,-4.57083 -4.08721,-4.85737 -4.416526,-10.1119 -0.960997,-15.33355 3.464571,-5.23532 5.211667,-5.61408 27.249122,-5.90744 24.141768,-0.32137 28.959978,0.269 32.370938,3.96639 5.63248,6.10545 4.83838,15.71437 -1.64999,19.96572 -3.33565,2.18559 -28.868979,3.23517 -45.728157,1.87971 z"
       id="path1097" />
    <path
       style="fill:#3e6886;fill-opacity:1;stroke:none;stroke-width:7.64343"
       d="m 148.51158,172.6226 c -8.19201,-5.43392 -33.43238,-29.22109 -35.39513,-33.35728 -4.53539,-9.55764 7.13235,-21.12964 16.71809,-16.58091 4.59387,2.17993 31.61099,26.37545 35.62688,31.9061 5.9186,8.15102 -0.71393,20.26663 -11.09468,20.26663 -1.47637,0 -3.85492,-0.90774 -5.85516,-2.23454 z"
       id="path1099" />
    <path
       style="fill:#3e6886;fill-opacity:1;stroke:none;stroke-width:10.8094"
       d="M 221.1438,504.74387 C 148.82295,491.73987 89.131936,452.63773 50.051741,392.66557 2.6738483,319.95983 -2.4625832,224.24326 36.842068,146.50539 61.588993,97.560207 100.81861,59.06678 151.10656,34.385198 c 23.18122,-11.377459 44.29735,-18.234064 70.08352,-22.75677 15.2464,-2.6741076 59.70407,-2.7074288 76.45594,-0.0573 25.10162,3.971043 47.35844,11.232311 72.43749,23.632668 74.27919,36.727423 124.81803,106.701814 136.76276,189.357154 2.2073,15.27414 2.46032,49.01789 0.47716,63.63517 -7.74566,57.09069 -31.84764,106.13707 -71.74649,146.00071 -36.07964,36.04781 -82.31118,60.34157 -132.54344,69.64895 -18.11745,3.35693 -65.33513,3.87476 -81.8897,0.89809 z m 83.2019,-27.27435 c 33.53492,-7.53263 59.75387,-19.19798 87.71044,-39.02416 12.33105,-8.74491 39.6687,-36.25082 48.38377,-48.68158 25.73384,-36.7055 39.20834,-73.66406 42.00944,-115.22571 2.7641,-41.01259 -4.75283,-79.25562 -22.7154,-115.56643 -9.75542,-19.72028 -19.75569,-34.43439 -34.14939,-50.24642 C 384.30265,63.375426 329.85497,37.479211 271.24737,35.319916 213.3371,33.186312 163.46491,48.971319 121.42777,82.739205 78.186535,117.47432 49.201611,165.52462 39.548876,218.47547 c -2.848244,15.62425 -3.876866,44.35217 -2.226332,62.17818 2.874911,31.04948 13.414406,63.35692 29.69052,91.01239 16.496675,28.03024 44.186386,56.84585 71.163546,74.05713 19.93054,12.71557 43.78031,23.24851 65.2814,28.83069 21.84925,5.67255 29.86357,6.46736 60.78564,6.02839 25.14823,-0.35702 29.25173,-0.67552 40.10205,-3.11273 z"
       id="path1141" />
  </g>
</svg>
