<svg width="176" height="176" viewBox="0 0 176 176" fill="none" xmlns="http://www.w3.org/2000/svg">
<path d="M31.0969 31.0969C43.0416 19.1521 49.014 13.1798 55.1004 9.39498C75.2448 -3.13174 100.755 -3.13158 120.9 9.39498C126.986 13.1798 132.958 19.1521 144.903 31.0969C156.848 43.0417 162.82 49.014 166.605 55.1004C179.132 75.2449 179.132 100.755 166.605 120.9C162.82 126.986 156.848 132.958 144.903 144.903C132.958 156.848 126.986 162.82 120.9 166.605C100.755 179.132 75.2448 179.132 55.1004 166.605C49.014 162.82 43.0416 156.848 31.0969 144.903L31.0955 144.902C19.1518 132.958 13.1795 126.986 9.39498 120.9C-3.13158 100.755 -3.13174 75.2449 9.39498 55.1004C13.1794 49.0144 19.1512 43.0425 31.0945 31.0993L31.0969 31.0969Z" fill="#02C652"/>
<path d="M113 61C119.904 61 125.5 55.4035 125.5 48.5C125.5 41.5965 119.904 36 113 36C106.096 36 100.5 41.5965 100.5 48.5C100.5 55.4035 106.096 61 113 61Z" fill="white"/>
<path d="M75.5 76C75.5 70.4772 71.0228 66 65.5 66H50.5V103.5C50.5 124.211 67.2893 141 88 141C90.5685 141 93.0767 140.742 95.5 140.25V116H88C81.0964 116 75.5 110.404 75.5 103.5V76Z" fill="white"/>
<path d="M125.5 103.5C125.5 119.828 115.065 133.718 100.5 138.866V76C100.5 70.4772 104.977 66 110.5 66H125.5V103.5Z" fill="white"/>
</svg>
