<svg xmlns="http://www.w3.org/2000/svg" viewBox="0 0 400 400" fill="none">
  <svg x="70" y="20" width="260" height="360" viewBox="0 0 260 360">
    <path d="M130 6 L220 22 C248 30 254 50 254 72 L254 145 C252 200 238 248 210 285 C185 318 158 342 130 354 C102 342 75 318 50 285 C22 248 8 200 6 145 L6 72 C6 50 12 30 40 22 L130 6 Z" fill="#0e7490" stroke="#167e8a" stroke-width="1.5"/>
    <path d="M130 14 L212 28 C236 35 242 52 242 72 L242 142 C240 195 228 240 202 274 C178 306 154 328 130 340 C106 328 82 306 58 274 C32 240 20 195 18 142 L18 72 C18 52 24 35 48 28 L130 14 Z" fill="#0c3d50" stroke="#0891b2" stroke-width="2.5"/>
    <path d="M130 52 C166 52 196 55 210 62 L216 68 L216 138 C214 185 204 225 182 258 C162 285 146 305 130 316 C114 305 98 285 78 258 C56 225 46 185 44 138 L44 68 L50 62 C64 55 94 52 130 52 Z" fill="#083344"/>
    <circle cx="68" cy="30" r="3.5" fill="#22d3ee" opacity="0.55"/><circle cx="95" cy="24" r="3.5" fill="#22d3ee" opacity="0.55"/><circle cx="165" cy="24" r="3.5" fill="#22d3ee" opacity="0.55"/><circle cx="192" cy="30" r="3.5" fill="#22d3ee" opacity="0.55"/>
    <circle cx="18" cy="72" r="3.5" fill="#22d3ee" opacity="0.5"/><circle cx="14" cy="108" r="3.5" fill="#22d3ee" opacity="0.5"/><circle cx="14" cy="142" r="3.5" fill="#22d3ee" opacity="0.45"/><circle cx="18" cy="178" r="3.5" fill="#22d3ee" opacity="0.45"/><circle cx="26" cy="212" r="3.5" fill="#22d3ee" opacity="0.4"/><circle cx="38" cy="244" r="3.5" fill="#22d3ee" opacity="0.4"/><circle cx="56" cy="272" r="3.5" fill="#22d3ee" opacity="0.35"/><circle cx="80" cy="296" r="3" fill="#22d3ee" opacity="0.35"/><circle cx="106" cy="316" r="3" fill="#22d3ee" opacity="0.3"/>
    <circle cx="242" cy="72" r="3.5" fill="#22d3ee" opacity="0.5"/><circle cx="246" cy="108" r="3.5" fill="#22d3ee" opacity="0.5"/><circle cx="246" cy="142" r="3.5" fill="#22d3ee" opacity="0.45"/><circle cx="242" cy="178" r="3.5" fill="#22d3ee" opacity="0.45"/><circle cx="234" cy="212" r="3.5" fill="#22d3ee" opacity="0.4"/><circle cx="222" cy="244" r="3.5" fill="#22d3ee" opacity="0.4"/><circle cx="204" cy="272" r="3.5" fill="#22d3ee" opacity="0.35"/><circle cx="180" cy="296" r="3" fill="#22d3ee" opacity="0.35"/><circle cx="154" cy="316" r="3" fill="#22d3ee" opacity="0.3"/>
    <rect x="127" y="0" width="6" height="200" rx="1.5" fill="#0e7490"/>
    <path d="M127 18 L130 0 L133 18 Z" fill="#22d3ee"/>
    <svg x="18" y="28" width="224" height="310" viewBox="0 0 280 340" preserveAspectRatio="xMidYMid meet">
      <defs>
        <clipPath id="hL"><rect x="0" y="0" width="140" height="340"/></clipPath>
        <clipPath id="hR"><rect x="140" y="0" width="140" height="340"/></clipPath>
      </defs>
      <g clip-path="url(#hR)"><g transform="translate(0,340) scale(0.1,-0.1)" fill="#0891b2" stroke="none"><path d="M1244 3210 c-87 -93 -160 -177 -162 -187 -1 -10 26 -171 61 -358 l63 -340 94 -152 c52 -84 100 -153 105 -153 6 0 53 71 106 158 l96 157 63 347 63 348 -49 52 c-26 29 -100 108 -164 175 l-116 122 -160 -169z"/><path d="M1098 2226 c-145 -61 -313 -205 -376 -325 -35 -65 -55 -121 -44 -121 12 0 637 213 645 220 10 9 -143 250 -158 250 -5 -1 -35 -11 -67 -24z"/><path d="M1547 2128 c-43 -66 -74 -124 -70 -128 4 -4 147 -54 318 -111 170 -57 313 -105 317 -107 17 -7 7 37 -22 94 -42 84 -117 172 -201 236 -73 55 -190 120 -239 131 l-25 6 -78 -121z"/><path d="M1225 1886 l-180 -61 -10 -144 -10 -144 -33 123 c-18 68 -34 126 -37 128 -3 3 -402 -126 -406 -131 -1 -1 -9 -123 -20 -272 l-18 -270 47 -44 c26 -25 107 -103 181 -175 l133 -130 -21 -194 c-12 -108 -18 -200 -13 -206 5 -6 71 -91 147 -189 l138 -177 29 0 28 0 0 479 0 479 -187 109 -188 108 -41 120 c-23 66 -41 121 -40 122 5 6 519 -106 526 -114 7 -6 42 -99 79 -206 37 -107 71 -201 74 -208 4 -7 40 83 81 200 41 117 78 216 82 219 13 8 519 112 524 107 2 -2 -16 -57 -39 -123 l-41 -120 -175 -102 c-96 -56 -181 -106 -187 -113 -10 -8 -13 -118 -13 -485 l0 -475 28 0 29 0 134 172 c74 94 139 179 146 188 9 13 8 59 -9 212 l-21 196 149 144 c82 80 163 158 181 174 l31 29 -17 267 c-9 147 -19 269 -22 271 -3 4 -172 62 -759 262 l-95 32 -180 -61z"/><path d="M610 783 l0 -148 80 -98 c44 -54 81 -97 81 -95 1 1 9 68 18 148 l17 145 -89 98 c-49 53 -93 97 -98 97 -5 0 -9 -66 -9 -147z"/><path d="M2096 834 l-89 -93 12 -133 c7 -73 15 -141 17 -151 4 -13 25 6 85 82 l79 99 0 146 c0 80 -3 145 -7 145 -5 -1 -48 -44 -97 -95z"/></g></g>
      <g clip-path="url(#hL)"><g transform="translate(0,340) scale(0.1,-0.1)" fill="#22d3ee" stroke="none"><path d="M1244 3210 c-87 -93 -160 -177 -162 -187 -1 -10 26 -171 61 -358 l63 -340 94 -152 c52 -84 100 -153 105 -153 6 0 53 71 106 158 l96 157 63 347 63 348 -49 52 c-26 29 -100 108 -164 175 l-116 122 -160 -169z"/><path d="M1098 2226 c-145 -61 -313 -205 -376 -325 -35 -65 -55 -121 -44 -121 12 0 637 213 645 220 10 9 -143 250 -158 250 -5 -1 -35 -11 -67 -24z"/><path d="M1547 2128 c-43 -66 -74 -124 -70 -128 4 -4 147 -54 318 -111 170 -57 313 -105 317 -107 17 -7 7 37 -22 94 -42 84 -117 172 -201 236 -73 55 -190 120 -239 131 l-25 6 -78 -121z"/><path d="M1225 1886 l-180 -61 -10 -144 -10 -144 -33 123 c-18 68 -34 126 -37 128 -3 3 -402 -126 -406 -131 -1 -1 -9 -123 -20 -272 l-18 -270 47 -44 c26 -25 107 -103 181 -175 l133 -130 -21 -194 c-12 -108 -18 -200 -13 -206 5 -6 71 -91 147 -189 l138 -177 29 0 28 0 0 479 0 479 -187 109 -188 108 -41 120 c-23 66 -41 121 -40 122 5 6 519 -106 526 -114 7 -6 42 -99 79 -206 37 -107 71 -201 74 -208 4 -7 40 83 81 200 41 117 78 216 82 219 13 8 519 112 524 107 2 -2 -16 -57 -39 -123 l-41 -120 -175 -102 c-96 -56 -181 -106 -187 -113 -10 -8 -13 -118 -13 -485 l0 -475 28 0 29 0 134 172 c74 94 139 179 146 188 9 13 8 59 -9 212 l-21 196 149 144 c82 80 163 158 181 174 l31 29 -17 267 c-9 147 -19 269 -22 271 -3 4 -172 62 -759 262 l-95 32 -180 -61z"/><path d="M610 783 l0 -148 80 -98 c44 -54 81 -97 81 -95 1 1 9 68 18 148 l17 145 -89 98 c-49 53 -93 97 -98 97 -5 0 -9 -66 -9 -147z"/><path d="M2096 834 l-89 -93 12 -133 c7 -73 15 -141 17 -151 4 -13 25 6 85 82 l79 99 0 146 c0 80 -3 145 -7 145 -5 -1 -48 -44 -97 -95z"/></g></g>
      <g clip-path="url(#hL)"><g transform="translate(0,340) scale(0.1,-0.1)" fill="#cffafe" stroke="none"><path d="M1244 3210 c-87 -93 -160 -177 -162 -187 -1 -10 26 -171 61 -358 l63 -340 94 -152 c52 -84 100 -153 105 -153 6 0 53 71 106 158 l96 157 63 347 63 348 -49 52 c-26 29 -100 108 -164 175 l-116 122 -160 -169z"/></g></g>
      <ellipse cx="100" cy="182" rx="20" ry="5" fill="#22d3ee" opacity="0.15"/>
      <ellipse cx="180" cy="182" rx="20" ry="5" fill="#22d3ee" opacity="0.15"/>
    </svg>
  </svg>
</svg>
