<svg xmlns="http://www.w3.org/2000/svg" width="240" height="240" fill="none"><g filter="url(#a)"><path fill="#fff" fill-rule="evenodd" d="M70 145H45v25h25v25h25v-25H70v-25Zm75 25h25v25h-25v-25Zm25 0v-25h25v25h-25Z" clip-rule="evenodd"/><path fill="url(#b)" fill-rule="evenodd" d="M195 70h-25v50h-25V95H45v25H20v25h50v25h100v-25h25v-25h25V95h-25V70Z" clip-rule="evenodd"/><path fill="#000" d="M70 120h25v25H70z"/><path fill="#0094FF" fill-rule="evenodd" d="M70 20H45v25h25v25h25V45h25V20H95v25H70V20Z" clip-rule="evenodd"/><path fill="#6B96B0" fill-rule="evenodd" d="M145 70h-25v25H95v25h50V70ZM120 170H95v25h25v25h25v-50h-25Z" clip-rule="evenodd"/></g><defs><linearGradient id="b" x1="20" x2="220" y1="193.125" y2="70" gradientUnits="userSpaceOnUse"><stop stop-color="#73A4C2"/><stop offset="1" stop-color="#67C1F8"/></linearGradient><filter id="a" width="224" height="224" x="12" y="12" color-interpolation-filters="sRGB" filterUnits="userSpaceOnUse"><feFlood flood-opacity="0" result="BackgroundImageFix"/><feColorMatrix in="SourceAlpha" result="hardAlpha" values="0 0 0 0 0 0 0 0 0 0 0 0 0 0 0 0 0 0 127 0"/><feOffset dx="4" dy="4"/><feGaussianBlur stdDeviation="6"/><feComposite in2="hardAlpha" operator="out"/><feColorMatrix values="0 0 0 0 0 0 0 0 0 0 0 0 0 0 0 0 0 0 0.15 0"/><feBlend in2="BackgroundImageFix" result="effect1_dropShadow_420_3"/><feBlend in="SourceGraphic" in2="effect1_dropShadow_420_3" result="shape"/></filter></defs></svg>
