<svg xmlns="http://www.w3.org/2000/svg" width="256" height="256" fill="none"><path fill="#C39D63" d="M63.922 210.848v-49.729a25.727 25.727 0 0 1 8.324-16.586c5.548-5.519 18.426-11.038 28.86-16.556-10.434-5.519-23.312-11.067-28.86-16.586a25.69 25.69 0 0 1-8.263-16.556V61.663s0-8.263 8.263 0 33.172 16.586 41.435 24.88a25.625 25.625 0 0 1 8.293 16.555v49.728a25.685 25.685 0 0 1-8.293 16.587c-5.519 5.519-18.395 11.038-28.83 16.555 10.435 5.549 23.312 11.068 28.83 16.587v.001a25.683 25.683 0 0 1 8.293 16.586v33.172s0 8.293-8.293 0-33.172-16.586-41.435-24.879a25.637 25.637 0 0 1-8.323-16.586v-.001ZM134.056 36.858V3.686s0-8.293 8.293 0 33.173 16.586 41.435 24.849a25.69 25.69 0 0 1 8.294 16.587V94.88a25.57 25.57 0 0 1-8.294 16.556c-5.518 5.549-18.395 11.067-28.829 16.586 10.434 5.519 23.311 11.038 28.829 16.587a25.566 25.566 0 0 1 8.294 16.555v33.173s0 8.293-8.294 0c-8.293-8.293-33.172-16.556-41.435-24.849a25.701 25.701 0 0 1-8.293-16.586v-49.729a25.698 25.698 0 0 1 8.293-16.586c5.519-5.519 18.395-11.038 28.83-16.586-10.434-5.519-23.312-11.038-28.83-16.556a25.698 25.698 0 0 1-8.293-16.587Z"/></svg>
