<svg width="128" height="128" viewBox="0 0 128 128" fill="none" xmlns="http://www.w3.org/2000/svg">
<path d="M48.25 32.75C57.25 23.75 70.75 23.75 79.75 32.75C88.75 41.75 88.75 55.25 79.75 64.25L48.25 95.75C39.25 104.75 25.75 104.75 16.75 95.75C7.75001 86.75 7.75001 73.25 16.75 64.25L48.25 32.75Z" fill="#307AF2"/>
<path d="M79.75 95.75C88.75 104.75 102.25 104.75 111.25 95.75C120.25 86.75 120.25 73.25 111.25 64.25L79.75 32.75C70.75 23.75 57.25 23.75 48.25 32.75C39.25 41.75 39.25 55.25 48.25 64.25L79.75 95.75Z" fill="#12D2AC"/>
<path fill-rule="evenodd" clip-rule="evenodd" d="M64 80L79.75 64.25C84.25 59.75 95.5 48.5 95.5 48.5C95.5 48.5 84.2559 37.2647 79.7676 32.7676L79.75 32.75C71.875 24.875 60.5547 23.8906 51.8184 29.7969C50.5703 30.6406 49.375 31.625 48.25 32.75C48.2434 32.7565 48.2369 32.7631 48.2304 32.7697C43.7435 37.2664 32.5 48.5 32.5 48.5C32.5 48.5 43.75 59.75 48.25 64.25L64 80Z" fill="#0057FE"/>
</svg>
