<svg class="icon" width="200px" height="200.00px" viewBox="0 0 1024 1024" version="1.1" xmlns="http://www.w3.org/2000/svg"><path fill="#1296db" d="M512 0a512 512 0 1 0 512 512A512 512 0 0 0 512 0z m147.812174 564.98087a17.586087 17.586087 0 0 1-25.266087 0.890434l-1.558261-1.558261-114.977391-115.533913v277.259131a17.808696 17.808696 0 0 1-18.921739 16.361739 17.252174 17.252174 0 0 1-18.365218-16.361739 12.02087 12.02087 0 0 1 0-2.003478V448.77913L365.412174 564.313043l-1.446957 1.558261a17.586087 17.586087 0 0 1-25.266087-0.890434 18.253913 18.253913 0 0 1-1.113043-25.711305l145.363478-146.810435a18.365217 18.365217 0 0 1 9.238261-7.234782 17.92 17.92 0 0 1 6.455652-1.113044h1.001739a16.918261 16.918261 0 0 1 6.678261 1.113044 18.142609 18.142609 0 0 1 9.015652 7.123478l145.586087 146.921739a18.365217 18.365217 0 0 1-1.113043 25.711305z m65.446956-206.58087H273.252174c-9.572174 0-17.252174-11.130435-17.252174-25.6s7.68-25.6 17.252174-25.6h452.006956c9.46087 0 17.14087 11.130435 17.14087 25.6s-7.68 25.6-17.14087 25.6z"  /></svg>
