<?xml version="1.0" encoding="UTF-8"?>
<svg id="Layer_1" data-name="Layer 1" xmlns="http://www.w3.org/2000/svg" version="1.1" viewBox="0 0 150.9 150.9">
  <defs>
    <style>
      .cls-1 {
        fill: #00db82;
        stroke-width: 0px;
      }
    </style>
  </defs>
  <path class="cls-1" d="M144.7,100.5c-.8,2.6-2.6,6.7-5.5,12.3-2.9,5.6-5.7,9.7-8.3,12.5-1,1-2.6,1.8-4.9,2.4-2.3.6-4.6,1-6.7,1.2-2.1.2-4.7.3-7.8.3h-7.5c-4.8,0-8.4-.2-11-.5-2.6-.3-4.6-1-6.1-2.1-1.5-1.1-2.5-2.7-3-4.8-.5-2.1-.8-5-.8-8.7v-36.5h13.7c3.7,0,6.7.3,9,1,2.3.7,4.3,2.1,6.1,4.4,1.1,1.4,2.1,3.6,3.1,6.7,1,3.1,1.6,6,1.8,8.7h6.4v-47.8h-6.4c-.3,2.5-.9,5.1-1.8,7.9-.9,2.8-2,5-3.2,6.7-1.5,1.9-3.3,3.3-5.4,4.2-2,.8-5.3,1.2-9.7,1.2h-13.7V21.3h19.2c3.1,0,6,0,8.4.2,2.5.1,4.6.3,6.4.5,3.4.5,7.1,3.1,10.9,8,3.8,4.9,6.3,9.5,7.4,13.9h6.4V14.5H42.7c-4.4,0-8.5.4-12.5,1.3-4,.9-7.8,2.4-11.4,4.6-3.4,2-6.2,4.7-8.3,8.2-2.2,3.4-3.3,7.6-3.3,12.5s.8,8.1,2.3,11.5c1.5,3.4,3.7,6.2,6.5,8.6,2.6,2.3,5.7,4.2,9.1,5.8,3.4,1.6,7.1,2.8,11,3.7v.8c-3.5.4-7.4,1.3-11.7,2.6-4.3,1.3-8.2,3.2-11.6,5.6-3.5,2.4-6.5,5.6-8.8,9.4-2.3,3.9-3.5,8.6-3.5,14.2s1.2,10.6,3.7,14.8c2.5,4.2,5.7,7.6,9.6,10.3,3.8,2.6,8.2,4.6,13,6,4.8,1.4,9.8,2.1,15,2.1h106.7l2.3-35.9h-6.2ZM64.7,118.7c0,3.6-1.5,6.3-4.4,8.2-2.9,1.8-7,2.7-12.2,2.7-8.5,0-15.1-2.5-19.6-7.5-4.5-5-6.8-12.3-6.8-22s2.4-13.1,7.3-17.8c4.8-4.6,11.8-7,20.7-7s6.8,0,9.3.1c2.5,0,4.4.2,5.7.2v42.9ZM64.7,68.4h-10.9c-4.7,0-8.7-.6-12-1.8-3.3-1.2-6-3-8.1-5.4-2.1-2.5-3.6-5.2-4.4-8.1-.8-2.9-1.2-6.4-1.2-10.4,0-6.7,1.8-12,5.5-15.8,3.7-3.8,9.4-5.7,17.3-5.7s.5,0,.7,0c5.4,0,8.2,1.7,9.9,3.2,1.4,1.3,3.3,3.4,3.3,9.5v34.5Z"/>
</svg>