<svg width="500" height="500" viewBox="0 0 500 500" fill="none" xmlns="http://www.w3.org/2000/svg">
<g clip-path="url(#clip0_1405_1389)">
<path d="M340.997 324.23C325.131 338.314 305.336 355.841 269.338 355.841H247.872C221.851 355.841 198.192 346.396 181.262 329.252C164.724 312.508 155.615 289.586 155.615 264.704V235.296C155.615 210.414 164.724 187.492 181.262 170.748C198.192 153.603 221.851 144.158 247.872 144.158H269.338C305.336 144.158 325.112 161.686 340.997 175.769C357.47 190.376 371.703 202.985 409.614 202.985C415.397 202.986 421.171 202.524 426.88 201.603C426.88 201.491 426.805 201.389 426.759 201.277C424.485 195.637 421.819 190.164 418.779 184.897L393.43 140.985C382.002 121.192 365.565 104.755 345.771 93.3262C325.977 81.8977 303.524 75.8799 280.668 75.8777H229.962C207.106 75.8799 184.653 81.8977 164.859 93.3262C145.066 104.755 128.629 121.192 117.2 140.985L91.8512 184.897C80.4242 204.691 74.4084 227.144 74.4084 250C74.4084 272.856 80.4242 295.309 91.8512 315.103L117.2 359.015C128.629 378.807 145.067 395.243 164.86 406.67C184.654 418.097 207.107 424.112 229.962 424.113H280.668C303.524 424.112 325.976 418.097 345.77 406.67C365.564 395.243 382.001 378.807 393.43 359.015L418.779 315.103C421.819 309.836 424.485 304.363 426.759 298.723C426.759 298.611 426.843 298.509 426.88 298.397C421.171 297.476 415.397 297.014 409.614 297.015C371.703 297.015 357.47 309.624 340.997 324.23Z" fill="#006BFF"/>
<path d="M269.338 170.795H247.872C208.281 170.795 182.261 199.074 182.261 235.277V264.686C182.261 300.888 208.281 329.168 247.872 329.168H269.338C327.035 329.168 322.537 270.369 409.614 270.369C417.869 270.363 426.108 271.116 434.225 272.619C436.867 257.658 436.867 242.351 434.225 227.391C426.109 228.901 417.87 229.657 409.614 229.649C322.509 229.64 327.035 170.795 269.338 170.795Z" fill="#006BFF"/>
<path d="M484.269 294.113C469.426 283.264 452.316 275.925 434.225 272.647C434.225 272.796 434.179 272.945 434.151 273.085C432.598 281.761 430.162 290.254 426.88 298.434C441.826 300.746 456.008 306.582 468.254 315.457C468.254 315.588 468.179 315.719 468.132 315.859C461.192 338.397 450.704 359.685 437.062 378.922C423.577 397.981 407.204 414.821 388.531 428.835C343.328 462.841 286.906 478.427 230.657 472.448C174.409 466.469 122.524 439.369 85.4807 396.621C48.437 353.873 28.9937 298.661 31.0769 242.134C33.1601 185.607 56.6146 131.976 96.7045 92.0706C123.94 64.856 157.744 45.1399 194.841 34.834C231.938 24.528 271.068 23.9817 308.438 33.2482C345.808 42.5146 380.15 61.2794 408.134 87.7231C436.118 114.167 456.795 147.392 468.16 184.179C468.207 184.319 468.244 184.449 468.282 184.58C456.027 193.457 441.835 199.289 426.88 201.594C430.161 209.781 432.6 218.281 434.16 226.961C434.16 227.101 434.16 227.241 434.225 227.372C452.318 224.103 469.431 216.762 484.269 205.906C498.539 195.35 495.777 183.423 493.602 176.367C462.159 74.2165 367.065 0 254.629 0C116.565 0 4.63385 111.931 4.63385 249.995C4.63385 388.059 116.565 500 254.629 500C367.065 500 462.159 425.784 493.555 323.661C495.777 316.605 498.539 304.678 484.269 294.113Z" fill="#006BFF"/>
<path d="M426.88 201.594C421.171 202.515 415.397 202.977 409.614 202.975C371.703 202.975 357.47 190.366 340.997 175.76C325.131 161.677 305.336 144.149 269.338 144.149H247.872C221.851 144.149 198.192 153.594 181.262 170.739C164.724 187.483 155.615 210.405 155.615 235.287V264.695C155.615 289.577 164.724 312.499 181.262 329.242C198.192 346.387 221.851 355.832 247.872 355.832H269.338C305.336 355.832 325.112 338.305 340.997 324.221C357.47 309.615 371.703 297.006 409.614 297.006C415.397 297.005 421.171 297.467 426.88 298.387C430.162 290.208 432.598 281.714 434.151 273.039C434.151 272.899 434.207 272.749 434.225 272.6C426.108 271.097 417.869 270.344 409.614 270.351C322.509 270.351 327.035 329.149 269.338 329.149H247.872C208.281 329.149 182.261 300.87 182.261 264.667V235.296C182.261 199.093 208.281 170.814 247.872 170.814H269.338C327.035 170.814 322.537 229.612 409.614 229.612C417.87 229.62 426.109 228.864 434.225 227.353C434.225 227.223 434.225 227.083 434.16 226.943C432.598 218.268 430.159 209.775 426.88 201.594Z" fill="#0AE9EF"/>
<path d="M426.88 201.594C421.171 202.515 415.397 202.977 409.614 202.975C371.703 202.975 357.47 190.366 340.997 175.76C325.131 161.677 305.336 144.149 269.338 144.149H247.872C221.851 144.149 198.192 153.594 181.262 170.739C164.724 187.483 155.615 210.405 155.615 235.287V264.695C155.615 289.577 164.724 312.499 181.262 329.242C198.192 346.387 221.851 355.832 247.872 355.832H269.338C305.336 355.832 325.112 338.305 340.997 324.221C357.47 309.615 371.703 297.006 409.614 297.006C415.397 297.005 421.171 297.467 426.88 298.387C430.162 290.208 432.598 281.714 434.151 273.039C434.151 272.899 434.207 272.749 434.225 272.6C426.108 271.097 417.869 270.344 409.614 270.351C322.509 270.351 327.035 329.149 269.338 329.149H247.872C208.281 329.149 182.261 300.87 182.261 264.667V235.296C182.261 199.093 208.281 170.814 247.872 170.814H269.338C327.035 170.814 322.537 229.612 409.614 229.612C417.87 229.62 426.109 228.864 434.225 227.353C434.225 227.223 434.225 227.083 434.16 226.943C432.598 218.268 430.159 209.775 426.88 201.594Z" fill="#0AE9EF"/>
</g>
<defs>
<clipPath id="clip0_1405_1389">
<rect width="490.732" height="500" fill="white" transform="translate(4.63385)"/>
</clipPath>
</defs>
</svg>
