<?xml version="1.0" encoding="UTF-8"?>
<svg width="400px" height="400px" viewBox="0 0 400 400" version="1.1" xmlns="http://www.w3.org/2000/svg" xmlns:xlink="http://www.w3.org/1999/xlink">
    <title>画板备份 3</title>
    <g id="页面-1" stroke="none" stroke-width="1" fill="none" fill-rule="evenodd">
        <g id="画板备份-3" fill-rule="nonzero">
            <g id="手机-(1)" transform="translate(209, 200) scale(-1, 1) translate(-209, -200)translate(85, 79)">
                <path d="M243.780558,209.57692 C243.780558,220.181726 235.090495,228.862726 224.472536,228.862726 L133.736732,228.862726 C123.11971,228.862726 114.431522,220.183598 114.431522,209.57692 L114.431522,23.496648 C114.431522,12.8909057 123.11971,4.21271425 133.738607,4.21271425 L224.475347,4.21271425 C235.091433,4.21271425 243.780558,12.8909057 243.780558,23.496648 L243.780558,209.577856 L243.780558,209.57692 Z" id="路径" fill="#F0F0FF"></path>
                <path d="M239.562054,209.57692 C239.562054,217.888137 232.79239,224.650011 224.472536,224.650011 L133.736732,224.650011 C125.417815,224.650011 118.649089,217.888137 118.649089,209.57692 L118.649089,23.496648 C118.649089,15.1863669 125.418753,8.42542849 133.738607,8.42542849 L224.475347,8.42542849 C232.794265,8.42542849 239.562991,15.1863669 239.562991,23.496648 L239.562991,209.577856 L243.780558,205.365142 L239.562991,205.365142 C239.562054,205.364205 239.562054,209.57692 239.562054,209.57692 Z M247.999063,209.57692 L247.999063,23.496648 C247.999063,10.5411472 237.44671,0 224.476285,0 L133.739544,0 C120.768182,0 110.214892,10.5402112 110.214892,23.496648 L110.214892,209.577856 C110.214892,222.535229 120.767245,233.076376 133.73767,233.076376 L224.473473,233.076376 C237.444835,233.076376 247.999063,222.535229 247.999063,209.577856 L243.780558,213.79057 L247.999063,213.79057 L247.999063,209.57692 Z" id="形状" fill="#6E6E96"></path>
                <path d="M243.780558,209.57692 C243.780558,220.181726 235.090495,228.862726 224.472536,228.862726 L133.736732,228.862726 C123.11971,228.862726 114.431522,220.183598 114.431522,209.57692 L114.431522,23.496648 C114.431522,12.8909057 123.11971,4.21271425 133.738607,4.21271425 L224.475347,4.21271425 C235.091433,4.21271425 243.780558,12.8909057 243.780558,23.496648 L243.780558,209.577856 L243.780558,209.57692 Z" id="路径" fill="#F0F0FF"></path>
                <polygon id="路径" fill="#63C8FF" points="114.434333 28.7719025 243.782433 28.7719025 243.782433 202.43122 114.434333 202.43122"></polygon>
                <polygon id="路径" fill="#FFFFFF" opacity="0.29" points="125.916426 32.9846167 246.593207 32.9846167 246.593207 25.0272676 117.246045 25.0272676 117.246045 198.686585 125.916426 198.686585"></polygon>
                <path d="M224.477222,3.90097341 L133.740481,3.90097341 C128.449778,3.90097341 123.640814,6.05694702 120.143982,9.5300959 C123.165491,7.43512162 126.755791,6.31246367 130.433909,6.31251831 L215.909937,6.31251831 C223.541859,6.31251831 227.290808,11.0785025 229.977867,17.7711013 L115.088525,17.7711013 L115.088525,24.4777425 L230.347138,24.4777425 L230.347138,32.9827444 L125.916426,32.9827444 L125.916426,40.7069901 L230.348076,40.7069901 L230.348076,199.771593 L231.283438,199.771593 C231.283438,209.762279 223.098546,217.93869 213.096351,217.93869 L130.433909,217.93869 C123.543341,217.93869 117.518781,214.057376 114.435271,208.378637 L114.435271,209.263307 C114.435271,219.868113 123.123459,228.549113 133.740481,228.549113 L224.476285,228.549113 C235.094244,228.549113 243.78337,219.869985 243.78337,209.263307 L243.785244,209.263307 L243.785244,23.1849071 C243.781496,12.5791649 235.093307,3.90097341 224.477222,3.90097341 Z" id="路径" fill="#6E6E96" opacity="0.15"></path>
                <polygon id="路径" fill="#FFFFFF" points="116.777426 206.643934 183.819874 206.643934 183.819874 212.493991 116.777426 212.493991"></polygon>
                <path d="M114.434333,32.9846167 L243.782433,32.9846167 L239.564866,28.7719025 L239.564866,202.43122 L243.782433,198.218506 L114.434333,198.218506 L118.6519,202.43122 L118.6519,28.7719025 L114.434333,32.9846167 Z M114.434333,206.643934 L248,206.643934 L248,24.5591882 L110.216766,24.5591882 L110.216766,206.643934 L114.434333,206.643934 Z" id="形状" fill="#565693"></path>
                <polygon id="路径" fill="#FFFFFF" points="121.805703 6.07098941 178.97717 6.07098941 178.97717 12.6241004 121.805703 12.6241004"></polygon>
                <path d="M239.562054,209.57692 C239.562054,217.888137 232.79239,224.650011 224.472536,224.650011 L133.736732,224.650011 C125.417815,224.650011 118.649089,217.888137 118.649089,209.57692 L118.649089,23.496648 C118.649089,15.1863669 125.418753,8.42542849 133.738607,8.42542849 L224.475347,8.42542849 C232.794265,8.42542849 239.562991,15.1863669 239.562991,23.496648 L239.562991,209.577856 L243.780558,205.365142 L239.562991,205.365142 C239.562054,205.364205 239.562054,209.57692 239.562054,209.57692 Z M247.999063,209.57692 L247.999063,23.496648 C247.999063,10.5411472 237.44671,0 224.476285,0 L133.739544,0 C120.768182,0 110.214892,10.5402112 110.214892,23.496648 L110.214892,209.577856 C110.214892,222.535229 120.767245,233.076376 133.73767,233.076376 L224.473473,233.076376 C237.444835,233.076376 247.999063,222.535229 247.999063,209.577856 L243.780558,213.79057 L247.999063,213.79057 L247.999063,209.57692 Z" id="形状" fill="#565693"></path>
                <polygon id="路径" fill="#FFFFFF" opacity="0.26" points="128.412288 195.643133 125.916426 195.643133 125.916426 40.7088626 219.614836 40.7088626"></polygon>
                <path d="M118.6519,190.678683 L144.881419,152.764255 C144.881419,152.764255 187.634429,143.525304 186.354163,111.339231 L186.033628,97.7546313 C186.033628,97.7546313 198.269259,92.8435426 195.473481,77.4006679 L167.453839,98.3734321 L135.038555,143.870747 L115.356575,176.168223 L118.6519,190.678683 Z" id="路径"></path>
                <polygon id="路径" fill="#FFFFFF" opacity="0.45" points="125.917363 40.7088626 125.917363 95.1624077 165.749942 40.7088626"></polygon>
                <polygon id="路径" fill="#6E6E96" opacity="0.15" points="131.074042 191.121487 230.347138 191.121487 230.347138 198.218506 125.36533 198.686585"></polygon>
                <polygon id="路径" fill="#FFFFFF" opacity="0.45" points="131.675748 87.2883766 131.675748 135.445318 125.916426 147.615382 125.917363 95.1624077"></polygon>
                <g id="编组-3" transform="translate(0, 68.0551)">
                    <g id="编组-2">
                        <path d="M118.618609,75.6313667 C129.838275,79.6980402 140.401875,72.5523407 140.401875,72.5523407 C140.401875,72.5523407 142.755277,71.4645242 145.117114,70.3982394 C153.839043,66.4364155 158.897312,58.7439992 161.576874,50.2586566 C162.713742,46.6722326 161.782128,41.6544217 158.04349,40.2642259 C151.525005,37.834894 148.583018,49.5172189 141.605287,52.2976102 C139.948252,52.9566659 138.936036,50.9130314 139.530244,50.1257219 C146.266167,40.3569055 160.730548,31.2780382 169.489967,23.5622178 C171.896792,21.7460698 173.506028,20.5365527 173.506028,20.5365527 C173.506028,20.5365527 178.88202,16.8200027 176.9485,11.585003 C172.985861,0.876283173 160.201009,11.0935197 160.201009,11.0935197 L142.523779,22.8273333 C106.324869,-13.3308618 87.1696158,14.3326289 87.1696158,14.3326289 C83.1441823,20.7883797 83.1441823,20.7883797 80.7739095,30.2201789 C79.3427484,35.9298111 79.9500782,43.2945718 73.5684303,51.7668081 L67.1155524,60.334533 L107.358641,90.5762047 L118.618609,75.6313667" id="路径" fill="#FFC9C9"></path>
                        <g id="编组">
                            <path d="M117.179949,79.5922543 C130.271278,84.3367067 142.264165,76.3821659 142.768398,76.0414043 C142.579927,76.1685077 142.381531,76.2802706 142.175127,76.375613 L146.852878,74.2392986 C155.698522,70.2203692 162.176705,62.3669335 165.600433,51.5271515 C167.36525,45.9588795 165.541387,38.5576084 159.517763,36.3173807 C152.927112,33.8609001 148.723603,39.1455164 145.656963,43.0043624 C143.857468,45.2679942 141.996115,47.6093272 140.044787,48.3872753 C141.100116,47.9678763 142.412248,48.3301697 143.102055,49.2307543 C143.810606,50.1538067 143.728129,51.5636618 142.904298,52.6589674 L143.006457,52.5166713 C147.254953,46.3548744 155.384548,40.0788663 162.557224,34.5414876 C166.091545,31.8116487 169.431858,29.2344037 172.281996,26.7226898 C172.201918,26.7930517 172.119063,26.8601963 172.033628,26.9239639 L176.043129,23.9020434 C175.997204,23.9366814 175.954091,23.9675745 175.906292,23.9994041 C178.697385,22.069981 183.332022,16.6889405 180.906452,10.1255316 C179.126639,5.3136756 175.954091,3.52748491 173.605375,2.8749822 C166.481436,0.899687306 158.458685,7.08956874 157.567373,7.80292164 C157.664402,7.72554239 157.764783,7.65245179 157.868226,7.5838606 L140.189122,19.3186102 C141.861186,18.2081773 144.085227,18.4294639 145.505131,19.84754 C131.259126,5.61792722 117.614828,-1.01850201 104.949942,0.126420026 C91.1659951,1.37151106 83.9989426,11.5054293 83.7009012,11.9369987 C83.6618769,11.9920442 83.624985,12.0485675 83.5903072,12.1064434 C79.3380622,18.9254236 79.1440541,19.4047368 76.6838066,29.1950849 C76.2732967,30.8286819 76.0277407,32.4678958 75.7662513,34.2044703 C75.0623863,38.8955617 74.3350902,43.7439277 70.2,49.2344989 L63.7461848,57.8031598 C62.346233,59.6629584 62.7205061,62.3041635 64.5822005,63.702832 L104.825289,93.9435677 C105.719229,94.6154252 106.843786,94.9049976 107.951501,94.7485649 C109.059217,94.5921321 110.059327,94.0025123 110.731758,93.1094502 L121.988913,78.1646122 C122.661639,77.2718246 122.951517,76.1485666 122.794713,75.0421953 C122.63791,73.9358241 122.047283,72.9370712 121.152898,72.265876 C120.259082,71.5939248 119.13453,71.3043799 118.026884,71.4610031 C116.919238,71.6176264 115.919335,72.2075734 115.247367,73.1009295 L103.990211,88.0448315 C105.390147,86.1853933 108.034102,85.8115329 109.895742,87.209778 L69.6526534,56.9690424 C71.5139271,58.3676538 71.8877927,61.0085251 70.4877318,62.8677785 L76.9406096,54.3000539 C82.3606522,47.1038017 83.3306925,40.6452426 84.1095366,35.4542422 C84.3391597,33.9264312 84.5565988,32.4828744 84.865887,31.2471449 C87.074955,22.4566144 87.074955,22.4566144 90.750799,16.5616228 C90.7152566,16.6191611 90.6780642,16.6756661 90.6392678,16.7310675 C90.8398366,16.4502197 96.006825,9.33541335 105.847815,8.50878533 C115.869692,7.66717865 127.205575,13.4872774 139.541491,25.8080626 C140.961325,27.2260882 143.185126,27.4477425 144.8575,26.3379285 L162.536604,14.6031789 C162.6397,14.5348392 162.740922,14.461819 162.837457,14.3841176 C165.091513,12.6016713 169.312829,10.4260384 171.352257,10.9989676 C171.595939,11.066371 172.33823,11.2751345 172.994296,13.047283 C173.760019,15.1218109 171.180743,17.0203407 171.072023,17.0999141 C171.038211,17.1237243 171.004779,17.1480675 170.971739,17.1729346 L166.949117,20.2042166 C166.862891,20.2678753 166.782289,20.3352787 166.701686,20.4054906 C164.055866,22.7355898 160.822398,25.232325 157.397733,27.8751011 C149.735819,33.7897519 141.053254,40.4935847 136.056843,47.7375809 C136.089646,47.6889006 136.124324,47.6411565 136.159002,47.596221 C134.720343,49.5078572 134.815941,52.2845039 136.396123,54.3477979 C137.968289,56.4306823 140.746476,57.1967533 143.165787,56.2144983 C147.204342,54.6043053 149.889526,51.2266445 152.259799,48.2440429 C153.800617,46.3080666 155.717267,43.8955857 156.569215,44.2129434 C157.657348,44.617364 158.162518,47.0719721 157.556126,48.9882891 C154.832515,57.6140556 150.061041,63.5249619 143.370104,66.5646693 L138.628622,68.7300044 C138.421946,68.824091 138.223499,68.9352563 138.035351,69.0623408 C137.961309,69.1119572 129.043498,74.9292476 120.053519,71.6695429 C117.863202,70.8769417 115.444329,72.0079709 114.650815,74.1957672 C113.857301,76.3835635 114.989633,78.7996531 117.179949,79.5922543 L117.179949,79.5922543 Z" id="路径" fill="#565693"></path>
                            <path d="M68.3292746,171.02875 C80.2509312,158.61903 96.4407658,115.932064 119.037554,85.9281767 C127.923499,64.1690393 86.6850644,31.6496932 69.5617413,48.7523771 C45.330412,67.2115551 21.0016098,98.8087846 3.37030469,122.221179" id="路径" fill="#63C8FF"></path>
                            <path d="M71.3724836,173.944885 C77.3914205,167.679174 83.806809,155.410814 91.9270317,139.878068 C100.697697,123.100231 110.638971,104.086848 122.407858,88.4586137 C122.626091,88.1691725 122.805675,87.8525875 122.942083,87.516838 C128.727648,73.3499479 117.524853,56.4944098 103.467233,47.1674605 C89.2765248,37.751576 75.1420514,37.2179655 66.5794528,45.7716478 C66.7125178,45.6387317 66.854359,45.5148807 67.0040212,45.4009289 C43.0641725,63.6363649 19.8656785,93.3069799 0,119.686997 L6.74060962,124.751615 C20.8450916,106.021888 47.0999159,71.1584001 72.1194617,52.1010168 C72.2691239,51.9870651 72.4109651,51.8632142 72.5440301,51.7302981 C79.1881043,45.0938689 90.8398366,48.9040348 98.7997918,54.1867785 C109.726102,61.4363919 119.163143,74.4667852 115.133024,84.3367069 C115.26986,84.0015622 115.44981,83.6851405 115.667249,83.3949312 C103.483166,99.5726904 93.371314,118.912794 84.4497537,135.977095 C76.9499819,150.321855 70.4717987,162.712852 65.2860655,168.110744 L71.3724836,173.944885 L71.3724836,173.944885 Z" id="路径" fill="#565693"></path>
                        </g>
                    </g>
                    <path d="M23.0991467,137.048997 C23.0991467,137.048997 64.9627188,56.5402818 84.0195619,58.099922 C103.076405,59.6595622 106.201154,71.5188212 104.638779,77.7592555 C104.638779,77.7592555 108.377418,43.0848721 77.7663154,48.7196115 C47.15615,54.3543509 6.74060962,124.752552 6.74060962,124.752552" id="路径" fill="#FFFFFF" opacity="0.64"></path>
                </g>
                <path d="M110.902824,115.259863 L110.893451,115.247693 C111.547643,115.995684 126.786182,133.739637 115.1307,147.564829 C99.6053669,165.980944 80.0874033,227.697208 79.2860655,230.164923 L90.491673,230.133093 C90.6809948,229.549866 115.457796,171.544535 129.574462,154.8004 C143.906693,137.800693 125.489983,120.228994 117.702479,111.415059 L110.902824,115.259863 Z" id="路径" fill="#6E6E96" opacity="0.12"></path>
            </g>
        </g>
    </g>
</svg>