<svg width="188" height="240" viewBox="0 0 188 240" fill="none" xmlns="http://www.w3.org/2000/svg"><path fill="#6C47FF" style="fill:#6c47ff;fill:color(display-p3 .4235 .2784 1);fill-opacity:1" d="M157.504 120a37.5 37.5 0 0 1-37.5 37.5 37.5 37.5 0 0 1-37.5-37.5 37.5 37.5 0 0 1 75 0m30.071 88.785c3.18 3.195 2.865 8.475-.885 10.988A119.5 119.5 0 0 1 119.993 240c-24.675 0-47.625-7.455-66.698-20.227-3.75-2.513-4.065-7.8-.878-10.988l27.405-27.405c2.475-2.475 6.315-2.865 9.435-1.275A67.1 67.1 0 0 0 120 187.5a67.1 67.1 0 0 0 30.735-7.388c3.12-1.597 6.96-1.208 9.435 1.275z"/><path d="M186.697 20.227c3.75 2.513 4.065 7.8.878 10.98L160.17 58.612c-2.475 2.475-6.322 2.873-9.435 1.275a67.5 67.5 0 0 0-90.847 90.848c1.597 3.12 1.2 6.96-1.275 9.435l-27.406 27.405c-3.188 3.188-8.475 2.873-10.98-.878A119.5 119.5 0 0 1 0 120C0 53.723 53.723 0 120 0c24.675 0 47.625 7.455 66.698 20.227" fill="#BAB1FF" style="fill:#bab1ff;fill:color(display-p3 .7294 .6941 1);fill-opacity:1"/></svg>