<svg width="500" height="500" viewBox="0 0 500 500" fill="none" xmlns="http://www.w3.org/2000/svg">
<g clip-path="url(#clip0_1405_1414)">
<g clip-path="url(#clip1_1405_1414)">
<path d="M341.392 359.9L343.945 351.046C346.976 340.521 345.855 330.808 340.747 323.648C335.974 317.061 328.194 313.195 318.672 312.742L138.418 310.451C137.853 310.443 137.297 310.298 136.8 310.029C136.302 309.76 135.877 309.375 135.561 308.906C135.244 308.437 135.046 307.899 134.982 307.336C134.919 306.774 134.992 306.205 135.196 305.678C135.503 304.794 136.062 304.02 136.804 303.452C137.547 302.883 138.44 302.545 139.373 302.48L321.369 300.093C342.848 299.115 366.331 281.598 374.517 260.215L384.874 233.104C385.168 232.343 385.314 231.533 385.304 230.717C385.291 230.284 385.244 229.853 385.161 229.428C379.51 204.212 365.773 181.532 346.042 164.843C326.311 148.155 301.667 138.371 275.862 136.982C250.057 135.593 224.505 142.675 203.097 157.149C181.689 171.623 165.597 192.697 157.272 217.162C148.434 210.593 137.78 206.92 126.772 206.648C115.764 206.375 104.941 209.517 95.7896 215.64C86.638 221.764 79.606 230.57 75.6587 240.85C71.7114 251.13 71.0424 262.379 73.7435 273.054C63.0194 273.331 52.4767 275.884 42.8136 280.543C33.1505 285.202 24.5875 291.861 17.692 300.078C10.7964 308.296 5.72557 317.885 2.81541 328.211C-0.0947481 338.536 -0.777839 349.362 0.811386 359.971C0.926365 360.808 1.33974 361.576 1.97551 362.133C2.61128 362.69 3.4267 362.998 4.27184 363.002H337.168C338.113 363.012 339.035 362.714 339.797 362.155C340.559 361.595 341.118 360.804 341.392 359.9Z" fill="#F4801F"/>
<path d="M401.461 235.156C399.87 235.156 398.199 235.204 396.449 235.299C396.186 235.307 395.927 235.363 395.685 235.466C395.249 235.611 394.855 235.861 394.539 236.194C394.223 236.527 393.993 236.933 393.871 237.375L386.712 261.861C383.657 272.386 384.779 282.099 389.91 289.258C392.502 292.646 395.84 295.392 399.664 297.283C403.487 299.175 407.695 300.16 411.961 300.165L450.408 302.551C450.946 302.568 451.472 302.71 451.945 302.967C452.417 303.224 452.823 303.589 453.129 304.031C453.453 304.504 453.66 305.047 453.73 305.616C453.801 306.185 453.734 306.763 453.534 307.301C453.228 308.184 452.669 308.958 451.927 309.527C451.184 310.095 450.291 310.433 449.358 310.498L409.432 312.885C387.738 313.887 364.374 331.381 356.188 352.74L353.301 360.281C353.18 360.597 353.135 360.937 353.171 361.273C353.206 361.609 353.32 361.932 353.504 362.216C353.688 362.5 353.936 362.736 354.228 362.906C354.52 363.075 354.848 363.174 355.186 363.193H492.721C493.56 363.213 494.38 362.948 495.048 362.44C495.715 361.933 496.191 361.214 496.396 360.401C500.496 345.749 501.152 330.347 498.312 315.399C495.472 300.452 489.214 286.364 480.026 274.237C470.838 262.109 458.969 252.271 445.348 245.492C431.728 238.712 416.723 235.175 401.508 235.156H401.461Z" fill="#F9AB41"/>
</g>
</g>
<defs>
<clipPath id="clip0_1405_1414">
<rect width="500" height="500" fill="white"/>
</clipPath>
<clipPath id="clip1_1405_1414">
<rect width="500" height="226.099" fill="white" transform="translate(0 136.951)"/>
</clipPath>
</defs>
</svg>
