<svg xmlns="http://www.w3.org/2000/svg" viewBox="0 0 212 212" xmlns:bx="https://boxy-svg.com">
  <path stroke="#000" stroke-width="8" fill="#fff" d="M 200.399 52.51 L 200.399 162.51 L 10.399 162.51 L 10.399 52.51 L 200.399 52.51 Z" style="stroke-width: 8;" id="object-0"></path>
  <path fill="#000" d="M 129.399 94.76 L 129.399 75.51 L 149.336 75.51 L 149.336 94.76 L 129.399 94.76 Z M 129.399 139.51 L 129.399 120.26 L 149.336 120.26 L 149.336 139.51 L 129.399 139.51 Z M 159.462 94.76 L 159.462 75.51 L 179.399 75.51 L 179.399 94.76 L 159.462 94.76 Z M 159.462 139.51 L 159.462 120.26 L 179.399 120.26 L 179.399 139.51 L 159.462 139.51 Z M 31.399 141.51 L 31.399 73.51 L 51.399 73.51 L 71.399 98.51 L 91.399 73.51 L 111.399 73.51 L 111.399 141.51 L 91.399 141.51 L 91.399 102.51 L 71.399 127.51 L 51.399 102.51 L 51.399 141.51 L 31.399 141.51 Z" style="stroke-width: 1;" id="object-1"></path>
</svg>