<svg width="18" height="18" viewBox="0 0 18 18" fill="none" xmlns="http://www.w3.org/2000/svg">
  <style>
    /* Define CSS variables for colors */
    :root {
      --primary-color: #000000; /* Default color for light mode */
      --primary-color-dark: #ffffff; /* Color for dark mode */
    }

    /* Use the CSS variables for fill color */
    .fill-theme {
      fill: var(--primary-color);
    }

    /* Adjust colors based on the preferred color scheme */
    @media (prefers-color-scheme: dark) {
      :root {
        --primary-color: var(--primary-color-dark);
      }
    }
  </style>
  <g clip-path="url(#clip0_7_3)">
    <path d="M15.0326 14.062C15.5086 14.4613 15.5749 15.1771 15.1193 15.5995C14.1845 16.4663 13.0728 17.1277 11.8557 17.5349C10.2817 18.0616 8.5927 18.1427 6.97544 17.7693C5.35818 17.396 3.87567 16.5826 2.69182 15.4193C1.50796 14.2559 0.668881 12.7878 0.267339 11.1773C-0.134204 9.5668 -0.0825645 7.87663 0.416547 6.29365C0.915659 4.71067 1.8428 3.29654 3.09547 2.20761C4.34813 1.11869 5.87753 0.397376 7.51457 0.12343C8.78038 -0.0883936 10.0724 -0.0263651 11.3048 0.300107C11.9054 0.459217 12.1828 1.12235 11.95 1.69843V1.69843C11.7173 2.2745 11.062 2.54269 10.4553 2.40874C9.61434 2.22307 8.74213 2.19929 7.88593 2.34257C6.65815 2.54803 5.5111 3.08902 4.5716 3.90571C3.6321 4.72241 2.93674 5.783 2.56241 6.97024C2.18808 8.15747 2.14935 9.4251 2.4505 10.633C2.75166 11.8408 3.38097 12.9419 4.26886 13.8144C5.15675 14.687 6.26864 15.297 7.48158 15.577C8.69453 15.857 9.96129 15.7962 11.1418 15.4012C11.9651 15.1257 12.724 14.6953 13.3793 14.1365C13.8521 13.7334 14.5566 13.6626 15.0326 14.062V14.062Z" class="fill-theme"/>
    <path d="M11.9507 8.38261L8.69979 13.8595C8.66533 13.9175 8.61549 13.961 8.55782 13.9834C8.50016 14.0057 8.43783 14.0055 8.38028 13.9831C8.32274 13.9605 8.27313 13.9168 8.23896 13.8586C8.20481 13.8004 8.18796 13.7308 8.191 13.6604L8.3211 10.6366L6.2207 10.1176C6.17581 10.1065 6.13399 10.0827 6.09893 10.0484C6.06388 10.0141 6.03667 9.97026 6.01972 9.9208C6.00277 9.87133 5.99661 9.81777 6.00177 9.76485C6.00694 9.71194 6.02326 9.66129 6.04931 9.6174L9.30021 4.14052C9.33468 4.08242 9.38453 4.03893 9.44219 4.01664C9.49986 3.99434 9.56219 3.99446 9.61975 4.01698C9.67729 4.0395 9.72691 4.08318 9.76107 4.14142C9.79523 4.19965 9.81207 4.26924 9.80902 4.33964L9.67891 7.36346L11.7793 7.88247C11.8242 7.89355 11.866 7.91731 11.9011 7.95163C11.9362 7.98595 11.9633 8.02979 11.9803 8.07925C11.9973 8.12872 12.0034 8.18228 11.9982 8.23519C11.9931 8.28812 11.9767 8.33872 11.9507 8.38261Z" class="fill-theme"/>
  </g>
  <defs>
    <clipPath id="clip0_7_3">
      <rect width="18" height="18" />
    </clipPath>
  </defs>
</svg>
