<svg width="140" height="140" viewBox="0 0 140 140" fill="none" xmlns="http://www.w3.org/2000/svg"><g clip-path="url(#a)"><path d="M107.188 0H32.812C14.692 0 0 14.69 0 32.813v74.375C0 125.309 14.69 140 32.813 140h74.375C125.309 140 140 125.309 140 107.188V32.812C140 14.692 125.309 0 107.188 0Z" fill="#023430"/><path d="M28.699 55.32a35.723 35.723 0 0 1 26.62-26.621 64.283 64.283 0 0 1 29.362 0 35.721 35.721 0 0 1 26.62 26.62 64.285 64.285 0 0 1 0 29.362 35.72 35.72 0 0 1-26.62 26.62 64.285 64.285 0 0 1-29.361 0 35.721 35.721 0 0 1-26.621-26.62 64.283 64.283 0 0 1 0-29.362Z" fill="url(#b)" fill-opacity=".9" stroke="url(#c)" stroke-width="2"/><path d="m82.22 82.222-13.877-8.83V55.335" stroke="#fff" stroke-width="2" stroke-linecap="round" stroke-linejoin="round"/></g><defs><radialGradient id="c" cx="0" cy="0" r="1" gradientUnits="userSpaceOnUse" gradientTransform="matrix(-99.7914 -39.38133 49.20895 -124.69437 121.572 71.411)"><stop stop-color="#fff" stop-opacity=".6"/><stop offset=".328" stop-color="#fff" stop-opacity=".11"/><stop offset=".677" stop-color="#fff" stop-opacity=".03"/><stop offset="1" stop-color="#fff" stop-opacity=".22"/></radialGradient><linearGradient id="b" x1="26" y1="43.838" x2="117.709" y2="45.049" gradientUnits="userSpaceOnUse"><stop stop-color="#fff" stop-opacity=".67"/><stop offset="1" stop-color="#fff" stop-opacity="0"/></linearGradient><clipPath id="a"><path fill="#fff" d="M0 0h140v140H0z"/></clipPath></defs></svg>