<svg xmlns="http://www.w3.org/2000/svg" width="220" height="220" fill="none"><g clip-path="url(#a)"><path fill="url(#b)" stroke="#789695" d="M0 23C0 10.297 10.297 0 23 0h174c12.703 0 23 10.297 23 23v174c0 12.703-10.297 23-23 23H23c-12.703 0-23-10.297-23-23V23Z"/><path fill="#fff" d="M.158 20.288C.054 21.178 0 22.082 0 23v174a22.904 22.904 0 0 0 5.035 14.363H24.5c-7.322-19.035-10.67-40.907-9.771-57.621 2.159 5.024 4.232 10.8 6.43 16.924 4.774 13.305 10.139 28.25 18.25 40.697h25c-12.203-15.512-23.551-34.461-32.738-51.348-2.78-5.113-5.147-10.398-7.098-16.801 10.18 20.453 42.243 51.262 62.051 68.149h20.582c-8.078-6.532-13.02-14.352-16.8-21.184 9.925 8.723 21.441 15.727 34.417 21.184h30.336c-2.965-.903-6.058-1.848-9.281-2.922-34.633-11.43-73.477-40.82-92.426-60.371-1.633-1.633-2.75-3.61-3.094-5.715-.343-2.149.172-4.297 1.16-6.016 1.977-3.394 5.329-5.543 9.153-7.175 3.824-1.633 8.25-2.75 12.633-2.965 4.383-.215 8.765.515 12.504 2.535.86.473 1.719.945 2.62 1.418-15.425-38.715.215-72.617 58.868-68.965a194.938 194.938 0 0 0-11.258-5.586l-41.68 4.941s18.477-7.734 26.856-10.742c-3.137-.988-6.145-1.89-9.11-2.578-29.004 4.383-60.156 29.82-70.571 57.621-1.573-11.472.481-41.765 42.599-60.285-17.617 1.332-31.281 8.637-41.035 19.465-12.53 13.922-23.19 34.246-23.964 54.184-2.466-22.774 3.3-44.473 18.24-59.297 16.423-16.29 35.673-22.692 54.837-22.194 21.012.58 45.848 8.615 64.797 22.58 12.315 9.048 19.004 16.717 24.006 22.451 2.695 3.09 4.9 5.618 7.232 7.499.774-7.133-2.148-14.953-7.391-22.817 6.102 1.461 12.461 3.137 19.207 5.2-3.566-14.051-14.179-26.126-28.789-35.837 9.969 1.913 17.918 3.34 19.422.211-6.789-9.775-27.328-22.15-55.816-17.316-19.852-6.51-42.668-9.245-61.875-10.197C41.007 6.904 17.357 11.512.158 20.288Z"/><path fill="#fff" d="M74.261 134.126c.204-.011.402-.021.59-.021 2.922.043 5.587.473 7.262 1.418 2.205 1.206 4.659 2.494 7.228 3.844l1.925 1.011s-3.825 7.692-.86 16.243c2.965 8.55 13.578 11.601 20.453 11.601 2.144 0 5.358-.021 8.779-.043 7.549-.049 16.105-.105 16.401.043 6.614 3.43 18.767 8.609 30.637 13.667 12.96 5.522 25.583 10.901 30.293 13.704 4.511 2.707 8.164 5.07 10.484 6.832 1.117.86 1.848 1.504 2.277 1.977-.171.816-.515 1.676-1.546 2.621-1.289 1.203-3.739 2.535-8.122 3.222-8.765 1.333-24.921-.171-51.777-9.109-32.484-10.742-71.414-39.918-89.332-58.394-.773-.86-.945-1.332-.988-1.633-.043-.258-.043-.43.215-.946.558-.945 2.62-2.663 5.5-3.91 2.922-1.246 6.531-1.933 9.926-2.105.22 0 .44-.011.655-.022Z"/><path fill="#00DC82" d="m116.094 146.855-4.508.039a5.614 5.614 0 0 0-.728-1.958 5.277 5.277 0 0 0-1.303-1.459 5.36 5.36 0 0 0-1.768-.889 6.854 6.854 0 0 0-2.112-.295c-1.342.012-2.528.359-3.559 1.044-1.031.676-1.834 1.663-2.41 2.962-.575 1.291-.854 2.864-.838 4.721.017 1.888.324 3.477.922 4.765.606 1.281 1.426 2.246 2.46 2.896 1.042.642 2.23.957 3.564.946a7.18 7.18 0 0 0 2.071-.308 5.67 5.67 0 0 0 1.74-.895c.519-.39.953-.868 1.302-1.434.357-.565.6-1.211.73-1.935l4.509-.015a9.722 9.722 0 0 1-1.068 3.312 9.735 9.735 0 0 1-2.158 2.743c-.894.788-1.941 1.408-3.142 1.86-1.202.445-2.538.673-4.009.686-2.17.019-4.111-.466-5.823-1.456-1.712-.99-3.067-2.428-4.064-4.316-.997-1.888-1.507-4.158-1.53-6.81-.023-2.66.451-4.938 1.423-6.836.972-1.905 2.305-3.367 4-4.386 1.695-1.02 3.619-1.539 5.773-1.557 1.374-.012 2.653.169 3.838.545a9.797 9.797 0 0 1 3.173 1.672 9.03 9.03 0 0 1 2.302 2.704c.612 1.064 1.017 2.282 1.213 3.654ZM133.592 145.159c-.121-1.051-.603-1.867-1.444-2.446-.832-.58-1.912-.864-3.238-.852-.932.008-1.73.156-2.395.443-.664.287-1.171.673-1.521 1.158a2.793 2.793 0 0 0-.528 1.656c.005.515.125.96.362 1.335.244.376.572.695.984.956a6.83 6.83 0 0 0 1.368.639c.5.173 1.003.317 1.511.433l2.319.559c.934.208 1.833.494 2.696.856a9.462 9.462 0 0 1 2.339 1.378 6.204 6.204 0 0 1 1.657 2.023c.408.792.617 1.722.627 2.791.012 1.447-.346 2.723-1.076 3.831-.73 1.099-1.791 1.964-3.184 2.595-1.385.623-3.066.943-5.042.96-1.921.017-3.591-.266-5.011-.848-1.411-.582-2.52-1.441-3.325-2.575-.798-1.134-1.236-2.52-1.314-4.159l4.399-.039c.072.86.344 1.573.815 2.139.471.567 1.081.987 1.831 1.262.758.275 1.603.408 2.535.4.972-.009 1.823-.161 2.552-.457.736-.303 1.311-.718 1.725-1.244a2.966 2.966 0 0 0 .622-1.862c-.013-.643-.207-1.172-.58-1.586-.373-.423-.895-.772-1.564-1.047a15.023 15.023 0 0 0-2.321-.752l-2.815-.698c-2.038-.505-3.652-1.283-4.842-2.333-1.183-1.059-1.782-2.472-1.798-4.24-.012-1.454.37-2.731 1.148-3.831.786-1.1 1.86-1.957 3.221-2.572 1.361-.622 2.905-.941 4.633-.956 1.751-.016 3.289.276 4.612.875 1.331.592 2.379 1.422 3.144 2.493.765 1.062 1.165 2.288 1.202 3.678l-4.304.037ZM142.376 162.984l-.215-24.686 9.257-.081c1.897-.017 3.491.299 4.782.947 1.3.647 2.284 1.563 2.953 2.747.678 1.175 1.023 2.55 1.037 4.125.014 1.583-.312 2.961-.977 4.132-.656 1.163-1.633 2.067-2.929 2.713-1.297.639-2.893.966-4.79.983l-6.593.057-.032-3.713 5.99-.052c1.109-.01 2.016-.17 2.721-.482.704-.319 1.222-.778 1.555-1.375.34-.606.506-1.347.499-2.223-.008-.876-.187-1.622-.538-2.237-.351-.624-.882-1.094-1.592-1.409-.71-.323-1.623-.48-2.74-.47l-4.099.035.183 20.95-4.472.039Zm12.656-11.297 6.209 11.133-4.991.043-6.1-11.134 4.882-.042ZM164.453 162.792l-.215-24.687 15.814-.138.033 3.749-11.343.099.059 6.702 10.258-.09.032 3.749-10.257.09.091 10.487-4.472.039Z"/></g><defs><linearGradient id="b" x1="110" x2="110" y1="-227" y2="237" gradientUnits="userSpaceOnUse"><stop stop-color="#00DC82"/><stop offset=".943" stop-color="#030420"/></linearGradient><clipPath id="a"><rect width="220" height="220" fill="#fff" rx="23"/></clipPath></defs></svg>