<svg xmlns="http://www.w3.org/2000/svg" width="100" height="100" fill="none"><path d="m75.2 53.3 15.4-3.5c.8-.2 2.7-.8 3.2 0 .2.3.1 1-.3 1.8-2.7 3.9-8.4 11.7-37.4 22l-5 .5 1.3.4c2 .7 3.6 1 4.9 1.2 1.3.2 2.4.2 3.5.1 2.4-.2 4.4-.9 6.6-1.7 3.7-1.3 7.6-2.7 14-2 3 .2 5.3 1.2 7.6 2 2.3 1 4.6 2 7.7 1.8a2.9 2.9 0 0 1 .2 5.7c-4.2.2-7.1-1-10-2.1-2-.8-3.9-1.6-6.1-1.8-5-.5-8.3.7-11.5 1.8-2.5 1-5 1.8-8 2-1.5.1-3 .1-4.8-.1-1.7-.2-3.6-.7-6-1.4l-2.4-.9c-4.6-1.6-8.1-2.8-13.2-.9-13.3 5.1-17.3 3.5-22.1 1.5-2.3-1-4.8-2-9.2-2a2.9 2.9 0 0 1 0-5.6c5.5 0 8.6 1.2 11.3 2.3 3 1.3 5.7 2.3 12.9.2-5.5-.3-10-1.1-13.5-2.4-2.5-1-3.1-1-3.3-3.8v-2.6c0-.7 2.3-1 2.8-1.1L35 61.2zm-40.3 8a4810 4810 0 0 0 40.3-8z" style="fill:#38485e;stroke-width:.804998;fill-opacity:1;fill-rule:evenodd;clip-rule:evenodd"/><g aria-label="CSRF" style="font-size:32.7496px;line-height:1.25;fill:#41b883;stroke-width:.818738"><path d="M25.3 52.8q0 1.1-.6 2.5-.5 1.3-1.7 2.5-1.2 1.3-3 2-1.8.8-4.3.8-1.8 0-3.4-.3-1.5-.4-2.7-1.1-1.3-.8-2.3-2-1-1-1.6-2.4-.6-1.4-1-3-.3-1.5-.3-3.3 0-2.8.8-5 .9-2.3 2.4-3.9 1.5-1.5 3.6-2.4 2-.8 4.4-.8 2.8 0 5 1.1 2.3 1.2 3.5 2.8 1.1 1.7 1.1 3.2 0 .8-.5 1.4-.6.7-1.4.7-1 0-1.4-.5-.4-.4-1-1.5-1-1.7-2.2-2.6-1.2-.8-3-.8-3 0-4.8 2.2-1.7 2.2-1.7 6.3 0 2.7.8 4.6.8 1.8 2.2 2.7 1.4.9 3.3.9 2 0 3.4-1t2.2-3q.3-1 .7-1.5.5-.6 1.4-.6.9 0 1.5.6.6.5.6 1.4zM47.4 53.2q0 2.1-1.1 3.8-1.1 1.7-3.2 2.7-2.1 1-5 1-3.5 0-5.7-1.4-1.6-1-2.6-2.5-1-1.6-1-3 0-1 .6-1.5.6-.7 1.5-.7.7 0 1.3.5.5.5.8 1.4l1 2q.5.7 1.5 1.2 1 .4 2.5.4 2 0 3.4-1 1.3-1 1.3-2.4 0-1.2-.7-1.9T40 50.7q-1-.4-3-.8-2.5-.6-4.2-1.4-1.7-.8-2.7-2.1-1-1.4-1-3.5 0-1.9 1-3.4 1.1-1.5 3.1-2.3 2-.8 4.7-.8 2.2 0 3.7.5 1.6.6 2.7 1.5 1 .8 1.5 1.8t.5 2q0 .8-.6 1.4-.6.7-1.5.7-.8 0-1.3-.4-.4-.4-.9-1.3-.6-1.4-1.5-2-1-.8-2.9-.8-1.8 0-3 .8-1 .8-1 2 0 .6.3 1.1l1 1 1.4.5 2.3.6 3.6 1q1.6.6 2.7 1.4 1.1.8 1.7 2 .7 1.2.7 3zM57.8 50.2h-1.7v7.5q0 1.5-.6 2.2-.7.7-1.7.7-1.2 0-1.8-.7-.6-.7-.6-2.2v-18q0-1.5.7-2.2.7-.7 2.2-.7H62l2.8.1 2 .6q1.1.4 2 1.3.8.9 1.2 2 .5 1.2.5 2.4 0 2.7-1.5 4.2-1.5 1.6-4.5 2.2 1.3.7 2.4 2 1.2 1.3 2 2.8 1 1.5 1.5 2.7.5 1.2.5 1.6 0 .5-.3 1-.3.4-.8.7-.5.2-1.2.2-.8 0-1.3-.4-.6-.3-1-.9l-1-1.7-2-3.2q-1-1.7-1.8-2.6-.8-1-1.6-1.3-.8-.3-2.1-.3zm2.7-9.8h-4.4v6.4h4.3q1.7 0 2.9-.3 1.1-.3 1.7-1 .7-.7.7-2 0-1-.5-1.7t-1.4-1q-.8-.4-3.3-.4zM89 40.4h-9.4v6h7.8q1.1 0 1.7.5.5.5.5 1.3 0 .9-.5 1.3-.6.5-1.7.5h-7.8v7.7q0 1.5-.6 2.2-.7.7-1.7.7t-1.8-.7q-.6-.7-.6-2.2v-18q0-1 .3-1.7.3-.6 1-1 .6-.2 1.6-.2H89q1.1 0 1.7.5.5.5.5 1.3t-.5 1.4q-.6.4-1.7.4z" style="font-family:&quot;Arial Rounded MT Bold&quot;;-inkscape-font-specification:&quot;Arial Rounded MT Bold, &quot;" transform="matrix(.92157 -.16838 .13363 1.0607 0 0)"/></g></svg>