<svg xmlns="http://www.w3.org/2000/svg" width="512" height="512" fill="none" viewBox="0 0 512 512"><g clip-path="url(#a)"><path fill="#0CCB93" fill-rule="evenodd" d="M403.13 255.431c0 29.261-11.732 34.505-24.845 34.505h-27.88v-69.01h27.88c13.113 0 24.845 5.245 24.845 34.505Zm-14.216.003c0-20.426-6.21-21.393-15.182-21.393h-8.694v42.787h8.694c8.972 0 15.182-.966 15.182-21.394ZM241.23 289.936v-69.01h43.891v13.112H255.86v14.078h22.083v12.974H255.86v15.735h29.261v13.111H241.23ZM309 352.727h14.455V160H309v192.727Zm123.386-93.426v17.529h12.147c7.591 0 9.523-4.969 9.523-8.696 0-2.898-1.38-8.833-11.732-8.833h-9.938Zm0-25.26v13.112h9.938c5.659 0 8.971-2.484 8.971-6.625 0-4.14-3.312-6.487-8.971-6.487h-9.938Zm-14.625-13.115h28.155c14.77 0 19.186 10.352 19.186 17.805 0 6.901-4.416 11.87-7.454 13.25C466.482 256.26 468 264.955 468 269.372c0 5.796-2.898 20.564-22.084 20.564h-28.155v-69.01Zm-260.582 34.505c0 29.261-11.732 34.505-24.844 34.505h-27.88v-69.01h27.88c13.112 0 24.844 5.245 24.844 34.505Zm43.06 21.952c7.453 0 11.317-2.485 12.698-4.141v-7.591h-11.87v-11.87h23.601v27.466c-2.07 3.175-13.388 9.386-23.739 9.386-16.977 0-31.331-6.625-31.331-35.886 0-29.26 14.492-34.505 27.604-34.505 20.565 0 25.672 10.766 27.328 20.289l-12.146 2.761c-.69-4.417-4.554-9.938-13.387-9.938-8.972 0-15.183.966-15.183 21.393 0 20.428 6.487 22.636 16.425 22.636Zm-57.278-21.949c0-20.426-6.211-21.393-15.182-21.393h-8.696v42.787h8.696c8.971 0 15.182-.966 15.182-21.394ZM44 289.936v-69.01h43.8905v13.112H58.6302v14.078h22.0831v12.974H58.6302v15.735h29.2603v13.111H44Z" clip-rule="evenodd"/></g><defs><clipPath id="a"><path fill="#fff" d="M44 160h424v192.727H44z"/></clipPath></defs></svg>