<svg width="520" height="520" viewBox="0 0 520 520" fill="none" xmlns="http://www.w3.org/2000/svg">
<g clip-path="url(#clip0_1_2)">
<path d="M260 520C403.594 520 520 403.594 520 260C520 116.406 403.594 0 260 0C116.406 0 0 116.406 0 260C0 403.594 116.406 520 260 520Z" fill="url(#paint0_linear)"/>
<path d="M208.794 160.48C212.767 161.205 216.575 158.572 217.3 154.598C218.025 150.626 215.391 146.817 211.418 146.092L208.794 160.48ZM117.566 247.552C119.572 251.056 124.04 252.271 127.545 250.265C131.05 248.259 132.265 243.791 130.258 240.286L117.566 247.552ZM153.13 271.154C150.414 268.166 145.789 267.944 142.8 270.66C139.811 273.375 139.59 278 142.305 280.989L153.13 271.154ZM393.74 363.655C397.075 361.377 397.932 356.827 395.655 353.492C393.377 350.157 388.827 349.3 385.492 351.578L393.74 363.655ZM211.418 146.092C188.789 141.964 167.72 141.767 150.206 145.996C132.66 150.234 118.154 159.078 109.915 173.372L122.585 180.676C128.25 170.848 138.713 163.817 153.639 160.213C168.597 156.601 187.503 156.596 208.794 160.48L211.418 146.092ZM109.915 173.372C97.6747 194.606 102.692 221.568 117.566 247.552L130.258 240.286C116.423 216.116 114.192 195.236 122.585 180.676L109.915 173.372ZM142.305 280.989C161.031 301.6 185.72 321.488 214.694 338.243L222.015 325.582C194.22 309.509 170.746 290.544 153.13 271.154L142.305 280.989ZM214.694 338.243C249.21 358.201 284.564 370.681 315.799 375.216C346.771 379.713 374.865 376.545 393.74 363.655L385.492 351.578C371.01 361.468 347.304 365.012 317.9 360.743C288.76 356.512 255.162 344.749 222.015 325.582L214.694 338.243ZM428.021 344.938C428.021 330.824 416.593 319.364 402.476 319.364V333.989C408.497 333.989 413.396 338.88 413.396 344.938H428.021ZM402.476 319.364C388.357 319.364 376.931 330.824 376.931 344.938H391.556C391.556 338.88 396.456 333.989 402.476 333.989V319.364ZM376.931 344.938C376.931 359.051 388.357 370.511 402.476 370.511V355.886C396.456 355.886 391.556 350.995 391.556 344.938H376.931ZM402.476 370.511C416.593 370.511 428.021 359.051 428.021 344.938H413.396C413.396 350.995 408.497 355.886 402.476 355.886V370.511Z" fill="#A2ECFB"/>
<path d="M371.667 265.614C369.06 268.699 369.447 273.312 372.532 275.919C375.616 278.526 380.23 278.139 382.837 275.055L371.667 265.614ZM343.31 143.167C339.272 143.115 335.955 146.346 335.903 150.384C335.85 154.422 339.081 157.738 343.12 157.791L343.31 143.167ZM304.447 162.013C308.395 161.166 310.909 157.278 310.062 153.329C309.215 149.381 305.327 146.866 301.378 147.714L304.447 162.013ZM103.793 328.675C104.379 332.671 108.093 335.436 112.089 334.85C116.085 334.265 118.849 330.551 118.264 326.555L103.793 328.675ZM382.837 275.055C397.653 257.525 408.302 239.391 413.368 222.129C418.442 204.837 418.031 187.879 409.809 173.617L397.139 180.921C402.794 190.731 403.651 203.295 399.333 218.012C395.006 232.759 385.606 249.122 371.667 265.614L382.837 275.055ZM409.809 173.617C397.767 152.725 372.565 143.548 343.31 143.167L343.12 157.791C370.227 158.144 388.888 166.606 397.139 180.921L409.809 173.617ZM301.378 147.714C273.96 153.597 244.107 165.133 214.836 182.059L222.157 194.72C250.239 178.481 278.666 167.545 304.447 162.013L301.378 147.714ZM214.836 182.059C179.305 202.605 150.178 227.888 130.606 253.47C111.221 278.809 100.404 305.547 103.793 328.675L118.264 326.555C115.716 309.167 123.803 286.431 142.222 262.357C160.453 238.527 188.028 214.455 222.157 194.72L214.836 182.059Z" fill="#A2ECFB"/>
<path d="M199.398 354.37C198.038 350.567 193.853 348.586 190.05 349.946C186.247 351.306 184.267 355.491 185.627 359.294L199.398 354.37ZM319.164 391.729C321.242 388.266 320.12 383.774 316.657 381.696C313.195 379.617 308.703 380.74 306.625 384.202L319.164 391.729ZM323.254 346.042C322.05 349.897 324.198 353.998 328.053 355.202C331.908 356.406 336.009 354.258 337.214 350.403L323.254 346.042ZM280.946 91.5285C277.256 89.8873 272.934 91.5484 271.293 95.2384C269.652 98.9288 271.313 103.25 275.003 104.891L280.946 91.5285ZM185.627 359.294C193.373 380.957 203.733 399.305 216.138 412.364C228.566 425.441 243.457 433.595 259.933 433.595V418.97C248.619 418.97 237.317 413.42 226.741 402.289C216.142 391.133 206.687 374.756 199.398 354.37L185.627 359.294ZM259.933 433.595C283.844 433.595 304.249 416.577 319.164 391.729L306.625 384.202C292.817 407.205 276.3 418.97 259.933 418.97V433.595ZM337.214 350.403C345.422 324.132 350.119 293.244 350.119 260.273H335.494C335.494 291.905 330.981 321.311 323.254 346.042L337.214 350.403ZM350.119 260.273C350.119 219.84 343.053 182.496 331.078 152.954C319.21 123.677 302.021 100.901 280.946 91.5285L275.003 104.891C291.023 112.016 306.25 130.635 317.524 158.448C328.691 185.996 335.494 221.435 335.494 260.273H350.119Z" fill="#A2ECFB"/>
<path fill-rule="evenodd" clip-rule="evenodd" d="M420.708 344.938C420.708 334.852 412.547 326.677 402.476 326.677C392.407 326.677 384.244 334.852 384.244 344.938C384.244 355.023 392.407 363.198 402.476 363.198C412.547 363.198 420.708 355.023 420.708 344.938Z" stroke="#A2ECFB" stroke-width="14.625" stroke-linecap="round"/>
<path fill-rule="evenodd" clip-rule="evenodd" d="M117.058 363.198C127.127 363.198 135.291 355.023 135.291 344.938C135.291 334.852 127.127 326.677 117.058 326.677C106.989 326.677 98.826 334.852 98.826 344.938C98.826 355.023 106.989 363.198 117.058 363.198Z" stroke="#A2ECFB" stroke-width="14.625" stroke-linecap="round"/>
<path d="M259.933 112.526C270.002 112.526 278.165 104.35 278.165 94.2646C278.165 84.1794 270.002 76.0037 259.933 76.0037C249.864 76.0037 241.701 84.1794 241.701 94.2646C241.701 104.35 249.864 112.526 259.933 112.526Z" stroke="#A2ECFB" stroke-width="14.625" stroke-linecap="round"/>
<path d="M268.736 289H318.921C320.516 289 322.081 288.594 323.462 287.821C324.842 287.049 325.989 285.938 326.785 284.6C327.582 283.262 328.001 281.744 328 280.2C328 278.655 327.579 277.138 326.782 275.8L293.078 219.229C292.282 217.891 291.136 216.781 289.756 216.008C288.375 215.236 286.81 214.829 285.216 214.829C283.622 214.829 282.057 215.236 280.677 216.008C279.297 216.781 278.151 217.891 277.354 219.229L268.736 233.704L251.887 205.399C251.09 204.061 249.944 202.951 248.563 202.179C247.183 201.407 245.617 201 244.023 201C242.429 201 240.863 201.407 239.482 202.179C238.102 202.951 236.956 204.061 236.158 205.399L194.219 275.8C193.421 277.138 193.001 278.655 193 280.2C192.999 281.744 193.418 283.262 194.215 284.6C195.012 285.938 196.158 287.049 197.538 287.821C198.919 288.594 200.485 289 202.079 289H233.581C246.062 289 255.267 283.687 261.601 273.322L276.977 247.515L285.214 233.704L309.932 275.189H276.977L268.736 289ZM233.067 275.175L211.083 275.17L244.037 219.859L260.481 247.515L249.471 265.999C245.265 272.724 240.487 275.175 233.067 275.175Z" fill="#A2ECFB"/>
</g>
<defs>
<clipPath id="clip0_1_2">
<rect width="520" height="520" fill="white"/>
</clipPath>
<linearGradient id="paint0_linear" x1="194.651" y1="8.81818" x2="236.076" y2="292.989" gradientUnits="userSpaceOnUse">
<stop stop-color="#36E4DA"/>
<stop offset="0.5" stop-color="#1DE0B1"/>
<stop offset="1" stop-color="#00DC82"/>
</linearGradient>
</defs>
</svg>
