<svg width="68" height="50" viewBox="0 0 68 50" fill="none" xmlns="http://www.w3.org/2000/svg">
<path d="M65.8787 2.76465H63.4897C63.0819 2.7643 62.6841 2.89104 62.3516 3.12726C62.0191 3.36347 61.7686 3.69741 61.6347 4.08264L46.7347 46.8236C46.6314 47.1196 46.6004 47.4361 46.6445 47.7465C46.6885 48.0569 46.8063 48.3523 46.988 48.6078C47.1696 48.8634 47.4098 49.0717 47.6885 49.2154C47.9671 49.3591 48.2762 49.4339 48.5897 49.4337H50.9777C51.3852 49.4337 51.7826 49.307 52.1148 49.071C52.4471 48.835 52.6976 48.5014 52.8317 48.1166L67.7317 5.37564C67.835 5.07966 67.8659 4.76326 67.8219 4.45288C67.7779 4.1425 67.6602 3.84715 67.4787 3.59155C67.2972 3.33595 67.0571 3.12753 66.7786 2.98367C66.5001 2.83981 66.1922 2.76471 65.8787 2.76465Z" fill="#9494F0"/>
<path d="M12.029 16.356V14.408C12.029 13.8873 11.8222 13.3879 11.4541 13.0196C11.086 12.6513 10.5867 12.4443 10.066 12.444H6.309V10.639C6.303 8.52901 6.78 7.26499 7.209 6.80499L7.229 6.78C7.52167 6.49172 7.88921 6.29114 8.29 6.20099C9.67871 5.97756 11.0835 5.86888 12.49 5.87601H13.212C13.7327 5.87574 14.232 5.66871 14.6001 5.30042C14.9682 4.93212 15.175 4.4327 15.175 3.91199V2.15201C15.1758 1.69611 15.0177 1.25418 14.7279 0.902283C14.4381 0.550384 14.0346 0.310525 13.587 0.223999C13.349 0.177999 13.087 0.130999 12.787 0.0859985C12.416 0.0289985 10.47 0.001 10.087 0H10.06C6.897 0 4.204 0.739011 2.4 2.67401C0.638 4.61501 0 7.36099 0 10.697V47.47C0.000518294 47.9885 0.206024 48.4857 0.571698 48.8532C0.937371 49.2208 1.43354 49.4288 1.952 49.432H4.345C4.60282 49.4323 4.85817 49.3817 5.09644 49.2832C5.33471 49.1848 5.55124 49.0403 5.73364 48.8581C5.91604 48.6758 6.06074 48.4595 6.15946 48.2213C6.25819 47.9831 6.309 47.7278 6.309 47.47V18.319H10.065C10.3228 18.3191 10.5781 18.2684 10.8164 18.1698C11.0546 18.0712 11.271 17.9267 11.4533 17.7444C11.6357 17.562 11.7802 17.3456 11.8788 17.1074C11.9774 16.8691 12.0281 16.6138 12.028 16.356" fill="#9494F0"/>
<path d="M36.928 13.6284C34.5938 12.3504 31.9586 11.7241 29.299 11.8154C26.6775 11.7494 24.0751 12.278 21.687 13.3614C19.5464 14.372 17.7455 15.9825 16.503 17.9974L16.494 18.0104C16.3275 18.2792 16.2395 18.5892 16.24 18.9054C16.2416 19.2756 16.3577 19.6364 16.5726 19.9379C16.7875 20.2395 17.0905 20.4671 17.44 20.5894L19.367 21.2754C19.9027 21.4648 20.4839 21.4835 21.0306 21.3289C21.5774 21.1744 22.0628 20.8542 22.42 20.4124C22.6022 20.1895 22.7965 19.9769 23.002 19.7754C24.263 18.5514 26.134 17.8304 29.046 17.8194C30.2991 17.7895 31.5474 17.9838 32.732 18.3934C33.5809 18.6991 34.332 19.2271 34.907 19.9224C35.998 21.2614 36.685 23.3304 36.749 26.2964C33.943 26.3404 31.449 26.4574 29.303 26.6584C26.5992 26.8995 23.9325 27.4546 21.357 28.3124H21.348L21.325 28.3184C18.9694 28.9609 16.8506 30.2725 15.225 32.0944C13.7108 33.9996 12.9251 36.3821 13.009 38.8144V38.8784C12.9644 41.0037 13.5451 43.0953 14.679 44.8934C15.8153 46.6179 17.4393 47.9652 19.344 48.7634C21.4664 49.6292 23.7444 50.0486 26.036 49.9954C27.7985 49.9741 29.544 49.6477 31.195 49.0304C33.0517 48.3471 34.7694 47.3335 36.265 46.0384C36.565 45.7874 36.838 45.5184 37.108 45.2384C37.2832 46.3842 37.672 47.487 38.254 48.4894C38.4288 48.7761 38.6746 49.0128 38.9677 49.1766C39.2608 49.3404 39.5913 49.4257 39.927 49.4244L41.076 49.4114C41.5927 49.4053 42.0862 49.1959 42.4496 48.8284C42.8129 48.461 43.0168 47.9651 43.017 47.4484V26.4134C43.0742 23.8335 42.5884 21.2704 41.591 18.8904C40.634 16.6866 39.0005 14.8439 36.928 13.6284ZM35.329 38.5284C34.3866 40.1725 33.055 41.5601 31.451 42.5694C29.8877 43.5632 28.0684 44.0797 26.216 44.0554C24.3442 44.1872 22.4857 43.6562 20.966 42.5554C20.4387 42.128 20.0182 41.5836 19.738 40.9654C19.4475 40.2542 19.3046 39.4915 19.318 38.7234C19.304 37.8209 19.53 36.9308 19.973 36.1444C20.5647 35.273 21.4042 34.5993 22.383 34.2104C24.3302 33.393 26.3844 32.8585 28.483 32.6234C31.229 32.2621 33.9945 32.0681 36.764 32.0424V33.2574C36.7707 35.1107 36.2759 36.9313 35.332 38.5264" fill="#9494F0"/>
</svg>
