<svg xmlns="http://www.w3.org/2000/svg" width="240" height="240" fill="none"><g fill-rule="evenodd" clip-rule="evenodd" filter="url(#a)"><path fill="url(#b)" d="M120 57.5H45v75h25v75h25v-25h25v25h25v-50h25v50h25v-100h-50v25h-25v-75Z"/><path fill="#000" d="M70 82.5H45v25h25v-25Zm50 0H95v25h25v-25Z"/><path fill="#EA7F38" d="M120 32.5H45v25H20v75h25v25h25v25h25v-25h25v-25h25v-75h-25v-25Zm0 25v75H45v-75h75Zm75 25h25v25h-25v-25Z"/></g><defs><linearGradient id="b" x1="45" x2="195" y1="57.5" y2="207.5" gradientUnits="userSpaceOnUse"><stop offset=".258" stop-color="#FFE45F"/><stop offset="1" stop-color="#FFC617"/></linearGradient><filter id="a" width="224" height="199" x="12" y="24.5" color-interpolation-filters="sRGB" filterUnits="userSpaceOnUse"><feFlood flood-opacity="0" result="BackgroundImageFix"/><feColorMatrix in="SourceAlpha" result="hardAlpha" values="0 0 0 0 0 0 0 0 0 0 0 0 0 0 0 0 0 0 127 0"/><feOffset dx="4" dy="4"/><feGaussianBlur stdDeviation="6"/><feComposite in2="hardAlpha" operator="out"/><feColorMatrix values="0 0 0 0 0 0 0 0 0 0 0 0 0 0 0 0 0 0 0.15 0"/><feBlend in2="BackgroundImageFix" result="effect1_dropShadow_819_2"/><feBlend in="SourceGraphic" in2="effect1_dropShadow_819_2" result="shape"/></filter></defs></svg>
