<svg width="119" height="117" viewBox="0 0 119 117" fill="none" xmlns="http://www.w3.org/2000/svg">
<path d="M87.7849 31.3456V102.079H78.1234V63.3798H40.0104V72.9528H68.4652V77.8935C68.4647 90.2522 68.4447 102.611 68.4768 114.969C68.4787 115.739 68.5197 116.352 68.6082 116.836C79.4156 115.073 89.235 110.386 97.2367 103.611V53.8637C97.2367 46.3642 95.5737 38.137 87.7849 31.3456Z" fill="#FF2E4C"/>
<path d="M68.6342 34.301H78.2882V13.0858C84.0972 14.3445 106.131 28.7552 107.029 51.3316V93.2649C114.16 83.4874 118.379 71.4492 118.379 58.4207C118.379 28.9914 96.9035 4.58845 68.7716 0.000411987C68.6887 0.496995 68.6519 1.12867 68.6477 1.92479L68.6342 34.301Z" fill="#FF2E4C"/>
<path d="M30.2648 85.4905V14.7568H39.9263V53.4563H78.0393V43.8833H49.5845V38.9426C49.585 26.5839 49.605 14.2252 49.5729 1.86702C49.571 1.09746 49.53 0.484418 49.4415 0.000411987C38.6341 1.76268 28.8147 6.4504 20.813 13.2251V62.9724C20.813 70.4719 22.476 78.6991 30.2648 85.4905Z" fill="#FF2E4C"/>
<path d="M49.7453 82.5444H40.0913V103.76C34.2823 102.501 12.2486 88.0902 11.3505 65.5138V23.5805C4.219 33.3579 0.000366211 45.3961 0.000366211 58.4247C0.000366211 87.854 21.476 112.257 49.6079 116.845C49.6908 116.348 49.7276 115.717 49.7318 114.921L49.7453 82.5444Z" fill="#FF2E4C"/>
</svg>
