<svg width="64" height="64" viewBox="0 0 16.933 16.933" xmlns="http://www.w3.org/2000/svg"><path d="M5.962 6.96c-.136.146-.102.348-.102.595v.935c0 .077-.113.14-.136.192-.022.051-.132.09-.168.118a.324.324 0 0 1-.121.057c-.045.01-.135.016-.135.016v.602s.095.005.14.016a.396.396 0 0 1 .14.06c.034.03.129.07.15.123.023.053.13.122.13.205v.913c0 .248-.034.356.102.502.138.145.22.13.453.13h.845v-.552h-.386c-.107 0-.136.043-.167-.026-.032-.07-.007-.067-.007-.146v-.892c0-.12-.067-.22-.104-.298a.608.608 0 0 0-.152-.189c-.053-.047-.091-.082-.15-.103-.06-.022-.154-.035-.154-.039v-.01c0-.004.071-.019.13-.044a.626.626 0 0 0 .17-.11c.053-.047.14-.108.176-.183.037-.075.084-.165.084-.27v-.914c0-.08-.025-.17.007-.24.031-.07.06-.12.167-.12h.386v-.552h-.845c-.233 0-.315.078-.453.224zm5.415 1.84c-.035-.028-.145-.067-.168-.118-.022-.051-.135-.115-.135-.192v-.935c0-.247.034-.45-.103-.595-.137-.146-.22-.224-.453-.224h-.845v.551h.386c.107 0 .136.052.168.12.031.07.006.161.006.241v.914c0 .105.047.195.084.27.037.075.123.136.177.183a.63.63 0 0 0 .17.11c.058.025.13.04.13.043v.011c0 .004-.095.017-.154.039a.446.446 0 0 0-.151.104.604.604 0 0 0-.152.188c-.036.079-.104.178-.104.298v.892c0 .08.025.077-.006.146-.032.069-.06.026-.168.026h-.386v.551h.845c.233 0 .316.016.453-.13.137-.145.103-.253.103-.5v-.914c0-.084.107-.152.128-.205.023-.052.117-.094.152-.123a.38.38 0 0 1 .14-.06c.044-.01.14-.016.14-.016v-.602s-.091-.005-.136-.016a.32.32 0 0 1-.121-.057z" style="fill:#020420;fill-opacity:1;stroke-width:.130537;stroke-dasharray:none" transform="matrix(.86595 0 0 .9195 1.135 -.857)"/><text font-family="sans-serif" font-size="6.729" letter-spacing="0" text-anchor="middle" word-spacing="0" x="7.939" y="11.487" style="fill:#020420;fill-opacity:1;stroke-width:.28137;stroke-dasharray:none" transform="matrix(.92351 0 0 .86219 1.135 -.857)"><tspan x="7.939" y="11.487" style="fill:#020420;fill-opacity:1;stroke-width:.28137;stroke-dasharray:none">:</tspan></text><path d="M11.464 1.721H5.47c-.706 0-1.284.57-1.284 1.265v10.961c0 .696.578 1.265 1.284 1.265h5.995a1.28 1.28 0 0 0 1.285-1.265V2.986c0-.696-.578-1.265-1.285-1.265zM8.467 14.37a.85.85 0 0 1-.857-.843.85.85 0 0 1 .857-.843.85.85 0 0 1 .856.843.85.85 0 0 1-.856.843zm3.425-2.53h-6.85V3.408h6.85z" style="fill:#00dc82;fill-opacity:1;stroke-width:.849763"/></svg>