<?xml version="1.0" standalone="no"?>
<!DOCTYPE svg PUBLIC "-//W3C//DTD SVG 20010904//EN"
 "http://www.w3.org/TR/2001/REC-SVG-20010904/DTD/svg10.dtd">
<svg version="1.0" xmlns="http://www.w3.org/2000/svg"
 width="100.000000pt" height="100.000000pt" viewBox="0 0 100.000000 100.000000"
 preserveAspectRatio="xMidYMid meet">

<g transform="translate(0.000000,100.000000) scale(0.100000,-0.100000)"
fill="#000000" stroke="none">
<path d="M64 944 c-64 -31 -64 -33 -64 -444 0 -413 0 -414 66 -445 48 -22 820
-22 868 0 66 31 66 32 66 445 0 413 0 414 -66 445 -47 22 -824 22 -870 -1z
m876 -497 c0 -246 -3 -307 -14 -323 -14 -18 -30 -19 -426 -19 -396 0 -412 1
-426 19 -11 16 -14 77 -14 323 l0 303 440 0 440 0 0 -303z"/>
<path d="M110 521 c-16 -31 -13 -193 4 -217 20 -26 50 -8 54 35 2 23 8 31 23
31 15 0 19 -7 19 -34 0 -37 23 -54 47 -35 10 9 13 37 11 123 -3 111 -3 111
-28 111 -23 0 -25 -4 -28 -47 -3 -40 -6 -48 -23 -48 -15 0 -19 7 -19 38 0 57
-38 84 -60 43z"/>
<path d="M306 524 c-8 -21 11 -44 35 -44 17 0 19 -8 19 -78 0 -89 16 -125 47
-106 15 9 19 27 21 98 3 83 4 86 27 86 24 0 42 30 30 50 -3 5 -44 10 -90 10
-67 0 -84 -3 -89 -16z"/>
<path d="M515 530 c-12 -20 6 -50 30 -50 23 0 24 -3 27 -86 2 -71 6 -89 21
-98 31 -19 47 17 47 106 0 70 2 78 19 78 24 0 43 23 35 44 -5 13 -22 16 -89
16 -46 0 -87 -5 -90 -10z"/>
<path d="M727 533 c-4 -3 -7 -55 -7 -113 0 -83 3 -110 15 -120 21 -17 45 4 45
40 0 24 5 29 46 39 37 10 48 17 60 46 27 66 -15 115 -102 115 -28 0 -54 -3
-57 -7z m101 -75 c3 -13 -3 -18 -22 -18 -20 0 -26 5 -26 21 0 15 5 20 22 17
13 -2 24 -11 26 -20z"/>
</g>
</svg>
