<svg width="352" height="352" viewBox="0 0 352 352" fill="none" xmlns="http://www.w3.org/2000/svg"><path fill-rule="evenodd" clip-rule="evenodd" d="M102.753 37.1942c2.356 8.7913 6.046 16.8686 10.794 24.0724-2.32 6.2147-3.737 12.8695-4.091 19.805L109.41 81l-14.4999 91 .1467-.168c-1.1073 5.39-1.6889 10.972-1.6889 16.689 0 19.68 6.8911 37.75 18.3911 51.93l62.99 110.02-2.792-162.902c-5.525-1.499-9.589-6.549-9.589-12.548 0-7.18 5.82-13 13-13s13 5.82 13 13c0 5.673-3.633 10.497-8.7 12.272l-2.8 163.377 63.09-110.195c10.033-12.362 16.562-27.685 18.074-44.454 34.461.066 62.378 28.023 62.378 62.5 0 34.518-27.982 62.5-62.5 62.5-19.182 0-36.346-8.642-47.811-22.244l-10.424 18.181c14.921 14.87 35.504 24.063 58.235 24.063 45.563 0 82.5-36.936 82.5-82.5 0-45.563-36.937-82.5-82.5-82.5h-.243l-.127.001h-.113c-.131-.865-.276-1.725-.434-2.581L242.41 84l-.044.0671c-.054-8.1029-1.557-15.8617-4.263-23.0301 4.675-7.1457 8.312-15.1448 10.643-23.8428C252.113 24.6271 252.389 11.96 250.04 0c-19.641.804515-38.189 8.65262-52.395 21.6686-6.823-2.3636-14.15-3.6475-21.777-3.6475-7.691 0-15.077 1.3056-21.949 3.7073C139.705 8.67666 121.13.805746 101.458 0c-2.3484 11.96-2.0721 24.6271 1.295 37.1942Zm15.321 229.7238c1.778-.208 3.552-.373 5.321-.497l13.321 23.124c-6.482-.596-13.13-.66-19.881-.146-28.926 4.724-52.6717 22.755-65.6483 47.029l-.0638.007c-2.1651 7.755-8.8308 13.817-17.3223 14.807-11.2091 1.306-21.3549-6.721-22.6613-17.931-.5026-4.312.3764-8.467 2.2865-12.022l-.0196-.028.1316-.177c1.0702-1.939 2.4491-3.694 4.0786-5.192 21.064-25.358 53.483-43.5 91.3456-47.912 1.629-.19 3.254-.353 4.874-.489 1.403-.217 2.816-.408 4.238-.573Z" fill="#000"/></svg>