<svg xmlns="http://www.w3.org/2000/svg" width="512" height="512" viewBox="0 0 512 512" xmlns:xlink="http://www.w3.org/1999/xlink">
  <defs>
    <polygon id="a" points="0 300 300 300 300 0 0 0"/>
  </defs>
  <g fill="none" fill-rule="evenodd">
    <circle cx="256" cy="256" r="256" fill="#1F8DED"/>
    <g transform="translate(106 106)">
      <mask id="b" fill="white">
        <use xlink:href="#a"/>
      </mask>
      <path fill="#FFFFFF" d="M260,164.94 C260,170.4625 255.5225,174.94 250,174.94 C244.4775,174.94 240,170.4625 240,164.94 L240,75 C240,69.4775 244.4775,65 250,65 C255.5225,65 260,69.4775 260,75 L260,164.94 Z M256.51,227.5325 C254.965,228.855 217.92,259.94 150,259.94 C82.08,259.94 45.035,228.855 43.49,227.5325 C39.3,223.9375 38.8125,217.625 42.4075,213.43 C45.9925,209.245 52.29,208.75 56.485,212.3275 C57.0725,212.8175 90.15,239.94 150,239.94 C210.6,239.94 243.17,212.6225 243.4925,212.3475 C247.675,208.7525 254,209.235 257.5925,213.43 C261.1875,217.625 260.7025,223.9375 256.51,227.5325 Z M40,75 C40,69.4775 44.4775,65 50,65 C55.5225,65 60,69.4775 60,75 L60,164.94 C60,170.4625 55.5225,174.94 50,174.94 C44.4775,174.94 40,170.4625 40,164.94 L40,75 Z M90,55 C90,49.4775 94.4775,45 100,45 C105.5225,45 110,49.4775 110,55 L110,188.595 C110,194.1175 105.5225,198.595 100,198.595 C94.4775,198.595 90,194.1175 90,188.595 L90,55 Z M140,49.94 C140,44.4175 144.4775,39.94 150,39.94 C155.5225,39.94 160,44.4175 160,49.94 L160,194.94 C160,200.4625 155.5225,204.94 150,204.94 C144.4775,204.94 140,200.4625 140,194.94 L140,49.94 Z M190,55 C190,49.4775 194.4775,45 200,45 C205.5225,45 210,49.4775 210,55 L210,188.595 C210,194.1175 205.5225,198.595 200,198.595 C194.4775,198.595 190,194.1175 190,188.595 L190,55 Z M262.5,0 L37.5,0 C16.7875,0 0,16.79 0,37.5 L0,262.5 C0,283.21 16.79,300 37.5,300 L262.5,300 C283.21,300 300,283.21 300,262.5 L300,37.5 C300,16.79 283.21,0 262.5,0 L262.5,0 Z" mask="url(#b)"/>
    </g>
  </g>
</svg>
