<svg xmlns="http://www.w3.org/2000/svg" xml:space="preserve" width="438.69" height="342.12"><path d="m110.33 251.88 18.65-10.58-37.43-9.26.1 1.69zm15.28-13.15 6.35-11.14-18.12-12.5z" style="fill:#f3dc29;fill-opacity:1;stroke:none;stroke-width:.499999" transform="translate(-202.32 -655.43)scale(3.77953)"/><path d="M90.33 174.37c.17.88.6 4.65 2 17.85l.43 3.77 3.84 2.23c2.12 1.2 4.27 2.43 4.8 2.71.5.32 2.12 1.24 3.57 2.08l6.7 3.92 4.06 2.4 1.05 2.54 1.03 2.5 5.85 4.13c3.21 2.22 6.5 4.55 7.34 5.08.81.56 1.48 1.2 1.48 1.41 0 .39-1.73 3.5-5.22 9.42l-1.97 3.35-.75-1.59c-1.65-3.66-3.24-7.16-5.46-12.13-1.3-2.93-2.93-6.5-3.6-7.94a80 80 0 0 1-1.62-3.7c-.43-1.06-.78-1.34-3.04-2.65l-6.56-3.77a8490 8490 0 0 0-33.16-19.2 119 119 0 0 0-7.3-4.05c-.14.1 1.51 4.4 11 28.43 3.21 8.05 5.93 15.03 6.1 15.45.29.82 1.49 1.56 7.9 4.9 2.65 1.38 2.4.82 3.11 6.92.25 1.9.36 3.53.29 3.6s-3.85-2.65-8.4-6.03a1818 1818 0 0 0-14.11-10.4c-8.86-6.54-12.35-9.15-14.29-10.6a7 7 0 0 0-1.87-1.2c-.07.08 3.88 4.95 8.82 10.84l17.07 20.39c4.48 5.33 9.74 11.64 11.75 14.04a60 60 0 0 0 3.78 4.3 287 287 0 0 0 8.18-4.02l8.04-4.02 4.24 2.01c2.3 1.13 6.1 2.96 8.43 4.1a162 162 0 0 1 4.8 2.32c.5.25.8-.28 1.94-3.2.7-1.95 1.4-3.54 1.55-3.54.14 0 1.38.46 2.72 1.03a34 34 0 0 0 3.56 1.27c.92.17 1.1.1 1.27-.6.46-1.66.99-3.5 3.53-12.63l5.82-20.82c4.27-15.24 4.69-16.58 5.15-16.58.21 0 3.7 1.13 7.76 2.47a100 100 0 0 0 7.65 2.4c.15-.07-2.04-2.82-4.86-6.1a315 315 0 0 1-5.9-6.99c-.67-.88-.91-.95-2.18-.77-1.34.2-7.98 1.44-9.56 1.76-.7.14-1.94 1.9-4.1 5.82a1929 1929 0 0 1-9.38 16.23c-.18.28-.42.46-.5.35-.1-.1-1.47-4.55-3.06-9.88-1.59-5.32-3.07-9.87-3.32-10.08-.21-.22-3.03-2.62-6.24-5.3l-9-7.55a941 941 0 0 0-7.76-6.52c-2.5-2.12-6.53-5.5-8.89-7.48a67 67 0 0 0-4.48-3.63c-.1 0-.1.42-.03.95m4.97 59.33c3.67.89 6.98 1.66 20.07 4.63a323 323 0 0 1 11.04 2.64c.15.14-2.46 1.59-8.57 4.76-2.71 1.45-5.43 2.86-6 3.18l-1.09.6-2.43-2.08c-1.38-1.17-4.84-4.13-7.76-6.56-2.9-2.47-5.68-4.8-6.18-5.22l-1.94-1.7c-1.3-1.1-.88-1.16 2.86-.25" style="fill:#1450aa;stroke:none;stroke-width:.0352778" transform="translate(-202.32 -655.43)scale(3.77953)"/><text xml:space="preserve" x="96.45" y="254.59" style="font-size:30.9571px;font-family:&quot;Dank Mono&quot;;-inkscape-font-specification:&quot;Dank Mono&quot;;writing-mode:lr-tb;direction:ltr;fill:#0a2348;fill-opacity:1;stroke:#0a2348;stroke-width:2.20531;stroke-linecap:round;stroke-linejoin:round;stroke-dasharray:none;stroke-opacity:1;paint-order:normal" transform="matrix(3.661 0 0 3.9019 -202.32 -655.43)"><tspan x="96.45" y="254.59" style="fill:#0a2348;stroke:#0a2348;stroke-width:2.20531;stroke-dasharray:none">PDF</tspan></text></svg>