<svg height="512" viewBox="0 0 512 512" width="512" xmlns="http://www.w3.org/2000/svg"><path d="m64.3 194.9c0 16.2-2.2 28.3-6.4 36.4-4.3 8.1-12.2 15.3-23.8 21.5 11.2 5.9 19.1 13.3 23.5 22 4.5 8.8 6.7 20.9 6.7 36.4v79.7c0 18.1 3.1 30.1 9.4 35.9s19 8.7 38.1 8.7v31.2h-14.3c-25.1 0-42.9-5.5-53.4-16.6-10.6-11.1-15.8-29.8-15.8-56.2v-81.7c0-14.2-2.1-24.8-6.4-31.7s-11.5-11.7-21.8-14.4v-29.2c18.8-5.3 28.2-20 28.2-44.1v-87.1c0-24.1 5.5-41.4 16.6-52 10.9-10.4 28.7-15.7 53.1-15.7h13.9v31.2c-19.1.3-31.8 3.3-38.1 8.9s-9.4 17-9.4 34.2z" fill="#2f495e"/><path d="m206.6 414.1c0 6.9-3 13.4-8.9 19.3 8.9 6.6 18 9.9 27.3 9.9 18.6 0 32-5.4 40.1-16.3s12.2-28.4 12.2-52.5l.5-155.4c0-29-.8-46.9-2.5-53.7s-6.2-10.2-13.5-10.2c-3.7 0-8.3.7-14 2-3 1-6 1.5-9 1.5-10.7 0-16-5.3-16-15.8 0-10.9 6.9-16.3 20.8-16.3 4.9 0 9.2.2 12.9.5 10.6 1 18 1.5 22.3 1.5 2.6 0 6.8-.4 12.4-1.2s9.7-1.2 12.4-1.2c9.6 0 14.4 5.3 14.4 15.8 0 1.7-.2 4.9-.5 9.9-.3 5.9-.5 10.7-.5 14.4-.3 5.3-.8 17.2-1.5 35.6-.7 20.8-1 36.8-1 48v111.9c0 19.8-.8 34.5-2.5 44-3 15.5-8.9 28.7-17.8 39.6-15.8 19.1-38 28.7-66.3 28.7-19.8 0-36.3-5-49.5-14.9s-19.8-22.3-19.8-37.1c0-8.2 2.4-15.1 7.2-20.5s10.8-8.2 18.1-8.2c6.3 0 11.6 2.1 16.1 6.2 4.4 4.1 6.6 8.9 6.6 14.5zm83.2-313.8c-7.6 0-14.1-2.7-19.5-8.2s-8.2-12-8.2-19.6 2.7-14 8.2-19.3 12-7.9 19.5-7.9 14.2 2.7 19.8 8.2c5.6 5.4 8.4 11.8 8.4 19 0 7.6-2.8 14.1-8.4 19.6s-12.2 8.2-19.8 8.2z" fill="#00c58e"/><path d="m447.7 309.7c0-15.8 2.1-27.9 6.4-36.1s12.2-15.5 23.8-21.8c-11.2-5.9-19.1-13.3-23.5-22-4.5-8.7-6.7-20.9-6.7-36.4v-79.7c0-18.1-3.1-30.1-9.4-35.9s-19-8.7-38.1-8.7v-31.1h13.8c25.1 0 43 5.5 53.7 16.6s16.1 29.8 16.1 56.2v81.7c0 26.1 9.4 41.4 28.2 46v29.2c-18.8 5.3-28.2 20-28.2 44v87.1c0 24.1-5.5 41.4-16.3 52-10.9 10.6-28.7 15.8-53.5 15.8h-13.9v-31.2c19.1-.3 31.8-3.3 38.1-8.9s9.4-17 9.4-34.1z" fill="#2f495e"/></svg>