<?xml version="1.0" encoding="UTF-8"?>
<svg width="500px" height="500px" viewBox="0 0 500 500" version="1.1" xmlns="http://www.w3.org/2000/svg" xmlns:xlink="http://www.w3.org/1999/xlink">
    <defs>
        <path d="M0,0 L500,0 L500,500 L0,500 L0,0 Z" id="path-1"></path>
    </defs>
    <g id="Logo-clear-(square)" stroke="none" fill="none" xlink:href="#path-1" fill-rule="evenodd" stroke-width="1">
        <g id="Group-21-Copy" transform="translate(74, 72)">
            <path d="M352,214.075724 L352,325.936897 C352,342.521158 338.537683,356 321.973753,356 L30.0262467,356 C13.4623172,356 0,342.521158 0,325.936897 L0,178 L177.768579,267 L319.862017,194.253898 C334.578178,186.787676 352,197.557535 352,214.075724" id="Fill-18" fill="#2D6A4F"></path>
            <path d="M177.842932,30.0961396 L177.842932,178 L0,178 L0,30.0961396 C0,13.4722346 13.4603466,0 30.0695826,0 L147.773349,0 C164.382585,0 177.842932,13.4722346 177.842932,30.0961396" id="Fill-19" fill="#2D6A4F"></path>
            <path d="M352,214.19025 L352,214.19025 C352,197.619623 334.578178,186.815574 319.862017,194.305497 L177.768579,267.28254 L0,178 L315.968504,178 C335.865017,178 352,194.206073 352,214.19025" id="Fill-20" fill-opacity="0.829190341" fill="#40916C"></path>
        </g>
    </g>
</svg>