<svg color="#bfdbfe" xmlns="http://www.w3.org/2000/svg" width="150" height="150" viewBox="0 0 32 32"><path fill="currentColor" d="m30.976 24.975l-5.001 5.001a3.501 3.501 0 0 1-4.951-4.95l1.414 1.414a1.5 1.5 0 0 0 2.122 2.122l5.002-5.002a1.5 1.5 0 0 0-2.122-2.122l-1.415-1.414a3.501 3.501 0 0 1 4.952 4.95Z"/><path fill="currentColor" d="m20.025 21.024l-5.001 5.001a3.501 3.501 0 0 0 4.95 4.951l-1.414-1.414a1.5 1.5 0 0 1-2.122-2.122l5.002-5.002a1.5 1.5 0 0 1 2.122 2.122l1.414 1.415a3.501 3.501 0 0 0-4.95-4.952Z"/><circle cx="7" cy="20" r="2" fill="currentColor"/><path fill="currentColor" d="M14 20a4 4 0 1 1 4-4a4.012 4.012 0 0 1-4 4Zm0-6a2 2 0 1 0 2 2a2.006 2.006 0 0 0-2-2Z"/><circle cx="21" cy="12" r="2" fill="currentColor"/><path fill="currentColor" d="M11.308 27.273L3 22.425V9.574l11-6.416l11.496 6.706l1.008-1.728l-12-7a1 1 0 0 0-1.008 0l-12 7A1 1 0 0 0 1 9v14a1 1 0 0 0 .496.864L10.3 29Z"/></svg>
