<svg width="48" height="48" viewBox="0 0 48 48" fill="none" xmlns="http://www.w3.org/2000/svg">
  <g clip-path="url(#clip0_0_33)">
    <path fill-rule="evenodd" clip-rule="evenodd"
      d="M4 7.49503C4 6.1159 4 5.42633 4.26742 4.87131C4.50309 4.38219 4.8821 3.96763 5.35931 3.67702C5.90082 3.34726 6.62076 3.24937 8.06063 3.05361L28.5958 0.261598C30.4598 0.00816784 31.3918 -0.118547 32.1161 0.149002C32.7518 0.383867 33.2824 0.81992 33.6179 1.38326C34 2.025 34 2.91768 34 4.70302V43.297C34 45.0823 34 45.975 33.6179 46.6167C33.2824 47.1801 32.7518 47.6161 32.1161 47.851C31.3918 48.1185 30.4598 47.9918 28.5959 47.7384H28.5959H28.5958L8.06063 44.9464L8.06057 44.9464C6.62074 44.7506 5.90081 44.6527 5.35931 44.323C4.8821 44.0324 4.50309 43.6178 4.26742 43.1287C4 42.5737 4 41.8841 4 40.505V7.49503ZM26 20.5078C26 20.0879 26 19.8779 26.0705 19.7119C26.1326 19.5657 26.2323 19.4436 26.3567 19.3611C26.4979 19.2674 26.6847 19.2484 27.0583 19.2104L28.731 19.0402C29.1712 18.9954 29.3912 18.973 29.5611 19.0552C29.7104 19.1273 29.8338 19.2535 29.9115 19.4134C30 19.5954 30 19.8428 30 20.3376V27.6624C30 28.1572 30 28.4046 29.9115 28.5866C29.8338 28.7465 29.7104 28.8727 29.5611 28.9448C29.3912 29.027 29.1712 29.0046 28.731 28.9598L27.0583 28.7896C26.6847 28.7516 26.4979 28.7326 26.3567 28.6389C26.2323 28.5564 26.1326 28.4343 26.0705 28.2881C26 28.1221 26 27.9121 26 27.4922V20.5078ZM39.6444 5H37V44H39.6444C41.169 44 41.9313 44 42.5136 43.7024C43.0259 43.4407 43.4423 43.0231 43.7033 42.5094C44 41.9254 44 41.1609 44 39.632V9.368C44 7.83906 44 7.07458 43.7033 6.49061C43.4423 5.97692 43.0259 5.55929 42.5136 5.29755C41.9313 5 41.169 5 39.6444 5Z"
      fill="url(#paint0_linear_0_33)" />
  </g>
  <defs>
    <linearGradient id="paint0_linear_0_33" x1="-8.38095" y1="33.1953" x2="40.8896" y2="13.0537"
      gradientUnits="userSpaceOnUse">
      <stop stop-color="#4B2EFB" />
      <stop offset="1" stop-color="#E65FFC" />
    </linearGradient>
    <clipPath id="clip0_0_33">
      <rect width="40" height="48" fill="white" transform="translate(4)" />
    </clipPath>
  </defs>
</svg>