<svg xmlns="http://www.w3.org/2000/svg" viewBox="0 0 42.5 42.5"><path fill="#36A048" d="M16.3 15.55c4.5 1.9 8.9 3.7 13.4 5.6 3.5 1.5 7.1 2.6 8.8 6.3 1.3 2.9 2.6 5.9 4 8.8-.5-3.3-1.1-6.4-1.6-9.7-.6-3.8-4-5.9-6.8-8.1-6.8-5-13.3-10-19.9-15.1.6 3.7 1.2 7.5 1.8 11.2.1.4.2.7.3 1Z"/><path fill="#36A048" d="M10.6 23.55c4.9.8 9.9 1.6 14.8 2.4 3.7.6 7.5.8 10 4.1 2.1 2.6 4.1 5.3 6.2 7.9-1.4-3.2-2.8-6.3-4.3-9.5-1.4-3.2-5.2-4.5-8.5-5.9-7.7-3.2-15.3-6.5-23-9.7 1.6 3.5 3.1 6.9 4.6 10.4.1.1.1.2.2.3Z"/><path fill="#36A048" d="M41.1 39.75s.1 0 0 0c-2.3-2.9-4.5-5.8-6.8-8.7-2.2-2.8-6.1-3.1-9.6-3.6-8.2-1.4-16.5-2.7-24.7-4 2.3 2.9 4.6 5.9 6.9 8.9l.9.9c2.3 1.9 5.6 2.1 8.6 2.6l3.9.6c7 1.1 13.9 2.2 20.8 3.3.1 0 0 0 0 0Z"/></svg>
