<svg width="436" height="470" viewBox="0 0 436 470" fill="none" xmlns="http://www.w3.org/2000/svg">
<path d="M380.44 76.2923L274.329 15.0626C239.61 -5.02085 197.066 -5.02085 162.347 15.0626L55.7458 76.2923C21.5159 96.3758 0 133.603 0 173.281V296.229C0 336.397 21.5159 373.134 55.7458 393.217L161.859 454.938C196.578 475.021 239.12 475.021 273.839 454.938L379.952 393.217C414.671 373.134 435.697 336.397 435.697 296.229V173.281C436.675 133.603 415.159 96.3758 380.44 76.2923ZM218.093 344.234C157.946 344.234 109.047 295.251 109.047 235C109.047 174.75 157.946 125.766 218.093 125.766C278.24 125.766 327.629 174.75 327.629 235C327.629 295.251 278.729 344.234 218.093 344.234Z" fill="url(#paint0_linear_402_38733)"/>
<defs>
<linearGradient id="paint0_linear_402_38733" x1="-373.752" y1="384.79" x2="515.097" y2="161.768" gradientUnits="userSpaceOnUse">
<stop offset="0.265625" stop-color="#592EE1"/>
<stop offset="1" stop-color="#B836D9"/>
</linearGradient>
</defs>
</svg>
