<svg width="128" height="128" fill="#ff6347" baseProfile="tiny" version="1.2" viewBox="0 0 150 162" xmlns="http://www.w3.org/2000/svg" class="w-8 text-c-primary flex-shrink-0" ><path d="m80.32 0h1.47q6.47 0.77 9.1 6.08 6.91 13.91 16.19 25.87a1.19 1.17-49.9 0 1 0.1 1.3q-7.47 13.87-13.23 28.53a0.42 0.41-43.5 0 1-0.78-0.02c-5.41-15.99-13.94-33.66-31.42-38.28q-0.57-0.15-0.25-0.65 4.78-7.38 8.82-15.1c2.47-4.73 4.83-7.23 10-7.73z" ></path> <path d="m92.24 95.3a0.63 0.62-43.8 0 0 1.18 0.02q9.02-23.49 19.35-46.71c2.06-4.64 9.91-21.57 16.63-16.07q2.08 1.71 2.08 3.77 0.04 28.68 0.02 57.37c-0.01 3.92 1.27 8.92 5.9 9.04 4.83 0.12 9.52-5.72 11.62-9.68q0.2-0.37 0.46-0.04 0.18 0.23 0.04 0.48c-3.74 6.94-10.99 14.79-18.83 15.48-7.46 0.65-11.22-5.96-11.41-12.74q-0.6-20.59-0.13-41.23 0.01-0.43-0.25-0.64a0.55 0.55 0 0 0-0.86 0.23q-9.83 25.75-20.1 51.36c-8.99 22.43-20.78-9.09-23.19-15.15q-5.61-14.13-11.5-28.15c-1.97-4.7-3.93-10.09-7.3-12.48q-0.43-0.31-0.9-0.07c-2.99 1.49-4.08 9.29-4.4 11.92-2.18 17.73 1.86 38.44 13.77 51.94 13.85 15.68 35.63 16.76 53.5 7.13q1.06-0.57 1.92-0.77a0.32 0.32 0 0 1 0.23 0.59q-21.78 12.64-45.52 5.7c-26.54-7.75-46.3-32.19-44.72-60.32 0.7-12.52 8.39-29.85 22.29-31.54 15.18-1.86 23.7 15.11 27.96 26.45q6.39 17.02 12.16 34.11z" ></path> <path d="m0 81.43v-1.23c0.94-8.62 11.13-11.67 17.59-15.34a0.39 0.39 0 0 1 0.58 0.39c-0.16 1.18-0.53 2.26-0.51 3.35q0.27 16.97 8.43 33.96 0.18 0.39-0.17 0.14-8.39-5.91-17.51-10.65c-5.18-2.7-7.95-4.91-8.41-10.62z" ></path> <path d="m81.67 162h-1.46c-5.1-0.59-7.43-2.98-9.86-7.69q-5.58-10.79-12.69-20.51a0.31 0.3-4.3 0 1 0.39-0.45c11.54 6.03 27.79 8.9 40.96 7.22q0.65-0.09 0.3 0.47-4.14 6.6-7.73 13.43c-2.46 4.67-4.8 7.03-9.91 7.53z" ></path></svg>