<?xml version="1.0" encoding="UTF-8"?>
<svg id="nuxt-my-icons-logotype" xmlns="http://www.w3.org/2000/svg" viewBox="0 0 500 500">
    <rect id="BgLight"
        width="500" height="500"
        style="fill:#005b34;" />

    <path id="BgDark"
        d="M0,0h113.77v113.77H0V0ZM128.74,113.77h113.77V0h-113.77v113.77ZM257.49,113.77h113.77V0h-113.77v113.77ZM386.23,113.77h113.77V0h-113.77v113.77ZM0,242.51h113.77v-113.77H0v113.77ZM128.74,242.51h113.77v-113.77h-113.77v113.77ZM257.49,242.51h113.77v-113.77h-113.77v113.77ZM386.23,242.51h113.77v-113.77h-113.77v113.77ZM0,371.26h113.77v-113.77H0v113.77ZM128.74,371.26h113.77v-113.77h-113.77v113.77ZM257.49,371.26h113.77v-113.77h-113.77v113.77ZM386.23,371.26h113.77v-113.77h-113.77v113.77ZM0,500h113.77v-113.77H0v113.77ZM128.74,500h113.77v-113.77h-113.77v113.77ZM257.49,500h113.77v-113.77h-113.77v113.77ZM386.23,500h113.77v-113.77h-113.77v113.77Z"
        style="fill:#004428;" />

    <path id="Heart"
        d="M360.61,74.31c-6.83-1.14-13.69-1.65-20.5-1.57-25-.31-49.48,7.32-69.87,21.7-3.24,2.27-6.32,4.7-9.31,7.3-3.89,3.32-7.53,6.89-10.93,10.78-6.15-6.89-12.96-12.89-20.24-18.08-25.99-18.32-58.62-25.7-90.53-19.54-56.03,10.7-96.52,59.67-96.52,116.75v2.68c0,33.97,14.09,66.4,38.95,89.51l141.87,131.92,2.02,1.86h0c6.64,6.24,15.38,9.65,24.45,9.65h0s0,0,0,0c.53,0,1.05-.01,1.57-.04,8.5-.38,16.63-3.81,22.88-9.61l2.02-1.86,141.87-131.92c24.86-23.11,38.95-55.54,38.95-89.51v-5.85c0-56.6-40.89-104.86-96.68-114.17ZM108.13,255.3c-16.92-15.73-26.56-37.86-26.56-60.97v-2.68c0-38.43,27.21-71.35,64.94-78.57,27.53-5.27,55.79,4.3,74.5,25.3l.08.08,14.41,16.22c.24.32.49.65.81.89v.08c1.66,1.66,3.6,2.97,5.68,3.92v220.21l-133.87-124.48Z"
        style="fill:#00dc82;" />
</svg>