<svg width="12em" height="12em" viewBox="6 6 276 184.8" fill="none" xmlns="http://www.w3.org/2000/svg">
  <path x="0.5" y="0.5" width="23" height="3" rx="0.3" stroke="#1a9e5e" stroke-opacity="0.5" stroke-width="3.5999999999999996" d="M9.6 6h268.8a3.6 3.6 0 0 1 3.6 3.6v28.8a3.6 3.6 0 0 1 -3.6 3.6H9.6A3.6 3.6 0 0 1 6 38.4V9.6A3.6 3.6 0 0 1 9.6 6z"/>
  <path x="0.5" y="4.3" width="23" height="3" rx="0.3" fill="#1a9e5e" fill-opacity="0.12" stroke="#1a9e5e" stroke-opacity="0.75" stroke-width="3.5999999999999996" d="M9.6 51.6h268.8a3.6 3.6 0 0 1 3.6 3.6V84a3.6 3.6 0 0 1 -3.6 3.6H9.6A3.6 3.6 0 0 1 6 84V55.2a3.6 3.6 0 0 1 3.6 -3.6z"/>
  <path x="1" y="5.7" width="8" height="0.3" rx="0.2" fill="#1a9e5e" fill-opacity="0.5" d="M14.4 68.4h91.2a2.4 1.8 0 0 1 2.4 1.8 2.4 1.8 0 0 1 -2.4 1.8H14.4a2.4 1.8 0 0 1 -2.4 -1.8 2.4 1.8 0 0 1 2.4 -1.8"/>
  <path x="0.5" y="8.6" width="23" height="3" rx="0.3" stroke="#1a9e5e" stroke-opacity="0.5" stroke-width="3.5999999999999996" d="M9.6 103.2h268.8a3.6 3.6 0 0 1 3.6 3.6v28.8a3.6 3.6 0 0 1 -3.6 3.6H9.6A3.6 3.6 0 0 1 6 135.6V106.8a3.6 3.6 0 0 1 3.6 -3.6z"/>
  <path x="0.5" y="12.9" width="9.9" height="3" rx="0.3" fill="#1a9e5e" fill-opacity="0.2" stroke="#1a9e5e" stroke-width="2.4000000000000004" d="M9.6 154.8h111.6a3.6 3.6 0 0 1 3.6 3.6v28.8a3.6 3.6 0 0 1 -3.6 3.6H9.6A3.6 3.6 0 0 1 6 187.2V158.4a3.6 3.6 0 0 1 3.6 -3.6z"/>
  <path x="2.2" y="14.3" width="5.5" height="0.4" rx="0.2" fill="#1a9e5e" fill-opacity="0.85" d="M28.8 171.6H90a2.4 2.4 0 0 1 2.4 2.4 2.4 2.4 0 0 1 -2.4 2.4H28.8a2.4 2.4 0 0 1 -2.4 -2.4 2.4 2.4 0 0 1 2.4 -2.4"/>
</svg>
