<svg xmlns="http://www.w3.org/2000/svg" width="100%" height="100%" viewBox="0 0 48 48">
      <g>
            <path
                  d="M31.877,30.745A23.047,23.047,0,0,1,33.016,23.8,18.571,18.571,0,0,1,36.7,17.231a19.67,19.67,0,0,1,6.643-4.9A23.178,23.178,0,0,1,53.286,10.4a23.7,23.7,0,0,1,9.755,1.823,19.812,19.812,0,0,1,6.682,4.707,18.091,18.091,0,0,1,3.834,6.566,23.284,23.284,0,0,1,1.214,7.326,23.621,23.621,0,0,1-1.214,7.364,18.784,18.784,0,0,1-3.834,6.682,19.743,19.743,0,0,1-6.682,4.821,23.313,23.313,0,0,1-9.755,1.859,24.912,24.912,0,0,1-8.807-1.48,19.247,19.247,0,0,1-6.757-4.214A18.572,18.572,0,0,1,33.4,39.285a23.023,23.023,0,0,1-1.519-8.541ZM61.45,21.074,49.32,33.2l-4.12-4.12A3.614,3.614,0,1,0,40.088,34.2l6.676,6.676a3.614,3.614,0,0,0,5.11,0L66.561,26.184a3.614,3.614,0,0,0-5.112-5.11Z"
                  transform="translate(-29.324 -6.972)"
                  fill="#30db9a"
            />
            <path
                  d="M53.286,9.9a24.3,24.3,0,0,1,9.96,1.867,20.4,20.4,0,0,1,6.847,4.827,18.67,18.67,0,0,1,3.938,6.745,23.886,23.886,0,0,1,1.239,7.483,24.229,24.229,0,0,1-1.239,7.519A19.371,19.371,0,0,1,70.1,45.2a20.331,20.331,0,0,1-6.848,4.944,23.912,23.912,0,0,1-9.963,1.9A25.528,25.528,0,0,1,44.3,50.533a19.834,19.834,0,0,1-6.93-4.324,19.153,19.153,0,0,1-4.443-6.74,23.823,23.823,0,0,1-.392-15.823,19.153,19.153,0,0,1,3.78-6.741,20.256,20.256,0,0,1,6.808-5.024A23.775,23.775,0,0,1,53.286,9.9Zm0,41.148a22.93,22.93,0,0,0,9.547-1.814,19.34,19.34,0,0,0,6.515-4.7,18.376,18.376,0,0,0,3.733-6.505,23.232,23.232,0,0,0,1.19-7.209,22.889,22.889,0,0,0-1.189-7.17,17.677,17.677,0,0,0-3.729-6.386,19.412,19.412,0,0,0-6.516-4.587,23.321,23.321,0,0,0-9.55-1.779,22.8,22.8,0,0,0-9.732,1.888,19.266,19.266,0,0,0-6.477,4.771,18.159,18.159,0,0,0-3.584,6.391A22.823,22.823,0,0,0,33.861,39.1a18.159,18.159,0,0,0,4.21,6.392,18.841,18.841,0,0,0,6.584,4.1A24.536,24.536,0,0,0,53.286,51.046Zm10.719-31.53a4.114,4.114,0,0,1,2.909,7.022L52.228,41.225a4.114,4.114,0,0,1-5.817,0l-6.676-6.676a4.114,4.114,0,0,1,5.819-5.819L49.32,32.5,61.1,20.72A4.087,4.087,0,0,1,64.005,19.516ZM49.319,41.429a3.093,3.093,0,0,0,2.2-.912L66.208,25.83a3.114,3.114,0,0,0-4.4-4.4L49.32,33.911l-4.474-4.474a3.114,3.114,0,0,0-4.4,4.4l6.676,6.676A3.093,3.093,0,0,0,49.319,41.429Z"
                  transform="translate(-29.324 -6.972)"
                  fill="#1c865d"
            />
      </g>
</svg>
