<svg width="128" height="128" viewBox="0 0 128 128" fill="none" xmlns="http://www.w3.org/2000/svg">
<path d="M51.1211 65.2009L54.891 61.4283L82.674 89.1919L78.9041 92.9644L51.1211 65.2009Z" fill="#AF8023"/>
<path d="M45.7876 70.5342L49.5575 66.7616L77.3405 94.5252L73.5706 98.2977L45.7876 70.5342Z" fill="#AF8023"/>
<path d="M56.4543 59.8649L60.2243 56.0923L88.0072 83.8559L84.2373 87.6284L56.4543 59.8649Z" fill="#AF8023"/>
<path d="M94.3013 48.4187C86.8426 40.96 78.7066 45.1574 75.4479 48.4187L37.7706 86.096C34.5066 89.36 30.3146 97.4934 37.7706 104.952C45.2293 112.411 53.3679 108.213 56.6266 104.952L67.1493 94.4294L63.3786 90.6587L52.8666 101.171C51.9093 102.107 46.8666 106.504 41.5413 101.181C36.2186 95.8587 40.6159 90.8134 41.5413 89.8667L79.2079 52.2C80.1653 51.264 85.2079 46.8667 90.5306 52.1894C95.8479 57.504 91.4693 62.5467 90.5253 63.5094L80.3519 73.6854L84.1226 77.456L94.3013 67.2747C97.5626 64.0134 101.76 55.8774 94.3013 48.4187ZM24.3226 111.216C23.2773 112.261 21.5946 112.261 20.5519 111.216L16.7813 107.445C15.7386 106.403 15.7386 104.715 16.7813 103.672C17.8239 102.629 19.5066 102.627 20.5519 103.672L24.3226 107.443C25.3679 108.488 25.3653 110.173 24.3226 111.216Z" fill="#FFC107"/>
<path d="M64.6985 89.4426L59.4452 94.696C58.4318 95.7013 56.6825 95.7066 55.6745 94.6933C55.1705 94.192 54.8931 93.5253 54.8931 92.8107C54.8931 92.0987 55.1705 91.4293 55.6745 90.9253L60.9278 85.672L57.1572 81.9013L51.9038 87.1546C50.3945 88.664 49.5598 90.6747 49.5598 92.8107C49.5598 94.9493 50.3945 96.96 51.9011 98.4666C53.4105 99.976 55.4211 100.811 57.5598 100.811C59.6958 100.811 61.7065 99.976 63.2158 98.4666L68.4692 93.2133L64.6985 89.4426ZM75.3065 71.1733L80.3358 66.144C80.8398 65.6426 81.5092 65.3626 82.2212 65.3626C82.9358 65.3626 83.6025 65.64 84.1065 66.1466C84.6105 66.648 84.8878 67.3146 84.8878 68.0293C84.8878 68.7413 84.6105 69.4106 84.1065 69.9146L79.0771 74.9466L82.8478 78.7173L87.8771 73.6853C89.3865 72.176 90.2212 70.1653 90.2212 68.0293C90.2212 65.8906 89.3865 63.88 87.8798 62.3733C84.8612 59.3546 79.5892 59.3493 76.5652 62.3733L71.5358 67.4026L75.3065 71.1733Z" fill="#FFC107"/>
<path d="M56.7812 59.5439L60.5519 55.7759Z" fill="#AF8023"/>
<path d="M50.1813 64.264C50.6987 64.7814 50.696 65.6267 50.176 66.1467L44.52 71.8027C44 72.3227 43.16 72.3227 42.64 71.8054C42.12 71.2854 42.1147 70.44 42.6347 69.9174L48.2907 64.2614C48.8133 63.7387 49.6613 63.7387 50.1813 64.264Z" fill="#FFC107"/>
<path d="M55.8373 58.6053C56.3573 59.1253 56.3547 59.9707 55.8347 60.4907L50.1787 66.1467C49.6587 66.6667 48.816 66.664 48.296 66.1493C47.776 65.6293 47.7707 64.7813 48.2907 64.2613L53.9467 58.6053C54.472 58.0827 55.3173 58.0827 55.8373 58.6053Z" fill="#FFC107"/>
<path d="M61.496 52.9467C62.016 53.4667 62.0133 54.312 61.4933 54.832L55.8373 60.488C55.3173 61.008 54.4746 61.0054 53.9546 60.488C53.4346 59.968 53.4293 59.1227 53.9493 58.6027L59.608 52.9467C60.128 52.4267 60.9733 52.4267 61.496 52.9467ZM110.896 31.8294C110.896 31.8294 105.24 26.1734 73.1813 58.2294C41.128 90.2827 22.5946 108.816 22.5946 108.816L18.824 105.045C18.824 105.045 37.3546 86.5147 69.4133 54.456C101.469 22.4 95.8106 16.744 95.8106 16.744L110.896 31.8294Z" fill="#FFC107"/>
<path d="M93.9316 14.8534L95.8205 12.9672L114.662 31.8347L112.773 33.7209L93.9316 14.8534Z" fill="#FFC107"/>
<path d="M85.1414 38.9227C84.6721 38.9227 84.2428 38.9867 83.7948 39.0213C83.7948 39.0213 79.7761 43.8987 75.0828 48.6533C75.0828 48.6533 79.2081 44.016 85.1388 44.256C85.9948 44.2907 86.8748 44.3653 87.7681 44.576C89.4614 43.1227 91.0454 41.808 92.5068 40.6507C90.1734 39.5227 87.6988 38.9227 85.1414 38.9227ZM39.8988 99.0533C37.3814 94.6187 40.6721 90.7707 41.5121 89.896C38.5734 92.8347 35.9894 95.4213 33.7708 97.6373C34.0508 99.3573 34.7681 101.136 36.0481 102.907L39.8988 99.0533Z" fill="#D3A020"/>
</svg>
