<svg width="80" height="80" viewBox="0 0 80 80" fill="none" xmlns="http://www.w3.org/2000/svg">
<rect width="80" height="80" fill="#001E26"/>
<path d="M36.7526 8.96005C32.4393 9.54057 28.3602 11.2653 24.9388 13.9552C21.5174 16.6451 18.8786 20.2019 17.2965 24.2563C15.7144 28.3107 15.2467 32.7148 15.9419 37.011C16.6372 41.3073 18.47 45.3391 21.2501 48.6875V55.5519C21.249 55.9544 21.3509 56.3505 21.5461 56.7025C21.7413 57.0545 22.0234 57.3507 22.3654 57.5629C22.7075 57.7751 23.0981 57.8962 23.5002 57.9148C23.9023 57.9333 24.3025 57.8486 24.6626 57.6688L29.6557 55.1713C33.8871 57.1759 38.6094 57.9094 43.2495 57.2825C49.6574 56.421 55.4607 53.0492 59.3826 47.9089C63.3045 42.7686 65.0238 36.2808 64.1623 29.8729C63.3007 23.4649 59.9289 17.6616 54.7886 13.7397C49.6483 9.81781 43.1606 8.09851 36.7526 8.96005Z" stroke="white" stroke-width="2" stroke-linecap="round" stroke-linejoin="round"/>
<path d="M26.9671 39.0556L35.5752 26.8062C35.6587 26.6576 35.773 26.5284 35.9103 26.4274C36.0477 26.3264 36.2049 26.2557 36.3717 26.2203C36.5385 26.1848 36.7109 26.1852 36.8775 26.2216C37.044 26.258 37.2009 26.3295 37.3377 26.4312L43.1034 30.7568C43.2946 30.8998 43.524 30.9825 43.7625 30.9946C44.0009 31.0066 44.2375 30.9473 44.4421 30.8243L51.464 25.8631C51.6867 25.7308 51.9462 25.6742 52.2037 25.7016C52.4613 25.729 52.7031 25.839 52.893 26.0151C53.0828 26.1913 53.2106 26.4242 53.2572 26.6789C53.3038 26.9337 53.2667 27.1968 53.1515 27.4287L46.2009 39.455C46.127 39.6025 46.0234 39.7332 45.8967 39.8389C45.7701 39.9446 45.6229 40.023 45.4646 40.0693C45.3062 40.1156 45.14 40.1287 44.9763 40.1078C44.8127 40.087 44.6551 40.0326 44.5134 39.9481L36.8127 35.3393C36.6399 35.2352 36.4436 35.1765 36.242 35.1686C36.0403 35.1607 35.84 35.204 35.6596 35.2943L28.5459 40.7318C28.3147 40.8477 28.0523 40.8858 27.7977 40.8407C27.5431 40.7956 27.3099 40.6695 27.1326 40.4813C26.9553 40.2931 26.8435 40.0527 26.8137 39.7959C26.7839 39.539 26.8377 39.2794 26.9671 39.0556Z" fill="white"/>
<path d="M33.0254 48.8481C33.9291 47.2791 36.1882 47.2791 37.0918 48.8481L49.7992 70.912C50.7028 72.481 49.5733 74.4422 47.766 74.4422H22.3512C20.5439 74.4422 19.4144 72.481 20.318 70.912L33.0254 48.8481Z" fill="#80EEC0"/>
<path d="M42.2429 53.3251C43.1397 51.7361 45.3818 51.736 46.2786 53.3251L56.494 71.4248C57.3908 73.0138 56.2697 75.0001 54.4761 75.0001H34.0454C32.2518 75.0001 31.1307 73.0138 32.0276 71.4248L42.2429 53.3251Z" fill="#001E26"/>
<path d="M45.8498 53.8198C46.7683 52.3146 49.0043 52.3146 49.9228 53.8198L60.3774 70.9524C61.3168 72.4918 60.1786 74.4422 58.3409 74.4422H37.4317C35.594 74.4422 34.4558 72.4918 35.3952 70.9524L45.8498 53.8198Z" fill="#00DC82"/>
</svg>
