<svg xmlns="http://www.w3.org/2000/svg" width="260" height="250" fill="none" viewBox="0 0 260 250"><path stroke="#00DC82" stroke-width="7.4" d="M145.252 205.336h92.936c2.952.001 5.852-.745 8.408-2.161 2.556-1.416 4.679-3.453 6.154-5.906 1.475-2.453 2.251-5.235 2.25-8.067-.001-2.832-.78-5.614-2.257-8.066L190.33 77.4204c-1.475-2.4523-3.598-4.4888-6.153-5.9047-2.556-1.4159-5.455-2.1614-8.407-2.1614-2.951 0-5.85.7455-8.406 2.1614-2.556 1.4159-4.678 3.4524-6.153 5.9047l-15.959 26.5376-31.202-51.8931c-1.476-2.4521-3.599-4.4883-6.156-5.904C105.338 44.7453 102.438 44 99.4864 44c-2.9517 0-5.8515.7453-8.4079 2.1609-2.5565 1.4157-4.6796 3.4519-6.156 5.904L7.25736 181.136C5.77984 183.588 5.00129 186.37 5 189.202c-.00128 2.832.77475 5.614 2.25004 8.067 1.4753 2.453 3.59786 4.49 6.15416 5.906 2.5563 1.416 5.4562 2.162 8.408 2.161h58.3372c23.1136 0 40.1596-9.741 51.8886-28.744l28.476-47.314 15.252-25.32 45.775 76.057h-61.027l-15.262 25.321Zm-66.0536-25.347-40.712-.008L99.5136 78.5761l30.4504 50.7019-20.388 33.889c-7.789 12.33-16.6379 16.822-30.3776 16.822Z"/><path stroke="#00DC82" stroke-width="5.92" d="m174.479 103.733 33.742 1.915 11.12 20.294 11.12 18.38-8.053 34.463M5.76611 197.549l32.59199-17.231m0 0-4.9846-43.652 14.1871-23.358 17.2546-28.7188 33.7423-10.3387M38.3581 180.318l17.2546 24.889 22.2393.766s10.3333.358 16.4877-1.532c6.4723-1.987 14.9543-5.36 14.9543-5.36l2.3-34.846h26.457l-6.518-34.079 14.571-26.804-16.872-25.2724-8.819-16.8482-21.8555 13.0191m0 0L83.987 50.8927"/><path stroke="#00DC82" stroke-width="5.92" d="m131.15 129.006 9.202-15.699 12.654-22.975 23.006 12.636 2.684-32.5476m73.236 110.6626h-29.524L192.5 203.292l-29.525-22.975"/><path stroke="#00DC82" stroke-width="5.92" d="m131.15 129.006 9.202-15.699 12.654-22.975 23.006 12.636 2.684-32.5476m73.236 110.6626h-29.524L192.5 203.292l-29.525-22.975"/></svg>