<svg width="256" height="256" viewBox="0 0 256 256" fill="none" xmlns="http://www.w3.org/2000/svg">
<path d="M111.177 106.22C113.201 102.705 118.261 102.705 120.286 106.22L148.75 155.643C150.774 159.158 148.244 163.551 144.196 163.551H87.2667C83.2184 163.551 80.6883 159.158 82.7124 155.643L111.177 106.22Z" fill="#80EEC0"/>
<path d="M139.904 117.356C141.961 113.985 146.97 113.985 149.027 117.356L172.446 155.733C174.55 159.182 172 163.551 167.884 163.551H121.047C116.931 163.551 114.381 159.182 116.485 155.733L139.904 117.356Z" fill="#00DC82"/>
<path d="M68.2678 206.036V226.4H64.549L55.6897 213.583H55.5405V226.4H51.2351V206.036H55.0135L63.8033 218.843H63.9823V206.036H68.2678ZM81.5395 219.897V211.127H85.7752V226.4H81.7085V223.626H81.5494C81.2047 224.521 80.6313 225.24 79.8292 225.784C79.0338 226.327 78.0627 226.599 76.9159 226.599C75.895 226.599 74.9968 226.367 74.2213 225.903C73.4457 225.439 72.8392 224.779 72.4017 223.924C71.9708 223.069 71.752 222.045 71.7454 220.852V211.127H75.9812V220.096C75.9878 220.998 76.2298 221.71 76.7071 222.234C77.1843 222.758 77.824 223.019 78.6261 223.019C79.1365 223.019 79.6138 222.903 80.0579 222.671C80.502 222.433 80.86 222.081 81.1318 221.617C81.4102 221.153 81.5461 220.58 81.5395 219.897ZM92.7032 211.127L95.5071 216.467L98.3807 211.127H102.726L98.3012 218.764L102.845 226.4H98.5199L95.5071 221.12L92.5441 226.4H88.1691L92.7032 218.764L88.3282 211.127H92.7032ZM113.365 211.127V214.309H104.168V211.127H113.365ZM106.256 207.468H110.492V221.707C110.492 222.098 110.551 222.403 110.67 222.622C110.79 222.834 110.956 222.983 111.168 223.069C111.386 223.155 111.638 223.198 111.923 223.198C112.122 223.198 112.321 223.182 112.52 223.149C112.719 223.109 112.871 223.079 112.977 223.059L113.643 226.211C113.431 226.277 113.133 226.354 112.749 226.44C112.364 226.533 111.897 226.589 111.347 226.609C110.326 226.649 109.431 226.513 108.662 226.201C107.9 225.89 107.306 225.406 106.882 224.749C106.458 224.093 106.249 223.265 106.256 222.264V207.468ZM151.614 206.036V226.4H147.378V206.036H151.614ZM161.908 226.698C160.363 226.698 159.028 226.37 157.901 225.714C156.78 225.051 155.915 224.13 155.305 222.95C154.696 221.763 154.391 220.388 154.391 218.823C154.391 217.246 154.696 215.867 155.305 214.687C155.915 213.5 156.78 212.579 157.901 211.923C159.028 211.26 160.363 210.928 161.908 210.928C163.452 210.928 164.785 211.26 165.905 211.923C167.032 212.579 167.9 213.5 168.51 214.687C169.12 215.867 169.425 217.246 169.425 218.823C169.425 220.388 169.12 221.763 168.51 222.95C167.9 224.13 167.032 225.051 165.905 225.714C164.785 226.37 163.452 226.698 161.908 226.698ZM161.928 223.417C162.63 223.417 163.217 223.218 163.688 222.82C164.158 222.416 164.513 221.866 164.751 221.17C164.997 220.474 165.119 219.682 165.119 218.793C165.119 217.905 164.997 217.113 164.751 216.417C164.513 215.721 164.158 215.171 163.688 214.767C163.217 214.362 162.63 214.16 161.928 214.16C161.218 214.16 160.622 214.362 160.138 214.767C159.661 215.171 159.299 215.721 159.054 216.417C158.815 217.113 158.696 217.905 158.696 218.793C158.696 219.682 158.815 220.474 159.054 221.17C159.299 221.866 159.661 222.416 160.138 222.82C160.622 223.218 161.218 223.417 161.928 223.417ZM180.303 211.127V214.309H171.105V211.127H180.303ZM173.193 207.468H177.429V221.707C177.429 222.098 177.489 222.403 177.608 222.622C177.727 222.834 177.893 222.983 178.105 223.069C178.324 223.155 178.576 223.198 178.861 223.198C179.06 223.198 179.259 223.182 179.457 223.149C179.656 223.109 179.809 223.079 179.915 223.059L180.581 226.211C180.369 226.277 180.071 226.354 179.686 226.44C179.302 226.533 178.834 226.589 178.284 226.609C177.263 226.649 176.368 226.513 175.599 226.201C174.837 225.89 174.244 225.406 173.82 224.749C173.395 224.093 173.187 223.265 173.193 222.264V207.468ZM187.626 206.036V226.4H183.39V206.036H187.626ZM193.634 232.127C193.097 232.127 192.593 232.084 192.123 231.998C191.659 231.918 191.274 231.816 190.969 231.69L191.924 228.528C192.421 228.68 192.868 228.763 193.266 228.776C193.67 228.79 194.018 228.697 194.31 228.498C194.608 228.299 194.85 227.961 195.036 227.484L195.284 226.838L189.806 211.127H194.26L197.422 222.343H197.581L200.773 211.127H205.257L199.321 228.051C199.036 228.873 198.649 229.588 198.158 230.198C197.674 230.815 197.061 231.289 196.319 231.62C195.576 231.958 194.681 232.127 193.634 232.127Z" fill="white"/>
<path d="M125.64 214.538V217.899H116.353V214.538H125.64ZM129.329 226.4V206.036H137.363C138.907 206.036 140.223 206.331 141.31 206.921C142.398 207.505 143.226 208.317 143.796 209.357C144.373 210.392 144.661 211.585 144.661 212.937C144.661 214.289 144.37 215.482 143.786 216.517C143.203 217.551 142.358 218.356 141.251 218.933C140.15 219.509 138.818 219.798 137.254 219.798H132.133V216.347H136.558C137.386 216.347 138.069 216.205 138.606 215.92C139.149 215.628 139.554 215.227 139.819 214.717C140.091 214.2 140.227 213.606 140.227 212.937C140.227 212.261 140.091 211.671 139.819 211.167C139.554 210.657 139.149 210.262 138.606 209.984C138.062 209.699 137.373 209.556 136.538 209.556H133.634V226.4H129.329Z" fill="#00DC82"/>
<ellipse cx="69.2001" cy="56" rx="9.6" ry="9.6" fill="#D6386E"/>
<ellipse cx="69.2001" cy="17.6" rx="9.6" ry="9.6" fill="#D6386E"/>
<ellipse cx="107.6" cy="17.6" rx="9.6" ry="9.6" fill="#D27098"/>
<ellipse cx="146" cy="17.6" rx="9.6" ry="9.6" fill="#AD9EC2"/>
<ellipse cx="146" cy="56" rx="9.6" ry="9.6" fill="#AD9EC2"/>
<ellipse cx="184.4" cy="17.6" rx="9.6" ry="9.6" fill="#25FEFD"/>
<rect x="59.6001" y="86.4" width="19.2" height="59.2" rx="8" fill="white"/>
<rect x="98" y="46.4" width="19.2" height="99.2" rx="8" fill="white"/>
<rect x="136.4" y="86.4" width="19.2" height="59.2" rx="8" fill="white"/>
<rect x="174.8" y="46.4" width="19.2" height="99.2" rx="8" fill="white"/>
<path d="M64.416 238.408H66.768C67.4027 238.408 67.9093 238.576 68.288 238.912C68.6667 239.243 68.856 239.704 68.856 240.296C68.856 240.904 68.6667 241.371 68.288 241.696C67.9147 242.021 67.408 242.184 66.768 242.184H65.632V244H64.416V238.408ZM66.592 241.168C67.28 241.168 67.624 240.877 67.624 240.296C67.624 239.971 67.5307 239.744 67.344 239.616C67.1627 239.488 66.912 239.424 66.592 239.424H65.632V241.168H66.592ZM71.1305 244.12C70.6665 244.12 70.2585 244.037 69.9065 243.872C69.5598 243.701 69.2905 243.464 69.0985 243.16C68.9118 242.851 68.8185 242.491 68.8185 242.08C68.8185 241.68 68.9118 241.325 69.0985 241.016C69.2905 240.707 69.5598 240.467 69.9065 240.296C70.2585 240.125 70.6665 240.04 71.1305 240.04C71.5892 240.04 71.9918 240.125 72.3385 240.296C72.6905 240.467 72.9598 240.707 73.1465 241.016C73.3385 241.325 73.4345 241.68 73.4345 242.08C73.4345 242.491 73.3385 242.851 73.1465 243.16C72.9598 243.464 72.6932 243.701 72.3465 243.872C71.9998 244.037 71.5945 244.12 71.1305 244.12ZM71.1305 243.176C71.4558 243.176 71.7145 243.077 71.9065 242.88C72.0985 242.677 72.1945 242.411 72.1945 242.08C72.1945 241.739 72.0985 241.472 71.9065 241.28C71.7198 241.083 71.4612 240.984 71.1305 240.984C70.7998 240.984 70.5385 241.083 70.3465 241.28C70.1545 241.472 70.0585 241.739 70.0585 242.08C70.0585 242.411 70.1545 242.677 70.3465 242.88C70.5438 243.077 70.8052 243.176 71.1305 243.176ZM73.4279 240.16H74.6359L75.3399 242.56L76.0279 240.16H77.0359L77.7319 242.56L78.4279 240.16H79.6359L78.3639 244H77.2679L76.5319 241.616L75.7959 244H74.6999L73.4279 240.16ZM82.5224 244.12C81.7864 244.12 81.2078 243.944 80.7864 243.592C80.3651 243.235 80.1544 242.736 80.1544 242.096C80.1544 241.461 80.3411 240.96 80.7144 240.592C81.0931 240.224 81.6318 240.04 82.3304 240.04C82.7891 240.04 83.1784 240.125 83.4984 240.296C83.8184 240.467 84.0611 240.704 84.2264 241.008C84.3918 241.307 84.4744 241.645 84.4744 242.024V242.512H81.3064C81.3918 243.003 81.8504 243.248 82.6824 243.248C82.9278 243.248 83.1811 243.227 83.4424 243.184C83.7038 243.141 83.9304 243.083 84.1224 243.008V243.856C83.9358 243.936 83.6958 244 83.4024 244.048C83.1091 244.096 82.8158 244.12 82.5224 244.12ZM83.3304 241.728C83.3144 241.472 83.2184 241.275 83.0424 241.136C82.8664 240.992 82.6238 240.92 82.3144 240.92C82.0104 240.92 81.7704 240.992 81.5944 241.136C81.4184 241.28 81.3224 241.477 81.3064 241.728H83.3304ZM85.1426 240.16H86.3106V240.712C86.4652 240.525 86.6812 240.384 86.9586 240.288C87.2359 240.187 87.5506 240.136 87.9026 240.136V241.056C87.5346 241.056 87.2092 241.112 86.9266 241.224C86.6492 241.336 86.4572 241.507 86.3506 241.736V244H85.1426V240.16ZM90.624 244.12C89.888 244.12 89.3093 243.944 88.888 243.592C88.4667 243.235 88.256 242.736 88.256 242.096C88.256 241.461 88.4427 240.96 88.816 240.592C89.1947 240.224 89.7333 240.04 90.432 240.04C90.8907 240.04 91.28 240.125 91.6 240.296C91.92 240.467 92.1627 240.704 92.328 241.008C92.4933 241.307 92.576 241.645 92.576 242.024V242.512H89.408C89.4933 243.003 89.952 243.248 90.784 243.248C91.0293 243.248 91.2827 243.227 91.544 243.184C91.8053 243.141 92.032 243.083 92.224 243.008V243.856C92.0373 243.936 91.7973 244 91.504 244.048C91.2107 244.096 90.9173 244.12 90.624 244.12ZM91.432 241.728C91.416 241.472 91.32 241.275 91.144 241.136C90.968 240.992 90.7253 240.92 90.416 240.92C90.112 240.92 89.872 240.992 89.696 241.136C89.52 241.28 89.424 241.477 89.408 241.728H91.432ZM95.1161 244.12C94.7215 244.12 94.3695 244.037 94.0601 243.872C93.7561 243.701 93.5161 243.464 93.3401 243.16C93.1695 242.851 93.0841 242.493 93.0841 242.088C93.0841 241.688 93.1695 241.333 93.3401 241.024C93.5108 240.715 93.7508 240.475 94.0601 240.304C94.3695 240.128 94.7215 240.04 95.1161 240.04C95.4041 240.04 95.6681 240.08 95.9081 240.16C96.1481 240.24 96.3508 240.355 96.5161 240.504V238.088H97.7241V244H96.5561V243.584C96.3588 243.771 96.1428 243.907 95.9081 243.992C95.6788 244.077 95.4148 244.12 95.1161 244.12ZM95.4281 243.184C95.6788 243.184 95.9001 243.117 96.0921 242.984C96.2895 242.851 96.4308 242.672 96.5161 242.448V241.72C96.4415 241.501 96.3028 241.325 96.1001 241.192C95.9028 241.053 95.6788 240.984 95.4281 240.984C95.1028 240.984 94.8361 241.085 94.6281 241.288C94.4255 241.491 94.3241 241.757 94.3241 242.088C94.3241 242.419 94.4255 242.685 94.6281 242.888C94.8361 243.085 95.1028 243.184 95.4281 243.184ZM103.969 244.12C103.671 244.12 103.404 244.077 103.169 243.992C102.94 243.907 102.727 243.771 102.529 243.584V244H101.361V238.088H102.569V240.504C102.74 240.355 102.948 240.24 103.193 240.16C103.439 240.08 103.697 240.04 103.969 240.04C104.369 240.04 104.721 240.128 105.025 240.304C105.335 240.475 105.575 240.715 105.745 241.024C105.916 241.333 106.001 241.688 106.001 242.088C106.001 242.493 105.916 242.851 105.745 243.16C105.575 243.464 105.335 243.701 105.025 243.872C104.721 244.037 104.369 244.12 103.969 244.12ZM103.665 243.184C103.991 243.184 104.255 243.085 104.457 242.888C104.665 242.685 104.769 242.419 104.769 242.088C104.769 241.757 104.665 241.491 104.457 241.288C104.255 241.085 103.991 240.984 103.665 240.984C103.415 240.984 103.188 241.053 102.985 241.192C102.788 241.325 102.649 241.501 102.569 241.72V242.448C102.655 242.672 102.796 242.851 102.993 242.984C103.191 243.117 103.415 243.184 103.665 243.184ZM107.214 245.584C107.054 245.584 106.889 245.573 106.718 245.552C106.553 245.531 106.428 245.501 106.342 245.464V244.56C106.497 244.619 106.668 244.648 106.854 244.648C107.046 244.648 107.19 244.605 107.286 244.52C107.388 244.435 107.47 244.301 107.534 244.12L107.662 243.792L105.998 240.16H107.214L108.302 242.808L109.334 240.16H110.542L108.91 244.264C108.729 244.717 108.505 245.051 108.238 245.264C107.972 245.477 107.63 245.584 107.214 245.584Z" fill="white" fill-opacity="0.4"/>
<path d="M129.642 239.526C130.238 238.932 130.238 237.971 129.642 237.378C129.046 236.785 128.08 236.785 127.485 237.378L124.249 240.599C123.653 241.192 123.653 242.153 124.249 242.746C124.844 243.339 125.81 243.339 126.406 242.746L129.642 239.526Z" fill="url(#paint0_linear_23_2)"/>
<path d="M141.759 247.97C141.462 247.97 141.17 247.882 140.923 247.717C140.675 247.553 140.482 247.319 140.368 247.045C140.254 246.771 140.224 246.469 140.282 246.179C140.341 245.888 140.484 245.621 140.695 245.411L142.162 243.951C142.795 243.292 143.144 242.413 143.134 241.501C143.123 240.59 142.755 239.718 142.108 239.074C141.461 238.429 140.585 238.062 139.67 238.052C138.754 238.041 137.87 238.388 137.208 239.018L130.123 246.07C128.901 247.287 127.244 247.97 125.516 247.97C123.788 247.97 122.131 247.287 120.909 246.071C119.687 244.855 119 243.205 119 241.485C119 239.765 119.686 238.115 120.908 236.899L122.358 235.455C122.641 235.174 123.024 235.016 123.423 235.016C123.823 235.016 124.206 235.174 124.488 235.455C124.77 235.737 124.929 236.118 124.929 236.515C124.929 236.913 124.77 237.294 124.488 237.575L123.037 239.018C122.389 239.674 122.028 240.558 122.032 241.478C122.036 242.398 122.405 243.279 123.058 243.929C123.712 244.58 124.597 244.947 125.521 244.951C126.445 244.955 127.333 244.595 127.992 243.951L135.079 236.899C136.301 235.683 137.958 235 139.686 235C141.413 235 143.07 235.683 144.292 236.9C145.514 238.116 146.2 239.765 146.2 241.485C146.2 243.205 145.513 244.854 144.292 246.07L142.823 247.531C142.684 247.67 142.518 247.781 142.335 247.856C142.153 247.931 141.957 247.97 141.759 247.97Z" fill="url(#paint1_linear_23_2)"/>
<path d="M135.551 243.454C134.955 244.047 134.955 245.009 135.55 245.602C136.146 246.195 137.112 246.194 137.708 245.601L140.943 242.381C141.539 241.788 141.539 240.826 140.944 240.233C140.348 239.64 139.382 239.64 138.786 240.234L135.551 243.454Z" fill="url(#paint2_linear_23_2)"/>
<path d="M154.696 244.12C154.355 244.12 154.016 244.088 153.68 244.024C153.344 243.96 153.069 243.875 152.856 243.768V242.696C153.139 242.835 153.432 242.939 153.736 243.008C154.04 243.077 154.331 243.112 154.608 243.112C154.917 243.112 155.152 243.059 155.312 242.952C155.472 242.845 155.552 242.696 155.552 242.504C155.552 242.365 155.512 242.248 155.432 242.152C155.352 242.056 155.235 241.971 155.08 241.896C154.931 241.816 154.699 241.712 154.384 241.584C153.861 241.371 153.483 241.133 153.248 240.872C153.013 240.605 152.896 240.277 152.896 239.888C152.896 239.573 152.981 239.296 153.152 239.056C153.323 238.811 153.563 238.621 153.872 238.488C154.181 238.355 154.539 238.288 154.944 238.288C155.275 238.288 155.568 238.315 155.824 238.368C156.08 238.421 156.331 238.504 156.576 238.616V239.656C156.107 239.421 155.637 239.304 155.168 239.304C154.869 239.304 154.635 239.357 154.464 239.464C154.293 239.565 154.208 239.712 154.208 239.904C154.208 240.043 154.248 240.157 154.328 240.248C154.408 240.339 154.52 240.419 154.664 240.488C154.808 240.557 155.043 240.659 155.368 240.792C155.747 240.952 156.043 241.107 156.256 241.256C156.469 241.4 156.627 241.573 156.728 241.776C156.829 241.973 156.88 242.219 156.88 242.512C156.88 243.019 156.696 243.413 156.328 243.696C155.965 243.979 155.421 244.12 154.696 244.12ZM158.974 244.12C158.451 244.12 158.059 243.979 157.798 243.696C157.536 243.408 157.406 243.027 157.406 242.552V240.16H158.614V242.424C158.614 242.925 158.846 243.176 159.31 243.176C159.512 243.176 159.702 243.128 159.878 243.032C160.054 242.936 160.2 242.792 160.318 242.6V240.16H161.526V244H160.358V243.536C160.187 243.733 159.979 243.88 159.734 243.976C159.494 244.072 159.24 244.12 158.974 244.12ZM162.368 240.16H163.536V240.584C163.925 240.221 164.405 240.04 164.976 240.04C165.376 240.04 165.728 240.125 166.032 240.296C166.341 240.461 166.581 240.699 166.752 241.008C166.922 241.312 167.008 241.667 167.008 242.072C167.008 242.472 166.922 242.827 166.752 243.136C166.581 243.445 166.341 243.688 166.032 243.864C165.728 244.035 165.376 244.12 164.976 244.12C164.704 244.12 164.445 244.08 164.2 244C163.954 243.92 163.746 243.805 163.576 243.656V245.752H162.368V240.16ZM164.672 243.176C164.997 243.176 165.261 243.075 165.464 242.872C165.672 242.669 165.776 242.403 165.776 242.072C165.776 241.741 165.672 241.477 165.464 241.28C165.261 241.083 164.997 240.984 164.672 240.984C164.421 240.984 164.197 241.051 164 241.184C163.802 241.317 163.661 241.493 163.576 241.712V242.44C163.656 242.664 163.794 242.843 163.992 242.976C164.194 243.109 164.421 243.176 164.672 243.176ZM169.896 244.12C169.16 244.12 168.581 243.944 168.16 243.592C167.739 243.235 167.528 242.736 167.528 242.096C167.528 241.461 167.715 240.96 168.088 240.592C168.467 240.224 169.005 240.04 169.704 240.04C170.163 240.04 170.552 240.125 170.872 240.296C171.192 240.467 171.435 240.704 171.6 241.008C171.765 241.307 171.848 241.645 171.848 242.024V242.512H168.68C168.765 243.003 169.224 243.248 170.056 243.248C170.301 243.248 170.555 243.227 170.816 243.184C171.077 243.141 171.304 243.083 171.496 243.008V243.856C171.309 243.936 171.069 244 170.776 244.048C170.483 244.096 170.189 244.12 169.896 244.12ZM170.704 241.728C170.688 241.472 170.592 241.275 170.416 241.136C170.24 240.992 169.997 240.92 169.688 240.92C169.384 240.92 169.144 240.992 168.968 241.136C168.792 241.28 168.696 241.477 168.68 241.728H170.704ZM172.516 240.16H173.684V240.712C173.839 240.525 174.055 240.384 174.332 240.288C174.609 240.187 174.924 240.136 175.276 240.136V241.056C174.908 241.056 174.583 241.112 174.3 241.224C174.023 241.336 173.831 241.507 173.724 241.736V244H172.516V240.16ZM177.544 244.12C177.15 244.12 176.798 244.037 176.488 243.872C176.184 243.701 175.944 243.464 175.768 243.16C175.598 242.851 175.512 242.493 175.512 242.088C175.512 241.688 175.598 241.333 175.768 241.024C175.939 240.715 176.179 240.475 176.488 240.304C176.798 240.128 177.15 240.04 177.544 240.04C177.832 240.04 178.096 240.08 178.336 240.16C178.576 240.24 178.779 240.355 178.944 240.504V238.088H180.152V244H178.984V243.584C178.787 243.771 178.571 243.907 178.336 243.992C178.107 244.077 177.843 244.12 177.544 244.12ZM177.856 243.184C178.107 243.184 178.328 243.117 178.52 242.984C178.718 242.851 178.859 242.672 178.944 242.448V241.72C178.87 241.501 178.731 241.325 178.528 241.192C178.331 241.053 178.107 240.984 177.856 240.984C177.531 240.984 177.264 241.085 177.056 241.288C176.854 241.491 176.752 241.757 176.752 242.088C176.752 242.419 176.854 242.685 177.056 242.888C177.264 243.085 177.531 243.184 177.856 243.184ZM183.201 244.12C182.465 244.12 181.886 243.944 181.465 243.592C181.043 243.235 180.833 242.736 180.833 242.096C180.833 241.461 181.019 240.96 181.393 240.592C181.771 240.224 182.31 240.04 183.009 240.04C183.467 240.04 183.857 240.125 184.177 240.296C184.497 240.467 184.739 240.704 184.905 241.008C185.07 241.307 185.153 241.645 185.153 242.024V242.512H181.985C182.07 243.003 182.529 243.248 183.361 243.248C183.606 243.248 183.859 243.227 184.121 243.184C184.382 243.141 184.609 243.083 184.801 243.008V243.856C184.614 243.936 184.374 244 184.081 244.048C183.787 244.096 183.494 244.12 183.201 244.12ZM184.009 241.728C183.993 241.472 183.897 241.275 183.721 241.136C183.545 240.992 183.302 240.92 182.993 240.92C182.689 240.92 182.449 240.992 182.273 241.136C182.097 241.28 182.001 241.477 181.985 241.728H184.009ZM185.725 240.16H186.741L187.781 242.816L188.821 240.16H189.837L188.253 244H187.309L185.725 240.16Z" fill="white"/>
<defs>
<linearGradient id="paint0_linear_23_2" x1="129.643" y1="237.379" x2="124.274" y2="242.772" gradientUnits="userSpaceOnUse">
<stop stop-color="#DD6C43"/>
<stop offset="1" stop-color="#E04040"/>
</linearGradient>
<linearGradient id="paint1_linear_23_2" x1="140.749" y1="233.374" x2="124.526" y2="249.672" gradientUnits="userSpaceOnUse">
<stop stop-color="#DD6C43"/>
<stop offset="1" stop-color="#E04040"/>
</linearGradient>
<linearGradient id="paint2_linear_23_2" x1="140.944" y1="240.233" x2="135.576" y2="245.626" gradientUnits="userSpaceOnUse">
<stop stop-color="#DD6C43"/>
<stop offset="1" stop-color="#E04040"/>
</linearGradient>
</defs>
</svg>
