<svg xmlns="http://www.w3.org/2000/svg" width="256" height="256" viewBox="0 0 256 256">
  <defs>
    <style>
      :root{
        --green:#00DC82;
        --gray:#020420;
      }
    </style>

    <path id="docPath" d="M60 24h108l32 32v176H60z"></path>

    <path id="shieldPath" d="M128 80
      C98 92 82 98 82 98
      v52
      c0 40 30 66 46 76
      c16-10 46-36 46-76
      v-52
      s-16-6-46-18z"></path>

    <clipPath id="shieldClip">
      <use href="#shieldPath"></use>
    </clipPath>
  </defs>

  <!-- Document fill -->
  <use href="#docPath" fill="var(--gray)"></use>

  <!-- Document outer gray outline (1px-ish) -->
  <use href="#docPath" fill="none" stroke="var(--gray)" stroke-width="8" stroke-linejoin="round"></use>

  <!-- Document green outline -->
  <use href="#docPath" fill="none" stroke="var(--green)" stroke-width="6" stroke-linejoin="round"></use>

  <!-- Fold (gray underlay + green) -->
  <path d="M168 24v32h32" fill="none" stroke="var(--green)" stroke-width="6" stroke-linecap="round" stroke-linejoin="round"></path>

  <!-- Shield -->
  <g transform="translate(0 -18)">
    <!-- Shield fill -->
    <use href="#shieldPath" fill="var(--gray)" fill-opacity="0.55"></use>

    <!-- Shield gray outline -->
    <use href="#shieldPath" fill="none" stroke="var(--gray)" stroke-width="8" stroke-linejoin="round"></use>

    <!-- Shield green outline -->
    <use href="#shieldPath" fill="none" stroke="var(--green)" stroke-width="6" stroke-linejoin="round"></use>

    <!-- Nuxt mountain -->
    <g clip-path="url(#shieldClip)">
      <g transform="translate(78 118) scale(0.31)">
        <path d="M168 200H279C282.542 200 285.932 198.756 289 197C292.068 195.244 295.23 193.041 297 190C298.77 186.959 300.002 183.51 300 179.999C299.998 176.488 298.773 173.04 297 170.001L222 41C220.23 37.96 218.067 35.7552 215 34C211.933 32.2448 207.542 31 204 31C200.458 31 197.067 32.2448 194 34C190.933 35.7552 188.77 37.96 187 41L168 74L130 9.99764C128.228 6.95784 126.068 3.75491 123 2C119.932 0.245087 116.542 0 113 0C109.458 0 106.068 0.245087 103 2C99.9323 3.75491 96.7717 6.95784 95 9.99764L2 170.001C0.226979 173.04 0.00154312 176.488 1.90993e-06 179.999C-0.0015393 183.51 0.229648 186.959 2 190C3.77035 193.04 6.93245 195.244 10 197C13.0675 198.756 16.4578 200 20 200H90C117.737 200 137.925 187.558 152 164L186 105L204 74L259 168H186L168 200ZM89 168H40L113 42L150 105L125.491 147.725C116.144 163.01 105.488 168 89 168Z" fill="var(--green)"></path>
      </g>
    </g>
  </g>
</svg>
