<svg width="512" height="512" viewBox="0 0 512 512" fill="none" xmlns="http://www.w3.org/2000/svg">
<g clip-path="url(#clip0_7_17)">
<path d="M286.226 418.585L224.946 357.229L356.614 224.233L419.014 286.623L286.226 418.585Z" fill="#8AB4F8"/>
<path d="M286.686 154.345L224.257 91.9262L91.9283 224.233C87.8325 228.327 84.5834 233.189 82.3667 238.539C80.15 243.889 79.0091 249.623 79.0091 255.414C79.0091 261.205 80.15 266.939 82.3667 272.289C84.5834 277.639 87.8325 282.5 91.9283 286.595L224.257 418.901L285.479 357.43L185.5 255.514L286.686 154.345Z" fill="#4285F4"/>
<path d="M419.014 224.233L286.686 91.9262C278.411 83.6489 267.186 78.9973 255.481 78.9946C243.776 78.9919 232.55 83.6384 224.271 91.9118C215.992 100.185 211.34 111.408 211.337 123.111C211.335 134.814 215.982 146.039 224.257 154.317L356.671 286.623C364.987 294.698 376.146 299.177 387.738 299.092C399.329 299.008 410.422 294.366 418.619 286.171C426.816 277.975 431.458 266.884 431.543 255.295C431.627 243.705 427.148 232.547 419.072 224.233H419.014Z" fill="#8AB4F8"/>
<path d="M298.724 388.252C298.724 379.598 296.157 371.139 291.348 363.944C286.538 356.749 279.703 351.142 271.706 347.831C263.709 344.521 254.91 343.656 246.422 345.347C237.933 347.037 230.137 351.207 224.019 357.328C217.901 363.449 213.736 371.247 212.051 379.735C210.366 388.223 211.236 397.02 214.552 405.014C217.868 413.007 223.481 419.837 230.68 424.641C237.88 429.445 246.342 432.006 254.997 432C260.742 432 266.43 430.868 271.737 428.669C277.044 426.47 281.866 423.248 285.927 419.185C289.987 415.122 293.208 410.299 295.403 404.991C297.599 399.684 298.727 393.996 298.724 388.252Z" fill="#246FDB"/>
</g>
<g filter="url(#filter0_d_7_17)">
<circle cx="360" cy="371" r="68" fill="white"/>
</g>
<g clip-path="url(#clip1_7_17)">
<path d="M366.394 397.167H408.401C409.735 397.167 411.046 396.819 412.201 396.158C413.357 395.496 414.316 394.545 414.983 393.4C415.65 392.254 416.001 390.955 416 389.633C415.999 388.311 415.648 387.012 414.98 385.867L386.769 337.438C386.102 336.293 385.143 335.342 383.988 334.681C382.833 334.02 381.522 333.672 380.188 333.672C378.854 333.672 377.544 334.02 376.389 334.681C375.233 335.342 374.274 336.293 373.607 337.438L366.394 349.83L352.291 325.599C351.623 324.454 350.664 323.503 349.508 322.842C348.353 322.181 347.042 321.833 345.708 321.833C344.374 321.833 343.063 322.181 341.908 322.842C340.752 323.503 339.792 324.454 339.125 325.599L304.02 385.867C303.352 387.012 303.001 388.311 303 389.633C302.999 390.955 303.35 392.254 304.017 393.4C304.684 394.545 305.643 395.496 306.799 396.158C307.954 396.819 309.265 397.167 310.599 397.167H336.968C347.415 397.167 355.12 392.618 360.421 383.745L373.292 361.653L380.186 349.83L400.876 385.344H373.292L366.394 397.167ZM336.538 385.331L318.136 385.327L345.72 337.978L359.484 361.653L350.268 377.476C346.748 383.234 342.748 385.331 336.538 385.331Z" fill="#00DC82"/>
</g>
<defs>
<filter id="filter0_d_7_17" x="283" y="294" width="154" height="154" filterUnits="userSpaceOnUse" color-interpolation-filters="sRGB">
<feFlood flood-opacity="0" result="BackgroundImageFix"/>
<feColorMatrix in="SourceAlpha" type="matrix" values="0 0 0 0 0 0 0 0 0 0 0 0 0 0 0 0 0 0 127 0" result="hardAlpha"/>
<feOffset/>
<feGaussianBlur stdDeviation="4.5"/>
<feComposite in2="hardAlpha" operator="out"/>
<feColorMatrix type="matrix" values="0 0 0 0 0 0 0 0 0 0 0 0 0 0 0 0 0 0 0.25 0"/>
<feBlend mode="normal" in2="BackgroundImageFix" result="effect1_dropShadow_7_17"/>
<feBlend mode="normal" in="SourceGraphic" in2="effect1_dropShadow_7_17" result="shape"/>
</filter>
<clipPath id="clip0_7_17">
<rect width="353" height="353" fill="white" transform="translate(79 79)"/>
</clipPath>
<clipPath id="clip1_7_17">
<rect width="113" height="113" fill="white" transform="translate(303 303)"/>
</clipPath>
</defs>
</svg>
