<svg xmlns="http://www.w3.org/2000/svg" version="1.1" viewBox="0.00 0.00 281.00 281.00" width="128"
  height="128">
  <path fill="#fc5200"
    d="
  M 140.80 39.61
  C 149.45 39.60 159.08 39.30 166.96 40.15
  C 218.20 45.64 257.69 88.45 257.71 140.53
  C 257.74 192.62 218.30 235.47 167.07 241.01
  C 159.19 241.87 149.55 241.57 140.91 241.58
  C 132.26 241.58 122.62 241.88 114.74 241.04
  C 63.50 235.55 24.02 192.74 23.99 140.66
  C 23.96 88.57 63.40 45.72 114.63 40.18
  C 122.52 39.32 132.15 39.61 140.80 39.61
  Z
  M 167.39 196.17
  Q 171.02 195.57 174.22 194.49
  Q 197.89 186.35 208.39 163.80
  Q 213.07 153.80 213.39 142.94
  C 215.34 77.61 147.98 33.26 88.59 60.09
  C 50.66 77.21 29.19 119.20 38.77 159.97
  C 46.29 191.98 70.02 217.22 101.72 225.81
  A 0.17 0.17 0.0 0 0 101.85 225.51
  Q 65.42 201.50 57.14 158.34
  C 53.51 139.42 55.96 120.07 65.80 104.35
  Q 76.35 87.50 93.42 78.82
  C 127.10 61.70 168.44 74.39 186.23 107.69
  C 197.67 129.11 197.18 154.01 185.21 175.25
  Q 180.17 184.19 172.91 190.63
  Q 172.50 191.02 167.25 195.89
  A 0.16 0.16 0.0 0 0 167.39 196.17
  Z
  M 114.61 84.81
  Q 110.97 85.38 107.77 86.45
  Q 84.05 94.45 73.42 116.93
  Q 68.69 126.91 68.31 137.76
  C 65.98 203.07 133.07 247.80 192.61 221.32
  C 230.63 204.42 252.34 162.56 243.00 121.74
  C 235.66 89.69 212.08 64.32 180.44 55.55
  A 0.17 0.17 0.0 0 0 180.30 55.85
  Q 216.59 80.06 224.62 123.27
  C 228.14 142.20 225.58 161.54 215.65 177.20
  Q 205.00 193.98 187.89 202.56
  C 154.11 219.49 112.85 206.56 95.26 173.16
  C 83.94 151.68 84.58 126.79 96.67 105.62
  Q 101.76 96.71 109.05 90.31
  Q 109.47 89.93 114.74 85.09
  A 0.16 0.16 0.0 0 0 114.61 84.81
  Z
  M 99.65 140.59
  C 99.64 166.21 116.26 187.49 140.51 195.09
  Q 140.55 195.10 140.72 195.10
  Q 140.89 195.10 140.92 195.09
  C 165.18 187.51 181.82 166.25 181.83 140.63
  C 181.84 115.01 165.22 93.73 140.97 86.14
  Q 140.93 86.12 140.76 86.12
  Q 140.59 86.12 140.56 86.14
  C 116.30 93.71 99.66 114.97 99.65 140.59
  Z"
  />
</svg>