<svg width="120" height="120" viewBox="0 0 120 120" fill="none" xmlns="http://www.w3.org/2000/svg">
<path d="M40.1889 17C43.2681 11.6667 50.9661 11.6667 54.0453 17L92.1504 83C95.2296 88.3333 91.3806 95 85.2222 95H9.01193C2.85353 95 -0.995469 88.3333 2.08373 83L40.1889 17Z" fill="#78716C"/>
<path d="M40.1889 17C43.2681 11.6667 50.9661 11.6667 54.0453 17L92.1504 83C95.2296 88.3333 91.3806 95 85.2222 95H9.01193C2.85353 95 -0.995469 88.3333 2.08373 83L40.1889 17Z" stroke="#606060"/>
<path d="M75.0718 32C78.151 26.6667 85.849 26.6667 88.9282 32L118.373 83C121.452 88.3333 117.603 95 111.445 95H52.5551C46.3967 95 42.5477 88.3333 45.6269 83L75.0718 32Z" fill="#D08700"/>
</svg>
