<svg xmlns="http://www.w3.org/2000/svg" width="512" height="512" fill="none" viewBox="0 0 512 512"><path fill="#04613b" stroke="#2f2216" stroke-linecap="round" stroke-linejoin="round" stroke-width="4" d="m43.77 298.74 192.52 53.46V488L43.77 423.53z"/><path fill="url(#a)" stroke="#2f2216" stroke-linecap="round" stroke-linejoin="round" stroke-width="4" d="m236.29 488.001 220.76-62.6v-121.18l-220.76 47.87z"/><path fill="#a3e6ca" stroke="#2f2216" stroke-linecap="round" stroke-linejoin="round" stroke-width="4" d="m236.29 352.06-192.85-53.6 217.24-36.78 196.299 42.1z"/><path fill="#00dc82" d="m447.63 303.761-211.87 46.31-183.15-51.11 173.77 42.42c8.2 2.02 20.13 0 20.13 0L438 301.751z"/><path fill="#146745" d="m409.3 295.519-189.8 44.2s-9.7 3.14-18.45.72l-148.48-41.5 208.07-35.58z"/><path fill="#04613b" stroke="#2f2216" stroke-linecap="round" stroke-linejoin="round" stroke-width="4" d="m214.65 116.9-1.97 214.57L66.43 285.2V65.41z"/><path fill="#05462b" d="m212.58 118.329-.35 31.65-107-35.5c-28-8.6-26.56 17.64-26.56 17.64l-2.37 154.18-7.89-2.52.02-215.58z"/><path fill="url(#b)" stroke="#2f2216" stroke-linecap="round" stroke-linejoin="round" stroke-width="4" d="M431.37 75.16 214.7 116.99l-1.86 214.57 212.84-47.54z"/><path fill="#a3e6ca" d="m429.38 77.48-212.75 41.161-1.77 210.459 6.17-199.66s-.34-6.21 6.9-7.7l201.3-39.52z"/><path fill="#04be72" stroke="#2f2216" stroke-linecap="round" stroke-linejoin="round" stroke-width="4" d="m266.92 25 164.9 50.47-216.62 41.77L67 65.56z"/><path fill="#00dc82" d="m214.94 114.831 208.38-40.04-17.38-5.32-182.83 34.4a34 34 0 0 1-16.3-.74L73.97 65.711zM238.27 353.699l.05 131.75 3.54-119.48s-.29-6.87 6.73-8.45l206.44-45.56v-5.27z"/><path fill="#05462b" d="M234.29 353.7 45.78 301.35l-.05 120.77 8.1 2.67.85-87.52s.34-12.83 13.4-9.25l166.2 46.51z"/><path fill="#020420" d="M163.7 173.33c1.51.32 2.12 3.38 1.7 5.5s-.58 3.22-2.57 3.83-3.42.15-5.4-1.36-3.23-3.51-2.52-4.68 2.94.42 5.14-.4 2.15-3.2 3.65-2.89M107.66 263.861c.91 2.1 3.55 3.29 4.85 2.6s2.08-4.27 1.17-6.37-3.32-2.97-4.83-2.03-2.11 3.7-1.2 5.8M301.2 47.9c2.5.27 6.6 1.2 6.8 3.07s-3.5 4.66-6 4.4-3.8-3.57-4-5.43.7-2.3 3.2-2.03M163.01 68.15c.45 1.09 4.48 2.66 7.91 2.66s6.26-1.57 5.81-2.65-4.17-1.65-7.6-1.65-6.57.57-6.12 1.65M240.67 272.14c4.27-.5 8.62-4.799 11.22-8.119a3.248 3.248 0 0 0 .336-4.207 3.24 3.24 0 0 0-1.156-.984s-4.54-3.899-8.25-2.559-8.15 9.229-8.5 11.429 2.09 4.94 6.35 4.44M395.45 277.501c-1.57-.08-7.48-1.251-7.63-3.611s5.5-5.939 7.06-5.869-.92 3.799-.78 6.169 2.92 3.381 1.35 3.301M182.76 398.639c1.9-.25-4.14-2.6-5.26-6.38s1.11-8.659-.8-8.399-7.97 5.65-6.84 9.43 10.98 5.609 12.9 5.349M263.63 432.621c-1.8-.32-2.88-2.48-2.51-5.37s2.36-6.4 3.97-6.2 3.55 4.18 3.19 7.07-2.84 4.8-4.65 4.5M299.6 391.25c2.03.22 7.86-3.68 8.1-4.73s-1.96-2.731-4.32-2.741-7.92 2.56-8.49 4.06 2.69 3.201 4.71 3.411"/><path stroke="#00dc82" d="M360.501 210.372c13.498.946 25.474-13.025 26.748-31.206s-8.634-33.686-22.132-34.632c-13.498-.947-25.473 13.025-26.748 31.206-1.274 18.18 8.635 33.686 22.132 34.632Z"/><path fill="url(#c)" d="M360.61 209.808c13.222.927 24.958-12.837 26.214-30.742 1.255-17.905-8.447-33.172-21.669-34.099s-24.959 12.837-26.214 30.742 8.446 33.172 21.669 34.099"/><path stroke="#020420" stroke-width="2" d="M360.68 208.812c12.671.888 23.93-12.461 25.146-29.815s-8.069-32.143-20.741-33.031-23.93 12.46-25.146 29.814c-1.217 17.355 8.069 32.143 20.741 33.032Z"/><path stroke="#00dc82" d="M260.552 233.301c14.829 1.564 28.494-12.752 30.522-31.975 2.027-19.224-8.351-36.075-23.181-37.639s-28.494 12.752-30.522 31.975c-2.027 19.224 8.351 36.075 23.181 37.639Z"/><path fill="url(#d)" d="M260.714 232.701c14.555 1.535 27.974-12.581 29.972-31.53s-8.181-35.554-22.735-37.089-27.974 12.582-29.973 31.53c-1.998 18.949 8.181 35.555 22.736 37.089"/><path stroke="#020420" stroke-width="3" d="M260.871 231.209c13.731 1.448 26.412-12.071 28.323-30.196s-7.67-33.992-21.401-35.44-26.412 12.071-28.323 30.196 7.67 33.992 21.401 35.44Z"/><path fill="#020420" d="m346.67 235.189-.9 1.91c-5.27 11.3-16.23 34.83-33.51 35.52l-1.02.02c-3.45 0-6.72-.73-9.71-2.18a26 26 0 0 1-7.43-5.5c-4.32-4.44-7.42-10.04-9.92-14.53a91 91 0 0 0-2.73-4.72c6.1 2.72 13.56 4.15 21.68 4.15 7.85 0 16.02-1.37 23.62-3.96a70 70 0 0 0 11.38-5.04 64 64 0 0 0 8.54-5.67"/><path fill="#58ebaf" d="m311.24 272.14 1-.02c3.9-.15 7.75-1.54 11.45-4.11 3.18-2.22 6.34-5.39 9.37-9.4 5.57-7.36 9.6-16 12.26-21.72l.03-.07a65 65 0 0 1-6.98 4.48c-3.6 2-7.45 3.7-11.46 5.07a75 75 0 0 1-23.78 4c-7.56 0-14.55-1.24-20.44-3.6q.91 1.569 1.93 3.42c2.48 4.46 5.56 10.03 9.84 14.42 4.93 5.07 10.42 7.53 16.78 7.53m0 1c-19.28 0-26.07-22.07-31.29-28.7 6.4 3.25 14.5 4.92 23.18 4.92 15.26 0 32.3-5.16 44.99-16.01-4.2 8.19-15.77 38.96-35.84 39.77z"/><path fill="url(#e)" d="M310.87 253.999c4.03 0 8.06.28 11.34.8 4.36.69 5.7 1.5 6.06 1.8a3.3 3.3 0 0 1 .46 1.93c-.02.98-.3 2.1-.8 3.2a14 14 0 0 1-5.19 5.74c-2.92 1.88-6.52 2.92-10.71 3.11l-1.15.03c-3.9 0-7.46-.9-10.59-2.7a19 19 0 0 1-6.19-5.64c-1.49-2.17-1.97-4.03-1.88-4.81 1.48-1.1 4.01-1.99 7.36-2.59 3.2-.57 7.12-.88 11.3-.88"/><path fill="#020420" d="m310.88 269.599 1.1-.02q6.05-.27 10.22-2.95a13 13 0 0 0 4.81-5.31c.87-1.9.83-3.42.5-4.03-.5-.33-2.1-.97-5.46-1.5-3.23-.52-7.2-.8-11.18-.8-8.06 0-14.67 1.13-17.63 2.98.12.86.76 2.7 2.54 4.87a18 18 0 0 0 5.82 4.66 20 20 0 0 0 9.27 2.12m0 2c-14.35 0-20.66-11.87-19.54-14.74 6.93-5.7 34.07-4.33 37.67-.94 2.65 3.36-1.75 14.97-16.94 15.65z"/><path fill="#e7e4df" d="M267 183c3.314 0 6-2.462 6-5.5s-2.686-5.5-6-5.5-6 2.462-6 5.5 2.686 5.5 6 5.5"/><path stroke="#1c0d0a" stroke-linecap="round" stroke-linejoin="round" d="M267 182.5c3.038 0 5.5-2.239 5.5-5s-2.462-5-5.5-5-5.5 2.239-5.5 5 2.462 5 5.5 5"/><path fill="#e0ddd6" d="M364.5 160c3.59 0 6.5-2.462 6.5-5.5s-2.91-5.5-6.5-5.5-6.5 2.462-6.5 5.5 2.91 5.5 6.5 5.5"/><path stroke="#27181b" stroke-linecap="round" stroke-linejoin="round" d="M364.5 159.5c3.314 0 6-2.239 6-5s-2.686-5-6-5-6 2.239-6 5 2.686 5 6 5"/><path fill="#020420" d="M361.365 190.873c5.785.406 10.897-5.295 11.419-12.732.521-7.438-3.746-13.796-9.53-14.202-5.785-.405-10.897 5.295-11.419 12.733-.521 7.438 3.746 13.796 9.53 14.201"/><path fill="#1d1c22" d="M262.419 210.865c5.785.406 10.897-5.295 11.419-12.732.521-7.438-3.746-13.796-9.531-14.201-5.784-.406-10.897 5.295-11.418 12.732-.521 7.438 3.745 13.796 9.53 14.201"/><path stroke="#00dc82" stroke-linecap="round" stroke-linejoin="round" d="M241.94 168.999c21.2-22.1 35.5-11.46 37.29-19.78 1.48-7.88-12.28-9.5-24.14-3.67s-19.34 20.08-13.15 23.45"/><path fill="url(#f)" stroke="#290101" stroke-linecap="round" stroke-linejoin="round" stroke-width="2" d="M241.96 167.549c19.5-20.8 34.76-12.31 36.05-18.37 1.4-7.02-12.33-7.76-22.3-2.68s-17.95 17.71-13.75 21.05"/><path stroke="#00dc82" stroke-linecap="round" stroke-linejoin="round" d="M342.13 134.94c1.94 3.36 9.27-1.26 20.63-.89s16.13 6.3 18.8 4.19-3.97-16.66-18-17.24-23.37 10.58-21.43 13.94"/><path fill="url(#g)" stroke="#1b0100" stroke-linecap="round" stroke-linejoin="round" stroke-width="2" d="M343.13 134.34c1.57 2.63 8.69-1.57 19.48-1.24s15.78 5.7 17.98 4.17-4.58-14.74-17.1-15.27-21.94 9.72-20.36 12.34"/><path fill="#d2d2d4" d="M270.92 172.04a17 17 0 0 1 3.01 3.6 9 9 0 0 1 3.4-1.2c-1.36-1.16-4.5-2.68-6.41-2.4"/><path fill="#020420" d="M394.16 424.289c3.3-.41 6.56-2.18 7.26-3.51s-2.66-1.82-4.47-1.82-.61.96-2.8 1.82-5.91.76-5.91 1.63 2.62 2.29 5.92 1.88"/><defs><linearGradient id="a" x1="457.05" x2="276.316" y1="304.221" y2="521.322" gradientUnits="userSpaceOnUse"><stop stop-color="#00dc82"/><stop offset="1" stop-color="#08945b"/></linearGradient><linearGradient id="b" x1="431.37" x2="179.018" y1="75.16" y2="285.939" gradientUnits="userSpaceOnUse"><stop stop-color="#00dc82"/><stop offset="1" stop-color="#08985d"/></linearGradient><linearGradient id="c" x1="365.155" x2="360.61" y1="144.967" y2="209.808" gradientUnits="userSpaceOnUse"><stop stop-color="#0e0e10"/><stop offset=".42" stop-color="#232630"/><stop offset="1" stop-color="#637194"/></linearGradient><linearGradient id="d" x1="267.951" x2="260.714" y1="164.082" y2="232.701" gradientUnits="userSpaceOnUse"><stop stop-color="#161618"/><stop offset=".41" stop-color="#18191f"/><stop offset="1" stop-color="#56638e"/></linearGradient><linearGradient id="e" x1="309.378" x2="308.683" y1="263.795" y2="254.624" gradientUnits="userSpaceOnUse"><stop stop-color="#f8877f"/><stop offset="1" stop-color="#7c3c33"/></linearGradient><linearGradient id="f" x1="257.597" x2="258.396" y1="143.211" y2="155.45" gradientUnits="userSpaceOnUse"><stop stop-color="#6f524c"/><stop offset="1" stop-color="#201b18"/></linearGradient><linearGradient id="g" x1="361.979" x2="361.979" y1="121.98" y2="134.276" gradientUnits="userSpaceOnUse"><stop stop-color="#5b4749"/><stop offset="1" stop-color="#332323"/></linearGradient></defs></svg>