<?xml version="1.0" encoding="utf-8"?>
<!-- Generator: Adobe Illustrator 25.0.0, SVG Export Plug-In . SVG Version: 6.00 Build 0)  -->
<svg version="1.1" id="Layer_1" xmlns="http://www.w3.org/2000/svg" xmlns:xlink="http://www.w3.org/1999/xlink" x="0px" y="0px"
	 viewBox="0 0 720 720" style="enable-background:new 0 0 720 720;" xml:space="preserve">
<style type="text/css">
	.st0{fill:#880000;}
	.st1{fill:#00DC82;}
</style>
<path class="st0" d="M506.2,414.6c-55.5,19-85.4,46.7-102.6,69.4c-37.2,48.9-51.1,106.4-67.4,103.8c-14-2.2-9.7-46.5-35.1-56.3
	c-15.8-6.1-23.9,8.5-46.8,5c-22.4-3.4-46.3-22.4-51.5-48.4c-3.6-18.1,3-33.2,6.1-39.3c-33.8-7.9-75.8-14.3-115-28.4
	c-33.7-11.9-62.8-33.7-81.6-66.8c-10.8-19.2-8.7-35,10.3-42.9c38.2-15.3,77.7-27.4,116.5-40.6c4.2-1.5,8.9-1.8,13.1-6.7l-45,3
	c-0.6-2.5-1.4-4.8-2-7.3C272.8,149.3,462.4,102.6,658,68.1c4.4,12.4,7.6,21.7,10.8,30.9l2.8-0.4l-1.6-27.4
	c26.5-11.1,33.2-6.5,39.5,18.8c11.5,45.3-1.7,80.4-36.5,110.6c-55.3,48.3-108.7,98.5-163.9,147.1
	C473.8,379.1,473.3,381.2,506.2,414.6z M181.4,340c-43-15.3-110.8-10.6-132.6,6.9c16.3,35.8,112,72.5,150.4,57.1
	c-8-4.3-15.4-8-22.9-12.1l6.6-10.9l-40.4-16.4l35.2-4.6l-22-14.8L181.4,340z M472.2,176.8l-3.9-7.4l-151.6,53.5l2,7.9
	c27.6-2,56.6,0.6,82.3-7.3C428.6,214.7,453.3,198.7,472.2,176.8L472.2,176.8z M509.7,284.4l-6.2-5.1c-23.4,30.5-48.2,60.2-69.6,92
	c-12.1,17.8-4.1,30.7,15.3,36.6C430,348.1,486.2,323.7,509.7,284.4z"/>
<path class="st1" d="M254.3,656.3h106.2c3.4,0,6.6-0.9,9.6-2.5c5.9-3.4,9.5-9.8,9.5-16.6c0-3.4-0.9-6.6-2.5-9.5l-71.4-122.6
	c-1.6-2.9-4.1-5.2-7-6.8c-5.9-3.6-13.4-3.6-19.3,0c-2.9,1.6-5.2,3.9-7,6.8l-18.2,31.4l-35.7-61.4c-1.8-2.9-4.3-5.2-7.1-6.8
	c-5.9-3.6-13.2-3.6-19.1,0c-2.9,1.6-5.2,3.9-7,6.8L96.3,627.7c-5.4,8.9-2.3,20.5,6.6,25.9c3,1.8,6.4,2.7,10,2.7h66.8
	c26.2,0,45.9-11.4,59.4-33.9l32.5-56.1l17.5-29.8l52.3,90h-69.8L254.3,656.3z M178.6,626.3H132l69.8-119.8l34.8,60l-23.4,40
	C204.5,621.1,194.3,626.3,178.6,626.3L178.6,626.3z"/>
<path class="st1" d="M472.2,176.8l-3.9-7.4l-151.6,53.5l2,7.9c27.6-2,56.6,0.6,82.3-7.3C428.6,214.7,453.3,198.7,472.2,176.8
	L472.2,176.8z"/>
</svg>
