<?xml version="1.0" encoding="utf-8"?>
<!-- Generator: Adobe Illustrator 25.0.0, SVG Export Plug-In . SVG Version: 6.00 Build 0)  -->
<svg version="1.1" id="Layer_1" xmlns="http://www.w3.org/2000/svg" xmlns:xlink="http://www.w3.org/1999/xlink" x="0px" y="0px"
	 viewBox="0 0 520.1 232.7" style="enable-background:new 0 0 520.1 232.7;" xml:space="preserve">
<style type="text/css">
	.st0{fill:#880000;}
	.st1{fill:#00DC82;}
</style>
<path class="st0" d="M323.9,193.5c-47.8-6.5-96.2,6.6-134.1,36.4c-9.7-24.3-21.1-48-34.1-70.8c-10.8-19.1-18.1-29.1-28.6-29.9
	s-21.3,9.9-25.3,15C94,126,82.2,113.3,71.2,114.3c-6.5,0.6-12,7.6-22.6,21.5C38.3,149.5,31,161.7,25,172.5
	c-5.4,9.7-12.4,22.7-19.9,38.5C5.3,133.1,6,75,5.8,49.3c0-4.6-0.1-15.1,6.8-22.9c7.3-8.2,18.6-9.1,34.2-10.2
	c9.6-0.7,23.6-0.8,40.5,2.3c1.2,12,8.2,42,31.4,72.1c14.4,18.7,31.7,31.1,48.4,33.8c-14.4-13.7-33.3-29-48.6-47.3
	c-13.2-15.6-21.3-34.8-21-56.6c0.2-12.6,5.8-19.8,17.5-18.2c23.3,3.5,46.3,8.9,69.3,13.6c2.5,0.5,4.9,1.7,8.4,0.5L169.6,4.9
	c0.4-1.4,0.7-2.8,1.1-4.2c114.6-5.8,221.8,26,328.4,65.5c-1.4,7.4-2.5,12.9-3.6,18.4l1.5,0.6l7.1-14c16.3,2.2,18.3,6.4,14.1,20.7
	c-7.4,25.7-24.1,39.2-50,44.1c-41.3,7.9-82.2,17.2-123.5,25.3C318.2,166.6,317.3,167.5,323.9,193.5z M185,62.7
	c-16.8-20-51.7-37.3-67.5-34.9c-2.3,22.4,34.4,68.2,57.8,71.7c-2.7-4.4-5.3-8.4-7.8-12.6l6.4-3.5l-15.2-19.8l18.7,7.9l-6.6-13.7
	L185,62.7z M375.9,66.2l0.2-4.8L285.7,44l-1.3,4.5c14.2,7,27.8,16.7,42.8,20.2C343.4,72.3,360.2,71.5,375.9,66.2L375.9,66.2z
	 M363.3,130.2l-1.6-4.3c-20.4,8.3-41.2,15.8-61,25.3c-11.1,5.3-10.9,14-3,22.5C305.5,138.6,340.3,142.8,363.3,130.2z"/>
<path class="st1" d="M103.4,232.7h59.5c1.9,0,3.7-0.5,5.4-1.4c3.3-1.9,5.3-5.5,5.3-9.3c0-1.9-0.5-3.7-1.4-5.3l-40-68.7
	c-0.9-1.6-2.3-2.9-3.9-3.8c-3.3-2-7.5-2-10.8,0c-1.6,0.9-2.9,2.2-3.9,3.8l-10.2,17.6l-20-34.4c-1-1.6-2.4-2.9-4-3.8
	c-3.3-2-7.4-2-10.7,0c-1.6,0.9-2.9,2.2-3.9,3.8l-49.9,85.5c-3,5-1.3,11.5,3.7,14.5c1.7,1,3.6,1.5,5.6,1.5h37.4
	c14.7,0,25.7-6.4,33.3-19l18.2-31.4l9.8-16.7l29.3,50.4h-39.1L103.4,232.7z M61,215.9H34.9L74,148.8l19.5,33.6l-13.1,22.4
	C75.5,213,69.8,215.9,61,215.9L61,215.9z"/>
<path class="st1" d="M375.9,66.2l0.2-4.8L285.7,44l-1.3,4.5c14.2,7,27.8,16.7,42.8,20.2C343.4,72.3,360.2,71.5,375.9,66.2
	L375.9,66.2z"/>
</svg>
