<svg width="720" height="720" viewBox="0 0 720 720" fill="none" xmlns="http://www.w3.org/2000/svg">
<rect width="720" height="720" rx="50" fill="white"/>
<rect width="720" height="720" rx="50" fill="#020420"/>
<g filter="url(#filter0_d_1988_10)">
<path d="M573.256 214.999C608.009 214.999 636.182 243.172 636.182 277.925V319.625C636.182 324.482 634.625 328.974 631.986 332.634C631.222 331.716 630.425 330.823 629.594 329.959C624.651 324.815 618.668 320.782 612.045 318.129C605.567 315.534 598.62 314.318 591.649 314.557V277.925C591.649 267.767 583.414 259.532 573.256 259.532H414.835C404.678 259.532 396.443 267.767 396.443 277.925V324.996C396.443 335.154 404.678 343.389 414.835 343.389H573.256C608.009 343.389 636.182 371.562 636.182 406.314V442.074C636.182 476.827 608.009 504.999 573.256 504.999H414.495C379.742 504.999 351.569 476.827 351.569 442.074V411.642C351.569 406.151 353.558 401.125 356.853 397.242C357.651 398.233 358.492 399.191 359.374 400.114C363.834 404.785 369.237 408.453 375.225 410.872C381.213 413.291 387.648 414.407 394.1 414.146C394.769 414.119 395.436 414.075 396.102 414.019V442.074C396.102 452.232 404.337 460.467 414.495 460.467H573.256C583.414 460.467 591.649 452.232 591.649 442.074V406.314C591.649 396.157 583.414 387.922 573.256 387.922H414.835C396.468 387.922 379.94 380.052 368.436 367.501C368.256 367.202 368.077 366.9 367.9 366.594L367.597 366.567C357.833 355.481 351.91 340.93 351.91 324.996V277.925C351.91 243.172 380.083 214.999 414.835 214.999H573.256Z" fill="#00DC82"/>
<path d="M347.277 214.999C349.284 214.999 351.229 215.266 353.078 215.764C350.324 217.643 347.756 219.797 345.416 222.198C340.436 227.307 336.601 233.419 334.167 240.125C331.911 246.341 330.907 252.936 331.205 259.532H147.371C137.213 259.532 128.979 267.767 128.979 277.925V343.389H264.382C276.679 343.389 286.648 353.358 286.648 365.655C286.648 377.953 276.679 387.922 264.382 387.922H128.914L128.638 482.798C128.602 495.095 118.604 505.035 106.307 504.999C94.0093 504.963 84.0687 494.965 84.1045 482.668L84.4463 365.655L84.4453 277.925C84.4456 243.172 112.619 214.999 147.371 214.999H347.277Z" fill="#00DC82"/>
</g>
<defs>
<filter id="filter0_d_1988_10" x="24.1045" y="154.999" width="672.078" height="410" filterUnits="userSpaceOnUse" color-interpolation-filters="sRGB">
<feFlood flood-opacity="0" result="BackgroundImageFix"/>
<feColorMatrix in="SourceAlpha" type="matrix" values="0 0 0 0 0 0 0 0 0 0 0 0 0 0 0 0 0 0 127 0" result="hardAlpha"/>
<feOffset/>
<feGaussianBlur stdDeviation="30"/>
<feComposite in2="hardAlpha" operator="out"/>
<feColorMatrix type="matrix" values="0 0 0 0 0 0 0 0 0 0.862745 0 0 0 0 0.509804 0 0 0 0.5 0"/>
<feBlend mode="normal" in2="BackgroundImageFix" result="effect1_dropShadow_1988_10"/>
<feBlend mode="normal" in="SourceGraphic" in2="effect1_dropShadow_1988_10" result="shape"/>
</filter>
</defs>
</svg>
