<svg xmlns="http://www.w3.org/2000/svg" fill="none" viewBox="0 0 60 60"><g clip-path="url(#a)"><path fill="url(#b)" d="M33.6601 49.9999h22.305c.708 0 1.404-.185 2.018-.536.6123-.3498 1.1217-.8548 1.477-1.464.3537-.6072.5399-1.2975.5396-2.0002-.0004-.7028-.1873-1.3929-.5416-1.9998l-14.978-25.714c-.3553-.6092-.8647-1.1141-1.477-1.464-.6143-.3515-1.3098-.5364-2.0175-.5364-.7078 0-1.4032.1849-2.0175.5364-.612.3501-1.121.855-1.476 1.464l-3.83 6.58-7.491-12.866c-.3551-.609-.8641-1.1139-1.476-1.464-.6145-.3515-1.3101-.53639-2.018-.53639-.7079 0-1.4035.18489-2.018.53639-.613.3497-1.1231.8547-1.479 1.464l-18.639017 32c-.354188.607-.54090719 1.2971-.54108288 1.9999-.00017569.7028.18619888 1.393.54008288 2.0001.35525.6093.864667 1.1142 1.476997 1.464.614.351 1.31.536 2.018.536H18.0351c5.548 0 9.64-2.415 12.454-7.127l6.834-11.73 3.66-6.278 10.987 18.857h-14.647l-3.663 6.278Zm-15.852-6.284-9.77102-.002 14.64602-25.142 7.308 12.571-4.893 8.402c-1.87 3.057-3.993 4.171-7.29 4.171Z"/></g><defs><linearGradient id="b" x1=".00008328" x2="60.0001" y1="29.9999" y2="29.9999" gradientUnits="userSpaceOnUse"><stop stop-color="#00DC82"/><stop offset=".5" stop-color="#36E4DA"/><stop offset="1" stop-color="#0047E1"/></linearGradient><clipPath id="a"><path fill="#fff" d="M0 10h60v40H0z"/></clipPath></defs></svg>