<svg xmlns="http://www.w3.org/2000/svg" fill="none" viewBox="0 0 730 730">
  <path fill="#00DC82" d="M0 150C0 67.157 67.157 0 150 0h430c82.843 0 150 67.157 150 150v430c0 82.843-67.157 150-150 150H150C67.157 730 0 662.843 0 580V150Z"/>
  <path fill="#020420" d="M142 195c0-39.212 31.788-71 71-71h304c39.212 0 71 31.788 71 71v464c0 39.212-31.788 71-71 71H213c-39.212 0-71-31.788-71-71V195Z"/>
  <path fill="#00DC82" d="M286 303c0-20.435 16.565-37 37-37h83c20.435 0 37 16.565 37 37v390c0 20.435-16.565 37-37 37h-83c-20.435 0-37-16.565-37-37V303Z"/>
</svg>
