<svg class="block h-full" xmlns="http://www.w3.org/2000/svg" viewBox="0 0 15.62 14.72"><path fill="#00DC82" d="M7.8,6.5h0a3.35,3.35,0,0,0,1-.19l.58,1,.39.7a.6.6,0,0,0,.52.31.65.65,0,0,0,.31-.08.61.61,0,0,0,.21-.84l-.39-.7-.58-1A3.3,3.3,0,0,0,11,3.24,3.2,3.2,0,0,0,7.82,0,3.22,3.22,0,0,0,4.64,3.26,3.2,3.2,0,0,0,7.8,6.5Zm0-5.27a2,2,0,1,1-2,2A2,2,0,0,1,7.8,1.23Z"></path><path fill="#000000" d="M12.45,8.23h0a3.21,3.21,0,0,0-3.11,2.63H7.42a.61.61,0,0,0-.59.61.6.6,0,0,0,.59.6H9.34a3.18,3.18,0,1,0,3.11-3.84Zm0,5.26a2,2,0,1,1,2-2A2,2,0,0,1,12.45,13.49Z"></path><path fill="#000000" d="M5.82,8l.4-.7A.64.64,0,0,0,6,6.48H6a.61.61,0,0,0-.83.22l-.39.7-.57,1a3.26,3.26,0,0,0-1-.18,3.25,3.25,0,0,0,0,6.49A3.26,3.26,0,0,0,5.25,9ZM3.16,13.49a2,2,0,0,1,0-4,2,2,0,0,1,2,2v0A2,2,0,0,1,3.16,13.49Z"></path></svg>
