<svg width="512" height="512" viewBox="0 0 512 512" fill="none" xmlns="http://www.w3.org/2000/svg">
<g clip-path="url(#clip0_108_120)">
<rect width="512" height="512" rx="40" fill="#00DC82"/>
<path d="M65.0748 370.412L82.5346 380.492L277.043 43.603L259.584 33.5223L65.0748 370.412Z" fill="white"/>
<path d="M450.094 343.497H61.0765V363.658H450.094V343.497Z" fill="white"/>
<path d="M68.7742 354.824L263.356 467.169L273.437 449.709L78.8549 337.364L68.7742 354.824Z" fill="white"/>
<path d="M237.807 62.023L432.389 174.368L442.47 156.908L247.888 44.5633L237.807 62.023Z" fill="white"/>
<path d="M68.8281 156.832L78.9088 174.292L273.491 61.9464L263.41 44.4866L68.8281 156.832Z" fill="white"/>
<path d="M234.293 43.6067L428.801 380.496L446.261 370.415L251.752 33.526L234.293 43.6067Z" fill="white"/>
<path d="M96.6626 143.462H76.5012V368.153H96.6626V143.462Z" fill="white"/>
<path d="M434.791 143.462H414.63V368.153H434.791V143.462Z" fill="white"/>
<path d="M251.118 443.384L259.924 458.635L429.157 360.925L420.352 345.674L251.118 443.384Z" fill="white"/>
<path d="M461.511 374.711C449.851 394.994 423.86 401.917 403.577 390.257C383.294 378.597 376.372 352.606 388.031 332.323C399.691 312.041 425.682 305.118 445.965 316.777C466.369 328.558 473.292 354.428 461.511 374.711Z" fill="white"/>
<path d="M123.14 179.291C111.48 199.574 85.4888 206.497 65.206 194.837C44.9231 183.178 38.0002 157.186 49.6598 136.904C61.3194 116.621 87.3106 109.698 107.593 121.357C127.876 133.139 134.799 159.008 123.14 179.291Z" fill="white"/>
<path d="M49.7813 374.711C38.1217 354.428 45.0446 328.558 65.3274 316.777C85.6103 305.118 111.48 312.041 123.261 332.323C134.921 352.606 127.998 378.476 107.715 390.257C87.3106 401.917 61.4409 394.994 49.7813 374.711Z" fill="white"/>
<path d="M388.153 179.291C376.493 159.008 383.416 133.139 403.699 121.357C423.982 109.698 449.851 116.621 461.632 136.904C473.292 157.186 466.369 183.056 446.086 194.837C425.803 206.497 399.812 199.574 388.153 179.291Z" fill="white"/>
<path d="M255.646 493.615C232.205 493.615 213.259 474.668 213.259 451.227C213.259 427.786 232.205 408.84 255.646 408.84C279.087 408.84 298.034 427.786 298.034 451.227C298.034 474.546 279.087 493.615 255.646 493.615Z" fill="white"/>
<path d="M255.646 102.775C232.205 102.775 213.259 83.8282 213.259 60.3875C213.259 36.9469 232.205 18 255.646 18C279.087 18 298.034 36.9469 298.034 60.3875C298.034 83.8282 279.087 102.775 255.646 102.775Z" fill="white"/>
</g>
<defs>
<clipPath id="clip0_108_120">
<rect width="512" height="512" fill="white"/>
</clipPath>
</defs>
</svg>
