<?xml version="1.0" encoding="UTF-8"?>
<svg width="448" height="512" viewBox="0 0 448 512" xmlns="http://www.w3.org/2000/svg">
    <path fill="#528dd7" stroke="none" d="M 448 48 L 448 384 C 385 407 366 416 329 416 C 266 416 242 384 179 384 C 159 384 143 388 128 392 L 128 328 C 143 324 159 320 179 320 C 242 320 266 352 329 352 C 349 352 364 349 384 343 L 384 135 C 364 141 349 144 329 144 C 266 144 242 112 179 112 C 128 112 104 133 64 141 L 64 77 C 104 69 128 48 179 48 C 242 48 266 80 329 80 C 366 80 385 71 448 48 Z"/>
    <path fill="#193154" stroke="none" d="M 64 448 C 64 466 50 480 32 480 C 14 480 0 466 0 448 L 0 64 C 0 46 14 32 32 32 C 50 32 64 46 64 64 C 64 64 64 448 64 448 Z"/>
</svg>
