<?xml version="1.0" encoding="utf-8"?>
<svg xmlns="http://www.w3.org/2000/svg" viewBox="0 0 361.3 400" xmlns:bx="https://boxy-svg.com" width="361.3px" height="400px"><defs><bx:export><bx:file format="svg" path="nuxt-useless-blobs.svg" normalization="{&quot;removeBoxySVGMetadata&quot;:true}"/></bx:export></defs><path d="M 330.423 116.362 C 328.673 130.862 308.543 137.912 313.673 146.652 C 320.423 158.162 346.463 148.442 356.823 161.352 C 365.423 172.072 355.223 182.192 355.793 199.162 C 356.213 211.892 365.533 218.972 359.023 227.352 C 348.473 240.952 332.633 235.062 317.883 248.002 C 308.663 256.092 304.693 262.122 305.743 274.102 C 307.673 296.132 325.033 304.202 324.513 323.582 C 324.273 332.572 311.183 329.092 304.063 337.142 C 295.043 347.332 299.483 357.702 288.643 364.112 C 274.483 372.472 265.373 373.612 248.503 369.962 C 228.923 365.732 223.263 343.552 207.643 346.592 C 192.343 349.562 195.513 370.912 179.793 383.312 C 165.183 394.832 158.203 397.402 140.243 399.752 C 129.683 401.132 126.663 396.352 116.423 391.612 C 102.093 384.972 98.823 383.172 85.653 374.452 C 75.553 367.762 73.423 365.802 64.723 357.372 C 54.433 347.402 51.913 345.102 43.443 333.552 C 33.253 319.652 24.743 316.402 23.273 300.832 C 21.703 284.152 41.123 274.822 36.683 261.892 C 32.973 251.092 13.683 258.042 5.173 248.092 C -0.587 241.362 5.803 235.242 4.973 224.822 C 3.773 209.812 -1.997 205.592 0.673 191.572 C 3.123 178.712 13.803 178.062 16.333 165.092 C 19.523 148.712 10.193 142.952 13.373 126.342 C 16.753 108.672 22.013 105.172 30.903 88.902 C 36.473 78.712 35.993 71.952 45.513 67.522 C 58.843 61.312 65.883 68.492 81.693 65.262 C 96.103 62.312 103.453 64.082 112.673 53.782 C 127.603 37.122 122.113 4.512 135.353 5.352 C 152.473 6.432 162.103 58.782 180.133 58.052 C 197.013 57.372 193.883 16.242 212.933 2.212 C 222.263 -4.658 230.063 6.222 243.203 11.622 C 255.513 16.682 258.443 18.032 269.483 25.452 C 283.493 34.862 286.793 37.252 298.883 49.022 C 310.483 60.312 315.443 62.402 322.133 76.682 C 329.633 92.702 332.473 99.382 330.423 116.362" stroke-width="3" style="stroke-width: 3; fill: rgb(99, 76, 37);"/></svg>