<svg width="80" height="80" viewBox="0 0 80 80" fill="none" xmlns="http://www.w3.org/2000/svg">
<rect width="80" height="80" fill="#001E26"/>
<path d="M33.0254 48.8482C33.9291 47.2792 36.1882 47.2792 37.0918 48.8482L49.7992 70.9121C50.7028 72.4811 49.5733 74.4423 47.766 74.4423H22.3512C20.5439 74.4423 19.4144 72.4811 20.318 70.9121L33.0254 48.8482Z" fill="#80EEC0"/>
<path d="M42.2429 53.3251C43.1397 51.7361 45.3818 51.736 46.2786 53.3251L56.494 71.4248C57.3908 73.0138 56.2697 75.0001 54.4761 75.0001H34.0454C32.2518 75.0001 31.1307 73.0138 32.0276 71.4248L42.2429 53.3251Z" fill="#001E26"/>
<path d="M45.8498 53.8198C46.7683 52.3146 49.0043 52.3146 49.9228 53.8198L60.3774 70.9524C61.3168 72.4918 60.1786 74.4422 58.3409 74.4422H37.4317C35.594 74.4422 34.4558 72.4918 35.3952 70.9524L45.8498 53.8198Z" fill="#00DC82"/>
<circle cx="14.2857" cy="26.4286" r="4.28571" fill="#D6386E"/>
<circle cx="14.2857" cy="9.28571" r="4.28571" fill="#D6386E"/>
<circle cx="31.4288" cy="9.28571" r="4.28571" fill="#D27098"/>
<circle cx="48.5714" cy="9.28571" r="4.28571" fill="#AD9EC2"/>
<circle cx="48.5714" cy="26.4286" r="4.28571" fill="#AD9EC2"/>
<circle cx="65.7144" cy="9.28571" r="4.28571" fill="#25FEFD"/>
<rect x="10" y="40" width="8.57143" height="26.4286" rx="4.28571" fill="white"/>
<rect x="27.1431" y="22.1429" width="8.57143" height="44.2857" rx="4.28571" fill="white"/>
<rect x="44.2856" y="40" width="8.57143" height="26.4286" rx="4.28571" fill="white"/>
<rect x="61.4287" y="22.1429" width="8.57143" height="44.2857" rx="4.28571" fill="white"/>
</svg>
