<svg width="684" height="752" viewBox="0 0 684 752" fill="none" xmlns="http://www.w3.org/2000/svg">
<path d="M210.863 644.948C238.534 644.948 260.965 622.517 260.965 594.846C260.965 567.176 238.534 544.744 210.863 544.744C183.193 544.744 160.761 567.176 160.761 594.846C160.761 622.517 183.193 644.948 210.863 644.948Z" fill="#108775"/>
<path d="M210.863 388.777C238.534 388.777 260.965 366.346 260.965 338.675C260.965 311.005 238.534 288.573 210.863 288.573C183.193 288.573 160.761 311.005 160.761 338.675C160.761 366.346 183.193 388.777 210.863 388.777Z" fill="#108775"/>
<path fill-rule="evenodd" clip-rule="evenodd" d="M495.21 558.264C495.21 549.741 502.119 542.831 510.642 542.831H514.05C522.573 542.831 529.482 549.741 529.482 558.264V630.388C529.482 638.911 522.573 645.82 514.05 645.82H510.642C502.119 645.82 495.21 638.911 495.21 630.388V558.264ZM426.664 558.264C426.664 549.741 433.574 542.831 442.097 542.831H445.505C454.028 542.831 460.937 549.741 460.937 558.264V630.388C460.937 638.911 454.028 645.82 445.505 645.82H442.097C433.574 645.82 426.664 638.911 426.664 630.388V558.264ZM495.21 301.39C495.21 292.867 502.119 285.958 510.642 285.958H514.05C522.573 285.958 529.482 292.867 529.482 301.39V373.514C529.482 382.037 522.573 388.946 514.05 388.946H510.642C502.119 388.946 495.21 382.037 495.21 373.514V301.39ZM426.664 301.39C426.664 292.867 433.574 285.958 442.097 285.958H445.505C454.028 285.958 460.937 292.867 460.937 301.39V373.514C460.937 382.037 454.028 388.946 445.505 388.946H442.097C433.574 388.946 426.664 382.037 426.664 373.514V301.39Z" fill="#35495E"/>
<path fill-rule="evenodd" clip-rule="evenodd" d="M306.17 15.6521C334.888 -5.77376 374.442 -5.14476 402.464 17.1834L654.284 217.831C673.062 232.793 684 255.494 684 279.504V374.561C684 381.729 681.863 388.398 678.191 393.966C676.609 392.324 674.955 390.748 673.233 389.243C664.664 381.75 654.597 376.168 643.702 372.869C633.891 369.898 623.612 368.839 613.422 369.738V279.504C613.422 276.983 612.273 274.6 610.302 273.03L358.482 72.3821C355.541 70.0383 351.389 69.9723 348.374 72.2214L74.7775 276.343L53.6752 248.058L74.7775 276.343C72.6833 277.906 71.4497 280.365 71.4497 282.978V428.422C71.4497 432.994 75.1557 436.7 79.7274 436.7H605.144C648.695 436.7 684 472.005 684 515.556V672.397C684 715.948 648.695 751.253 605.144 751.253H78.8561C35.3051 751.253 0 715.948 0 672.397V566.255C0 559.842 1.71073 553.828 4.70074 548.646C7.28333 551.867 10.1177 554.893 13.1822 557.693C21.5865 565.37 31.5295 571.169 42.3495 574.705C51.4646 577.683 61.026 578.998 70.5783 578.601V672.397C70.5783 676.969 74.2844 680.675 78.8561 680.675H605.144C609.716 680.675 613.422 676.969 613.422 672.397V515.556C613.422 510.984 609.716 507.279 605.144 507.279H79.7274C36.1764 507.279 0.871338 471.973 0.871338 428.422V282.978C0.871338 258.087 12.623 234.658 32.573 219.774L306.17 15.6521L327.272 43.9368L306.17 15.6521Z" fill="#00DC82"/>
</svg>
