<svg xmlns="http://www.w3.org/2000/svg" fill="none" viewBox="0 0 500 500"><g clip-path="url(#a)"><path fill="#020420" d="M0 0h500v500H0z"/><g filter="url(#b)"><path fill="#00DC82" d="M467 211v78H34v-78z"/></g><g fill="#00DC82" clip-path="url(#c)" opacity=".06"><circle cx="9.22457" cy="-3.9058" r="4.0942"/><circle cx="25.6015" cy="-3.9058" r="4.0942"/><circle cx="41.9782" cy="-3.9058" r="4.0942"/><circle cx="58.3552" cy="-3.9058" r="4.0942"/><circle cx="74.7319" cy="-3.9058" r="4.0942"/><circle cx="91.1086" cy="-3.9058" r="4.0942"/><circle cx="107.486" cy="-3.9058" r="4.0942"/><circle cx="123.862" cy="-3.9058" r="4.0942"/><circle cx="140.239" cy="-3.9058" r="4.0942"/><circle cx="156.616" cy="-3.9058" r="4.0942"/><circle cx="172.993" cy="-3.9058" r="4.0942"/><circle cx="189.37" cy="-3.9058" r="4.0942"/><circle cx="205.746" cy="-3.9058" r="4.0942"/><circle cx="222.123" cy="-3.9058" r="4.0942"/><circle cx="238.5" cy="-3.9058" r="4.0942"/><circle cx="254.877" cy="-3.9058" r="4.0942"/><circle cx="271.254" cy="-3.9058" r="4.0942"/><circle cx="287.63" cy="-3.9058" r="4.0942"/><circle cx="304.007" cy="-3.9058" r="4.0942"/><circle cx="320.384" cy="-3.9058" r="4.0942"/><circle cx="336.761" cy="-3.9058" r="4.0942"/><circle cx="353.138" cy="-3.9058" r="4.0942"/><circle cx="369.515" cy="-3.9058" r="4.0942"/><circle cx="385.891" cy="-3.9058" r="4.0942"/><circle cx="402.268" cy="-3.9058" r="4.0942"/><circle cx="418.645" cy="-3.9058" r="4.0942"/><circle cx="435.022" cy="-3.9058" r="4.0942"/><circle cx="451.399" cy="-3.9058" r="4.0942"/><circle cx="467.775" cy="-3.9058" r="4.0942"/><circle cx="484.152" cy="-3.9058" r="4.0942"/><circle cx="500.529" cy="-3.9058" r="4.0942"/><circle cx="9.22457" cy="12.4709" r="4.0942"/><circle cx="25.6015" cy="12.4709" r="4.0942"/><circle cx="41.9782" cy="12.4709" r="4.0942"/><circle cx="58.3552" cy="12.4709" r="4.0942"/><circle cx="74.7319" cy="12.4709" r="4.0942"/><circle cx="91.1086" cy="12.4709" r="4.0942"/><circle cx="107.486" cy="12.4709" r="4.0942"/><circle cx="123.862" cy="12.4709" r="4.0942"/><circle cx="140.239" cy="12.4709" r="4.0942"/><circle cx="156.616" cy="12.4709" r="4.0942"/><circle cx="172.993" cy="12.4709" r="4.0942"/><circle cx="189.37" cy="12.4709" r="4.0942"/><circle cx="205.746" cy="12.4709" r="4.0942"/><circle cx="222.123" cy="12.4709" r="4.0942"/><circle cx="238.5" cy="12.4709" r="4.0942"/><circle cx="271.254" cy="12.4709" r="4.0942"/><circle cx="287.63" cy="12.4709" r="4.0942"/><circle cx="304.007" cy="12.4709" r="4.0942"/><circle cx="336.761" cy="12.4709" r="4.0942"/><circle cx="353.138" cy="12.4709" r="4.0942"/><circle cx="369.515" cy="12.4709" r="4.0942"/><circle cx="385.891" cy="12.4709" r="4.0942"/><circle cx="402.268" cy="12.4709" r="4.0942"/><circle cx="435.022" cy="12.4709" r="4.0942"/><circle cx="451.399" cy="12.4709" r="4.0942"/><circle cx="467.775" cy="12.4709" r="4.0942"/><circle cx="484.152" cy="12.4709" r="4.0942"/><circle cx="500.529" cy="12.4709" r="4.0942"/><circle cx="9.22457" cy="12.4709" r="4.0942"/><circle cx="25.6015" cy="12.4709" r="4.0942"/><circle cx="41.9782" cy="12.4709" r="4.0942"/><circle cx="58.3552" cy="12.4709" r="4.0942"/><circle cx="74.7319" cy="12.4709" r="4.0942"/><circle cx="91.1086" cy="12.4709" r="4.0942"/><circle cx="107.486" cy="12.4709" r="4.0942"/><circle cx="123.862" cy="12.4709" r="4.0942"/><circle cx="140.239" cy="12.4709" r="4.0942"/><circle cx="156.616" cy="12.4709" r="4.0942"/><circle cx="172.993" cy="12.4709" r="4.0942"/><circle cx="189.37" cy="12.4709" r="4.0942"/><circle cx="205.746" cy="12.4709" r="4.0942"/><circle cx="222.123" cy="12.4709" r="4.0942"/><circle cx="238.5" cy="12.4709" r="4.0942"/><circle cx="271.254" cy="12.4709" r="4.0942"/><circle cx="287.63" cy="12.4709" r="4.0942"/><circle cx="304.007" cy="12.4709" r="4.0942"/><circle cx="336.761" cy="12.4709" r="4.0942"/><circle cx="353.138" cy="12.4709" r="4.0942"/><circle cx="369.515" cy="12.4709" r="4.0942"/><circle cx="385.891" cy="12.4709" r="4.0942"/><circle cx="402.268" cy="12.4709" r="4.0942"/><circle cx="435.022" cy="12.4709" r="4.0942"/><circle cx="451.399" cy="12.4709" r="4.0942"/><circle cx="467.775" cy="12.4709" r="4.0942"/><circle cx="484.152" cy="12.4709" r="4.0942"/><circle cx="500.529" cy="12.4709" r="4.0942"/><circle cx="9.22457" cy="12.4709" r="4.0942"/><circle cx="25.6015" cy="12.4709" r="4.0942"/><circle cx="41.9782" cy="12.4709" r="4.0942"/><circle cx="58.3552" cy="12.4709" r="4.0942"/><circle cx="74.7319" cy="12.4709" r="4.0942"/><circle cx="91.1086" cy="12.4709" r="4.0942"/><circle cx="107.486" cy="12.4709" r="4.0942"/><circle cx="123.862" cy="12.4709" r="4.0942"/><circle cx="140.239" cy="12.4709" r="4.0942"/><circle cx="156.616" cy="12.4709" r="4.0942"/><circle cx="172.993" cy="12.4709" r="4.0942"/><circle cx="189.37" cy="12.4709" r="4.0942"/><circle cx="205.746" cy="12.4709" r="4.0942"/><circle cx="222.123" cy="12.4709" r="4.0942"/><circle cx="238.5" cy="12.4709" r="4.0942"/><circle cx="271.254" cy="12.4709" r="4.0942"/><circle cx="287.63" cy="12.4709" r="4.0942"/><circle cx="304.007" cy="12.4709" r="4.0942"/><circle cx="336.761" cy="12.4709" r="4.0942"/><circle cx="353.138" cy="12.4709" r="4.0942"/><circle cx="369.515" cy="12.4709" r="4.0942"/><circle cx="385.891" cy="12.4709" r="4.0942"/><circle cx="402.268" cy="12.4709" r="4.0942"/><circle cx="435.022" cy="12.4709" r="4.0942"/><circle cx="451.399" cy="12.4709" r="4.0942"/><circle cx="467.775" cy="12.4709" r="4.0942"/><circle cx="484.152" cy="12.4709" r="4.0942"/><circle cx="500.529" cy="12.4709" r="4.0942"/><circle cx="9.22457" cy="12.4709" r="4.0942"/><circle cx="25.6015" cy="12.4709" r="4.0942"/><circle cx="41.9782" cy="12.4709" r="4.0942"/><circle cx="58.3552" cy="12.4709" r="4.0942"/><circle cx="74.7319" cy="12.4709" r="4.0942"/><circle cx="91.1086" cy="12.4709" r="4.0942"/><circle cx="107.486" cy="12.4709" r="4.0942"/><circle cx="123.862" cy="12.4709" r="4.0942"/><circle cx="140.239" cy="12.4709" r="4.0942"/><circle cx="156.616" cy="12.4709" r="4.0942"/><circle cx="172.993" cy="12.4709" r="4.0942"/><circle cx="189.37" cy="12.4709" r="4.0942"/><circle cx="205.746" cy="12.4709" r="4.0942"/><circle cx="222.123" cy="12.4709" r="4.0942"/><circle cx="238.5" cy="12.4709" r="4.0942"/><circle cx="271.254" cy="12.4709" r="4.0942"/><circle cx="287.63" cy="12.4709" r="4.0942"/><circle cx="304.007" cy="12.4709" r="4.0942"/><circle cx="336.761" cy="12.4709" r="4.0942"/><circle cx="353.138" cy="12.4709" r="4.0942"/><circle cx="369.515" cy="12.4709" r="4.0942"/><circle cx="385.891" cy="12.4709" r="4.0942"/><circle cx="402.268" cy="12.4709" r="4.0942"/><circle cx="435.022" cy="12.4709" r="4.0942"/><circle cx="451.399" cy="12.4709" r="4.0942"/><circle cx="467.775" cy="12.4709" r="4.0942"/><circle cx="484.152" cy="12.4709" r="4.0942"/><circle cx="500.529" cy="12.4709" r="4.0942"/><circle cx="9.22457" cy="12.4709" r="4.0942"/><circle cx="25.6015" cy="12.4709" r="4.0942"/><circle cx="41.9782" cy="12.4709" r="4.0942"/><circle cx="58.3552" cy="12.4709" r="4.0942"/><circle cx="74.7319" cy="12.4709" r="4.0942"/><circle cx="91.1086" cy="12.4709" r="4.0942"/><circle cx="107.486" cy="12.4709" r="4.0942"/><circle cx="123.862" cy="12.4709" r="4.0942"/><circle cx="140.239" cy="12.4709" r="4.0942"/><circle cx="156.616" cy="12.4709" r="4.0942"/><circle cx="172.993" cy="12.4709" r="4.0942"/><circle cx="189.37" cy="12.4709" r="4.0942"/><circle cx="205.746" cy="12.4709" r="4.0942"/><circle cx="222.123" cy="12.4709" r="4.0942"/><circle cx="238.5" cy="12.4709" r="4.0942"/><circle cx="271.254" cy="12.4709" r="4.0942"/><circle cx="287.63" cy="12.4709" r="4.0942"/><circle cx="304.007" cy="12.4709" r="4.0942"/><circle cx="336.761" cy="12.4709" r="4.0942"/><circle cx="353.138" cy="12.4709" r="4.0942"/><circle cx="369.515" cy="12.4709" r="4.0942"/><circle cx="385.891" cy="12.4709" r="4.0942"/><circle cx="402.268" cy="12.4709" r="4.0942"/><circle cx="435.022" cy="12.4709" r="4.0942"/><circle cx="451.399" cy="12.4709" r="4.0942"/><circle cx="467.775" cy="12.4709" r="4.0942"/><circle cx="484.152" cy="12.4709" r="4.0942"/><circle cx="500.529" cy="12.4709" r="4.0942"/><circle cx="9.22457" cy="28.8479" r="4.0942"/><circle cx="25.6015" cy="28.8479" r="4.0942"/><circle cx="41.9782" cy="28.8479" r="4.0942"/><circle cx="58.3552" cy="28.8479" r="4.0942"/><circle cx="74.7319" cy="28.8479" r="4.0942"/><circle cx="91.1086" cy="28.8479" r="4.0942"/><circle cx="107.486" cy="28.8479" r="4.0942"/><circle cx="123.862" cy="28.8479" r="4.0942"/><circle cx="140.239" cy="28.8479" r="4.0942"/><circle cx="156.616" cy="28.8479" r="4.0942"/><circle cx="172.993" cy="28.8479" r="4.0942"/><circle cx="189.37" cy="28.8479" r="4.0942"/><circle cx="205.746" cy="28.8479" r="4.0942"/><circle cx="222.123" cy="28.8479" r="4.0942"/><circle cx="238.5" cy="28.8479" r="4.0942"/><circle cx="271.254" cy="28.8479" r="4.0942"/><circle cx="287.63" cy="28.8479" r="4.0942"/><circle cx="304.007" cy="28.8479" r="4.0942"/><circle cx="336.761" cy="28.8479" r="4.0942"/><circle cx="353.138" cy="28.8479" r="4.0942"/><circle cx="369.515" cy="28.8479" r="4.0942"/><circle cx="385.891" cy="28.8479" r="4.0942"/><circle cx="402.268" cy="28.8479" r="4.0942"/><circle cx="435.022" cy="28.8479" r="4.0942"/><circle cx="451.399" cy="28.8479" r="4.0942"/><circle cx="467.775" cy="28.8479" r="4.0942"/><circle cx="484.152" cy="28.8479" r="4.0942"/><circle cx="500.529" cy="28.8479" r="4.0942"/><circle cx="9.22457" cy="45.2248" r="4.0942"/><circle cx="25.6015" cy="45.2248" r="4.0942"/><circle cx="41.9782" cy="45.2248" r="4.0942"/><circle cx="58.3552" cy="45.2248" r="4.0942"/><circle cx="74.7319" cy="45.2248" r="4.0942"/><circle cx="91.1086" cy="45.2248" r="4.0942"/><circle cx="107.486" cy="45.2248" r="4.0942"/><circle cx="123.862" cy="45.2248" r="4.0942"/><circle cx="140.239" cy="45.2248" r="4.0942"/><circle cx="156.616" cy="45.2248" r="4.0942"/><circle cx="172.993" cy="45.2248" r="4.0942"/><circle cx="271.254" cy="45.2248" r="4.0942"/><circle cx="287.63" cy="45.2248" r="4.0942"/><circle cx="304.007" cy="45.2248" r="4.0942"/><circle cx="336.761" cy="45.2248" r="4.0942"/><circle cx="353.138" cy="45.2248" r="4.0942"/><circle cx="369.515" cy="45.2248" r="4.0942"/><circle cx="385.891" cy="45.2248" r="4.0942"/><circle cx="402.268" cy="45.2248" r="4.0942"/><circle cx="435.022" cy="45.2248" r="4.0942"/><circle cx="451.399" cy="45.2248" r="4.0942"/><circle cx="467.775" cy="45.2248" r="4.0942"/><circle cx="484.152" cy="45.2248" r="4.0942"/><circle cx="500.529" cy="45.2248" r="4.0942"/><circle cx="9.22457" cy="61.6015" r="4.0942"/><circle cx="25.6015" cy="61.6015" r="4.0942"/><circle cx="41.9782" cy="61.6015" r="4.0942"/><circle cx="58.3552" cy="61.6015" r="4.0942"/><circle cx="74.7319" cy="61.6015" r="4.0942"/><circle cx="91.1086" cy="61.6015" r="4.0942"/><circle cx="107.486" cy="61.6015" r="4.0942"/><circle cx="123.862" cy="61.6015" r="4.0942"/><circle cx="140.239" cy="61.6015" r="4.0942"/><circle cx="156.616" cy="61.6015" r="4.0942"/><circle cx="172.993" cy="61.6015" r="4.0942"/><circle cx="205.746" cy="61.6015" r="4.0942"/><circle cx="222.123" cy="61.6015" r="4.0942"/><circle cx="238.5" cy="61.6015" r="4.0942"/><circle cx="254.877" cy="61.6015" r="4.0942"/><circle cx="271.254" cy="61.6015" r="4.0942"/><circle cx="287.63" cy="61.6015" r="4.0942"/><circle cx="304.007" cy="61.6015" r="4.0942"/><circle cx="336.761" cy="61.6015" r="4.0942"/><circle cx="353.138" cy="61.6015" r="4.0942"/><circle cx="369.515" cy="61.6015" r="4.0942"/><circle cx="385.891" cy="61.6015" r="4.0942"/><circle cx="402.268" cy="61.6015" r="4.0942"/><circle cx="435.022" cy="61.6015" r="4.0942"/><circle cx="451.399" cy="61.6015" r="4.0942"/><circle cx="467.775" cy="61.6015" r="4.0942"/><circle cx="484.152" cy="61.6015" r="4.0942"/><circle cx="500.529" cy="61.6015" r="4.0942"/><circle cx="9.22457" cy="77.9782" r="4.0942"/><circle cx="25.6015" cy="77.9782" r="4.0942"/><circle cx="41.9782" cy="77.9782" r="4.0942"/><circle cx="58.3552" cy="77.9782" r="4.0942"/><circle cx="74.7319" cy="77.9782" r="4.0942"/><circle cx="91.1086" cy="77.9782" r="4.0942"/><circle cx="107.486" cy="77.9782" r="4.0942"/><circle cx="123.862" cy="77.9782" r="4.0942"/><circle cx="140.239" cy="77.9782" r="4.0942"/><circle cx="156.616" cy="77.9782" r="4.0942"/><circle cx="172.993" cy="77.9782" r="4.0942"/><circle cx="205.746" cy="77.9782" r="4.0942"/><circle cx="222.123" cy="77.9782" r="4.0942"/><circle cx="238.5" cy="77.9782" r="4.0942"/><circle cx="254.877" cy="77.9782" r="4.0942"/><circle cx="271.254" cy="77.9782" r="4.0942"/><circle cx="287.63" cy="77.9782" r="4.0942"/><circle cx="304.007" cy="77.9782" r="4.0942"/><circle cx="336.761" cy="77.9782" r="4.0942"/><circle cx="353.138" cy="77.9782" r="4.0942"/><circle cx="369.515" cy="77.9782" r="4.0942"/><circle cx="385.891" cy="77.9782" r="4.0942"/><circle cx="402.268" cy="77.9782" r="4.0942"/><circle cx="435.022" cy="77.9782" r="4.0942"/><circle cx="451.399" cy="77.9782" r="4.0942"/><circle cx="467.775" cy="77.9782" r="4.0942"/><circle cx="484.152" cy="77.9782" r="4.0942"/><circle cx="500.529" cy="77.9782" r="4.0942"/><circle cx="58.3552" cy="94.3549" r="4.0942"/><circle cx="74.7319" cy="94.3549" r="4.0942"/><circle cx="91.1086" cy="94.3549" r="4.0942"/><circle cx="107.486" cy="94.3549" r="4.0942"/><circle cx="123.862" cy="94.3549" r="4.0942"/><circle cx="140.239" cy="94.3549" r="4.0942"/><circle cx="156.616" cy="94.3549" r="4.0942"/><circle cx="172.993" cy="94.3549" r="4.0942"/><circle cx="205.746" cy="94.3549" r="4.0942"/><circle cx="222.123" cy="94.3549" r="4.0942"/><circle cx="238.5" cy="94.3549" r="4.0942"/><circle cx="254.877" cy="94.3549" r="4.0942"/><circle cx="271.254" cy="94.3549" r="4.0942"/><circle cx="287.63" cy="94.3549" r="4.0942"/><circle cx="304.007" cy="94.3549" r="4.0942"/><circle cx="336.761" cy="94.3549" r="4.0942"/><circle cx="353.138" cy="94.3549" r="4.0942"/><circle cx="369.515" cy="94.3549" r="4.0942"/><circle cx="385.891" cy="94.3549" r="4.0942"/><circle cx="402.268" cy="94.3549" r="4.0942"/><circle cx="9.22457" cy="110.732" r="4.0942"/><circle cx="25.6015" cy="110.732" r="4.0942"/><circle cx="58.3552" cy="110.732" r="4.0942"/><circle cx="74.7319" cy="110.732" r="4.0942"/><circle cx="91.1086" cy="110.732" r="4.0942"/><circle cx="107.486" cy="110.732" r="4.0942"/><circle cx="123.862" cy="110.732" r="4.0942"/><circle cx="140.239" cy="110.732" r="4.0942"/><circle cx="156.616" cy="110.732" r="4.0942"/><circle cx="172.993" cy="110.732" r="4.0942"/><circle cx="205.746" cy="110.732" r="4.0942"/><circle cx="222.123" cy="110.732" r="4.0942"/><circle cx="238.5" cy="110.732" r="4.0942"/><circle cx="254.877" cy="110.732" r="4.0942"/><circle cx="271.254" cy="110.732" r="4.0942"/><circle cx="287.63" cy="110.732" r="4.0942"/><circle cx="304.007" cy="110.732" r="4.0942"/><circle cx="336.761" cy="110.732" r="4.0942"/><circle cx="353.138" cy="110.732" r="4.0942"/><circle cx="369.515" cy="110.732" r="4.0942"/><circle cx="385.891" cy="110.732" r="4.0942"/><circle cx="402.268" cy="110.732" r="4.0942"/><circle cx="418.645" cy="110.732" r="4.0942"/><circle cx="435.022" cy="110.732" r="4.0942"/><circle cx="451.399" cy="110.732" r="4.0942"/><circle cx="467.775" cy="110.732" r="4.0942"/><circle cx="484.152" cy="110.732" r="4.0942"/><circle cx="500.529" cy="110.732" r="4.0942"/><circle cx="9.22457" cy="127.109" r="4.0942"/><circle cx="25.6015" cy="127.109" r="4.0942"/><circle cx="58.3552" cy="127.109" r="4.0942"/><circle cx="74.7319" cy="127.109" r="4.0942"/><circle cx="91.1086" cy="127.109" r="4.0942"/><circle cx="107.486" cy="127.109" r="4.0942"/><circle cx="123.862" cy="127.109" r="4.0942"/><circle cx="140.239" cy="127.109" r="4.0942"/><circle cx="156.616" cy="127.109" r="4.0942"/><circle cx="172.993" cy="127.109" r="4.0942"/><circle cx="205.746" cy="127.109" r="4.0942"/><circle cx="222.123" cy="127.109" r="4.0942"/><circle cx="238.5" cy="127.109" r="4.0942"/><circle cx="254.877" cy="127.109" r="4.0942"/><circle cx="271.254" cy="127.109" r="4.0942"/><circle cx="287.63" cy="127.109" r="4.0942"/><circle cx="304.007" cy="127.109" r="4.0942"/><circle cx="336.761" cy="127.109" r="4.0942"/><circle cx="353.138" cy="127.109" r="4.0942"/><circle cx="369.515" cy="127.109" r="4.0942"/><circle cx="385.891" cy="127.109" r="4.0942"/><circle cx="402.268" cy="127.109" r="4.0942"/><circle cx="418.645" cy="127.109" r="4.0942"/><circle cx="435.022" cy="127.109" r="4.0942"/><circle cx="451.399" cy="127.109" r="4.0942"/><circle cx="467.775" cy="127.109" r="4.0942"/><circle cx="484.152" cy="127.109" r="4.0942"/><circle cx="500.529" cy="127.109" r="4.0942"/><circle cx="9.22457" cy="143.486" r="4.0942"/><circle cx="25.6015" cy="143.486" r="4.0942"/><circle cx="58.3552" cy="143.486" r="4.0942"/><circle cx="74.7319" cy="143.486" r="4.0942"/><circle cx="91.1086" cy="143.486" r="4.0942"/><circle cx="107.486" cy="143.486" r="4.0942"/><circle cx="123.862" cy="143.486" r="4.0942"/><circle cx="140.239" cy="143.486" r="4.0942"/><circle cx="156.616" cy="143.486" r="4.0942"/><circle cx="172.993" cy="143.486" r="4.0942"/><circle cx="205.746" cy="143.486" r="4.0942"/><circle cx="222.123" cy="143.486" r="4.0942"/><circle cx="238.5" cy="143.486" r="4.0942"/><circle cx="254.877" cy="143.486" r="4.0942"/><circle cx="271.254" cy="143.486" r="4.0942"/><circle cx="287.63" cy="143.486" r="4.0942"/><circle cx="304.007" cy="143.486" r="4.0942"/><circle cx="336.761" cy="143.486" r="4.0942"/><circle cx="353.138" cy="143.486" r="4.0942"/><circle cx="369.515" cy="143.486" r="4.0942"/><circle cx="385.891" cy="143.486" r="4.0942"/><circle cx="402.268" cy="143.486" r="4.0942"/><circle cx="418.645" cy="143.486" r="4.0942"/><circle cx="435.022" cy="143.486" r="4.0942"/><circle cx="451.399" cy="143.486" r="4.0942"/><circle cx="467.775" cy="143.486" r="4.0942"/><circle cx="484.152" cy="143.486" r="4.0942"/><circle cx="500.529" cy="143.486" r="4.0942"/><circle cx="9.22457" cy="159.862" r="4.0942"/><circle cx="25.6015" cy="159.862" r="4.0942"/><circle cx="58.3552" cy="159.862" r="4.0942"/><circle cx="74.7319" cy="159.862" r="4.0942"/><circle cx="91.1086" cy="159.862" r="4.0942"/><circle cx="107.486" cy="159.862" r="4.0942"/><circle cx="123.862" cy="159.862" r="4.0942"/><circle cx="140.239" cy="159.862" r="4.0942"/><circle cx="156.616" cy="159.862" r="4.0942"/><circle cx="172.993" cy="159.862" r="4.0942"/><circle cx="205.746" cy="159.862" r="4.0942"/><circle cx="222.123" cy="159.862" r="4.0942"/><circle cx="238.5" cy="159.862" r="4.0942"/><circle cx="254.877" cy="159.862" r="4.0942"/><circle cx="271.254" cy="159.862" r="4.0942"/><circle cx="287.63" cy="159.862" r="4.0942"/><circle cx="304.007" cy="159.862" r="4.0942"/><circle cx="336.761" cy="159.862" r="4.0942"/><circle cx="353.138" cy="159.862" r="4.0942"/><circle cx="369.515" cy="159.862" r="4.0942"/><circle cx="385.891" cy="159.862" r="4.0942"/><circle cx="402.268" cy="159.862" r="4.0942"/><circle cx="418.645" cy="159.862" r="4.0942"/><circle cx="435.022" cy="159.862" r="4.0942"/><circle cx="451.399" cy="159.862" r="4.0942"/><circle cx="467.775" cy="159.862" r="4.0942"/><circle cx="484.152" cy="159.862" r="4.0942"/><circle cx="500.529" cy="159.862" r="4.0942"/><circle cx="9.22457" cy="176.239" r="4.0942"/><circle cx="25.6015" cy="176.239" r="4.0942"/><circle cx="58.3552" cy="176.239" r="4.0942"/><circle cx="74.7319" cy="176.239" r="4.0942"/><circle cx="91.1086" cy="176.239" r="4.0942"/><circle cx="107.486" cy="176.239" r="4.0942"/><circle cx="123.862" cy="176.239" r="4.0942"/><circle cx="140.239" cy="176.239" r="4.0942"/><circle cx="156.616" cy="176.239" r="4.0942"/><circle cx="172.993" cy="176.239" r="4.0942"/><circle cx="189.37" cy="176.239" r="4.0942"/><circle cx="205.746" cy="176.239" r="4.0942"/><circle cx="222.123" cy="176.239" r="4.0942"/><circle cx="238.5" cy="176.239" r="4.0942"/><circle cx="254.877" cy="176.239" r="4.0942"/><circle cx="271.254" cy="176.239" r="4.0942"/><circle cx="287.63" cy="176.239" r="4.0942"/><circle cx="304.007" cy="176.239" r="4.0942"/><circle cx="336.761" cy="176.239" r="4.0942"/><circle cx="353.138" cy="176.239" r="4.0942"/><circle cx="369.515" cy="176.239" r="4.0942"/><circle cx="385.891" cy="176.239" r="4.0942"/><circle cx="402.268" cy="176.239" r="4.0942"/><circle cx="418.645" cy="176.239" r="4.0942"/><circle cx="435.022" cy="176.239" r="4.0942"/><circle cx="451.399" cy="176.239" r="4.0942"/><circle cx="467.775" cy="176.239" r="4.0942"/><circle cx="484.152" cy="176.239" r="4.0942"/><circle cx="500.529" cy="176.239" r="4.0942"/><circle cx="9.22457" cy="192.616" r="4.0942"/><circle cx="25.6015" cy="192.616" r="4.0942"/><circle cx="172.993" cy="192.616" r="4.0942"/><circle cx="189.37" cy="192.616" r="4.0942"/><circle cx="205.746" cy="192.616" r="4.0942"/><circle cx="222.123" cy="192.616" r="4.0942"/><circle cx="238.5" cy="192.616" r="4.0942"/><circle cx="254.877" cy="192.616" r="4.0942"/><circle cx="271.254" cy="192.616" r="4.0942"/><circle cx="287.63" cy="192.616" r="4.0942"/><circle cx="304.007" cy="192.616" r="4.0942"/><circle cx="320.384" cy="192.616" r="4.0942"/><circle cx="336.761" cy="192.616" r="4.0942"/><circle cx="353.138" cy="192.616" r="4.0942"/><circle cx="369.515" cy="192.616" r="4.0942"/><circle cx="385.891" cy="192.616" r="4.0942"/><circle cx="402.268" cy="192.616" r="4.0942"/><circle cx="418.645" cy="192.616" r="4.0942"/><circle cx="435.022" cy="192.616" r="4.0942"/><circle cx="451.399" cy="192.616" r="4.0942"/><circle cx="467.775" cy="192.616" r="4.0942"/><circle cx="484.152" cy="192.616" r="4.0942"/><circle cx="500.529" cy="192.616" r="4.0942"/><circle cx="9.22457" cy="208.993" r="4.0942"/><circle cx="25.6015" cy="208.993" r="4.0942"/><circle cx="41.9782" cy="208.993" r="4.0942"/><circle cx="58.3552" cy="208.993" r="4.0942"/><circle cx="74.7319" cy="208.993" r="4.0942"/><circle cx="91.1086" cy="208.993" r="4.0942"/><circle cx="107.486" cy="208.993" r="4.0942"/><circle cx="123.862" cy="208.993" r="4.0942"/><circle cx="140.239" cy="208.993" r="4.0942"/><circle cx="156.616" cy="208.993" r="4.0942"/><circle cx="172.993" cy="208.993" r="4.0942"/><circle cx="189.37" cy="208.993" r="4.0942"/><circle cx="205.746" cy="208.993" r="4.0942"/><circle cx="222.123" cy="208.993" r="4.0942"/><circle cx="238.5" cy="208.993" r="4.0942"/><circle cx="254.877" cy="208.993" r="4.0942"/><circle cx="271.254" cy="208.993" r="4.0942"/><circle cx="287.63" cy="208.993" r="4.0942"/><circle cx="304.007" cy="208.993" r="4.0942"/><circle cx="320.384" cy="208.993" r="4.0942"/><circle cx="336.761" cy="208.993" r="4.0942"/><circle cx="9.22457" cy="225.369" r="4.0942"/><circle cx="25.6015" cy="225.369" r="4.0942"/><circle cx="41.9782" cy="225.369" r="4.0942"/><circle cx="58.3552" cy="225.369" r="4.0942"/><circle cx="74.7319" cy="225.369" r="4.0942"/><circle cx="91.1086" cy="225.369" r="4.0942"/><circle cx="107.486" cy="225.369" r="4.0942"/><circle cx="123.862" cy="225.369" r="4.0942"/><circle cx="140.239" cy="225.369" r="4.0942"/><circle cx="156.616" cy="225.369" r="4.0942"/><circle cx="172.993" cy="225.369" r="4.0942"/><circle cx="189.37" cy="225.369" r="4.0942"/><circle cx="205.746" cy="225.369" r="4.0942"/><circle cx="222.123" cy="225.369" r="4.0942"/><circle cx="238.5" cy="225.369" r="4.0942"/><circle cx="254.877" cy="225.369" r="4.0942"/><circle cx="271.254" cy="225.369" r="4.0942"/><circle cx="287.63" cy="225.369" r="4.0942"/><circle cx="304.007" cy="225.369" r="4.0942"/><circle cx="320.384" cy="225.369" r="4.0942"/><circle cx="336.761" cy="225.369" r="4.0942"/><circle cx="353.138" cy="225.369" r="4.0942"/><circle cx="369.515" cy="225.369" r="4.0942"/><circle cx="385.891" cy="225.369" r="4.0942"/><circle cx="402.268" cy="225.369" r="4.0942"/><circle cx="418.645" cy="225.369" r="4.0942"/><circle cx="435.022" cy="225.369" r="4.0942"/><circle cx="451.399" cy="225.369" r="4.0942"/><circle cx="467.775" cy="225.369" r="4.0942"/><circle cx="484.152" cy="225.369" r="4.0942"/><circle cx="500.529" cy="225.369" r="4.0942"/><circle cx="9.22457" cy="241.747" r="4.0942"/><circle cx="25.6015" cy="241.747" r="4.0942"/><circle cx="41.9782" cy="241.747" r="4.0942"/><circle cx="58.3552" cy="241.747" r="4.0942"/><circle cx="74.7319" cy="241.747" r="4.0942"/><circle cx="91.1086" cy="241.747" r="4.0942"/><circle cx="107.486" cy="241.747" r="4.0942"/><circle cx="123.862" cy="241.747" r="4.0942"/><circle cx="140.239" cy="241.747" r="4.0942"/><circle cx="156.616" cy="241.747" r="4.0942"/><circle cx="172.993" cy="241.747" r="4.0942"/><circle cx="189.37" cy="241.747" r="4.0942"/><circle cx="205.746" cy="241.747" r="4.0942"/><circle cx="222.123" cy="241.747" r="4.0942"/><circle cx="238.5" cy="241.747" r="4.0942"/><circle cx="254.877" cy="241.747" r="4.0942"/><circle cx="271.254" cy="241.747" r="4.0942"/><circle cx="287.63" cy="241.747" r="4.0942"/><circle cx="304.007" cy="241.747" r="4.0942"/><circle cx="320.384" cy="241.747" r="4.0942"/><circle cx="336.761" cy="241.747" r="4.0942"/><circle cx="353.138" cy="241.747" r="4.0942"/><circle cx="369.515" cy="241.747" r="4.0942"/><circle cx="385.891" cy="241.747" r="4.0942"/><circle cx="402.268" cy="241.747" r="4.0942"/><circle cx="418.645" cy="241.747" r="4.0942"/><circle cx="435.022" cy="241.747" r="4.0942"/><circle cx="451.399" cy="241.747" r="4.0942"/><circle cx="467.775" cy="241.747" r="4.0942"/><circle cx="484.152" cy="241.747" r="4.0942"/><circle cx="500.529" cy="241.747" r="4.0942"/><circle cx="140.239" cy="258.123" r="4.0942"/><circle cx="156.616" cy="258.123" r="4.0942"/><circle cx="172.993" cy="258.123" r="4.0942"/><circle cx="189.37" cy="258.123" r="4.0942"/><circle cx="205.746" cy="258.123" r="4.0942"/><circle cx="222.123" cy="258.123" r="4.0942"/><circle cx="238.5" cy="258.123" r="4.0942"/><circle cx="254.877" cy="258.123" r="4.0942"/><circle cx="271.254" cy="258.123" r="4.0942"/><circle cx="287.63" cy="258.123" r="4.0942"/><circle cx="304.007" cy="258.123" r="4.0942"/><circle cx="320.384" cy="258.123" r="4.0942"/><circle cx="336.761" cy="258.123" r="4.0942"/><circle cx="353.138" cy="258.123" r="4.0942"/><circle cx="369.515" cy="258.123" r="4.0942"/><circle cx="385.891" cy="258.123" r="4.0942"/><circle cx="402.268" cy="258.123" r="4.0942"/><circle cx="418.645" cy="258.123" r="4.0942"/><circle cx="435.022" cy="258.123" r="4.0942"/><circle cx="451.399" cy="258.123" r="4.0942"/><circle cx="467.775" cy="258.123" r="4.0942"/><circle cx="484.152" cy="258.123" r="4.0942"/><circle cx="500.529" cy="258.123" r="4.0942"/><circle cx="9.22457" cy="274.5" r="4.0942"/><circle cx="25.6015" cy="274.5" r="4.0942"/><circle cx="41.9782" cy="274.5" r="4.0942"/><circle cx="58.3552" cy="274.5" r="4.0942"/><circle cx="74.7319" cy="274.5" r="4.0942"/><circle cx="91.1086" cy="274.5" r="4.0942"/><circle cx="107.486" cy="274.5" r="4.0942"/><circle cx="123.862" cy="274.5" r="4.0942"/><circle cx="140.239" cy="274.5" r="4.0942"/><circle cx="156.616" cy="274.5" r="4.0942"/><circle cx="172.993" cy="274.5" r="4.0942"/><circle cx="189.37" cy="274.5" r="4.0942"/><circle cx="205.746" cy="274.5" r="4.0942"/><circle cx="222.123" cy="274.5" r="4.0942"/><circle cx="238.5" cy="274.5" r="4.0942"/><circle cx="254.877" cy="274.5" r="4.0942"/><circle cx="271.254" cy="274.5" r="4.0942"/><circle cx="287.63" cy="274.5" r="4.0942"/><circle cx="304.007" cy="274.5" r="4.0942"/><circle cx="320.384" cy="274.5" r="4.0942"/><circle cx="336.761" cy="274.5" r="4.0942"/><circle cx="353.138" cy="274.5" r="4.0942"/><circle cx="369.515" cy="274.5" r="4.0942"/><circle cx="385.891" cy="274.5" r="4.0942"/><circle cx="402.268" cy="274.5" r="4.0942"/><circle cx="418.645" cy="274.5" r="4.0942"/><circle cx="435.022" cy="274.5" r="4.0942"/><circle cx="451.399" cy="274.5" r="4.0942"/><circle cx="467.775" cy="274.5" r="4.0942"/><circle cx="484.152" cy="274.5" r="4.0942"/><circle cx="500.529" cy="274.5" r="4.0942"/><circle cx="9.22457" cy="290.877" r="4.0942"/><circle cx="25.6015" cy="290.877" r="4.0942"/><circle cx="41.9782" cy="290.877" r="4.0942"/><circle cx="58.3552" cy="290.877" r="4.0942"/><circle cx="74.7319" cy="290.877" r="4.0942"/><circle cx="91.1086" cy="290.877" r="4.0942"/><circle cx="107.486" cy="290.877" r="4.0942"/><circle cx="123.862" cy="290.877" r="4.0942"/><circle cx="140.239" cy="290.877" r="4.0942"/><circle cx="156.616" cy="290.877" r="4.0942"/><circle cx="172.993" cy="290.877" r="4.0942"/><circle cx="189.37" cy="290.877" r="4.0942"/><circle cx="205.746" cy="290.877" r="4.0942"/><circle cx="222.123" cy="290.877" r="4.0942"/><circle cx="238.5" cy="290.877" r="4.0942"/><circle cx="254.877" cy="290.877" r="4.0942"/><circle cx="271.254" cy="290.877" r="4.0942"/><circle cx="287.63" cy="290.877" r="4.0942"/><circle cx="304.007" cy="290.877" r="4.0942"/><circle cx="320.384" cy="290.877" r="4.0942"/><circle cx="336.761" cy="290.877" r="4.0942"/><circle cx="353.138" cy="290.877" r="4.0942"/><circle cx="369.515" cy="290.877" r="4.0942"/><circle cx="385.891" cy="290.877" r="4.0942"/><circle cx="402.268" cy="290.877" r="4.0942"/><circle cx="418.645" cy="290.877" r="4.0942"/><circle cx="435.022" cy="290.877" r="4.0942"/><circle cx="451.399" cy="290.877" r="4.0942"/><circle cx="467.775" cy="290.877" r="4.0942"/><circle cx="484.152" cy="290.877" r="4.0942"/><circle cx="500.529" cy="290.877" r="4.0942"/><circle cx="9.22457" cy="307.254" r="4.0942"/><circle cx="25.6015" cy="307.254" r="4.0942"/><circle cx="41.9782" cy="307.254" r="4.0942"/><circle cx="58.3552" cy="307.254" r="4.0942"/><circle cx="74.7319" cy="307.254" r="4.0942"/><circle cx="91.1086" cy="307.254" r="4.0942"/><circle cx="107.486" cy="307.254" r="4.0942"/><circle cx="123.862" cy="307.254" r="4.0942"/><circle cx="140.239" cy="307.254" r="4.0942"/><circle cx="156.616" cy="307.254" r="4.0942"/><circle cx="172.993" cy="307.254" r="4.0942"/><circle cx="189.37" cy="307.254" r="4.0942"/><circle cx="205.746" cy="307.254" r="4.0942"/><circle cx="222.123" cy="307.254" r="4.0942"/><circle cx="238.5" cy="307.254" r="4.0942"/><circle cx="254.877" cy="307.254" r="4.0942"/><circle cx="271.254" cy="307.254" r="4.0942"/><circle cx="287.63" cy="307.254" r="4.0942"/><circle cx="304.007" cy="307.254" r="4.0942"/><circle cx="320.384" cy="307.254" r="4.0942"/><circle cx="336.761" cy="307.254" r="4.0942"/><circle cx="353.138" cy="307.254" r="4.0942"/><circle cx="369.515" cy="307.254" r="4.0942"/><circle cx="385.891" cy="307.254" r="4.0942"/><circle cx="9.22457" cy="323.63" r="4.0942"/><circle cx="25.6015" cy="323.63" r="4.0942"/><circle cx="41.9782" cy="323.63" r="4.0942"/><circle cx="58.3552" cy="323.63" r="4.0942"/><circle cx="74.7319" cy="323.63" r="4.0942"/><circle cx="91.1086" cy="323.63" r="4.0942"/><circle cx="107.486" cy="323.63" r="4.0942"/><circle cx="123.862" cy="323.63" r="4.0942"/><circle cx="140.239" cy="323.63" r="4.0942"/><circle cx="156.616" cy="323.63" r="4.0942"/><circle cx="172.993" cy="323.63" r="4.0942"/><circle cx="189.37" cy="323.63" r="4.0942"/><circle cx="205.746" cy="323.63" r="4.0942"/><circle cx="222.123" cy="323.63" r="4.0942"/><circle cx="238.5" cy="323.63" r="4.0942"/><circle cx="254.877" cy="323.63" r="4.0942"/><circle cx="271.254" cy="323.63" r="4.0942"/><circle cx="287.63" cy="323.63" r="4.0942"/><circle cx="304.007" cy="323.63" r="4.0942"/><circle cx="320.384" cy="323.63" r="4.0942"/><circle cx="336.761" cy="323.63" r="4.0942"/><circle cx="353.138" cy="323.63" r="4.0942"/><circle cx="369.515" cy="323.63" r="4.0942"/><circle cx="385.891" cy="323.63" r="4.0942"/><circle cx="402.268" cy="323.63" r="4.0942"/><circle cx="418.645" cy="323.63" r="4.0942"/><circle cx="435.022" cy="323.63" r="4.0942"/><circle cx="451.399" cy="323.63" r="4.0942"/><circle cx="467.775" cy="323.63" r="4.0942"/><circle cx="484.152" cy="323.63" r="4.0942"/><circle cx="500.529" cy="323.63" r="4.0942"/><circle cx="9.22457" cy="340.007" r="4.0942"/><circle cx="25.6015" cy="340.007" r="4.0942"/><circle cx="41.9782" cy="340.007" r="4.0942"/><circle cx="58.3552" cy="340.007" r="4.0942"/><circle cx="74.7319" cy="340.007" r="4.0942"/><circle cx="91.1086" cy="340.007" r="4.0942"/><circle cx="107.486" cy="340.007" r="4.0942"/><circle cx="123.862" cy="340.007" r="4.0942"/><circle cx="140.239" cy="340.007" r="4.0942"/><circle cx="156.616" cy="340.007" r="4.0942"/><circle cx="172.993" cy="340.007" r="4.0942"/><circle cx="189.37" cy="340.007" r="4.0942"/><circle cx="205.747" cy="340.007" r="4.0942"/><circle cx="222.123" cy="340.007" r="4.0942"/><circle cx="238.5" cy="340.007" r="4.0942"/><circle cx="254.877" cy="340.007" r="4.0942"/><circle cx="271.254" cy="340.007" r="4.0942"/><circle cx="287.63" cy="340.007" r="4.0942"/><circle cx="304.007" cy="340.007" r="4.0942"/><circle cx="320.384" cy="340.007" r="4.0942"/><circle cx="336.761" cy="340.007" r="4.0942"/><circle cx="353.138" cy="340.007" r="4.0942"/><circle cx="369.514" cy="340.007" r="4.0942"/><circle cx="385.891" cy="340.007" r="4.0942"/><circle cx="402.268" cy="340.007" r="4.0942"/><circle cx="418.645" cy="340.007" r="4.0942"/><circle cx="435.022" cy="340.007" r="4.0942"/><circle cx="451.398" cy="340.007" r="4.0942"/><circle cx="467.775" cy="340.007" r="4.0942"/><circle cx="484.152" cy="340.007" r="4.0942"/><circle cx="500.529" cy="340.007" r="4.0942"/><circle cx="9.22457" cy="356.384" r="4.0942"/><circle cx="25.6015" cy="356.384" r="4.0942"/><circle cx="41.9782" cy="356.384" r="4.0942"/><circle cx="58.3552" cy="356.384" r="4.0942"/><circle cx="74.7319" cy="356.384" r="4.0942"/><circle cx="91.1086" cy="356.384" r="4.0942"/><circle cx="107.486" cy="356.384" r="4.0942"/><circle cx="140.239" cy="356.384" r="4.0942"/><circle cx="156.616" cy="356.384" r="4.0942"/><circle cx="172.993" cy="356.384" r="4.0942"/><circle cx="189.37" cy="356.384" r="4.0942"/><circle cx="222.123" cy="356.384" r="4.0942"/><circle cx="238.5" cy="356.384" r="4.0942"/><circle cx="254.877" cy="356.384" r="4.0942"/><circle cx="271.254" cy="356.384" r="4.0942"/><circle cx="287.63" cy="356.384" r="4.0942"/><circle cx="304.007" cy="356.384" r="4.0942"/><circle cx="320.384" cy="356.384" r="4.0942"/><circle cx="336.761" cy="356.384" r="4.0942"/><circle cx="353.138" cy="356.384" r="4.0942"/><circle cx="369.515" cy="356.384" r="4.0942"/><circle cx="402.268" cy="356.384" r="4.0942"/><circle cx="418.645" cy="356.384" r="4.0942"/><circle cx="435.022" cy="356.384" r="4.0942"/><circle cx="451.399" cy="356.384" r="4.0942"/><circle cx="467.775" cy="356.384" r="4.0942"/><circle cx="484.152" cy="356.384" r="4.0942"/><circle cx="500.529" cy="356.384" r="4.0942"/><circle cx="91.1086" cy="372.761" r="4.0942"/><circle cx="107.486" cy="372.761" r="4.0942"/><circle cx="140.239" cy="372.761" r="4.0942"/><circle cx="156.616" cy="372.761" r="4.0942"/><circle cx="172.993" cy="372.761" r="4.0942"/><circle cx="189.37" cy="372.761" r="4.0942"/><circle cx="222.123" cy="372.761" r="4.0942"/><circle cx="238.5" cy="372.761" r="4.0942"/><circle cx="254.877" cy="372.761" r="4.0942"/><circle cx="271.254" cy="372.761" r="4.0942"/><circle cx="287.63" cy="372.761" r="4.0942"/><circle cx="304.007" cy="372.761" r="4.0942"/><circle cx="320.384" cy="372.761" r="4.0942"/><circle cx="336.761" cy="372.761" r="4.0942"/><circle cx="353.138" cy="372.761" r="4.0942"/><circle cx="369.515" cy="372.761" r="4.0942"/><circle cx="402.268" cy="372.761" r="4.0942"/><circle cx="418.645" cy="372.761" r="4.0942"/><circle cx="435.022" cy="372.761" r="4.0942"/><circle cx="451.399" cy="372.761" r="4.0942"/><circle cx="467.775" cy="372.761" r="4.0942"/><circle cx="484.152" cy="372.761" r="4.0942"/><circle cx="500.529" cy="372.761" r="4.0942"/><circle cx="9.22457" cy="389.137" r="4.0942"/><circle cx="25.6015" cy="389.137" r="4.0942"/><circle cx="41.9782" cy="389.137" r="4.0942"/><circle cx="58.3552" cy="389.137" r="4.0942"/><circle cx="91.1086" cy="389.137" r="4.0942"/><circle cx="107.486" cy="389.137" r="4.0942"/><circle cx="140.239" cy="389.137" r="4.0942"/><circle cx="156.616" cy="389.137" r="4.0942"/><circle cx="172.993" cy="389.137" r="4.0942"/><circle cx="189.37" cy="389.137" r="4.0942"/><circle cx="222.123" cy="389.137" r="4.0942"/><circle cx="238.5" cy="389.137" r="4.0942"/><circle cx="254.877" cy="389.137" r="4.0942"/><circle cx="271.254" cy="389.137" r="4.0942"/><circle cx="287.63" cy="389.137" r="4.0942"/><circle cx="304.007" cy="389.137" r="4.0942"/><circle cx="320.384" cy="389.137" r="4.0942"/><circle cx="336.761" cy="389.137" r="4.0942"/><circle cx="353.138" cy="389.137" r="4.0942"/><circle cx="369.515" cy="389.137" r="4.0942"/><circle cx="402.268" cy="389.137" r="4.0942"/><circle cx="418.645" cy="389.137" r="4.0942"/><circle cx="435.022" cy="389.137" r="4.0942"/><circle cx="451.399" cy="389.137" r="4.0942"/><circle cx="467.775" cy="389.137" r="4.0942"/><circle cx="484.152" cy="389.137" r="4.0942"/><circle cx="500.529" cy="389.137" r="4.0942"/><circle cx="9.22457" cy="405.515" r="4.0942"/><circle cx="25.6015" cy="405.515" r="4.0942"/><circle cx="41.9782" cy="405.515" r="4.0942"/><circle cx="58.3552" cy="405.515" r="4.0942"/><circle cx="91.1086" cy="405.515" r="4.0942"/><circle cx="107.486" cy="405.515" r="4.0942"/><circle cx="140.239" cy="405.515" r="4.0942"/><circle cx="156.616" cy="405.515" r="4.0942"/><circle cx="172.993" cy="405.515" r="4.0942"/><circle cx="189.37" cy="405.515" r="4.0942"/><circle cx="222.123" cy="405.515" r="4.0942"/><circle cx="238.5" cy="405.515" r="4.0942"/><circle cx="254.877" cy="405.515" r="4.0942"/><circle cx="271.254" cy="405.515" r="4.0942"/><circle cx="287.63" cy="405.515" r="4.0942"/><circle cx="304.007" cy="405.515" r="4.0942"/><circle cx="320.384" cy="405.515" r="4.0942"/><circle cx="336.761" cy="405.515" r="4.0942"/><circle cx="353.138" cy="405.515" r="4.0942"/><circle cx="369.515" cy="405.515" r="4.0942"/><circle cx="402.268" cy="405.515" r="4.0942"/><circle cx="418.645" cy="405.515" r="4.0942"/><circle cx="435.022" cy="405.515" r="4.0942"/><circle cx="451.399" cy="405.515" r="4.0942"/><circle cx="467.775" cy="405.515" r="4.0942"/><circle cx="484.152" cy="405.515" r="4.0942"/><circle cx="500.529" cy="405.515" r="4.0942"/><circle cx="9.22457" cy="421.891" r="4.0942"/><circle cx="25.6015" cy="421.891" r="4.0942"/><circle cx="41.9782" cy="421.891" r="4.0942"/><circle cx="58.3552" cy="421.891" r="4.0942"/><circle cx="91.1086" cy="421.891" r="4.0942"/><circle cx="107.486" cy="421.891" r="4.0942"/><circle cx="140.239" cy="421.891" r="4.0942"/><circle cx="156.616" cy="421.891" r="4.0942"/><circle cx="172.993" cy="421.891" r="4.0942"/><circle cx="189.37" cy="421.891" r="4.0942"/><circle cx="222.123" cy="421.891" r="4.0942"/><circle cx="238.5" cy="421.891" r="4.0942"/><circle cx="254.877" cy="421.891" r="4.0942"/><circle cx="271.254" cy="421.891" r="4.0942"/><circle cx="287.63" cy="421.891" r="4.0942"/><circle cx="402.268" cy="421.891" r="4.0942"/><circle cx="418.645" cy="421.891" r="4.0942"/><circle cx="435.022" cy="421.891" r="4.0942"/><circle cx="451.399" cy="421.891" r="4.0942"/><circle cx="467.775" cy="421.891" r="4.0942"/><circle cx="484.152" cy="421.891" r="4.0942"/><circle cx="500.529" cy="421.891" r="4.0942"/><circle cx="140.239" cy="438.268" r="4.0942"/><circle cx="156.616" cy="438.268" r="4.0942"/><circle cx="172.993" cy="438.268" r="4.0942"/><circle cx="189.37" cy="438.268" r="4.0942"/><circle cx="222.123" cy="438.268" r="4.0942"/><circle cx="238.5" cy="438.268" r="4.0942"/><circle cx="254.877" cy="438.268" r="4.0942"/><circle cx="271.254" cy="438.268" r="4.0942"/><circle cx="287.63" cy="438.268" r="4.0942"/><circle cx="320.384" cy="438.268" r="4.0942"/><circle cx="336.761" cy="438.268" r="4.0942"/><circle cx="353.138" cy="438.268" r="4.0942"/><circle cx="369.515" cy="438.268" r="4.0942"/><circle cx="385.891" cy="438.268" r="4.0942"/><circle cx="402.268" cy="438.268" r="4.0942"/><circle cx="418.645" cy="438.268" r="4.0942"/><circle cx="435.022" cy="438.268" r="4.0942"/><circle cx="451.399" cy="438.268" r="4.0942"/><circle cx="467.775" cy="438.268" r="4.0942"/><circle cx="484.152" cy="438.268" r="4.0942"/><circle cx="500.529" cy="438.268" r="4.0942"/><circle cx="9.22457" cy="454.645" r="4.0942"/><circle cx="25.6015" cy="454.645" r="4.0942"/><circle cx="41.9782" cy="454.645" r="4.0942"/><circle cx="58.3552" cy="454.645" r="4.0942"/><circle cx="91.1086" cy="454.645" r="4.0942"/><circle cx="107.486" cy="454.645" r="4.0942"/><circle cx="123.862" cy="454.645" r="4.0942"/><circle cx="140.239" cy="454.645" r="4.0942"/><circle cx="156.616" cy="454.645" r="4.0942"/><circle cx="172.993" cy="454.645" r="4.0942"/><circle cx="189.37" cy="454.645" r="4.0942"/><circle cx="222.123" cy="454.645" r="4.0942"/><circle cx="238.5" cy="454.645" r="4.0942"/><circle cx="254.877" cy="454.645" r="4.0942"/><circle cx="271.254" cy="454.645" r="4.0942"/><circle cx="287.63" cy="454.645" r="4.0942"/><circle cx="320.384" cy="454.645" r="4.0942"/><circle cx="336.761" cy="454.645" r="4.0942"/><circle cx="353.138" cy="454.645" r="4.0942"/><circle cx="369.515" cy="454.645" r="4.0942"/><circle cx="385.891" cy="454.645" r="4.0942"/><circle cx="402.268" cy="454.645" r="4.0942"/><circle cx="418.645" cy="454.645" r="4.0942"/><circle cx="435.022" cy="454.645" r="4.0942"/><circle cx="451.399" cy="454.645" r="4.0942"/><circle cx="467.775" cy="454.645" r="4.0942"/><circle cx="484.152" cy="454.645" r="4.0942"/><circle cx="500.529" cy="454.645" r="4.0942"/><circle cx="9.22457" cy="471.022" r="4.0942"/><circle cx="25.6015" cy="471.022" r="4.0942"/><circle cx="41.9782" cy="471.022" r="4.0942"/><circle cx="58.3552" cy="471.022" r="4.0942"/><circle cx="91.1086" cy="471.022" r="4.0942"/><circle cx="107.486" cy="471.022" r="4.0942"/><circle cx="123.862" cy="471.022" r="4.0942"/><circle cx="140.239" cy="471.022" r="4.0942"/><circle cx="156.616" cy="471.022" r="4.0942"/><circle cx="172.993" cy="471.022" r="4.0942"/><circle cx="189.37" cy="471.022" r="4.0942"/><circle cx="222.123" cy="471.022" r="4.0942"/><circle cx="238.5" cy="471.022" r="4.0942"/><circle cx="254.877" cy="471.022" r="4.0942"/><circle cx="271.254" cy="471.022" r="4.0942"/><circle cx="287.63" cy="471.022" r="4.0942"/><circle cx="320.384" cy="471.022" r="4.0942"/><circle cx="336.761" cy="471.022" r="4.0942"/><circle cx="353.138" cy="471.022" r="4.0942"/><circle cx="369.515" cy="471.022" r="4.0942"/><circle cx="385.891" cy="471.022" r="4.0942"/><circle cx="402.268" cy="471.022" r="4.0942"/><circle cx="418.645" cy="471.022" r="4.0942"/><circle cx="435.022" cy="471.022" r="4.0942"/><circle cx="451.399" cy="471.022" r="4.0942"/><circle cx="467.775" cy="471.022" r="4.0942"/><circle cx="484.152" cy="471.022" r="4.0942"/><circle cx="500.529" cy="471.022" r="4.0942"/><circle cx="9.22457" cy="487.399" r="4.0942"/><circle cx="25.6015" cy="487.399" r="4.0942"/><circle cx="41.9782" cy="487.399" r="4.0942"/><circle cx="58.3552" cy="487.399" r="4.0942"/><circle cx="91.1086" cy="487.399" r="4.0942"/><circle cx="107.486" cy="487.399" r="4.0942"/><circle cx="123.862" cy="487.399" r="4.0942"/><circle cx="140.239" cy="487.399" r="4.0942"/><circle cx="156.616" cy="487.399" r="4.0942"/><circle cx="172.993" cy="487.399" r="4.0942"/><circle cx="189.37" cy="487.399" r="4.0942"/><circle cx="222.123" cy="487.399" r="4.0942"/><circle cx="238.5" cy="487.399" r="4.0942"/><circle cx="254.877" cy="487.399" r="4.0942"/><circle cx="271.254" cy="487.399" r="4.0942"/><circle cx="287.63" cy="487.399" r="4.0942"/><circle cx="320.384" cy="487.399" r="4.0942"/><circle cx="336.761" cy="487.399" r="4.0942"/><circle cx="353.138" cy="487.399" r="4.0942"/><circle cx="369.515" cy="487.399" r="4.0942"/><circle cx="385.891" cy="487.399" r="4.0942"/><circle cx="402.268" cy="487.399" r="4.0942"/><circle cx="418.645" cy="487.399" r="4.0942"/><circle cx="435.022" cy="487.399" r="4.0942"/><circle cx="451.399" cy="487.399" r="4.0942"/><circle cx="467.775" cy="487.399" r="4.0942"/><circle cx="484.152" cy="487.399" r="4.0942"/><circle cx="500.529" cy="487.399" r="4.0942"/><circle cx="9.22457" cy="503.775" r="4.0942"/><circle cx="25.6015" cy="503.775" r="4.0942"/><circle cx="41.9782" cy="503.775" r="4.0942"/><circle cx="58.3552" cy="503.775" r="4.0942"/><circle cx="74.7319" cy="503.775" r="4.0942"/><circle cx="91.1086" cy="503.775" r="4.0942"/><circle cx="107.486" cy="503.775" r="4.0942"/><circle cx="123.862" cy="503.775" r="4.0942"/><circle cx="140.239" cy="503.775" r="4.0942"/><circle cx="156.616" cy="503.775" r="4.0942"/><circle cx="172.993" cy="503.775" r="4.0942"/><circle cx="189.37" cy="503.775" r="4.0942"/><circle cx="205.746" cy="503.775" r="4.0942"/><circle cx="222.123" cy="503.775" r="4.0942"/><circle cx="238.5" cy="503.775" r="4.0942"/><circle cx="254.877" cy="503.775" r="4.0942"/><circle cx="271.254" cy="503.775" r="4.0942"/><circle cx="287.63" cy="503.775" r="4.0942"/><circle cx="304.007" cy="503.775" r="4.0942"/><circle cx="320.384" cy="503.775" r="4.0942"/><circle cx="336.761" cy="503.775" r="4.0942"/><circle cx="353.138" cy="503.775" r="4.0942"/><circle cx="369.515" cy="503.775" r="4.0942"/><circle cx="385.891" cy="503.775" r="4.0942"/><circle cx="402.268" cy="503.775" r="4.0942"/><circle cx="418.645" cy="503.775" r="4.0942"/><circle cx="435.022" cy="503.775" r="4.0942"/><circle cx="451.399" cy="503.775" r="4.0942"/><circle cx="467.775" cy="503.775" r="4.0942"/><circle cx="484.152" cy="503.775" r="4.0942"/><circle cx="500.529" cy="503.775" r="4.0942"/></g><g stroke-width="6" clip-path="url(#d)"><g filter="url(#e)"><path stroke="#020420" d="M-84 93H27.3367c8.1986 0 14.8449 6.6463 14.8449 14.845v71.75c0 8.199 6.6463 14.845 14.8449 14.845H178"/><path stroke="#00DC82" stroke-opacity=".86" d="M-84 93H27.3367c8.1986 0 14.8449 6.6463 14.8449 14.845v71.75c0 8.199 6.6463 14.845 14.8449 14.845H178"/></g><path stroke="#020420" d="M-84 93H27.3367c8.1986 0 14.8449 6.6463 14.8449 14.845v69.75c0 8.199 6.6463 14.845 14.8449 14.845H178"/><path stroke="#00DC82" d="M-84 93H27.3367c8.1986 0 14.8449 6.6463 14.8449 14.845v69.75c0 8.199 6.6463 14.845 14.8449 14.845H178"/><g filter="url(#f)"><path stroke="#020420" d="M383 305h111.337c8.198 0 14.845 6.646 14.845 14.845v71.75c0 8.199 6.646 14.845 14.845 14.845H645"/><path stroke="#00DC82" stroke-opacity=".86" d="M383 305h111.337c8.198 0 14.845 6.646 14.845 14.845v71.75c0 8.199 6.646 14.845 14.845 14.845H645"/></g><path stroke="#020420" d="M388 307h111.337c8.198 0 14.845 6.646 14.845 14.845v71.75c0 8.199 6.646 14.845 14.845 14.845H650"/><path stroke="#00DC82" d="M388 307h111.337c8.198 0 14.845 6.646 14.845 14.845v71.75c0 8.199 6.646 14.845 14.845 14.845H650"/><g filter="url(#g)"><path stroke="#020420" d="m292-7 110.573-5.696c8.487-.4372 15.609 6.32669 15.609 14.82529V79.5953c0 8.1986 6.646 14.8448 14.845 14.8448H554"/><path stroke="#00DC82" stroke-opacity=".86" d="m292-7 110.573-5.696c8.487-.4372 15.609 6.32669 15.609 14.82529V79.5953c0 8.1986 6.646 14.8448 14.845 14.8448H554"/></g><path stroke="#020420" d="m292-7 110.222-8.2984c8.614-.6485 15.96 6.16523 15.96 14.802958V79.5953c0 8.1986 6.646 14.8448 14.845 14.8448H554"/><path stroke="#00DC82" d="m292-7 110.222-8.2984c8.614-.6485 15.96 6.16523 15.96 14.802958V79.5953c0 8.1986 6.646 14.8448 14.845 14.8448H554"/><path stroke="#020420" d="M-51 372H60.3367c8.1986 0 14.8449 6.646 14.8449 14.845V516"/><path stroke="#00DC82" d="M-51 372H60.3367c8.1986 0 14.8449 6.646 14.8449 14.845V516"/><g filter="url(#h)"><path stroke="#020420" d="M-53 371H58.3367c8.1986 0 14.8449 6.646 14.8449 14.845V517.5"/><path stroke="#00DC82" stroke-opacity=".86" d="M-53 371H58.3367c8.1986 0 14.8449 6.646 14.8449 14.845V517.5"/></g><g filter="url(#i)"><path stroke="#020420" d="M-2 434.44h116.695c8.199 0 14.845-6.646 14.845-14.844V333v16"/><path stroke="#00DC82" stroke-opacity=".86" d="M-2 434.44h116.695c8.199 0 14.845-6.646 14.845-14.844V333v16"/></g><path stroke="#020420" d="M-6 438.44h116.695c8.199 0 14.845-6.646 14.845-14.845V337v16"/><path stroke="#00DC82" d="M-6 438.44h116.695c8.199 0 14.845-6.646 14.845-14.845V337v16"/><g filter="url(#j)"><path stroke="#020420" d="M188 180V63.0294c0-8.1986 6.646-14.8449 14.845-14.8449h37.315c8.196 0 14.84-6.6441 14.84-14.84V-40"/><path stroke="#00DC82" stroke-opacity=".86" d="M188 180V63.0294c0-8.1986 6.646-14.8449 14.845-14.8449h37.315c8.196 0 14.84-6.6441 14.84-14.84V-40"/></g><path stroke="#020420" d="M189 180V59.8449C189 51.6463 195.646 45 203.845 45h36.315c8.196 0 14.84-6.6441 14.84-14.84V-40"/><path stroke="#00DC82" d="M189 180V59.8449C189 51.6463 195.646 45 203.845 45h36.315c8.196 0 14.84-6.6441 14.84-14.84V-40"/><g filter="url(#k)"><path stroke="#020420" d="M383.061 294.021v116.694c0 8.199-6.647 14.845-14.845 14.845h-44.315c-8.196 0-14.84 6.644-14.84 14.84v73.16"/><path stroke="#00DC82" stroke-opacity=".86" d="M383.061 294.021v116.694c0 8.199-6.647 14.845-14.845 14.845h-44.315c-8.196 0-14.84 6.644-14.84 14.84v73.16"/></g><path stroke="#020420" d="m387 304.5-.926 101.79C386 414.436 379.375 421 371.23 421h-52.39c-8.196 0-14.84 6.644-14.84 14.84v75.66"/><path stroke="#00DC82" d="m387 304.5-.926 101.79C386 414.436 379.375 421 371.23 421h-52.39c-8.196 0-14.84 6.644-14.84 14.84v75.66"/><g filter="url(#l)"><path stroke="#020420" d="m-82 257.717 85.47889.091L156 257.97"/><path stroke="#00DC82" stroke-opacity=".86" d="m-82 257.717 85.47889.091L156 257.97"/></g><path stroke="#020420" d="m-82 257.717 85.47889.091L156 257.97"/><path stroke="#00DC82" d="m-82 257.717 85.47889.091L156 257.97"/><g filter="url(#m)"><path stroke="#020420" d="m309 209 85.479.091 152.521.162"/><path stroke="#00DC82" stroke-opacity=".86" d="m309 209 85.479.091 152.521.162"/></g><path stroke="#020420" d="m309 209 85.479.091 152.521.162"/><path stroke="#00DC82" d="m309 209 85.479.091 152.521.162"/><g filter="url(#n)"><path stroke="#020420" d="M321 214.127V-23.8733"/><path stroke="#00DC82" stroke-opacity=".86" d="M321 214.127V-23.8733"/></g><path stroke="#020420" d="M320 215V-23.0001"/><path stroke="#00DC82" d="M320 215V-23.0001"/><g filter="url(#o)"><path stroke="#020420" d="M206 338.126V576.127"/><path stroke="#00DC82" stroke-opacity=".86" d="M206 338.126V576.127"/></g><path stroke="#020420" d="M206 338.126V576.127"/><path stroke="#00DC82" d="M206 338.126V576.127"/></g><path fill="url(#p)" fill-opacity=".7" d="M1 0h500v500H1z"/><path fill="url(#q)" fill-opacity=".7" d="M1 0h500v500H1z"/><g filter="url(#r)"><path fill="#00DC82" d="M269.889 355.669h121.188c3.849 0 7.631-.973 10.964-2.822 3.333-1.849 6.101-4.509 8.025-7.712 1.924-3.203 2.936-6.836 2.934-10.534-.002-3.698-1.017-7.33-2.944-10.532L328.67 188.64c-1.924-3.203-4.691-5.862-8.024-7.711-3.332-1.849-7.113-2.822-10.961-2.822-3.849 0-7.63.973-10.962 2.822-3.333 1.849-6.1 4.508-8.024 7.711l-20.81 34.651-40.687-67.76c-1.926-3.202-4.694-5.861-8.028-7.709-3.333-1.849-7.115-2.822-10.964-2.822s-7.63.973-10.964 2.822c-3.333 1.848-6.102 4.507-8.027 7.709L89.9436 324.069c-1.9267 3.202-2.9419 6.834-2.9436 10.532-.0017 3.698 1.0103 7.331 2.9341 10.534 1.9237 3.203 4.6915 5.863 8.0249 7.712 3.333 1.849 7.115 2.822 10.964 2.822h76.072c30.14 0 52.368-12.719 67.662-37.534l37.133-61.781 19.889-33.063 59.69 99.315H289.79l-19.901 33.063Zm-86.134-33.097-53.089-.012 79.58-132.411 39.707 66.205-26.586 44.251c-10.157 16.101-21.696 21.967-39.612 21.967Z"/></g></g><defs><filter id="b" width="1185" height="830" x="-342" y="-165" color-interpolation-filters="sRGB" filterUnits="userSpaceOnUse"><feFlood flood-opacity="0" result="BackgroundImageFix"/><feBlend in="SourceGraphic" in2="BackgroundImageFix" result="shape"/><feGaussianBlur result="effect1_foregroundBlur_0_1172" stdDeviation="188"/></filter><filter id="e" width="286" height="131.44" x="-96" y="78" color-interpolation-filters="sRGB" filterUnits="userSpaceOnUse"><feFlood flood-opacity="0" result="BackgroundImageFix"/><feBlend in="SourceGraphic" in2="BackgroundImageFix" result="shape"/><feGaussianBlur result="effect1_foregroundBlur_0_1172" stdDeviation="6"/></filter><filter id="f" width="286" height="131.44" x="371" y="290" color-interpolation-filters="sRGB" filterUnits="userSpaceOnUse"><feFlood flood-opacity="0" result="BackgroundImageFix"/><feBlend in="SourceGraphic" in2="BackgroundImageFix" result="shape"/><feGaussianBlur result="effect1_foregroundBlur_0_1172" stdDeviation="6"/></filter><filter id="g" width="286.154" height="137.156" x="279.846" y="-27.7161" color-interpolation-filters="sRGB" filterUnits="userSpaceOnUse"><feFlood flood-opacity="0" result="BackgroundImageFix"/><feBlend in="SourceGraphic" in2="BackgroundImageFix" result="shape"/><feGaussianBlur result="effect1_foregroundBlur_0_1172" stdDeviation="6"/></filter><filter id="h" width="153.182" height="173.5" x="-65" y="356" color-interpolation-filters="sRGB" filterUnits="userSpaceOnUse"><feFlood flood-opacity="0" result="BackgroundImageFix"/><feBlend in="SourceGraphic" in2="BackgroundImageFix" result="shape"/><feGaussianBlur result="effect1_foregroundBlur_0_1172" stdDeviation="6"/></filter><filter id="i" width="158.54" height="128.44" x="-14" y="321" color-interpolation-filters="sRGB" filterUnits="userSpaceOnUse"><feFlood flood-opacity="0" result="BackgroundImageFix"/><feBlend in="SourceGraphic" in2="BackgroundImageFix" result="shape"/><feGaussianBlur result="effect1_foregroundBlur_0_1172" stdDeviation="6"/></filter><filter id="j" width="97" height="244" x="173" y="-52" color-interpolation-filters="sRGB" filterUnits="userSpaceOnUse"><feFlood flood-opacity="0" result="BackgroundImageFix"/><feBlend in="SourceGraphic" in2="BackgroundImageFix" result="shape"/><feGaussianBlur result="effect1_foregroundBlur_0_1172" stdDeviation="6"/></filter><filter id="k" width="104" height="243.54" x="294.061" y="282.021" color-interpolation-filters="sRGB" filterUnits="userSpaceOnUse"><feFlood flood-opacity="0" result="BackgroundImageFix"/><feBlend in="SourceGraphic" in2="BackgroundImageFix" result="shape"/><feGaussianBlur result="effect1_foregroundBlur_0_1172" stdDeviation="6"/></filter><filter id="l" width="262.006" height="30.2534" x="-94.0032" y="242.717" color-interpolation-filters="sRGB" filterUnits="userSpaceOnUse"><feFlood flood-opacity="0" result="BackgroundImageFix"/><feBlend in="SourceGraphic" in2="BackgroundImageFix" result="shape"/><feGaussianBlur result="effect1_foregroundBlur_0_1172" stdDeviation="6"/></filter><filter id="m" width="262.006" height="30.2534" x="296.997" y="194" color-interpolation-filters="sRGB" filterUnits="userSpaceOnUse"><feFlood flood-opacity="0" result="BackgroundImageFix"/><feBlend in="SourceGraphic" in2="BackgroundImageFix" result="shape"/><feGaussianBlur result="effect1_foregroundBlur_0_1172" stdDeviation="6"/></filter><filter id="n" width="30" height="262" x="306" y="-35.8733" color-interpolation-filters="sRGB" filterUnits="userSpaceOnUse"><feFlood flood-opacity="0" result="BackgroundImageFix"/><feBlend in="SourceGraphic" in2="BackgroundImageFix" result="shape"/><feGaussianBlur result="effect1_foregroundBlur_0_1172" stdDeviation="6"/></filter><filter id="o" width="30" height="262" x="191" y="326.126" color-interpolation-filters="sRGB" filterUnits="userSpaceOnUse"><feFlood flood-opacity="0" result="BackgroundImageFix"/><feBlend in="SourceGraphic" in2="BackgroundImageFix" result="shape"/><feGaussianBlur result="effect1_foregroundBlur_0_1172" stdDeviation="6"/></filter><filter id="r" width="361" height="245.669" x="69.5" y="127.5" color-interpolation-filters="sRGB" filterUnits="userSpaceOnUse"><feFlood flood-opacity="0" result="BackgroundImageFix"/><feColorMatrix in="SourceAlpha" result="hardAlpha" values="0 0 0 0 0 0 0 0 0 0 0 0 0 0 0 0 0 0 127 0"/><feOffset/><feGaussianBlur stdDeviation="8.75"/><feComposite in2="hardAlpha" operator="out"/><feColorMatrix values="0 0 0 0 0 0 0 0 0 0 0 0 0 0 0 0 0 0 1 0"/><feBlend in2="BackgroundImageFix" result="effect1_dropShadow_0_1172"/><feBlend in="SourceGraphic" in2="effect1_dropShadow_0_1172" result="shape"/></filter><clipPath id="a"><path fill="#fff" d="M0 0h500v500H0z"/></clipPath><clipPath id="c"><path fill="#fff" d="M-44-8h565v515.87H-44z"/></clipPath><clipPath id="d"><path fill="#fff" d="M-82-40h883.271v616.127H-82z"/></clipPath><radialGradient id="p" cx="0" cy="0" r="1" gradientTransform="rotate(149.378 88.40343216 169.85881375) scale(158.039)" gradientUnits="userSpaceOnUse"><stop stop-color="#020420"/><stop offset=".408868" stop-color="#020722" stop-opacity=".768069"/><stop offset="1" stop-color="#031327" stop-opacity="0"/></radialGradient><radialGradient id="q" cx="0" cy="0" r="1" gradientTransform="rotate(139.97 76.14185624 181.21547632) scale(326.497)" gradientUnits="userSpaceOnUse"><stop stop-color="#020420"/><stop offset=".408868" stop-color="#020722" stop-opacity=".768069"/><stop offset="1" stop-color="#031327" stop-opacity="0"/></radialGradient></defs></svg>