<svg width="168" height="114" viewBox="0 0 168 114" fill="none" xmlns="http://www.w3.org/2000/svg">
    <path d="M33.8 46.525L44 56.725L33.6 67.125L23.4 56.925L33.8 46.525ZM33.8 28.025C30.8 28.025 27.8 29.125 25.5 31.425L0 56.925L25.3 82.225C27.6 84.525 30.6 85.625 33.6 85.625C36.6 85.625 39.6 84.525 41.9 82.225L67.4 56.725L42.1 31.425C39.8 29.125 36.8 28.025 33.8 28.025Z" fill="#303030"/>
    <path d="M103.3 42.325L47.4 98.125C46.3 99.225 46.3 101.025 47.4 102.125L57.9 112.525C59 113.625 60.8 113.625 61.9 112.525L115.7 58.725C116.8 57.625 116.8 55.825 115.7 54.725L103.3 42.325Z" fill="#DC143C"/>
    <path d="M103.3 42.325L61.8 0.825C60.7 -0.275 58.9 -0.275 57.8 0.825L47.3 11.225C46.2 12.325 46.2 14.125 47.3 15.225L88.8 56.725L103.3 42.325Z" fill="#DC143C"/>
    <path d="M103.3 42.325L61.8 0.825C60.7 -0.275 58.9 -0.275 57.8 0.825L47.3 11.225C46.2 12.325 46.2 14.125 47.3 15.225L88.8 56.725L103.3 42.325Z" fill="black" fill-opacity="0.2"/>
    <path d="M98.7999 37.825L103.3 42.325L88.7999 56.725L84.2999 52.325L98.7999 37.825Z" fill="url(#paint0_linear_10_2032)"/>
    <path d="M153.8 71.025L112.3 112.525C111.2 113.625 109.4 113.625 108.3 112.525L97.9 102.125C96.8 101.025 96.8 99.225 97.9 98.125L139.4 56.625L153.8 71.025Z" fill="#DC143C"/>
    <path d="M153.8 71.025L112.3 112.525C111.2 113.625 109.4 113.625 108.3 112.525L97.9 102.125C96.8 101.025 96.8 99.225 97.9 98.125L139.4 56.625L153.8 71.025Z" fill="black" fill-opacity="0.2"/>
    <path d="M134.9 61.025L139.3 56.625L153.8 71.025L149.3 75.525L134.9 61.025Z" fill="url(#paint1_linear_10_2032)"/>
    <path d="M153.8 71.025L98 15.225C96.9 14.125 96.9 12.325 98 11.225L108.5 0.825C109.6 -0.275 111.4 -0.275 112.5 0.825L166.3 54.625C167.4 55.725 167.4 57.525 166.3 58.625L153.8 71.025Z" fill="#DC143C"/>
    <defs>
        <linearGradient id="paint0_linear_10_2032" x1="91.5741" y1="45.0593" x2="96.0241" y2="49.5093" gradientUnits="userSpaceOnUse">
            <stop stop-opacity="0"/>
            <stop offset="1" stop-opacity="0.2"/>
        </linearGradient>
        <linearGradient id="paint1_linear_10_2032" x1="142.12" y1="68.2892" x2="146.58" y2="63.8392" gradientUnits="userSpaceOnUse">
            <stop stop-opacity="0"/>
            <stop offset="1" stop-opacity="0.2"/>
        </linearGradient>
    </defs>
</svg>
