<svg width="80" height="80" viewBox="0 0 80 80" fill="none" xmlns="http://www.w3.org/2000/svg">
<rect width="80" height="80" fill="#001E26"/>
<path d="M36.5358 12.2241C31.935 12.8433 27.5839 14.683 23.9345 17.5522C20.285 20.4214 17.4703 24.2154 15.7827 28.5401C14.0951 32.8648 13.5962 37.5624 14.3378 42.1451C15.0794 46.7278 17.0344 51.0283 19.9998 54.6001V61.9221C19.9986 62.3514 20.1073 62.7739 20.3156 63.1494C20.5238 63.5249 20.8247 63.8408 21.1895 64.0671C21.5544 64.2935 21.9711 64.4227 22.4 64.4424C22.8289 64.4622 23.2557 64.3719 23.6398 64.1801L28.9658 61.5161C33.4793 63.6544 38.5164 64.4367 43.4658 63.7681C50.301 62.8491 56.4912 59.2525 60.6745 53.7695C64.8579 48.2865 66.6918 41.3662 65.7728 34.5311C64.8539 27.6959 61.2573 21.5057 55.7743 17.3224C50.2913 13.139 43.371 11.3051 36.5358 12.2241Z" stroke="white" stroke-width="2" stroke-linecap="round" stroke-linejoin="round"/>
<path d="M26.098 44.326L35.28 31.26C35.3691 31.1014 35.4909 30.9636 35.6374 30.8559C35.7839 30.7481 35.9517 30.6728 36.1296 30.6349C36.3074 30.5971 36.4914 30.5976 36.669 30.6364C36.8467 30.6752 37.0141 30.7514 37.16 30.86L43.31 35.474C43.514 35.6264 43.7587 35.7147 44.013 35.7275C44.2674 35.7403 44.5197 35.6771 44.738 35.546L52.228 30.254C52.4655 30.1129 52.7423 30.0524 53.0171 30.0816C53.2918 30.1109 53.5497 30.2282 53.7522 30.4161C53.9548 30.604 54.0911 30.8524 54.1408 31.1242C54.1905 31.396 54.1509 31.6765 54.028 31.924L46.614 44.752C46.5352 44.9093 46.4247 45.0487 46.2896 45.1614C46.1545 45.2742 45.9975 45.3579 45.8286 45.4072C45.6597 45.4566 45.4824 45.4706 45.3078 45.4483C45.1333 45.4261 44.9651 45.3681 44.814 45.278L36.6 40.362C36.4157 40.2509 36.2062 40.1882 35.9912 40.1798C35.7761 40.1714 35.5624 40.2176 35.37 40.314L27.782 46.114C27.5354 46.2375 27.2556 46.2782 26.984 46.2301C26.7124 46.1819 26.4636 46.0475 26.2745 45.8467C26.0854 45.6459 25.9661 45.3895 25.9343 45.1156C25.9025 44.8416 25.9599 44.5647 26.098 44.326Z" fill="white"/>
</svg>
