<svg width="256" height="256" viewBox="0 0 256 256" fill="none" xmlns="http://www.w3.org/2000/svg">
<rect width="256" height="256" fill="#001E26"/>
<path d="M118.236 120.387C119.501 118.191 122.663 118.191 123.929 120.387L141.719 151.277C142.984 153.473 141.403 156.219 138.872 156.219H103.292C100.762 156.219 99.1802 153.473 100.445 151.277L118.236 120.387Z" fill="#80EEC0"/>
<path d="M131.14 126.655C132.395 124.43 135.534 124.43 136.79 126.655L151.091 151.995C152.347 154.219 150.777 157 148.266 157H119.663C117.152 157 115.583 154.219 116.838 151.995L131.14 126.655Z" fill="#001E26"/>
<path d="M136.19 127.348C137.476 125.24 140.606 125.24 141.892 127.348L156.528 151.333C157.843 153.489 156.25 156.219 153.677 156.219H124.404C121.832 156.219 120.238 153.489 121.553 151.333L136.19 127.348Z" fill="#00DC82"/>
<path d="M69.1678 168.636V189H65.449L56.5897 176.183H56.4405V189H52.1351V168.636H55.9135L64.7033 181.443H64.8823V168.636H69.1678ZM82.4395 182.497V173.727H86.6752V189H82.6085V186.226H82.4494C82.1047 187.121 81.5313 187.84 80.7292 188.384C79.9338 188.927 78.9627 189.199 77.8159 189.199C76.795 189.199 75.8968 188.967 75.1213 188.503C74.3457 188.039 73.7392 187.379 73.3017 186.524C72.8708 185.669 72.652 184.645 72.6454 183.452V173.727H76.8812V182.696C76.8878 183.598 77.1298 184.31 77.6071 184.834C78.0843 185.357 78.724 185.619 79.5261 185.619C80.0365 185.619 80.5138 185.503 80.9579 185.271C81.402 185.033 81.76 184.681 82.0318 184.217C82.3102 183.753 82.4461 183.18 82.4395 182.497ZM93.6032 173.727L96.4071 179.067L99.2807 173.727H103.626L99.2012 181.364L103.745 189H99.4199L96.4071 183.72L93.4441 189H89.0691L93.6032 181.364L89.2282 173.727H93.6032ZM114.265 173.727V176.909H105.068V173.727H114.265ZM107.156 170.068H111.392V184.307C111.392 184.698 111.451 185.003 111.57 185.222C111.69 185.434 111.856 185.583 112.068 185.669C112.286 185.755 112.538 185.798 112.823 185.798C113.022 185.798 113.221 185.782 113.42 185.749C113.619 185.709 113.771 185.679 113.877 185.659L114.544 188.811C114.331 188.877 114.033 188.954 113.649 189.04C113.264 189.133 112.797 189.189 112.247 189.209C111.226 189.249 110.331 189.113 109.562 188.801C108.8 188.49 108.206 188.006 107.782 187.349C107.358 186.693 107.149 185.865 107.156 184.864V170.068ZM152.514 168.636V189H148.278V168.636H152.514ZM162.808 189.298C161.263 189.298 159.927 188.97 158.801 188.314C157.68 187.651 156.815 186.73 156.205 185.55C155.596 184.363 155.291 182.988 155.291 181.423C155.291 179.846 155.596 178.467 156.205 177.287C156.815 176.1 157.68 175.179 158.801 174.523C159.927 173.86 161.263 173.528 162.808 173.528C164.352 173.528 165.685 173.86 166.805 174.523C167.932 175.179 168.8 176.1 169.41 177.287C170.02 178.467 170.325 179.846 170.325 181.423C170.325 182.988 170.02 184.363 169.41 185.55C168.8 186.73 167.932 187.651 166.805 188.314C165.685 188.97 164.352 189.298 162.808 189.298ZM162.828 186.017C163.53 186.017 164.117 185.818 164.588 185.42C165.058 185.016 165.413 184.466 165.651 183.77C165.897 183.074 166.019 182.282 166.019 181.393C166.019 180.505 165.897 179.713 165.651 179.017C165.413 178.321 165.058 177.771 164.588 177.366C164.117 176.962 163.53 176.76 162.828 176.76C162.118 176.76 161.522 176.962 161.038 177.366C160.561 177.771 160.199 178.321 159.954 179.017C159.715 179.713 159.596 180.505 159.596 181.393C159.596 182.282 159.715 183.074 159.954 183.77C160.199 184.466 160.561 185.016 161.038 185.42C161.522 185.818 162.118 186.017 162.828 186.017ZM181.203 173.727V176.909H172.005V173.727H181.203ZM174.093 170.068H178.329V184.307C178.329 184.698 178.389 185.003 178.508 185.222C178.627 185.434 178.793 185.583 179.005 185.669C179.224 185.755 179.476 185.798 179.761 185.798C179.96 185.798 180.159 185.782 180.357 185.749C180.556 185.709 180.709 185.679 180.815 185.659L181.481 188.811C181.269 188.877 180.971 188.954 180.586 189.04C180.202 189.133 179.734 189.189 179.184 189.209C178.163 189.249 177.268 189.113 176.499 188.801C175.737 188.49 175.144 188.006 174.72 187.349C174.295 186.693 174.087 185.865 174.093 184.864V170.068ZM188.526 168.636V189H184.29V168.636H188.526ZM194.534 194.727C193.997 194.727 193.493 194.684 193.023 194.598C192.559 194.518 192.174 194.416 191.869 194.29L192.824 191.128C193.321 191.28 193.768 191.363 194.166 191.376C194.57 191.39 194.918 191.297 195.21 191.098C195.508 190.899 195.75 190.561 195.936 190.084L196.184 189.438L190.706 173.727H195.16L198.322 184.943H198.481L201.673 173.727H206.157L200.221 190.651C199.936 191.473 199.549 192.188 199.058 192.798C198.574 193.415 197.961 193.889 197.219 194.22C196.476 194.558 195.581 194.727 194.534 194.727Z" fill="white"/>
<path d="M126.54 177.138V180.499H117.253V177.138H126.54ZM130.229 189V168.636H138.263C139.807 168.636 141.123 168.931 142.21 169.521C143.298 170.105 144.126 170.917 144.696 171.957C145.273 172.991 145.561 174.185 145.561 175.537C145.561 176.889 145.27 178.082 144.686 179.116C144.103 180.151 143.258 180.956 142.151 181.533C141.05 182.109 139.718 182.398 138.154 182.398H133.033V178.947H137.458C138.286 178.947 138.969 178.805 139.506 178.52C140.049 178.228 140.454 177.827 140.719 177.317C140.991 176.8 141.127 176.206 141.127 175.537C141.127 174.861 140.991 174.271 140.719 173.767C140.454 173.257 140.049 172.862 139.506 172.584C138.962 172.299 138.273 172.156 137.438 172.156H134.534V189H130.229Z" fill="#00DC82"/>
<circle cx="92" cy="89" r="6" fill="#D6386E"/>
<circle cx="92" cy="65" r="6" fill="#D6386E"/>
<circle cx="116" cy="65" r="6" fill="#D27098"/>
<circle cx="140" cy="65" r="6" fill="#AD9EC2"/>
<circle cx="140" cy="89" r="6" fill="#AD9EC2"/>
<circle cx="164" cy="65" r="6" fill="#25FEFD"/>
<rect x="86" y="108" width="12" height="37" rx="6" fill="white"/>
<rect x="110" y="83" width="12" height="62" rx="6" fill="white"/>
<rect x="134" y="108" width="12" height="37" rx="6" fill="white"/>
<rect x="158" y="83" width="12" height="62" rx="6" fill="white"/>
</svg>
