<svg width="786" height="444" viewBox="0 0 786 444" fill="none" xmlns="http://www.w3.org/2000/svg">
<path fill-rule="evenodd" clip-rule="evenodd" d="M233.758 0C230.887 0 228.222 0.640933 225.761 1.49546C230.99 5.12728 233.861 9.93415 235.296 15.3819C235.399 16.1296 235.604 16.6637 235.706 17.4114C235.809 18.0523 235.911 18.6932 235.911 19.3342C236.322 28.7342 233.553 29.9092 231.605 35.4637C228.632 42.6206 229.452 50.3115 233.04 56.507C233.348 57.2547 233.758 58.1093 234.271 58.857C230.375 31.8319 252.008 27.7728 256.006 19.3342C256.314 11.9637 250.47 7.05002 245.856 3.63183C241.448 0.854553 237.449 0 233.758 0ZM266.361 6.08866C265.951 8.54548 266.259 7.90457 266.157 9.1864C266.054 10.0409 266.054 11.1091 265.952 11.9637C265.747 12.8182 265.541 13.6728 265.234 14.5274C265.029 15.3819 264.721 16.2364 264.414 17.091C264.003 17.9455 263.696 18.6932 263.286 19.5478C262.978 19.9752 262.773 20.4023 262.466 20.8296C262.261 21.1501 262.055 21.4705 261.851 21.791C261.338 22.5388 260.825 23.2864 260.313 23.9274C259.698 24.5683 259.185 25.316 258.467 25.8501V25.9571C257.852 26.4912 257.237 27.1321 256.519 27.6662C254.366 29.3752 251.906 30.6571 249.65 32.2594C248.932 32.7934 248.215 33.2207 247.599 33.8616C246.882 34.3957 246.267 34.9298 245.652 35.5707C244.934 36.2116 244.421 36.8526 243.806 37.6003C243.293 38.2412 242.678 38.9889 242.268 39.7367C241.755 40.4844 241.243 41.2321 240.833 41.9798C240.423 42.8344 240.115 43.5821 239.705 44.4367C239.397 45.2912 239.09 46.0389 238.885 46.8935C238.577 47.8548 238.372 48.7094 238.167 49.564C238.064 49.9914 238.064 50.5253 237.962 50.9526C237.859 51.38 237.859 51.8071 237.757 52.2344C237.757 53.089 237.655 54.0503 237.655 54.9049C237.655 55.5458 237.655 56.1867 237.757 56.8276C237.757 57.6822 237.86 58.5367 238.065 59.4981C238.168 60.3526 238.372 61.2072 238.578 62.0617C238.885 62.9163 239.09 63.7708 239.398 64.6253C239.603 65.1595 239.91 65.6936 240.115 66.1208L216.534 56.614C212.536 55.439 208.64 54.3708 204.641 53.4094C202.488 52.8753 200.335 52.3412 198.182 51.8071C192.031 50.5253 185.777 49.564 179.523 48.9231C179.318 48.9231 179.215 48.8161 179.01 48.8161C172.858 48.1752 166.809 47.8547 160.658 47.8547C156.147 47.8547 151.636 48.0682 147.227 48.3888C140.973 48.8163 134.719 49.6707 128.465 50.7388C126.927 50.9523 125.389 51.273 123.851 51.5934C120.673 52.2343 117.597 52.982 114.624 53.7298C113.086 54.1572 111.548 54.5843 110.01 55.0116C108.472 55.6525 107.037 56.4002 105.601 57.0411C104.474 57.5752 103.346 58.1093 102.218 58.6434C102.013 58.7504 101.808 58.7504 101.706 58.8569C100.68 59.391 99.7575 59.8182 98.8348 60.3523C98.5272 60.4593 98.3221 60.5658 98.1171 60.6728C96.9893 61.2069 95.8615 61.8478 94.9388 62.3819C94.2211 62.7023 93.5034 63.1296 92.8883 63.4501C92.5807 63.6636 92.1706 63.8775 91.9655 63.9842C91.0428 64.5183 90.1201 65.0523 89.2999 65.5865C88.3771 66.1205 87.5569 66.6546 86.8392 67.1887C86.1216 67.7228 85.4039 68.1501 84.7887 68.6841C84.686 68.7911 84.5838 68.7911 84.4811 68.8976C83.866 69.3251 83.1483 69.859 82.5332 70.3931C82.5332 70.3931 82.4305 70.5001 82.3283 70.6066C81.8156 71.0341 81.303 71.4611 80.7904 71.8884C80.5855 71.9954 80.3801 72.2088 80.1752 72.3158C79.6626 72.7433 79.15 73.2772 78.6374 73.7045C78.5347 73.918 78.3298 74.025 78.2271 74.1319C77.6119 74.7729 76.9968 75.3069 76.3816 75.9478C76.2789 75.9478 76.2789 76.0548 76.1767 76.1613C75.5616 76.6954 74.9464 77.3363 74.3312 77.9772C74.2285 78.0842 74.2285 78.1907 74.1263 78.1907C73.6137 78.7248 73.1011 79.2589 72.5884 79.8998C72.3836 80.1133 72.0758 80.3272 71.8708 80.5407C71.3582 81.1816 70.743 81.8225 70.1279 82.4635C70.0252 82.6769 69.8203 82.7839 69.7176 82.9975C68.8974 83.8521 68.1797 84.7066 67.3595 85.5612C67.2568 85.6682 67.1546 85.7746 67.0519 85.8816C65.4115 87.6976 63.6685 89.5135 61.8231 91.1157C59.9776 92.8248 58.0297 94.4271 56.0816 95.8157C54.0311 97.3113 52.0831 98.593 49.9301 99.8749C47.8796 101.05 45.7265 102.118 43.471 103.079C41.3179 104.041 39.0623 104.895 36.8068 105.643C32.5007 106.604 28.0921 108.42 24.2986 108.741C23.4784 108.741 22.5557 108.954 21.7355 109.061C20.8127 109.275 19.9925 109.489 19.1723 109.702C18.3521 110.023 17.5319 110.343 16.7117 110.664C15.8915 110.984 15.0713 111.411 14.2511 111.839C13.5334 112.373 12.7132 112.8 11.9955 113.334C11.2779 113.868 10.5602 114.509 9.94499 115.15C9.22734 115.684 8.50964 116.432 7.89448 117.073C7.27932 117.82 6.66416 118.461 6.15154 119.209C5.63893 120.064 5.02377 120.811 4.61364 121.666C4.10103 122.414 3.58841 123.268 3.17829 124.123C2.76802 125.084 2.35809 125.939 2.05051 126.9C1.74293 127.754 1.43535 128.716 1.12777 129.677C0.922879 130.532 0.717504 131.386 0.615155 132.241C0.615155 132.348 0.512471 132.454 0.512471 132.561C0.307578 133.523 0.307577 134.805 0.20489 135.445C0.102206 136.193 0 136.834 0 137.582C0 138.009 3.11356e-07 138.543 0.102684 138.97C0.205367 139.718 0.307573 140.359 0.512951 141C0.717842 141.641 0.923218 142.282 1.2306 142.923V143.03C1.53818 143.671 1.94831 144.312 2.35838 144.952C2.76865 145.593 3.17863 146.234 3.69124 146.875C4.20386 147.409 4.81902 148.05 5.43418 148.584C6.04934 149.225 6.6645 149.759 7.38215 150.293C9.84279 152.537 10.4579 153.284 13.6362 154.993C14.1489 155.314 14.6615 155.528 15.2767 155.848C15.3794 155.848 15.4816 155.955 15.5843 155.955C15.5843 156.168 15.5843 156.275 15.687 156.489C15.7897 157.344 15.9945 158.198 16.1996 159.053C16.4045 160.014 16.7122 160.869 17.0198 161.616C17.3274 162.257 17.5324 162.898 17.84 163.539C17.9427 163.753 18.0449 163.967 18.1476 164.073C18.5579 164.928 18.9678 165.676 19.3779 166.423C19.8905 167.171 20.4032 167.919 20.9158 168.666C21.4284 169.307 22.0436 170.055 22.6587 170.696C23.2739 171.337 23.889 171.871 24.6067 172.512C24.6067 172.512 24.7094 172.619 24.8116 172.619C25.4268 173.153 26.0419 173.687 26.6571 174.114C27.3748 174.648 28.0925 175.076 28.9127 175.503C29.6304 175.93 30.4506 176.358 31.2708 176.678C31.8859 176.998 32.6036 177.212 33.3213 177.426C33.424 177.533 33.5262 177.533 33.7315 177.639C34.1418 177.746 34.6542 177.853 35.0643 177.96C34.7568 183.728 34.6541 189.176 35.4746 191.098C36.3973 193.235 40.9085 186.719 45.4196 179.242C44.8045 186.612 44.3943 195.264 45.4196 197.828C46.5474 200.498 52.6989 192.167 58.0303 182.98C130.721 165.462 197.055 217.803 204.027 291.721C202.694 280.185 189.058 273.776 182.804 275.378C179.728 283.283 174.5 293.431 166.093 299.733C166.81 292.683 166.503 285.419 165.067 278.369C162.812 288.196 158.403 297.383 152.354 305.287C142.614 306.035 132.874 301.121 127.748 293.751C127.338 293.43 127.235 292.79 126.928 292.362C126.62 291.615 126.312 290.867 126.107 290.119C125.8 289.371 125.595 288.624 125.492 287.876C125.39 287.128 125.39 286.381 125.39 285.526C125.39 284.992 125.39 284.458 125.39 283.924C125.492 283.176 125.697 282.428 125.902 281.68C126.107 280.933 126.312 280.185 126.62 279.437C127.03 278.69 127.338 277.942 127.85 277.194C129.593 272.067 129.593 267.901 126.415 265.444C125.8 265.017 125.185 264.696 124.467 264.376C124.057 264.269 123.544 264.055 123.134 263.948C122.826 263.841 122.621 263.735 122.314 263.628C121.596 263.414 120.878 263.201 120.161 263.094C119.443 262.88 118.725 262.773 118.008 262.773C117.29 262.666 116.47 262.56 115.752 262.56C115.24 262.56 114.727 262.667 114.214 262.667C113.394 262.667 112.676 262.774 111.959 262.987C111.241 263.094 110.523 263.201 109.806 263.415C109.088 263.628 108.37 263.842 107.653 264.163C106.935 264.483 106.32 264.803 105.602 265.124C104.987 265.444 104.372 265.872 103.654 266.192C79.7656 282.428 94.0167 320.456 110.318 331.458C104.167 332.633 97.9127 334.022 96.1697 335.411C96.067 335.517 95.9648 335.624 95.9648 335.624C100.373 338.401 104.987 340.751 109.806 342.781C116.367 345.024 123.339 347.054 126.415 347.908V348.015C134.925 349.831 143.537 350.472 152.252 349.938C197.671 346.626 234.887 310.629 241.654 263.201C241.859 264.163 242.064 265.017 242.269 265.978C242.577 267.901 242.987 269.931 243.192 271.96V272.067C243.397 273.029 243.5 273.99 243.602 274.845V275.272C243.705 276.233 243.807 277.195 243.807 278.049C243.91 279.224 244.012 280.399 244.012 281.574V283.283C244.012 283.818 244.115 284.458 244.115 284.993C244.115 285.634 244.012 286.274 244.012 286.915V288.411C244.012 289.159 243.909 289.799 243.909 290.547C243.909 290.975 243.909 291.402 243.807 291.936C243.807 292.684 243.704 293.431 243.704 294.286C243.601 294.606 243.601 294.927 243.601 295.247C243.498 296.102 243.396 296.849 243.293 297.704C243.293 298.024 243.294 298.345 243.191 298.665C243.088 299.734 242.883 300.695 242.781 301.763V301.87V301.977C242.576 302.939 242.37 304.007 242.165 304.968V305.289C241.961 306.25 241.755 307.211 241.55 308.173C241.55 308.28 241.448 308.493 241.448 308.6C241.243 309.561 241.037 310.523 240.73 311.484V311.805C240.422 312.873 240.115 313.834 239.91 314.796C239.807 314.902 239.807 315.009 239.807 315.009C239.5 316.077 239.192 317.145 238.884 318.214C238.474 319.282 238.167 320.243 237.757 321.311C237.346 322.379 237.039 323.448 236.629 324.409C236.219 325.477 235.809 326.439 235.399 327.507H235.296C234.885 328.468 234.475 329.536 233.963 330.498C233.86 330.818 233.758 331.032 233.655 331.245C233.553 331.353 233.553 331.459 233.45 331.566C226.786 345.559 216.944 357.843 204.641 367.457C203.82 367.991 203 368.632 202.18 369.273C201.975 369.486 201.667 369.593 201.462 369.807C200.745 370.341 200.027 370.875 199.207 371.409L199.514 372.05H199.617C201.052 371.837 202.488 371.623 203.923 371.409H204.026C206.691 370.982 209.357 370.448 212.023 369.914C212.74 369.807 213.561 369.593 214.278 369.38C214.791 369.272 215.201 369.166 215.714 369.059C216.431 368.952 217.149 368.739 217.867 368.632C218.482 368.418 219.097 368.311 219.712 368.098C229.965 365.534 239.91 362.009 249.445 357.843C233.143 381.023 211.305 399.716 185.776 412C197.567 411.145 209.357 409.116 220.737 405.698C262.055 392.986 296.812 364.038 317.624 325.05C313.421 349.725 303.988 373.225 290.045 393.734C299.99 386.898 309.115 378.993 317.419 370.02C340.385 345.025 355.456 313.3 360.583 279.225C364.069 296.102 365.094 313.513 363.556 330.711C437.58 223.145 369.708 111.626 341.308 82.2512C341.205 82.0377 341.103 81.9307 341.103 81.7171C341 81.8241 341 81.8241 341 81.9306C341 81.8236 341 81.8236 340.897 81.7171C340.897 82.999 340.795 84.2807 340.693 85.5626C340.385 88.0194 340.077 90.3694 339.667 92.7194C339.155 95.0694 338.54 97.4194 337.924 99.7694C337.207 102.013 336.387 104.363 335.464 106.606C334.541 108.742 333.516 110.985 332.388 113.122C331.26 115.151 330.03 117.288 328.697 119.21C327.364 121.24 325.929 123.163 324.493 124.979C322.956 126.901 321.315 128.61 319.675 130.32C318.65 131.281 317.727 132.135 316.701 132.99C315.881 133.738 315.164 134.379 314.343 135.126C312.498 136.622 310.652 138.01 308.602 139.292C306.654 140.574 304.604 141.856 302.553 142.924C300.4 143.992 298.247 144.954 296.094 145.915C293.941 146.77 291.685 147.517 289.43 148.158C287.174 148.799 284.816 149.333 282.56 149.76C280.202 150.188 277.844 150.401 275.589 150.615C273.948 150.722 272.308 150.829 270.667 150.829C268.309 150.829 265.951 150.615 263.696 150.401C261.338 150.188 258.98 149.867 256.724 149.333C254.366 148.905 252.11 148.265 249.855 147.517H249.752C252.008 147.304 254.263 147.09 256.519 146.662C258.877 146.235 261.132 145.701 263.388 145.06C265.644 144.419 267.899 143.671 270.052 142.817C272.308 141.962 274.461 140.894 276.511 139.826C278.664 138.758 280.612 137.583 282.663 136.301C284.611 134.912 286.559 133.524 288.404 132.028C290.25 130.533 291.993 128.931 293.633 127.221C295.376 125.619 296.914 123.803 298.452 121.987C299.99 120.065 301.425 118.142 302.758 116.219C302.963 115.899 303.168 115.471 303.373 115.151C304.398 113.442 305.424 111.733 306.346 110.024C307.474 107.887 308.499 105.751 309.422 103.508C310.345 101.265 311.165 99.0213 311.883 96.6714C312.6 94.4281 313.113 92.0782 313.626 89.7282C314.036 87.2713 314.446 84.9213 314.651 82.5713C314.856 80.1145 315.061 77.6576 315.061 75.3077C315.061 73.5985 314.958 71.8895 314.856 70.1804C314.651 67.7236 314.344 65.3735 314.036 63.0235C313.626 60.5667 313.113 58.2167 312.498 55.8667C311.781 53.6235 311.063 51.2735 310.243 49.0303C309.422 46.7871 308.397 44.5439 307.372 42.4075C306.244 40.2712 305.116 38.1348 303.886 36.1053C302.553 34.0757 301.22 32.153 299.785 30.2302C298.247 28.4143 296.709 26.5984 295.069 24.7825C294.249 23.928 293.326 22.9666 292.403 22.1121C287.789 18.3734 282.971 14.8484 278.152 11.6438C277.434 11.2164 276.819 10.8961 276.102 10.5756C272.718 8.33245 269.54 7.15681 266.361 6.08866Z" fill="#E0234E"/>
<path d="M16 359.285C12.3969 359.764 9.90332 361.269 5.24002 364.527C0.594699 372.49 0.0040579 381.524 1.99331e-05 390.722C-0.00401804 399.92 0.601693 408.957 5.24002 416.923C9.87833 424.89 18.163 430.665 26.2 435.265C34.237 439.865 43.1193 443.127 52.4 443.125H235.8C308.471 443.125 361.363 410.526 398.24 348.805L487.32 194.225L534.48 113.005L678.58 359.285H487.32L440.16 443.125H730.98C740.261 443.127 749.143 439.865 757.18 435.265C765.217 430.665 773.501 424.891 778.14 416.925C782.779 408.959 786.003 399.92 786 390.722C785.997 381.524 782.786 372.49 778.14 364.527L581.64 26.545C577.003 18.5802 571.335 12.8037 563.3 8.20497C555.265 3.60622 543.758 0.344971 534.48 0.344971C525.202 0.344971 516.315 3.60622 508.28 8.20497C500.245 12.8037 494.577 18.5802 489.94 26.545L440.16 113.005L439.976 112.695L440 113.125L393.5 196.125L391.121 197.5L328.787 306.164C304.298 346.211 276.377 359.285 233.18 359.285H105.5C105.5 359.285 19.6031 358.806 16 359.285Z" fill="#00DC82"/>
</svg>
