<svg width="219" height="234" viewBox="0 0 219 234" fill="none" xmlns="http://www.w3.org/2000/svg">
<path d="M217.909 86.5209L111.492 192.841H90.1304C89.4361 192.841 88.7572 192.635 88.1793 192.249C87.6022 191.863 87.1526 191.315 86.887 190.674C86.6221 190.033 86.5531 189.328 86.689 188.647C86.8249 187.967 87.1602 187.342 87.6524 186.852L117.726 156.784C120.091 154.416 121.419 151.208 121.419 147.862V58.7888C121.419 58.3275 121.51 57.8707 121.687 57.4446C121.864 57.0186 122.123 56.6316 122.45 56.306L138.702 40.0692C142.038 40.0933 145.228 41.434 147.578 43.799C149.928 46.164 151.247 49.3614 151.247 52.6939V78.0482C151.248 79.1541 151.03 80.2489 150.607 81.2706C150.185 82.2922 149.564 83.2206 148.782 84.0033L146.473 86.3106L146.902 86.8719L186.333 47.4968V0.00702069H185.631V17.4361C185.628 17.887 185.48 18.3251 185.21 18.6859C184.939 19.0465 184.559 19.3108 184.127 19.4397C183.694 19.5686 183.232 19.5551 182.807 19.4015C182.383 19.2479 182.019 18.9621 181.77 18.5863C179.221 14.6661 175.732 11.4445 171.62 9.21395C167.508 6.98343 162.903 5.81484 158.225 5.81438H125.231L96.3781 34.7459L85.1457 45.9678C84.655 46.4571 84.0297 46.79 83.3487 46.9244C82.6684 47.0589 81.963 46.9889 81.3224 46.7232C80.6818 46.4576 80.1346 46.0082 79.7491 45.4318C79.3636 44.8554 79.158 44.1779 79.158 43.4849V0H78.4561V20.1153C78.4568 20.5946 78.2936 21.0599 77.9932 21.434C77.6935 21.8081 77.2745 22.0686 76.8061 22.1725C76.3377 22.2764 75.8484 22.2174 75.4183 22.0053C74.9875 21.7932 74.6431 21.4407 74.4403 21.0061C68.8244 8.96351 60.2249 5.80034 60.2249 5.80034L19.9649 45.561L20.4565 46.0589L22.2324 44.3055C29.6316 37.0183 42.2256 41.2545 43.6226 51.5436C43.9229 53.8059 44.0682 56.086 44.0577 58.3679V188.514L0 232.532L0.498395 233.03L2.2253 231.304C4.58816 228.937 7.79458 227.603 11.1409 227.594H138.52L207.933 157.822C210.301 155.456 211.632 152.247 211.633 148.901V98.9139C211.634 95.5682 212.965 92.3591 215.333 89.9926L218.316 87.0119L217.909 86.5209ZM79.2354 89.6423V52.8832L92.0675 40.0622H129.225C129.92 40.0609 130.6 40.266 131.178 40.6512C131.757 41.0365 132.208 41.5846 132.473 42.2263C132.74 42.8678 132.809 43.5739 132.673 44.2549C132.537 44.936 132.202 45.5615 131.71 46.052L85.2161 92.504C84.7254 92.9956 84.0994 93.3306 83.4177 93.4664C82.736 93.6022 82.0292 93.5326 81.3872 93.2665C80.7452 93.0005 80.1959 92.5499 79.8104 91.9726C79.425 91.3945 79.22 90.7155 79.2214 90.0205L79.2354 89.6423ZM79.2354 99.4613L86.3391 92.3563V146.32L79.2214 153.432L79.2354 99.4613ZM80.6392 192.82H49.2666C48.5715 192.822 47.8916 192.617 47.3133 192.231C46.7349 191.846 46.2841 191.298 46.0179 190.657C45.7517 190.015 45.6821 189.309 45.8181 188.628C45.954 187.947 46.2894 187.321 46.7816 186.831L80.3444 153.306C80.8351 152.814 81.4604 152.479 82.1414 152.343C82.8224 152.207 83.5286 152.276 84.1705 152.541C84.8125 152.806 85.3611 153.256 85.7473 153.832C86.1328 154.409 86.3391 155.087 86.3391 155.781V187.083L80.6392 192.82ZM176.617 187.315C176.617 187.873 176.394 188.407 176 188.802L172.602 192.203C172.207 192.598 171.672 192.82 171.113 192.82H120.934C120.239 192.822 119.56 192.617 118.981 192.231C118.402 191.846 117.951 191.298 117.685 190.657C117.419 190.015 117.35 189.309 117.486 188.628C117.622 187.947 117.957 187.321 118.449 186.831L170.629 134.705C171.12 134.216 171.746 133.883 172.427 133.749C173.107 133.614 173.812 133.684 174.452 133.95C175.093 134.215 175.641 134.664 176.026 135.241C176.412 135.818 176.617 136.495 176.617 137.188V187.315Z" fill="#FF98A3"/>
</svg>
