<svg width="300" height="300" viewBox="0 0 300 300" fill="none" xmlns="http://www.w3.org/2000/svg">
<rect width="300" height="300" fill="white"/>
<rect width="300" height="300" fill="white" fill-opacity="0.2"/>
<path d="M164.652 85.9408L133.409 85.8857L90.1172 200.597L118.376 200.646L125.441 181.21L168.068 181.282L160.009 159.76L131.947 159.71L149.419 110.35L183.326 200.758L211.586 200.807L164.652 85.9408Z" fill="black"/>
<path d="M273.476 116.501C273.397 116.113 273.28 115.733 273.128 115.367C273.085 115.242 273.031 115.121 272.968 115.006C272.432 113.901 271.595 112.97 270.553 112.321C269.506 111.666 268.296 111.317 267.062 111.313C265.368 111.304 263.74 111.967 262.535 113.156C261.697 113.986 261.116 115.039 260.861 116.19C260.606 117.341 260.687 118.541 261.096 119.646L261.077 119.653C264.104 129.681 265.72 140.081 265.879 150.554C266.361 180.928 254.748 209.466 233.184 230.906C211.617 252.348 182.676 264.124 151.694 264.072C120.714 264.018 91.3964 252.138 69.1507 230.623C46.9003 209.106 34.3846 180.528 33.903 150.154C33.4214 119.78 45.0358 91.2424 66.6018 69.8018C88.1667 48.36 117.11 36.5838 148.089 36.6377C175.754 36.6846 202.085 46.1686 223.245 63.5193C222.55 65.3208 222.21 67.2395 222.242 69.1701C222.377 77.7002 229.538 84.6236 238.241 84.6389C246.939 84.6541 253.884 77.7541 253.748 69.224C253.612 60.6939 246.449 53.767 237.751 53.7518C235.915 53.7443 234.092 54.0564 232.364 54.674C209.501 35.6135 179.98 24.0565 147.889 24.0002C76.7128 23.8772 19.9096 80.3475 21.0159 150.131C22.1221 219.914 80.7171 276.585 151.894 276.708C223.072 276.831 279.874 220.362 278.769 150.577C278.585 139.028 276.804 127.561 273.476 116.501Z" fill="black"/>
</svg>
