<svg xmlns="http://www.w3.org/2000/svg" width="1120" height="1120" preserveAspectRatio="none" style="display:block" viewBox="0 0 2048 2048.421"><path fill="#f8f8f8" d="M1153.982 625.89c11.72-23.541 17.425-30.246 29.695-53.657l49.69-95.696c13.61-25.807 27.05-53.875 42.27-78.569 14.42-23.38 61.14-18.654 85.26-18.498l63.75.055c48.6.006 105.83-1.464 153.42.211 1.54 16.189.83 40.942.48 57.65l-1.76 83.32c-.38 27.11-2.35 48.417 6.24 75.287 4.79 15.18 13.77 28.62 25.85 38.707 31.34 26.368 78.76 20.57 117.3 20.78 35.13.193 72.35-.227 107.42-1.974 3.46 18.125 2.51 33.363 2.48 51.704l-.12 57.63v207.344l4.013 226.532.16 73.138c.04 31 3.53 50.207-14.1 78.16-32.32 51.23-88.61 39.223-139.86 41.708-24.63 1.186-54.713 2.291-80.223 2.353l-308.14-1.3-84.21-.541c-9.27-.02-57.02.51-61.9-1.146-.43-8.05 48.16-89.543 55.13-103.033 17.24-33.342 36.66-69.251 54.75-102.195-14.53-21.948-26.78-47.691-39.94-70.652-11.7-20.414-23.32-40.819-34.38-61.611-5.22-9.83-12.61-21.744-16.52-32.115-3.835-9.794-6.533-20.129-2.823-26.792 33.935-59.961 59.566-117.543 80.482-154.608 25.93-47.776-108.845-187.079-94.414-212.191z" style="display:inline;stroke-width:1.01132" transform="matrix(1.1985 0 0 1.1985 -187.332 58.03)"/><path fill="#99a1a6" d="M1407.73 742.461c52.08-2.281 115.93-.473 168.23.035l184.37.346c.09 25.744 0 51.489-.28 77.232l-73.3.339c-11.14.434-22.84.553-34 .379-106.4-1.663-214.51 2.205-320.76-.369.35-26.346.65-51.254-.21-77.552 25.34-.211 50.57.388 75.95-.41zM1331.84 879.452l132.07.499c28.4-.057 58.38-1.218 86.35-.802 45.57.883 91.15 1.123 136.72.718 22.71-.087 51.36.555 73.44-1.079l-.04 79.226c-142.83.573-285.66.216-428.49-1.071.15-25.831.13-51.661-.05-77.491zM1592.01 1017.46l168.32-.25c1.16 23.86.32 53.65.27 77.95-49 1.34-98.02 1.94-147.05 1.8-35.72.3-71.45.04-107.16-.78l-173.55-.78c-.61-26.66-.11-51.17.23-77.79 86.18.27 172.75 2.49 258.94-.15z" style="display:inline" transform="matrix(1.1985 0 0 1.1985 -187.332 58.03)"/><path fill="#f8f8f8" d="M1628.34 394.42c4.69 1.822 9.69 7.062 13.26 10.522 29.41 28.517 57.18 59.072 85.98 88.248 12.52 12.686 99.23 96.161 102.73 103.825l-.77 1.698c-28.82 2.377-55.56 1.075-84.31.425-26.5-.475-51.98 1.124-78.35-2.468-48.16-6.558-40.29-52.6-40.69-88.762-.24-20.823.01-41.19-.13-61.907-.12-17.777-.58-34.006 2.28-51.581z" style="display:inline" transform="matrix(1.1985 0 0 1.1985 -187.332 58.03)"/><path fill="#00dc82" d="M1160.384 651.738 938.853 278.54c-10.33-17.725-22.923-36.4-40.809-46.633-17.886-10.234-37.648-11.662-58.297-11.662-20.65 0-40.413 1.428-58.298 11.662-17.884 10.232-36.31 28.908-46.638 46.633l-542.17 932.976c-10.336 17.72-11.65 37.826-11.66 58.298 0 20.473 1.34 40.584 11.66 58.316 10.321 17.726 28.755 30.578 46.638 40.817 17.883 10.24 37.648 17.493 58.298 17.493h408.084c161.701 0 279.393-72.55 361.447-209.915 0 0 134.7-239.182 184.505-336.194 13.928-27.13-3.575-55.674-91.229-188.594zM699.832 1199.85h-285.66l425.575-734.703 215.701 367.35-142.882 249.13c-54.49 89.126-116.613 118.223-212.734 118.223z" style="display:inline;stroke-width:5.83038" transform="matrix(1.1985 0 0 1.1985 -187.332 58.03)"/></svg>