<svg xmlns="http://www.w3.org/2000/svg" width="100" height="100" fill="none"><path fill="url(#a)" fill-rule="evenodd" d="M43.597 51.767a4.781 4.781 0 0 1-1.657 5.142c-8.214 6.356-12.04 17.362-8.787 27.85l.708 2.284c1.9 6.125 8.404 9.55 14.53 7.65L75.135 86.4c6.125-1.9 9.55-8.404 7.651-14.529l-.708-2.283c-3.188-10.28-12.263-17.123-22.388-17.95a4.78 4.78 0 0 1-2.537-8.546c8.214-6.356 12.039-17.362 8.786-27.85l-.708-2.284 4.567-1.416.708 2.283c3.219 10.38.595 21.178-6.006 28.85a30.277 30.277 0 0 1-4.421 4.198 30.3 30.3 0 0 1 5.996 1.106c9.474 2.755 17.428 10.063 20.57 20.193l.707 2.283c2.682 8.647-2.154 17.83-10.8 20.512L49.805 99.26c-8.646 2.682-17.83-2.154-20.511-10.8l-.708-2.284c-3.22-10.38-.596-21.178 6.006-28.85a30.277 30.277 0 0 1 4.42-4.198 30.3 30.3 0 0 1-5.995-1.106c-9.475-2.755-17.429-10.063-20.57-20.193l-.708-2.283c-2.682-8.647 2.154-17.83 10.8-20.512L49.288.74c8.647-2.682 17.83 2.154 20.512 10.8l-4.567 1.417c-1.9-6.125-8.404-9.55-14.529-7.65L23.957 13.6c-6.125 1.9-9.55 8.404-7.65 14.529l.707 2.283c3.189 10.28 12.264 17.123 22.389 17.95a4.781 4.781 0 0 1 4.194 3.404Z" clip-rule="evenodd"/><path fill="url(#b)" fill-rule="evenodd" d="M43.597 51.767a4.781 4.781 0 0 1-1.657 5.142c-8.214 6.356-12.04 17.362-8.787 27.85l.708 2.284c1.9 6.125 8.404 9.55 14.53 7.65L75.135 86.4c6.125-1.9 9.55-8.404 7.651-14.529l-.708-2.283c-3.188-10.28-12.263-17.123-22.388-17.95a4.78 4.78 0 0 1-2.537-8.546c8.214-6.356 12.039-17.362 8.786-27.85l-.708-2.284 4.567-1.416.708 2.283c3.219 10.38.595 21.178-6.006 28.85a30.277 30.277 0 0 1-4.421 4.198 30.3 30.3 0 0 1 5.996 1.106c9.474 2.755 17.428 10.063 20.57 20.193l.707 2.283c2.682 8.647-2.154 17.83-10.8 20.512L49.805 99.26c-8.646 2.682-17.83-2.154-20.511-10.8l-.708-2.284c-3.22-10.38-.596-21.178 6.006-28.85a30.277 30.277 0 0 1 4.42-4.198 30.3 30.3 0 0 1-5.995-1.106c-9.475-2.755-17.429-10.063-20.57-20.193l-.708-2.283c-2.682-8.647 2.154-17.83 10.8-20.512L49.288.74c8.647-2.682 17.83 2.154 20.512 10.8l-4.567 1.417c-1.9-6.125-8.404-9.55-14.529-7.65L23.957 13.6c-6.125 1.9-9.55 8.404-7.65 14.529l.707 2.283c3.189 10.28 12.264 17.123 22.389 17.95a4.781 4.781 0 0 1 4.194 3.404Z" clip-rule="evenodd"/><path fill="#DFDFDF" d="m19.922 29.743-.496-1.599h44.64A22.955 22.955 0 0 1 55.78 41.07a7.513 7.513 0 0 0-2.604 8.08c.326 1.1.709 2.216-.316 2.899 0 0-1.946.341-3.654.683-1.707.341-2.3 1.024-2.39.683-.09-.342-.212-1.981-.302-2.286a7.513 7.513 0 0 0-6.59-5.35c-9.051-.739-17.155-6.856-20.002-16.036ZM35.191 74.588a22.807 22.807 0 0 0 .87 9.502l.708 2.283a8.879 8.879 0 0 0 11.11 5.85l26.746-8.294a8.882 8.882 0 0 0 6.21-9.341H35.19Z"/><path fill="#DFDFDF" d="M53.255 49.855c.765 1.301-.053 3.2-1.826 4.243-1.773 1.042-3.508 1.51-4.272.209-.765-1.301-.407-3.056 1.366-4.099 1.773-1.042 3.968-1.653 4.732-.352Z"/><defs><linearGradient id="a" x1="35.588" x2="63.506" y1="4.988" y2="95.012" gradientUnits="userSpaceOnUse"><stop stop-color="#00DC82"/><stop offset="1" stop-color="#36E4DA"/></linearGradient><linearGradient id="b" x1="35.588" x2="63.506" y1="4.988" y2="95.012" gradientUnits="userSpaceOnUse"><stop stop-color="#00DC82"/><stop offset="1" stop-color="#36E4DA"/></linearGradient></defs></svg>