<?xml version="1.0" encoding="utf-8"?>
<!-- Generator: Adobe Illustrator 24.2.3, SVG Export Plug-In . SVG Version: 6.00 Build 0)  -->
<svg version="1.1" id="Capa_1" xmlns="http://www.w3.org/2000/svg" xmlns:xlink="http://www.w3.org/1999/xlink" x="0px" y="0px"
	 viewBox="0 0 595.28 595.28" style="enable-background:new 0 0 595.28 595.28;" xml:space="preserve">
<style type="text/css">
	.st0{fill:#EAEAEA;}
	.st1{fill:#9B9B9B;}
	.st2{fill:#7C7C7C;}
	.st3{fill:#C9C9C9;}
	.st4{fill:#128775;}
	.st5{fill:#40B289;}
	.st6{fill:#30495E;}
	.st7{fill:#232323;}
	.st8{fill:#D3D3D3;}
</style>
<g>
	<path class="st0" d="M87.9,59.56h419.47c15.66,0,28.35,12.69,28.35,28.35v419.47c0,15.66-12.69,28.35-28.35,28.35H87.9
		c-15.66,0-28.35-12.69-28.35-28.35V87.9C59.56,72.25,72.25,59.56,87.9,59.56z"/>
	<g>
		<path class="st1" d="M452.47,299.47c-1.2,0.5-2.39,1.04-3.59,1.04c-50.76,0.08-101.53,0.03-152.29,0.13
			c-4.07,0.01-5.4-1.55-5.33-5.41c0.15-9.01,0.05-18.03,0.05-27.29c-36.34,0-72.31,0-108.55,0c0,54.9,0,109.91,0,165.47
			c8.01,0,16.01,0,24.02,0c9.03,0,11.61,2.59,11.61,11.66c0,2.23-0.17,4.47,0.03,6.67c0.47,4.98-1.38,8.6-5.87,10.83
			c-31.37,0-62.75,0-94.12,0l73.15,73.15h321.05c12.52,0,22.68-10.15,22.68-22.68V382.29L452.47,299.47z"/>
		<polygon class="st2" points="453.81,160.38 535.6,242.17 535.72,382.71 452.47,299.47 424.48,229.06 		"/>
		<path class="st3" d="M215.68,435.58l99.9,99.9l-124.01,0.24l-73.15-73.15c39.65-3.66,62.33-3,76.22-0.84
			c3.49,0.54,12.5,2.12,17.43-2.94c4.98-5.11,3.31-14.42,2.08-19.23C214.67,438.24,215.18,436.91,215.68,435.58z"/>
		<g>
			<path class="st4" d="M377.24,210.87c0.15,0.26,0.29,0.53,0.44,0.79c0.15,0.26,0.31,0.52,0.52,0.75c0.89-1.53,1.79-3.06,2.68-4.6
				c1.06-1.82,2.1-3.65,3.16-5.47c0.09-0.15,0.14-0.32,0.29-0.42c0.02,0,0.04-0.01,0.06,0c0.02,0,0.03,0.01,0.04,0.03
				c0.07,0.1,0.14,0.2,0.2,0.3c12.76,22.08,25.51,44.16,38.28,66.25c-0.18,0.17-0.38,0.11-0.56,0.11c-0.24,0-0.48,0-0.72,0
				l6.21,6.21c1.81-1.43,2.99-3.62,3.04-6c0.03-1.59-0.4-3.05-1.19-4.42c-12.01-20.77-24.01-41.54-36.02-62.32
				c-0.84-1.45-1.66-2.9-2.51-4.33c-1.74-2.91-5.05-4.36-8.37-3.68c-2.33,0.48-4.09,1.78-5.29,3.82c-1.29,2.21-2.56,4.43-3.85,6.64
				c0.04,0.19,0.14,0.35,0.23,0.52C375,207,376.11,208.94,377.24,210.87z"/>
			<path class="st4" d="M415.61,268.62c-2.09,0-4.18,0-6.27,0v0c0.03,1.69-0.54,3.35-1.55,4.71c-0.25,0.34-0.53,0.66-0.84,0.96
				c-0.5,0.49-1.08,0.89-1.7,1.24c-0.52,0.29-1.07,0.54-1.66,0.71c-0.32,0.09-0.63,0.17-0.95,0.26c0.19,0.01,0.38,0.02,0.57,0.02
				c6.55,0,13.09,0,19.64,0c0.44,0,0.87-0.03,1.3-0.09c1.37-0.19,2.63-0.77,3.68-1.59l-6.21-6.21
				C419.62,268.62,417.62,268.62,415.61,268.62z"/>
			<path class="st5" d="M373.27,205.13c0.11-0.19,0.25-0.38,0.3-0.6c-0.09-0.15-0.19-0.29-0.28-0.44c-3.2-5.54-6.4-11.08-9.6-16.62
				c-1.16-2-2.31-4-3.47-6.01c-1.51-2.62-4.35-4.1-7.27-3.94v8.59c0.02-0.04,0.04-0.07,0.06-0.11c0.1-0.18,0.21-0.35,0.32-0.53
				c0.2,0.15,0.27,0.35,0.37,0.53c5,8.64,9.99,17.29,14.98,25.93c0.1,0.18,0.22,0.36,0.33,0.53c0.93-1.6,1.87-3.21,2.8-4.81
				C372.3,206.81,372.79,205.97,373.27,205.13z"/>
			<path class="st6" d="M373.61,220.44c0.07,0.13,0.15,0.25,0.22,0.38l21.64,21.64c-0.09-0.16-0.18-0.31-0.27-0.47
				c-2.25-3.9-4.51-7.8-6.76-11.7c-2.94-5.09-5.88-10.18-8.82-15.27c-0.41-0.71-0.82-1.42-1.23-2.12c-0.09-0.15-0.2-0.29-0.19-0.48
				c-0.2-0.23-0.37-0.48-0.52-0.75c-0.15-0.26-0.29-0.53-0.44-0.79c-1.13-1.93-2.24-3.88-3.37-5.81c-0.1-0.17-0.19-0.33-0.23-0.52
				l0,0v0c-0.02-0.03-0.04-0.03-0.07-0.01c-0.05,0.23-0.19,0.41-0.3,0.6c-0.48,0.84-0.97,1.68-1.46,2.52
				c-0.93,1.6-1.87,3.21-2.8,4.81c-0.26,0.63-0.64,1.19-0.98,1.78c-0.1,0.17-0.19,0.33-0.29,0.5l5.8,5.8
				C373.57,220.5,373.58,220.47,373.61,220.44z"/>
			<path class="st6" d="M344.02,276.34c0.09,0.01,0.18,0.03,0.27,0.05c0.09,0.02,0.17,0.05,0.25,0.11c0,0,0,0,0,0
				c0.5,0.07,1.01,0.01,1.51,0.02c18.72,0,37.45,0,56.17,0c0.14,0,0.28-0.01,0.42-0.02c0.32-0.09,0.63-0.17,0.95-0.26
				c0.6-0.17,1.14-0.42,1.66-0.71c0.62-0.35,1.2-0.75,1.7-1.24c0.31-0.3,0.59-0.62,0.84-0.96c1.01-1.36,1.58-3.02,1.55-4.71
				c0,0,0,0,0,0c-0.01-1.46-0.39-2.81-1.12-4.08c-1.8-3.1-3.58-6.21-5.38-9.31c-2.46-4.26-4.92-8.51-7.38-12.77l-21.64-21.64
				c9.22,15.96,18.38,31.81,27.54,47.68c-0.32,0.15-0.56,0.1-0.8,0.1c-11.74,0-23.48,0-35.21,0c-5.3,0-10.6,0-15.89,0
				c-0.34,0.23-0.71,0.46-1.1,0.69c-2.77,1.59-5.54,3.19-8.32,4.79c1.01,1.06,2.3,1.85,3.8,2.23
				C343.9,276.32,343.96,276.33,344.02,276.34z"/>
			<path class="st6" d="M352.95,240.36v15.8c0.01-0.02,0.03-0.05,0.04-0.07c2.81-4.87,5.62-9.74,8.44-14.6
				c2.79-4.82,5.58-9.64,8.36-14.46c1.11-1.93,2.23-3.86,3.34-5.79c0.11-0.2,0.24-0.41,0.41-0.7l-5.8-5.8
				c-4.84,8.38-9.68,16.76-14.52,25.14C353.14,240.04,353.04,240.2,352.95,240.36z"/>
			<path class="st6" d="M373.88,205.06c-0.1-0.17-0.19-0.33-0.23-0.52l0,0C373.68,204.73,373.78,204.89,373.88,205.06z"/>
			<path class="st6" d="M405.25,275.52c-0.52,0.29-1.07,0.54-1.66,0.71c-0.32,0.09-0.63,0.17-0.95,0.26
				c0.32-0.09,0.63-0.17,0.95-0.26C404.18,276.07,404.73,275.81,405.25,275.52z"/>
			<path class="st6" d="M409.34,268.62C409.34,268.62,409.34,268.62,409.34,268.62c0.03,1.69-0.54,3.35-1.55,4.71
				C408.81,271.97,409.37,270.31,409.34,268.62L409.34,268.62z"/>
			<path class="st7" d="M156.32,125.56c0-9.01,3.95-13.4,11.42-12.83c4.73,0.36,8.52,4.1,8.93,8.87c0.11,1.24,0.07,2.5,0.07,3.75
				c0,42.39,0,84.77,0,127.16l5.85-5.85c0-38.13,0-76.11,0-114.34c54.84,0,109.64,0,164.67,0c0,20.65,0,41.28,0,61.94l5.57,5.57
				c0.01-10.04,0.01-20.08,0.01-30.12c0-1.51,0-3.01,0-4.81c31.26,0,62.21,0,93.67,0c-0.43,1.37-0.76,2.75-1.28,4.06
				c-7.6,18.83-15.18,37.67-22.89,56.46c-1.24,3.02-1.23,5.68,0.02,8.73c7.9,19.31,15.63,38.69,23.42,58.04
				c0.12,0.3,0.23,0.6,0.35,0.95l6.33,6.33c0.44-0.19,0.89-0.37,1.33-0.51c0-1.11,0-2.23,0-3.34c-3.4-8.06-6.87-16.09-10.19-24.19
				c-5.24-12.76-10.45-25.53-15.48-38.38c-0.68-1.73-0.86-4.16-0.2-5.83c8.16-20.66,16.52-41.24,24.85-61.83
				c0.24-0.6,0.68-1.11,1.02-1.67c0-1.11,0-2.23,0-3.34c-2.11-0.47-4.22-1.35-6.33-1.36c-29.77-0.09-59.55-0.06-89.32-0.06
				c-1.63,0-3.26,0-5.3,0c0-9.48,0.01-18.48,0-27.49c-0.01-5.22-0.09-5.3-5.46-5.3c-53.15,0-106.29,0-159.44,0c-1.65,0-3.3,0-5.37,0
				c0.64-9.74-3.67-16.07-12.61-19.21c-2.23,0-4.45,0-6.68,0c-10.05,4.29-12.52,8.04-12.52,19.03c0,50.83,0,101.66,0,152.48
				l5.54-5.54C156.32,223.8,156.32,174.68,156.32,125.56z"/>
			<path class="st7" d="M114.88,462.57c1.18,0,2.37,0,3.55,0l-3.55-3.55C114.88,460.21,114.88,461.38,114.88,462.57z"/>
			<path class="st7" d="M218.43,451.74c-0.21-2.21-0.03-4.45-0.03-6.67c0-9.07-2.58-11.66-11.61-11.66c-8.01,0-16.02,0-24.02,0
				c0-55.56,0-110.57,0-165.47c36.23,0,72.2,0,108.55,0c0,9.27,0.1,18.28-0.05,27.29c-0.06,3.87,1.26,5.42,5.33,5.41
				c50.76-0.1,101.53-0.05,152.29-0.13c1.2,0,2.39-0.54,3.59-1.04l-6.33-6.33c0.14,0.38,0.28,0.8,0.47,1.33
				c-46.99,0-93.7,0-141.34,0c11.96-7.02,23.37-13.79,34.76-20.39c-0.01-0.01-0.01-0.01-0.02-0.02l9.31-5.46c0.04,0,0.09,0,0.13,0
				c2.46-1.69,3.52-3.65,3.5-7.1c-0.13-20.55-0.13-41.11-0.12-61.67l-5.57-5.57c0,22.47,0,44.97,0,67.55c-54.88,0-109.57,0-164.67,0
				c0-5.06,0-10.1,0-15.15l-5.85,5.85c0,58.74,0,117.48,0,176.21c0,1.37,0,2.75,0,4.47c-7.04,0-13.51,0-20.23,0
				c-0.07-1.56-0.19-2.91-0.19-4.26c-0.01-52,0-104,0-156l-5.54,5.54c0,49.76,0,99.52,0,149.27c0,1.77,0,3.53,0,5.67
				c-8.62,0-16.8,0.19-24.96-0.07c-4.96-0.16-8.56,1.52-10.94,5.86c0,6.59,0,13.19,0,19.83l3.55,3.55c31.37,0,62.75,0,94.12,0
				C217.05,460.33,218.89,456.72,218.43,451.74z M297.11,267.79c14.02,0,27.6,0,42.46,0c-14.66,8.6-28.32,16.61-42.46,24.9
				C297.11,284.1,297.11,276.15,297.11,267.79z M208.34,456.91c-13.89-0.12-27.79-0.05-41.68-0.05c-13.75,0-27.51-0.09-41.26,0.06
				c-3.54,0.04-5.17-0.93-4.85-4.7c0.26-3.04,0.17-6.11,0.03-9.16c-0.13-2.87,1-3.99,3.9-3.91c5.41,0.15,10.84,0.04,16.25,0.04
				c22.23,0,44.46,0.08,66.69-0.08c3.91-0.03,5.69,0.98,5.28,5.12c-0.27,2.75-0.2,5.56-0.01,8.33
				C212.92,455.84,211.59,456.94,208.34,456.91z"/>
			<path class="st7" d="M349.46,268.59c-0.04,0-0.09,0-0.13,0l-9.31,5.46c0.01,0.01,0.01,0.01,0.02,0.02
				c2.77-1.61,5.54-3.21,8.32-4.79C348.75,269.06,349.12,268.83,349.46,268.59z"/>
			<path class="st6" d="M277.05,155.38c-5.22,13.96-10.19,28.01-15.23,42.03c-4.77,13.24-9.6,26.46-14.2,39.77
				c-0.42,1.22,0.71,2.98,1.13,4.49c1.31-0.84,2.69-1.6,3.9-2.57c0.47-0.38,0.56-1.23,0.8-1.88c8.82-24.39,17.63-48.78,26.44-73.18
				c1.03-2.85,2.01-5.73,3.21-9.19c-0.62-0.79-1.38-1.77-2.13-2.74C279.62,153.18,277.56,153.99,277.05,155.38z"/>
			<path class="st5" d="M221.08,194.39c6.07-5.98,11.82-11.41,17.22-17.17c1.07-1.14,0.83-3.51,1.19-5.31
				c-1.66,0.39-3.83,0.24-4.9,1.25c-6.25,5.9-12.17,12.15-18.37,18.11c-2.56,2.46-2.18,4.32,0.14,6.59
				c2.53,2.48,5.04,4.98,7.55,7.48l4.08-4.08C225.74,199.01,223.44,196.75,221.08,194.39z"/>
			<path class="st5" d="M234.36,215.77c1.52,1.51,3.5,3.26,5.16,1.02c0.69-0.93-0.24-3.97-1.37-5.18c-3.26-3.5-6.65-6.9-10.15-10.36
				l-4.08,4.08C227.4,208.81,230.87,212.3,234.36,215.77z"/>
			<path class="st4" d="M291.62,177.23c5.67,5.69,11.36,11.35,17.31,17.29c-6.02,6-11.81,11.76-17.58,17.54
				c-1.4,1.4-3.03,2.82-0.91,4.85c2.11,2.02,3.49,0.28,4.86-1.09c6.01-5.98,11.92-12.06,18.03-17.93c2.61-2.51,2.6-4.41,0.02-6.91
				c-6-5.79-11.82-11.76-17.73-17.64c-1.48-1.48-3.04-3.38-5.23-1.3C288.11,174.23,290.17,175.77,291.62,177.23z"/>
		</g>
		<path class="st8" d="M208.58,437.56"/>
	</g>
</g>
</svg>
