<svg width="240" height="240" viewBox="0 0 240 240" fill="none" xmlns="http://www.w3.org/2000/svg">
<path d="M120 127.5C131.48 127.5 142.78 128.3 153.83 129.87C164.2 131.33 172.49 139.53 172.49 150C172.49 187.28 148.99 217.5 119.99 217.5C90.99 217.5 67.5 187.28 67.5 150C67.5 139.54 75.8 131.33 86.16 129.87C97.3707 128.29 108.678 127.498 120 127.5ZM120 127.5C148.83 127.5 176.47 132.58 202.07 141.9C200.863 162.513 196.991 182.882 190.55 202.5M120 127.5C91.17 127.5 63.53 132.58 37.92 141.9C39.17 162.94 43.12 183.26 49.45 202.5M120 127.5C123.043 127.501 126.054 126.884 128.851 125.688C131.649 124.491 134.175 122.74 136.276 120.54C138.378 118.339 140.011 115.735 141.077 112.886C142.143 110.036 142.621 107 142.48 103.96M120 127.5C116.957 127.501 113.946 126.884 111.149 125.688C108.351 124.491 105.825 122.74 103.724 120.54C101.623 118.339 99.9894 115.735 98.923 112.886C97.8567 110.036 97.3794 107 97.52 103.96M142.48 103.96C142.213 98.1784 139.727 92.7221 135.54 88.7254C131.354 84.7287 125.788 82.4992 120 82.5002M142.48 103.96C160.239 102.315 177.769 98.6859 194.72 93.1402C194.17 81.8702 192.85 70.8002 190.8 60.0002M97.52 103.96C97.7876 98.1784 100.273 92.7221 104.46 88.7254C108.646 84.7287 114.212 82.4992 120 82.5002M97.52 103.96C79.45 102.28 61.97 98.6002 45.29 93.1402C45.8277 82.0161 47.1376 70.9428 49.21 60.0002M120 82.5002C129.95 82.5002 139.71 81.7002 149.22 80.1402C153.25 79.4802 156.62 76.5602 157.17 72.5202C158.194 64.7882 156.801 56.9286 153.18 50.0202M120 82.5002C110.05 82.5002 100.3 81.7002 90.78 80.1402C86.76 79.4802 83.38 76.5602 82.83 72.5202C81.7727 64.7767 83.1718 56.8966 86.83 49.9902M86.83 49.9902C82.5706 47.1537 78.6894 43.7967 75.28 39.9802C75.98 33.6802 77.98 27.7602 81.02 22.5102M86.83 49.9902C90.0135 43.9496 94.7857 38.9029 100.632 35.3754C106.478 31.8479 113.177 29.9836 120.005 29.9836C126.833 29.9836 133.532 31.8479 139.378 35.3754C145.224 38.9029 149.997 43.9596 153.18 50.0002C157.45 47.1702 161.33 43.8002 164.73 40.0102C164.052 33.8341 162.093 27.8673 158.98 22.4902" stroke="#00DC82" stroke-width="12" stroke-linecap="round" stroke-linejoin="round"/>
</svg>
