<svg version="1.2" xmlns="http://www.w3.org/2000/svg" viewBox="0 0 97 97" width="64" height="64">
    <path d="M97 48.5C97 75.2858 75.2858 97 48.5 97C21.7142 97 0 75.2858 0 48.5C0 21.7142 21.7142 0 48.5 0C58.9632 0 68.6525 3.31332 76.576 8.94799C76.4 8.82279 76.223 8.69874 76.0452 8.57584L55.3752 29.2458C53.2267 28.4786 50.9122 28.0607 48.5 28.0607C37.2117 28.0607 28.0607 37.2117 28.0607 48.5C28.0607 59.7883 37.2117 68.9393 48.5 68.9393C59.7883 68.9393 68.9393 59.7883 68.9393 48.5C68.9393 46.0158 68.4961 43.6352 67.6845 41.4328L88.317 20.8003C93.7904 28.6534 97 38.2019 97 48.5Z" fill="#00DD82"/>
</svg>
