<svg width="512" height="512" viewBox="0 0 512 512" fill="none" xmlns="http://www.w3.org/2000/svg">
<g clip-path="url(#clip0_7_17)">
<path d="M286.226 418.585L224.946 357.229L356.614 224.233L419.014 286.623L286.226 418.585Z" fill="#8AB4F8"/>
<path d="M286.686 154.345L224.257 91.9262L91.9283 224.233C87.8325 228.327 84.5834 233.189 82.3667 238.539C80.15 243.889 79.0091 249.623 79.0091 255.414C79.0091 261.205 80.15 266.939 82.3667 272.289C84.5834 277.639 87.8325 282.5 91.9283 286.595L224.257 418.901L285.479 357.43L185.5 255.514L286.686 154.345Z" fill="#4285F4"/>
<path d="M419.014 224.233L286.686 91.9262C278.411 83.6489 267.186 78.9973 255.481 78.9946C243.776 78.9919 232.55 83.6384 224.271 91.9118C215.992 100.185 211.34 111.408 211.337 123.111C211.335 134.814 215.982 146.039 224.257 154.317L356.671 286.623C364.987 294.698 376.146 299.177 387.738 299.092C399.329 299.008 410.422 294.366 418.619 286.171C426.816 277.975 431.458 266.884 431.543 255.295C431.627 243.705 427.148 232.547 419.072 224.233H419.014Z" fill="#8AB4F8"/>
<path d="M298.724 388.252C298.724 379.598 296.157 371.139 291.348 363.944C286.538 356.749 279.703 351.142 271.706 347.831C263.709 344.521 254.91 343.656 246.422 345.347C237.933 347.037 230.137 351.207 224.019 357.328C217.901 363.449 213.736 371.247 212.051 379.735C210.366 388.223 211.236 397.02 214.552 405.014C217.868 413.007 223.481 419.837 230.68 424.641C237.88 429.445 246.342 432.006 254.997 432C260.742 432 266.43 430.868 271.737 428.669C277.044 426.47 281.866 423.248 285.927 419.185C289.987 415.122 293.208 410.299 295.403 404.991C297.599 399.684 298.727 393.996 298.724 388.252Z" fill="#246FDB"/>
</g>
<defs>
<clipPath id="clip0_7_17">
<rect width="353" height="353" fill="white" transform="translate(79 79)"/>
</clipPath>
</defs>
</svg>
