<?xml version="1.0" encoding="utf-8" ?>
<svg xmlns="http://www.w3.org/2000/svg" xmlns:xlink="http://www.w3.org/1999/xlink" width="1024" height="512">
	<path fill="#00DC82" transform="scale(0.5 0.5)" d="M569.13 810.33C580.723 802.61 595.167 797.226 607.876 791.439C629.534 781.577 651.065 771.785 672.052 760.536C678.861 756.886 706.898 738.996 710.92 738.516C715.594 739.504 719.433 746.053 721.93 749.933C723.623 752.563 725.196 755.476 724.838 758.693C720.765 763.632 695.396 770.339 688.528 772.821C659.195 783.427 630.501 795.521 601.53 807.046C593.073 810.41 579.639 817.529 571.253 818.672C552.884 828.217 521.001 838.486 500.474 844.835C521.739 831.914 546.33 820.407 569.13 810.33Z"/>
	<path fill="#00DC82" transform="scale(0.5 0.5)" d="M1531.01 158.64C1528.08 162.717 1480.58 184.545 1473.42 186.024C1473.22 186.065 1473.02 186.087 1472.82 186.119C1472.04 187.443 1470.48 188.346 1469.12 189.016C1427.54 209.463 1385.24 228.969 1343.21 248.507C1328.44 255.372 1311.43 265.735 1296.25 270.326C1296.21 270.15 1296.2 269.967 1296.14 269.798C1294.44 265.161 1281.56 255.37 1277.12 253.333C1290.69 250.781 1331.85 232.237 1347.69 225.941C1386.1 210.671 1425.08 196.426 1463.87 182.122C1486.02 174.413 1509.48 167.717 1531.01 158.64Z"/>
	<path fill="#00DC82" transform="scale(0.5 0.5)" d="M1131.55 296.488L1133.6 297.648C1135.33 304.782 1131.47 315.092 1128.67 321.755C1122.47 336.506 1112.69 349.38 1099.49 358.535C1053.43 390.493 1007.95 359.419 962.74 378.043C948.94 383.728 936.478 394.39 930.867 408.52C926.505 419.502 934.196 423.517 937.914 432.441C939.447 436.119 940.006 440.823 938.415 444.569C937.296 447.202 935.121 449.22 932.465 450.259C927.538 452.187 923.383 450.713 918.784 448.692C916.145 446.112 913.556 443.478 911.62 440.315C904.65 428.927 904.957 415.216 907.976 402.65C911.137 389.492 919.297 377.946 929.124 368.857C981.814 320.123 1045.61 372.939 1098.65 340.087C1113.37 330.968 1127.54 313.479 1131.55 296.488Z"/>
	<path fill="#00DC82" transform="scale(0.5 0.5)" d="M998.842 547.193C1001.58 547.487 1004.51 547.868 1006.9 549.33C1016.98 555.491 1024 572.566 1026.7 583.728C1030.98 601.458 1028.72 619.655 1019.15 635.281C995.941 673.177 946.168 684.143 905.297 673.322C885.239 668.01 864.073 649.923 842.79 655.258C834.745 657.275 828.641 662.293 824.477 669.392C811.58 691.377 819.461 718.167 825.329 740.966C821.866 735.583 818.356 730.203 815.591 724.419C804.892 702.039 804.215 678.072 812.382 654.81C815.83 646.779 821.805 640.256 829.213 635.657C863.316 614.488 907.264 643.845 932.709 627.29C952.232 614.588 937.764 595.439 941.3 578.896C941.827 578.18 942.455 576.855 943.372 576.725C944.895 576.508 948.192 577.733 949.383 578.681C953.846 582.237 955.584 597.88 955.734 603.567C956.019 614.341 953.209 625.001 945.51 632.852C934.383 644.197 918.774 645.643 903.817 645.745Q907.124 647.177 910.502 648.435Q912.288 649.064 914.102 649.604Q915.916 650.145 917.754 650.596Q919.592 651.048 921.451 651.409Q923.309 651.77 925.182 652.04Q927.056 652.31 928.941 652.488Q930.825 652.666 932.716 652.752Q934.607 652.838 936.5 652.832Q938.393 652.825 940.284 652.726Q942.174 652.627 944.057 652.436Q945.941 652.245 947.812 651.962Q949.684 651.679 951.54 651.305Q953.395 650.931 955.23 650.467Q957.065 650.002 958.876 649.449Q960.686 648.896 962.467 648.255Q964.248 647.614 965.996 646.887Q967.744 646.16 969.454 645.348C983.004 638.894 995.346 627.678 1000.35 613.246C1007.47 592.731 999.405 583.287 991.442 565.694C989.819 562.106 988.739 557.355 990.351 553.566C992.007 549.673 995.173 548.506 998.842 547.193Z"/>
	<path fill="#00DC82" transform="scale(0.5 0.5)" d="M1002.99 170.582Q1008 170.294 1013.01 170.148Q1018.02 170.003 1023.03 169.999Q1028.05 169.996 1033.06 170.136Q1038.07 170.275 1043.08 170.557Q1048.08 170.839 1053.08 171.263Q1058.07 171.687 1063.06 172.254Q1068.04 172.82 1073 173.527Q1077.97 174.235 1082.91 175.083Q1087.85 175.931 1092.76 176.92Q1097.68 177.908 1102.57 179.036Q1107.45 180.164 1112.3 181.431Q1117.15 182.697 1121.97 184.101Q1126.78 185.505 1131.55 187.045Q1136.32 188.585 1141.05 190.26Q1145.77 191.935 1150.45 193.744Q1155.13 195.553 1159.75 197.494C1204.84 216.506 1242.99 245.434 1276.87 280.308C1281.91 285.494 1291.82 294.047 1294.51 300.669C1294.96 306.368 1294.25 309.897 1290.9 314.573C1285.44 317.321 1277.77 317.978 1271.78 319.057C1271.45 317.019 1270.04 315.383 1268.79 313.831C1214.35 246.317 1135.65 208.821 1050.36 199.851C1050.6 200.057 1050.84 200.254 1051.06 200.471C1054.36 203.654 1055.22 210.547 1055.3 214.852C1056.29 265.744 979.063 318.048 940.28 343.201C912.566 361.175 879.654 377.989 856.504 401.732C846.908 411.573 840.783 423.183 841.116 437.253C841.476 452.474 848.58 466 859.447 476.283C857.88 477.857 856.248 479.67 854.45 480.97C852.753 482.198 851.035 482.13 849.09 481.811C844.059 480.986 840.11 477.778 837.247 473.699C828.896 461.805 825.886 443.829 828.261 429.651C834.884 390.127 889.504 361.377 920.827 341.283Q944.049 326.335 966.525 310.288C988.029 294.497 1009.94 277.362 1026.84 256.548C1035.63 245.723 1045.28 229.563 1043.56 215.029C1043.01 210.387 1040.9 206.319 1037.09 203.523C1024.78 194.465 994.212 199.771 979.744 201.957C866.381 219.091 772.656 282.873 720.465 386.028C707.372 411.905 696.414 440.156 690.76 468.688Q688.694 479.601 687.415 490.634Q686.136 501.668 685.65 512.764C685.239 521.646 685.531 530.798 684.337 539.603C683.938 542.54 683.339 545.771 681.403 548.128C679.082 550.952 675.433 552.434 671.856 552.717C667.42 553.069 662.871 551.765 659.517 548.783C656.095 545.74 654.532 541.248 654.315 536.755C653.861 527.375 655.691 516.948 656.505 507.535C663.101 431.312 694.646 355.357 745.42 297.942C812.088 222.556 902.058 176.764 1002.99 170.582Z"/>
	<path fill="#00DC82" transform="scale(0.5 0.5)" d="M1350.79 418.498C1352.9 418.079 1354.77 417.944 1356.91 418.021C1357.5 418.619 1358.05 419.254 1358.48 419.973C1362.79 427.062 1364.79 438.435 1366.93 446.517C1382.01 503.496 1377.21 563.187 1361.94 619.56Q1360.86 623.68 1359.68 627.771Q1358.5 631.863 1357.22 635.923Q1355.93 639.984 1354.55 644.012Q1353.17 648.04 1351.69 652.032Q1350.2 656.024 1348.62 659.978Q1347.04 663.932 1345.36 667.846Q1343.68 671.759 1341.91 675.63Q1340.13 679.5 1338.26 683.326Q1336.39 687.151 1334.42 690.928Q1332.45 694.706 1330.39 698.433Q1328.34 702.161 1326.18 705.836Q1324.03 709.511 1321.79 713.132Q1319.55 716.752 1317.22 720.316Q1314.89 723.88 1312.47 727.385Q1310.05 730.889 1307.54 734.333Q1305.04 737.776 1302.45 741.156Q1299.86 744.536 1297.18 747.851Q1294.51 751.166 1291.75 754.413Q1289 757.66 1286.16 760.838Q1283.33 764.016 1280.41 767.122Q1277.5 770.228 1274.51 773.261Q1271.52 776.294 1268.46 779.252Q1265.39 782.21 1262.26 785.09Q1259.12 787.971 1255.91 790.773Q1252.71 793.575 1249.43 796.296Q1246.16 799.017 1242.81 801.656Q1239.47 804.295 1236.07 806.85Q1232.66 809.405 1229.19 811.875Q1225.72 814.345 1222.19 816.727Q1218.66 819.11 1215.07 821.404Q1211.48 823.698 1207.84 825.903Q1204.2 828.107 1200.5 830.22C1118.57 877.113 1015.7 892.076 924.478 867.14C847.31 846.046 779.832 797.993 730.426 735.634C720.577 723.204 710.402 709.971 702.603 696.156C700.203 691.905 697.306 685.823 698.963 680.835C699.87 678.102 701.984 676.769 704.393 675.467C711.05 671.869 716.394 673.343 723.219 675.368C730.482 687.754 738.092 699.734 746.632 711.279C803.995 788.833 879.069 832.963 974.205 847.198C940.971 755.243 1167.4 693.688 1195.2 615.382C1198.47 606.199 1200.25 594.905 1195.82 585.826Q1195.57 585.296 1195.29 584.779Q1195.01 584.262 1194.7 583.76Q1194.4 583.257 1194.07 582.77Q1193.74 582.284 1193.39 581.814Q1193.04 581.344 1192.66 580.892Q1192.29 580.44 1191.89 580.007Q1191.49 579.574 1191.07 579.161Q1190.66 578.748 1190.22 578.357Q1189.78 577.965 1189.32 577.596Q1188.87 577.226 1188.39 576.88Q1187.92 576.534 1187.43 576.211Q1186.93 575.888 1186.43 575.59Q1185.92 575.292 1185.4 575.02Q1184.88 574.747 1184.35 574.501Q1183.81 574.254 1183.27 574.034Q1182.73 573.815 1182.17 573.622C1176.57 571.725 1170.85 572.188 1165.56 574.802C1151.36 581.825 1151.61 601.816 1147.14 615.139C1144.12 624.136 1138.35 634.953 1129.35 639.21C1129.14 639.31 1128.93 639.404 1128.71 639.501C1128.58 639.753 1128.48 640.025 1128.31 640.256C1125.41 644.197 1116.84 647.736 1112.15 648.636Q1111.17 648.817 1110.18 648.95Q1109.19 649.083 1108.19 649.167Q1107.2 649.251 1106.2 649.287Q1105.2 649.322 1104.2 649.309Q1103.2 649.295 1102.21 649.233Q1101.21 649.171 1100.22 649.06Q1099.22 648.949 1098.24 648.79Q1097.25 648.63 1096.27 648.423Q1095.3 648.215 1094.33 647.96Q1093.36 647.705 1092.41 647.403Q1091.46 647.101 1090.52 646.753Q1089.59 646.405 1088.67 646.011Q1087.75 645.618 1086.85 645.18Q1085.96 644.742 1085.08 644.26Q1084.21 643.779 1083.35 643.255Q1082.5 642.732 1081.68 642.167C1069.98 634.242 1062.1 620.881 1059.64 607.078C1055.87 585.88 1063.27 566.112 1075.33 548.889C1097.27 517.555 1136.56 492.387 1174.31 485.941C1195.69 482.289 1218.87 485.313 1236.77 498.183C1247.24 505.708 1257.02 518.201 1258.93 531.136C1260.04 538.624 1259.31 546.654 1254.81 552.878C1255.04 551.889 1255.22 550.901 1255.22 549.881C1255.32 538.802 1243.82 520.374 1236.25 512.64C1224.25 500.399 1208.4 495.939 1191.73 495.907C1158.58 495.843 1122.14 515.992 1099.26 539.008C1084.54 553.819 1069.57 574.562 1069.91 596.39C1070.08 607.983 1076.41 622.611 1084.94 630.573C1090.05 635.351 1096.17 637.67 1103.15 637.441C1144.24 636.101 1133.23 588.563 1151.3 569.916C1157.07 563.962 1165.33 561.217 1173.5 561.106C1183.07 560.976 1193.84 564.581 1200.68 571.462C1207.78 578.607 1210.47 589.653 1210.22 599.447C1209.73 618.558 1199.52 636.416 1186.97 650.274C1166.97 672.363 1139.01 689.536 1114.11 705.632C1077.93 729.023 1039.28 752.501 1008.03 782.387C995.897 793.99 981.893 810.829 981.682 828.504C981.62 833.668 983.028 840.322 986.866 844.051C994.203 851.18 1009.38 850.345 1018.9 850.217C1106.29 849.042 1192.36 815.761 1253.75 752.772Q1256.59 749.86 1259.36 746.88Q1262.13 743.9 1264.83 740.852Q1267.53 737.805 1270.15 734.693Q1272.77 731.58 1275.32 728.404Q1277.86 725.229 1280.33 721.992Q1282.79 718.755 1285.18 715.458Q1287.56 712.162 1289.87 708.808Q1292.17 705.455 1294.4 702.045Q1296.62 698.636 1298.76 695.173Q1300.89 691.711 1302.95 688.197Q1305 684.683 1306.96 681.12Q1308.93 677.557 1310.81 673.947Q1312.69 670.337 1314.48 666.682Q1316.26 663.027 1317.96 659.329Q1319.66 655.631 1321.27 651.893Q1322.88 648.155 1324.39 644.379Q1325.91 640.602 1327.33 636.79Q1328.76 632.978 1330.09 629.131Q1331.42 625.285 1332.65 621.408Q1333.89 617.53 1335.03 613.624Q1336.16 609.717 1337.21 605.784Q1338.25 601.851 1339.2 597.893Q1340.15 593.936 1341 589.956Q1341.85 585.976 1342.6 581.977Q1343.35 577.978 1344 573.961Q1344.66 569.945 1345.21 565.914Q1345.77 561.882 1346.23 557.839Q1346.68 553.795 1347.04 549.741Q1347.4 545.688 1347.66 541.627Q1347.91 537.566 1348.07 533.499Q1348.23 529.433 1348.29 525.364Q1348.35 521.295 1348.31 517.226C1348.11 502.264 1341.38 434.533 1331.08 424.513C1337.69 422.912 1344.38 420.783 1350.79 418.498Z"/>
	<path fill="#00DC82" transform="scale(0.5 0.5)" d="M1489.17 284.5C1518.92 283.38 1549.57 282.983 1577.9 293.445C1597.95 300.85 1614.99 313.154 1624.07 332.956C1635.3 357.459 1631.09 392.087 1621.9 416.598C1612.73 441.049 1596.51 464.914 1571.96 476.094C1572.04 476.352 1572.12 476.606 1572.19 476.867C1573.54 482.542 1564.71 497.123 1561.88 502.011C1532.06 553.596 1475.94 584.693 1423.72 609.412C1406.27 617.673 1388.26 626.348 1369.55 631.393C1370.78 629.826 1371.55 628.469 1372.15 626.561C1385.35 584.522 1390.34 535.893 1387.39 492.005C1386.94 485.392 1387.09 476.425 1384.05 470.592C1397.66 468.351 1412.51 460.959 1425.08 455.182C1455.07 441.411 1485.51 423.909 1509.68 401.286C1513.02 398.164 1518 394.377 1519.61 390.029C1519.47 389.932 1519.34 389.826 1519.2 389.74C1507.53 382.871 1484.36 383.948 1471.38 384.437C1377.73 387.967 1279.93 424.584 1192.96 457.048Q1061.56 507.233 932.621 563.455C868.914 591.289 805.726 620.394 741.416 646.852Q702.313 663.209 662.231 676.998Q622.15 690.786 581.259 701.948C552.452 709.431 520.722 714.309 491.022 712.238C468.527 710.67 446.192 705.82 430.836 688.082C417.983 673.234 413.106 654.862 414.596 635.468C417.597 596.394 439.293 564.125 468.384 539.333C470.374 531.4 472.95 523.595 476.605 516.265C483.424 502.588 493.396 490.417 504.35 479.845C544.318 441.275 627.939 391.792 681.148 374.008C651.776 420.916 638.321 487.818 639.463 542.262C610.403 549.417 563.45 575.767 545.592 600.645C580.474 595.515 615.122 583.572 648.478 572.31Q719.888 548.328 789.834 520.363C912.53 472.364 1033.96 421.137 1157.86 376.198C1178.01 368.888 1198.41 362.456 1218.67 355.481C1278.63 334.843 1339.66 312.52 1401.53 298.496C1430.63 291.899 1459.53 287.704 1489.17 284.5Z"/>
</svg>
