<svg width="256" height="256" viewBox="0 0 256 256" fill="none" xmlns="http://www.w3.org/2000/svg">
<rect width="256" height="256" fill="#001E26"/>
<path d="M118.236 109.387C119.501 107.191 122.663 107.191 123.929 109.387L141.719 140.277C142.984 142.473 141.403 145.219 138.872 145.219H103.292C100.762 145.219 99.1802 142.473 100.445 140.277L118.236 109.387Z" fill="#80EEC0"/>
<path d="M131.14 115.655C132.395 113.43 135.534 113.43 136.79 115.655L151.091 140.995C152.347 143.219 150.777 146 148.266 146H119.663C117.152 146 115.583 143.219 116.838 140.995L131.14 115.655Z" fill="#001E26"/>
<path d="M136.19 116.348C137.476 114.24 140.606 114.24 141.892 116.348L156.528 140.333C157.843 142.488 156.25 145.219 153.677 145.219H124.404C121.832 145.219 120.238 142.488 121.553 140.333L136.19 116.348Z" fill="#00DC82"/>
<path d="M69.1678 171.636V192H65.449L56.5897 179.183H56.4405V192H52.1351V171.636H55.9135L64.7033 184.443H64.8823V171.636H69.1678ZM82.4395 185.497V176.727H86.6752V192H82.6085V189.226H82.4494C82.1047 190.121 81.5313 190.84 80.7292 191.384C79.9338 191.927 78.9627 192.199 77.8159 192.199C76.795 192.199 75.8968 191.967 75.1213 191.503C74.3457 191.039 73.7392 190.379 73.3017 189.524C72.8708 188.669 72.652 187.645 72.6454 186.452V176.727H76.8812V185.696C76.8878 186.598 77.1298 187.31 77.6071 187.834C78.0843 188.357 78.724 188.619 79.5261 188.619C80.0365 188.619 80.5138 188.503 80.9579 188.271C81.402 188.033 81.76 187.681 82.0318 187.217C82.3102 186.753 82.4461 186.18 82.4395 185.497ZM93.6032 176.727L96.4071 182.067L99.2807 176.727H103.626L99.2012 184.364L103.745 192H99.4199L96.4071 186.72L93.4441 192H89.0691L93.6032 184.364L89.2282 176.727H93.6032ZM114.265 176.727V179.909H105.068V176.727H114.265ZM107.156 173.068H111.392V187.307C111.392 187.698 111.451 188.003 111.57 188.222C111.69 188.434 111.856 188.583 112.068 188.669C112.286 188.755 112.538 188.798 112.823 188.798C113.022 188.798 113.221 188.782 113.42 188.749C113.619 188.709 113.771 188.679 113.877 188.659L114.544 191.811C114.331 191.877 114.033 191.954 113.649 192.04C113.264 192.133 112.797 192.189 112.247 192.209C111.226 192.249 110.331 192.113 109.562 191.801C108.8 191.49 108.206 191.006 107.782 190.349C107.358 189.693 107.149 188.865 107.156 187.864V173.068ZM152.514 171.636V192H148.278V171.636H152.514ZM162.808 192.298C161.263 192.298 159.927 191.97 158.801 191.314C157.68 190.651 156.815 189.73 156.205 188.55C155.596 187.363 155.291 185.988 155.291 184.423C155.291 182.846 155.596 181.467 156.205 180.287C156.815 179.1 157.68 178.179 158.801 177.523C159.927 176.86 161.263 176.528 162.808 176.528C164.352 176.528 165.685 176.86 166.805 177.523C167.932 178.179 168.8 179.1 169.41 180.287C170.02 181.467 170.325 182.846 170.325 184.423C170.325 185.988 170.02 187.363 169.41 188.55C168.8 189.73 167.932 190.651 166.805 191.314C165.685 191.97 164.352 192.298 162.808 192.298ZM162.828 189.017C163.53 189.017 164.117 188.818 164.588 188.42C165.058 188.016 165.413 187.466 165.651 186.77C165.897 186.074 166.019 185.282 166.019 184.393C166.019 183.505 165.897 182.713 165.651 182.017C165.413 181.321 165.058 180.771 164.588 180.366C164.117 179.962 163.53 179.76 162.828 179.76C162.118 179.76 161.522 179.962 161.038 180.366C160.561 180.771 160.199 181.321 159.954 182.017C159.715 182.713 159.596 183.505 159.596 184.393C159.596 185.282 159.715 186.074 159.954 186.77C160.199 187.466 160.561 188.016 161.038 188.42C161.522 188.818 162.118 189.017 162.828 189.017ZM181.203 176.727V179.909H172.005V176.727H181.203ZM174.093 173.068H178.329V187.307C178.329 187.698 178.389 188.003 178.508 188.222C178.627 188.434 178.793 188.583 179.005 188.669C179.224 188.755 179.476 188.798 179.761 188.798C179.96 188.798 180.159 188.782 180.357 188.749C180.556 188.709 180.709 188.679 180.815 188.659L181.481 191.811C181.269 191.877 180.971 191.954 180.586 192.04C180.202 192.133 179.734 192.189 179.184 192.209C178.163 192.249 177.268 192.113 176.499 191.801C175.737 191.49 175.144 191.006 174.72 190.349C174.295 189.693 174.087 188.865 174.093 187.864V173.068ZM188.526 171.636V192H184.29V171.636H188.526ZM194.534 197.727C193.997 197.727 193.493 197.684 193.023 197.598C192.559 197.518 192.174 197.416 191.869 197.29L192.824 194.128C193.321 194.28 193.768 194.363 194.166 194.376C194.57 194.39 194.918 194.297 195.21 194.098C195.508 193.899 195.75 193.561 195.936 193.084L196.184 192.438L190.706 176.727H195.16L198.322 187.943H198.481L201.673 176.727H206.157L200.221 193.651C199.936 194.473 199.549 195.188 199.058 195.798C198.574 196.415 197.961 196.889 197.219 197.22C196.476 197.558 195.581 197.727 194.534 197.727Z" fill="white"/>
<path d="M126.54 180.138V183.499H117.253V180.138H126.54ZM130.229 192V171.636H138.263C139.807 171.636 141.123 171.931 142.21 172.521C143.298 173.105 144.126 173.917 144.696 174.957C145.273 175.991 145.561 177.185 145.561 178.537C145.561 179.889 145.27 181.082 144.686 182.116C144.103 183.151 143.258 183.956 142.151 184.533C141.05 185.109 139.718 185.398 138.154 185.398H133.033V181.947H137.458C138.286 181.947 138.969 181.805 139.506 181.52C140.049 181.228 140.454 180.827 140.719 180.317C140.991 179.8 141.127 179.206 141.127 178.537C141.127 177.861 140.991 177.271 140.719 176.767C140.454 176.257 140.049 175.862 139.506 175.584C138.962 175.299 138.273 175.156 137.438 175.156H134.534V192H130.229Z" fill="#00DC82"/>
<circle cx="92" cy="78" r="6" fill="#D6386E"/>
<circle cx="92" cy="54" r="6" fill="#D6386E"/>
<circle cx="116" cy="54" r="6" fill="#D27098"/>
<circle cx="140" cy="54" r="6" fill="#AD9EC2"/>
<circle cx="140" cy="78" r="6" fill="#AD9EC2"/>
<circle cx="164" cy="54" r="6" fill="#25FEFD"/>
<rect x="86" y="97" width="12" height="37" rx="6" fill="white"/>
<rect x="110" y="72" width="12" height="62" rx="6" fill="white"/>
<rect x="134" y="97" width="12" height="37" rx="6" fill="white"/>
<rect x="158" y="72" width="12" height="62" rx="6" fill="white"/>
<path d="M73.416 199.408H75.768C76.4027 199.408 76.9093 199.576 77.288 199.912C77.6667 200.243 77.856 200.704 77.856 201.296C77.856 201.904 77.6667 202.371 77.288 202.696C76.9147 203.021 76.408 203.184 75.768 203.184H74.632V205H73.416V199.408ZM75.592 202.168C76.28 202.168 76.624 201.877 76.624 201.296C76.624 200.971 76.5307 200.744 76.344 200.616C76.1627 200.488 75.912 200.424 75.592 200.424H74.632V202.168H75.592ZM80.1305 205.12C79.6665 205.12 79.2585 205.037 78.9065 204.872C78.5598 204.701 78.2905 204.464 78.0985 204.16C77.9118 203.851 77.8185 203.491 77.8185 203.08C77.8185 202.68 77.9118 202.325 78.0985 202.016C78.2905 201.707 78.5598 201.467 78.9065 201.296C79.2585 201.125 79.6665 201.04 80.1305 201.04C80.5892 201.04 80.9918 201.125 81.3385 201.296C81.6905 201.467 81.9598 201.707 82.1465 202.016C82.3385 202.325 82.4345 202.68 82.4345 203.08C82.4345 203.491 82.3385 203.851 82.1465 204.16C81.9598 204.464 81.6932 204.701 81.3465 204.872C80.9998 205.037 80.5945 205.12 80.1305 205.12ZM80.1305 204.176C80.4558 204.176 80.7145 204.077 80.9065 203.88C81.0985 203.677 81.1945 203.411 81.1945 203.08C81.1945 202.739 81.0985 202.472 80.9065 202.28C80.7198 202.083 80.4612 201.984 80.1305 201.984C79.7998 201.984 79.5385 202.083 79.3465 202.28C79.1545 202.472 79.0585 202.739 79.0585 203.08C79.0585 203.411 79.1545 203.677 79.3465 203.88C79.5438 204.077 79.8052 204.176 80.1305 204.176ZM82.4279 201.16H83.6359L84.3399 203.56L85.0279 201.16H86.0359L86.7319 203.56L87.4279 201.16H88.6359L87.3639 205H86.2679L85.5319 202.616L84.7959 205H83.6999L82.4279 201.16ZM91.5224 205.12C90.7864 205.12 90.2078 204.944 89.7864 204.592C89.3651 204.235 89.1544 203.736 89.1544 203.096C89.1544 202.461 89.3411 201.96 89.7144 201.592C90.0931 201.224 90.6318 201.04 91.3304 201.04C91.7891 201.04 92.1784 201.125 92.4984 201.296C92.8184 201.467 93.0611 201.704 93.2264 202.008C93.3918 202.307 93.4744 202.645 93.4744 203.024V203.512H90.3064C90.3918 204.003 90.8504 204.248 91.6824 204.248C91.9278 204.248 92.1811 204.227 92.4424 204.184C92.7038 204.141 92.9304 204.083 93.1224 204.008V204.856C92.9358 204.936 92.6958 205 92.4024 205.048C92.1091 205.096 91.8158 205.12 91.5224 205.12ZM92.3304 202.728C92.3144 202.472 92.2184 202.275 92.0424 202.136C91.8664 201.992 91.6238 201.92 91.3144 201.92C91.0104 201.92 90.7704 201.992 90.5944 202.136C90.4184 202.28 90.3224 202.477 90.3064 202.728H92.3304ZM94.1426 201.16H95.3106V201.712C95.4652 201.525 95.6812 201.384 95.9586 201.288C96.2359 201.187 96.5506 201.136 96.9026 201.136V202.056C96.5346 202.056 96.2092 202.112 95.9266 202.224C95.6492 202.336 95.4572 202.507 95.3506 202.736V205H94.1426V201.16ZM99.624 205.12C98.888 205.12 98.3093 204.944 97.888 204.592C97.4667 204.235 97.256 203.736 97.256 203.096C97.256 202.461 97.4427 201.96 97.816 201.592C98.1947 201.224 98.7333 201.04 99.432 201.04C99.8907 201.04 100.28 201.125 100.6 201.296C100.92 201.467 101.163 201.704 101.328 202.008C101.493 202.307 101.576 202.645 101.576 203.024V203.512H98.408C98.4933 204.003 98.952 204.248 99.784 204.248C100.029 204.248 100.283 204.227 100.544 204.184C100.805 204.141 101.032 204.083 101.224 204.008V204.856C101.037 204.936 100.797 205 100.504 205.048C100.211 205.096 99.9173 205.12 99.624 205.12ZM100.432 202.728C100.416 202.472 100.32 202.275 100.144 202.136C99.968 201.992 99.7253 201.92 99.416 201.92C99.112 201.92 98.872 201.992 98.696 202.136C98.52 202.28 98.424 202.477 98.408 202.728H100.432ZM104.116 205.12C103.721 205.12 103.369 205.037 103.06 204.872C102.756 204.701 102.516 204.464 102.34 204.16C102.169 203.851 102.084 203.493 102.084 203.088C102.084 202.688 102.169 202.333 102.34 202.024C102.511 201.715 102.751 201.475 103.06 201.304C103.369 201.128 103.721 201.04 104.116 201.04C104.404 201.04 104.668 201.08 104.908 201.16C105.148 201.24 105.351 201.355 105.516 201.504V199.088H106.724V205H105.556V204.584C105.359 204.771 105.143 204.907 104.908 204.992C104.679 205.077 104.415 205.12 104.116 205.12ZM104.428 204.184C104.679 204.184 104.9 204.117 105.092 203.984C105.289 203.851 105.431 203.672 105.516 203.448V202.72C105.441 202.501 105.303 202.325 105.1 202.192C104.903 202.053 104.679 201.984 104.428 201.984C104.103 201.984 103.836 202.085 103.628 202.288C103.425 202.491 103.324 202.757 103.324 203.088C103.324 203.419 103.425 203.685 103.628 203.888C103.836 204.085 104.103 204.184 104.428 204.184ZM112.969 205.12C112.671 205.12 112.404 205.077 112.169 204.992C111.94 204.907 111.727 204.771 111.529 204.584V205H110.361V199.088H111.569V201.504C111.74 201.355 111.948 201.24 112.193 201.16C112.439 201.08 112.697 201.04 112.969 201.04C113.369 201.04 113.721 201.128 114.025 201.304C114.335 201.475 114.575 201.715 114.745 202.024C114.916 202.333 115.001 202.688 115.001 203.088C115.001 203.493 114.916 203.851 114.745 204.16C114.575 204.464 114.335 204.701 114.025 204.872C113.721 205.037 113.369 205.12 112.969 205.12ZM112.665 204.184C112.991 204.184 113.255 204.085 113.457 203.888C113.665 203.685 113.769 203.419 113.769 203.088C113.769 202.757 113.665 202.491 113.457 202.288C113.255 202.085 112.991 201.984 112.665 201.984C112.415 201.984 112.188 202.053 111.985 202.192C111.788 202.325 111.649 202.501 111.569 202.72V203.448C111.655 203.672 111.796 203.851 111.993 203.984C112.191 204.117 112.415 204.184 112.665 204.184ZM116.214 206.584C116.054 206.584 115.889 206.573 115.718 206.552C115.553 206.531 115.428 206.501 115.342 206.464V205.56C115.497 205.619 115.668 205.648 115.854 205.648C116.046 205.648 116.19 205.605 116.286 205.52C116.388 205.435 116.47 205.301 116.534 205.12L116.662 204.792L114.998 201.16H116.214L117.302 203.808L118.334 201.16H119.542L117.91 205.264C117.729 205.717 117.505 206.051 117.238 206.264C116.972 206.477 116.63 206.584 116.214 206.584Z" fill="white" fill-opacity="0.4"/>
<path d="M130.651 200.828C131.023 200.458 131.023 199.857 130.651 199.486C130.279 199.116 129.675 199.116 129.303 199.486L127.281 201.499C126.908 201.87 126.908 202.471 127.28 202.842C127.653 203.212 128.256 203.212 128.629 202.841L130.651 200.828Z" fill="url(#paint0_linear_6_11)"/>
<path d="M138.225 206.106C138.038 206.106 137.857 206.051 137.702 205.948C137.547 205.845 137.426 205.699 137.355 205.528C137.284 205.357 137.265 205.168 137.302 204.987C137.338 204.805 137.427 204.638 137.559 204.507L138.476 203.594C138.872 203.182 139.09 202.633 139.083 202.063C139.077 201.494 138.847 200.949 138.442 200.546C138.038 200.143 137.491 199.914 136.918 199.907C136.346 199.901 135.794 200.118 135.38 200.511L130.952 204.919C130.188 205.679 129.153 206.106 128.072 206.106C126.992 206.106 125.957 205.679 125.193 204.919C124.429 204.159 124 203.128 124 202.053C124 200.978 124.429 199.947 125.193 199.187L126.099 198.285C126.276 198.109 126.515 198.01 126.765 198.01C127.014 198.01 127.254 198.109 127.43 198.285C127.607 198.46 127.706 198.699 127.706 198.947C127.706 199.196 127.607 199.434 127.43 199.61L126.523 200.511C126.118 200.921 125.892 201.474 125.895 202.049C125.897 202.624 126.128 203.174 126.536 203.581C126.945 203.987 127.498 204.217 128.076 204.219C128.653 204.222 129.208 203.997 129.62 203.594L134.049 199.187C134.813 198.427 135.849 198 136.928 198C138.008 198 139.044 198.427 139.808 199.187C140.571 199.947 141 200.978 141 202.053C141 203.128 140.571 204.159 139.807 204.919L138.889 205.832C138.802 205.919 138.699 205.988 138.585 206.035C138.47 206.082 138.348 206.106 138.225 206.106Z" fill="url(#paint1_linear_6_11)"/>
<path d="M134.344 203.284C133.972 203.654 133.972 204.255 134.344 204.626C134.716 204.997 135.32 204.996 135.692 204.626L137.715 202.613C138.087 202.242 138.087 201.641 137.715 201.271C137.342 200.9 136.739 200.9 136.366 201.271L134.344 203.284Z" fill="url(#paint2_linear_6_11)"/>
<path d="M147.096 205.12C146.755 205.12 146.416 205.088 146.08 205.024C145.744 204.96 145.469 204.875 145.256 204.768V203.696C145.539 203.835 145.832 203.939 146.136 204.008C146.44 204.077 146.731 204.112 147.008 204.112C147.317 204.112 147.552 204.059 147.712 203.952C147.872 203.845 147.952 203.696 147.952 203.504C147.952 203.365 147.912 203.248 147.832 203.152C147.752 203.056 147.635 202.971 147.48 202.896C147.331 202.816 147.099 202.712 146.784 202.584C146.261 202.371 145.883 202.133 145.648 201.872C145.413 201.605 145.296 201.277 145.296 200.888C145.296 200.573 145.381 200.296 145.552 200.056C145.723 199.811 145.963 199.621 146.272 199.488C146.581 199.355 146.939 199.288 147.344 199.288C147.675 199.288 147.968 199.315 148.224 199.368C148.48 199.421 148.731 199.504 148.976 199.616V200.656C148.507 200.421 148.037 200.304 147.568 200.304C147.269 200.304 147.035 200.357 146.864 200.464C146.693 200.565 146.608 200.712 146.608 200.904C146.608 201.043 146.648 201.157 146.728 201.248C146.808 201.339 146.92 201.419 147.064 201.488C147.208 201.557 147.443 201.659 147.768 201.792C148.147 201.952 148.443 202.107 148.656 202.256C148.869 202.4 149.027 202.573 149.128 202.776C149.229 202.973 149.28 203.219 149.28 203.512C149.28 204.019 149.096 204.413 148.728 204.696C148.365 204.979 147.821 205.12 147.096 205.12ZM151.374 205.12C150.851 205.12 150.459 204.979 150.198 204.696C149.936 204.408 149.806 204.027 149.806 203.552V201.16H151.014V203.424C151.014 203.925 151.246 204.176 151.71 204.176C151.912 204.176 152.102 204.128 152.278 204.032C152.454 203.936 152.6 203.792 152.718 203.6V201.16H153.926V205H152.758V204.536C152.587 204.733 152.379 204.88 152.134 204.976C151.894 205.072 151.64 205.12 151.374 205.12ZM154.768 201.16H155.936V201.584C156.325 201.221 156.805 201.04 157.376 201.04C157.776 201.04 158.128 201.125 158.432 201.296C158.741 201.461 158.981 201.699 159.152 202.008C159.322 202.312 159.408 202.667 159.408 203.072C159.408 203.472 159.322 203.827 159.152 204.136C158.981 204.445 158.741 204.688 158.432 204.864C158.128 205.035 157.776 205.12 157.376 205.12C157.104 205.12 156.845 205.08 156.6 205C156.354 204.92 156.146 204.805 155.976 204.656V206.752H154.768V201.16ZM157.072 204.176C157.397 204.176 157.661 204.075 157.864 203.872C158.072 203.669 158.176 203.403 158.176 203.072C158.176 202.741 158.072 202.477 157.864 202.28C157.661 202.083 157.397 201.984 157.072 201.984C156.821 201.984 156.597 202.051 156.4 202.184C156.202 202.317 156.061 202.493 155.976 202.712V203.44C156.056 203.664 156.194 203.843 156.392 203.976C156.594 204.109 156.821 204.176 157.072 204.176ZM162.296 205.12C161.56 205.12 160.981 204.944 160.56 204.592C160.139 204.235 159.928 203.736 159.928 203.096C159.928 202.461 160.115 201.96 160.488 201.592C160.867 201.224 161.405 201.04 162.104 201.04C162.563 201.04 162.952 201.125 163.272 201.296C163.592 201.467 163.835 201.704 164 202.008C164.165 202.307 164.248 202.645 164.248 203.024V203.512H161.08C161.165 204.003 161.624 204.248 162.456 204.248C162.701 204.248 162.955 204.227 163.216 204.184C163.477 204.141 163.704 204.083 163.896 204.008V204.856C163.709 204.936 163.469 205 163.176 205.048C162.883 205.096 162.589 205.12 162.296 205.12ZM163.104 202.728C163.088 202.472 162.992 202.275 162.816 202.136C162.64 201.992 162.397 201.92 162.088 201.92C161.784 201.92 161.544 201.992 161.368 202.136C161.192 202.28 161.096 202.477 161.08 202.728H163.104ZM164.916 201.16H166.084V201.712C166.239 201.525 166.455 201.384 166.732 201.288C167.009 201.187 167.324 201.136 167.676 201.136V202.056C167.308 202.056 166.983 202.112 166.7 202.224C166.423 202.336 166.231 202.507 166.124 202.736V205H164.916V201.16ZM169.944 205.12C169.55 205.12 169.198 205.037 168.888 204.872C168.584 204.701 168.344 204.464 168.168 204.16C167.998 203.851 167.912 203.493 167.912 203.088C167.912 202.688 167.998 202.333 168.168 202.024C168.339 201.715 168.579 201.475 168.888 201.304C169.198 201.128 169.55 201.04 169.944 201.04C170.232 201.04 170.496 201.08 170.736 201.16C170.976 201.24 171.179 201.355 171.344 201.504V199.088H172.552V205H171.384V204.584C171.187 204.771 170.971 204.907 170.736 204.992C170.507 205.077 170.243 205.12 169.944 205.12ZM170.256 204.184C170.507 204.184 170.728 204.117 170.92 203.984C171.118 203.851 171.259 203.672 171.344 203.448V202.72C171.27 202.501 171.131 202.325 170.928 202.192C170.731 202.053 170.507 201.984 170.256 201.984C169.931 201.984 169.664 202.085 169.456 202.288C169.254 202.491 169.152 202.757 169.152 203.088C169.152 203.419 169.254 203.685 169.456 203.888C169.664 204.085 169.931 204.184 170.256 204.184ZM175.601 205.12C174.865 205.12 174.286 204.944 173.865 204.592C173.443 204.235 173.233 203.736 173.233 203.096C173.233 202.461 173.419 201.96 173.793 201.592C174.171 201.224 174.71 201.04 175.409 201.04C175.867 201.04 176.257 201.125 176.577 201.296C176.897 201.467 177.139 201.704 177.305 202.008C177.47 202.307 177.553 202.645 177.553 203.024V203.512H174.385C174.47 204.003 174.929 204.248 175.761 204.248C176.006 204.248 176.259 204.227 176.521 204.184C176.782 204.141 177.009 204.083 177.201 204.008V204.856C177.014 204.936 176.774 205 176.481 205.048C176.187 205.096 175.894 205.12 175.601 205.12ZM176.409 202.728C176.393 202.472 176.297 202.275 176.121 202.136C175.945 201.992 175.702 201.92 175.393 201.92C175.089 201.92 174.849 201.992 174.673 202.136C174.497 202.28 174.401 202.477 174.385 202.728H176.409ZM178.125 201.16H179.141L180.181 203.816L181.221 201.16H182.237L180.653 205H179.709L178.125 201.16Z" fill="white"/>
<defs>
<linearGradient id="paint0_linear_6_11" x1="130.652" y1="199.487" x2="127.296" y2="202.858" gradientUnits="userSpaceOnUse">
<stop stop-color="#DD6C43"/>
<stop offset="1" stop-color="#E04040"/>
</linearGradient>
<linearGradient id="paint1_linear_6_11" x1="137.593" y1="196.984" x2="127.454" y2="207.17" gradientUnits="userSpaceOnUse">
<stop stop-color="#DD6C43"/>
<stop offset="1" stop-color="#E04040"/>
</linearGradient>
<linearGradient id="paint2_linear_6_11" x1="137.715" y1="201.27" x2="134.36" y2="204.641" gradientUnits="userSpaceOnUse">
<stop stop-color="#DD6C43"/>
<stop offset="1" stop-color="#E04040"/>
</linearGradient>
</defs>
</svg>
