<svg color="#bfdbfe" xmlns="http://www.w3.org/2000/svg" width="150" height="150" viewBox="0 0 32 32"><path fill="currentColor" d="M24 14a5.99 5.99 0 0 0-4.885 9.471L14 28.586L15.414 30l5.115-5.115A5.997 5.997 0 1 0 24 14zm0 10a4 4 0 1 1 4-4a4.005 4.005 0 0 1-4 4zm-7-12a3 3 0 1 0-3-3a3.003 3.003 0 0 0 3 3zm0-4a1 1 0 1 1-1 1a1 1 0 0 1 1-1z"/><path fill="currentColor" d="M12 24H4v-6.003L9 13l5.586 5.586L16 17.168l-5.586-5.585a2 2 0 0 0-2.828 0L4 15.168V4h20v6h2V4a2.002 2.002 0 0 0-2-2H4a2.002 2.002 0 0 0-2 2v20a2.002 2.002 0 0 0 2 2h8Z"/></svg>
