<svg xmlns="http://www.w3.org/2000/svg" xml:space="preserve" style="fill-rule:evenodd;clip-rule:evenodd;stroke-linejoin:round;stroke-miterlimit:2" viewBox="0 0 220 255"><path d="M488.25 279.64c0 119.9-23.44 149.73-130.01 149.73-106.58 0-129.49-29.84-129.49-149.73 0-120.43 22.91-150.27 129.49-150.27 106.56 0 130.01 29.84 130.01 150.27m-195.02 0c0 75.13 7.99 93.79 65.01 93.79 57.01 0 65-18.66 65-93.79 0-75.66-8-94.31-65-94.31-57.02 0-65.01 18.65-65.01 94.31" style="fill:#32b8c6;fill-rule:nonzero" transform="translate(-193.79 -109.599)scale(.84717)"/><path d="M487.49 311.47c.49-9.87.76-20.36.76-31.83 0-120.43-23.44-150.27-130.02-150.27-1.11 0-22.59 0-38.61 1.84-11.26 17.04-18.64 73.83-23.05 94.32 1-6.19 4.3-15.26 6.57-19.41 4.98-9.12 11.74-13.44 20.01-16.4 13.95-4.99 29.63-4.4 35.09-4.4 57.02 0 65.01 18.65 65.01 94.31" style="fill:url(#a);fill-rule:nonzero" transform="translate(-193.79 -109.599)scale(.84717)"/><defs><linearGradient id="a" x1="0" x2="1" y1="0" y2="0" gradientTransform="rotate(45 .738 451.211)scale(246.16)" gradientUnits="userSpaceOnUse"><stop offset="0" style="stop-color:#018da0;stop-opacity:1"/><stop offset=".14" style="stop-color:#018da0;stop-opacity:1"/><stop offset=".77" style="stop-color:#32b8c6;stop-opacity:1"/><stop offset="1" style="stop-color:#32b8c6;stop-opacity:1"/></linearGradient></defs></svg>