<?xml version="1.0" encoding="UTF-8" ?>
<!DOCTYPE svg PUBLIC "-//W3C//DTD SVG 1.1//EN" "http://www.w3.org/Graphics/SVG/1.1/DTD/svg11.dtd">
<svg width="180pt" height="180pt" viewBox="0 0 180 180" version="1.1" xmlns="http://www.w3.org/2000/svg">
<g id="#0a0a0aff">
<path fill="#0a0a0a" opacity="1.00" d=" M 0.00 0.00 L 180.00 0.00 L 180.00 180.00 L 0.00 180.00 L 0.00 0.00 M 43.33 23.20 C 34.39 25.22 26.81 32.14 23.91 40.83 C 22.14 45.68 22.51 50.93 22.49 56.00 C 22.55 81.00 22.48 106.01 22.52 131.02 C 22.44 144.68 34.30 157.08 47.99 157.44 C 73.99 157.59 99.99 157.41 126.00 157.52 C 130.64 157.56 135.43 157.60 139.81 155.84 C 150.05 152.22 157.49 141.91 157.48 131.01 C 157.49 117.01 157.52 102.99 157.46 88.99 C 157.43 80.79 152.85 73.43 146.92 68.09 C 134.36 55.64 121.92 43.09 109.40 30.61 C 104.33 25.48 97.25 22.40 90.00 22.51 C 78.00 22.47 66.00 22.57 54.00 22.48 C 50.44 22.49 46.82 22.38 43.33 23.20 Z" />
</g>
<g id="#ffffffff">
<path fill="#ffffff" opacity="1.00" d=" M 43.33 23.20 C 46.82 22.38 50.44 22.49 54.00 22.48 C 66.00 22.57 78.00 22.47 90.00 22.51 C 97.25 22.40 104.33 25.48 109.40 30.61 C 121.92 43.09 134.36 55.64 146.92 68.09 C 152.85 73.43 157.43 80.79 157.46 88.99 C 157.52 102.99 157.49 117.01 157.48 131.01 C 157.49 141.91 150.05 152.22 139.81 155.84 C 135.43 157.60 130.64 157.56 126.00 157.52 C 99.99 157.41 73.99 157.59 47.99 157.44 C 34.30 157.08 22.44 144.68 22.52 131.02 C 22.48 106.01 22.55 81.00 22.49 56.00 C 22.51 50.93 22.14 45.68 23.91 40.83 C 26.81 32.14 34.39 25.22 43.33 23.20 Z" />
</g>
</svg>
