<svg width="37" height="36" viewBox="0 0 37 36" fill="none" xmlns="http://www.w3.org/2000/svg">
<mask id="path-1-inside-1_8066_4481" fill="white">
<path d="M2.27393 18C1.16936 18 0.262436 18.8982 0.384912 19.9959C0.703326 22.8498 1.70134 25.5965 3.30747 28.0003C5.28534 30.9603 8.09655 33.2675 11.3856 34.6298C14.6747 35.9922 18.2939 36.3487 21.7856 35.6541C25.2772 34.9596 28.4845 33.2453 31.0018 30.7279C33.5192 28.2106 35.2335 25.0033 35.9281 21.5116C36.6226 18.02 36.2661 14.4008 34.9038 11.1117C33.5414 7.82263 31.2343 5.01141 28.2742 3.03355C25.8704 1.42742 23.1238 0.429401 20.2698 0.110987C19.1721 -0.01149 18.2739 0.895431 18.2739 2L18.2739 6.15279C18.2739 7.25736 19.1784 8.13238 20.2602 8.3552C21.4988 8.61028 22.6829 9.10286 23.7447 9.81234C25.3641 10.8944 26.6263 12.4323 27.3716 14.2316C28.1169 16.031 28.3119 18.0109 27.9319 19.9211C27.552 21.8313 26.6141 23.5859 25.237 24.963C23.8598 26.3402 22.1052 27.278 20.195 27.658C18.2848 28.038 16.3049 27.8429 14.5056 27.0976C12.7062 26.3523 11.1683 25.0902 10.0863 23.4708C9.37679 22.409 8.88421 21.2249 8.62912 19.9863C8.40631 18.9044 7.53128 18 6.42671 18L2.27393 18Z"/>
</mask>
<path d="M2.27393 18C1.16936 18 0.262436 18.8982 0.384912 19.9959C0.703326 22.8498 1.70134 25.5965 3.30747 28.0003C5.28534 30.9603 8.09655 33.2675 11.3856 34.6298C14.6747 35.9922 18.2939 36.3487 21.7856 35.6541C25.2772 34.9596 28.4845 33.2453 31.0018 30.7279C33.5192 28.2106 35.2335 25.0033 35.9281 21.5116C36.6226 18.02 36.2661 14.4008 34.9038 11.1117C33.5414 7.82263 31.2343 5.01141 28.2742 3.03355C25.8704 1.42742 23.1238 0.429401 20.2698 0.110987C19.1721 -0.01149 18.2739 0.895431 18.2739 2L18.2739 6.15279C18.2739 7.25736 19.1784 8.13238 20.2602 8.3552C21.4988 8.61028 22.6829 9.10286 23.7447 9.81234C25.3641 10.8944 26.6263 12.4323 27.3716 14.2316C28.1169 16.031 28.3119 18.0109 27.9319 19.9211C27.552 21.8313 26.6141 23.5859 25.237 24.963C23.8598 26.3402 22.1052 27.278 20.195 27.658C18.2848 28.038 16.3049 27.8429 14.5056 27.0976C12.7062 26.3523 11.1683 25.0902 10.0863 23.4708C9.37679 22.409 8.88421 21.2249 8.62912 19.9863C8.40631 18.9044 7.53128 18 6.42671 18L2.27393 18Z" fill="url(#paint0_linear_8066_4481)" stroke="#1B1B1B" stroke-width="4" mask="url(#path-1-inside-1_8066_4481)"/>
<rect x="1.27393" y="1" width="15.28" height="6.1" rx="1" fill="url(#paint1_linear_8066_4481)" stroke="#1B1B1B" stroke-width="2"/>
<rect x="1.27393" y="10" width="9.88" height="6.1" rx="1" fill="url(#paint2_linear_8066_4481)" stroke="#1B1B1B" stroke-width="2"/>
<defs>
<linearGradient id="paint0_linear_8066_4481" x1="18.2739" y1="0" x2="18.2739" y2="36" gradientUnits="userSpaceOnUse">
<stop stop-color="#1C1C1C"/>
<stop offset="1" stop-color="#828282"/>
</linearGradient>
<linearGradient id="paint1_linear_8066_4481" x1="0.273926" y1="4.05" x2="17.5539" y2="4.05" gradientUnits="userSpaceOnUse">
<stop stop-color="#DD2D88"/>
<stop offset="1" stop-color="#EE76B4"/>
</linearGradient>
<linearGradient id="paint2_linear_8066_4481" x1="0.273926" y1="13.05" x2="12.1539" y2="13.05" gradientUnits="userSpaceOnUse">
<stop stop-color="#3074F3"/>
<stop offset="1" stop-color="#9ABDFF"/>
</linearGradient>
</defs>
</svg>
