<svg width="518" height="395" viewBox="0 0 518 395" fill="none" xmlns="http://www.w3.org/2000/svg">
<g filter="url(#filter0_ddd_563_6)">
<path d="M451.669 308.118C451.669 308.662 451.321 311.058 446.264 315.006C441.362 318.834 433.437 322.95 422.122 326.961C399.586 334.949 366.926 341.363 328.072 345.174C289.324 348.976 246.612 349.975 205.393 348.033C164.138 346.09 126.504 341.3 97.2283 334.366C82.5861 330.898 70.5891 327.024 61.4185 322.961C52.0487 318.809 46.4876 314.831 43.7856 311.613C42.5177 310.104 42.1536 309.086 42.0493 308.579C41.9648 308.169 41.9603 307.71 42.2679 306.97C43.0578 305.071 45.8648 301.588 53.3171 297.327C67.9577 288.956 94.0239 281.23 129.042 275.688C163.769 270.193 204.774 267.236 246.835 267.236" stroke="url(#paint0_angular_563_6)" stroke-width="20"/>
</g>
<g clip-path="url(#clip0_563_6)">
<g filter="url(#filter1_i_563_6)">
<path d="M468.136 272.813L463.024 301.423L441.553 281.293L398.611 148.284C408.024 147.041 416.941 143.899 425.044 139.08L468.136 272.813ZM431.715 86.9343C429.796 97.672 423.691 107.208 414.742 113.444C405.792 119.68 394.732 122.106 383.995 120.187L378.057 119.126L274.209 251.394L247.096 262.844L252.208 234.233L356.581 101.363C344.702 82.111 350.632 56.7106 370.043 44.7205C378.488 39.5447 388.61 37.4538 398.462 39.214L403.285 12.2229C406.864 12.8624 410.042 14.8976 412.121 17.8807C414.2 20.8637 415.008 24.5504 414.369 28.1297L411.524 44.0544C426.705 52.616 434.777 69.7949 431.715 86.9343ZM404.724 82.1118C405.363 78.5326 404.555 74.8459 402.476 71.8628C400.397 68.8797 397.219 66.8445 393.64 66.205C390.06 65.5655 386.374 66.3741 383.391 68.4528C380.407 70.5315 378.372 73.7101 377.733 77.2893C377.093 80.8686 377.902 84.5553 379.981 87.5384C382.059 90.5215 385.238 92.5566 388.817 93.1961C392.396 93.8356 396.083 93.0271 399.066 90.9483C402.049 88.8696 404.084 85.691 404.724 82.1118Z" fill="url(#paint1_diamond_563_6)"/>
</g>
</g>
<defs>
<filter id="filter0_ddd_563_6" x="-9.15527e-05" y="229.236" width="493.669" height="165.764" filterUnits="userSpaceOnUse" color-interpolation-filters="sRGB">
<feFlood flood-opacity="0" result="BackgroundImageFix"/>
<feColorMatrix in="SourceAlpha" type="matrix" values="0 0 0 0 0 0 0 0 0 0 0 0 0 0 0 0 0 0 127 0" result="hardAlpha"/>
<feOffset dy="3.62319"/>
<feGaussianBlur stdDeviation="7.24638"/>
<feComposite in2="hardAlpha" operator="out"/>
<feColorMatrix type="matrix" values="0 0 0 0 1 0 0 0 0 0.667391 0 0 0 0 0.3625 0 0 0 0.75 0"/>
<feBlend mode="normal" in2="BackgroundImageFix" result="effect1_dropShadow_563_6"/>
<feColorMatrix in="SourceAlpha" type="matrix" values="0 0 0 0 0 0 0 0 0 0 0 0 0 0 0 0 0 0 127 0" result="hardAlpha"/>
<feOffset dy="4"/>
<feGaussianBlur stdDeviation="16"/>
<feComposite in2="hardAlpha" operator="out"/>
<feColorMatrix type="matrix" values="0 0 0 0 1 0 0 0 0 0.854792 0 0 0 0 0.4875 0 0 0 0.25 0"/>
<feBlend mode="normal" in2="effect1_dropShadow_563_6" result="effect2_dropShadow_563_6"/>
<feColorMatrix in="SourceAlpha" type="matrix" values="0 0 0 0 0 0 0 0 0 0 0 0 0 0 0 0 0 0 127 0" result="hardAlpha"/>
<feOffset dy="4"/>
<feGaussianBlur stdDeviation="2"/>
<feComposite in2="hardAlpha" operator="out"/>
<feColorMatrix type="matrix" values="0 0 0 0 0 0 0 0 0 0 0 0 0 0 0 0 0 0 0.25 0"/>
<feBlend mode="normal" in2="effect2_dropShadow_563_6" result="effect3_dropShadow_563_6"/>
<feBlend mode="normal" in="SourceGraphic" in2="effect3_dropShadow_563_6" result="shape"/>
</filter>
<filter id="filter1_i_563_6" x="247.096" y="12.2229" width="225.04" height="293.2" filterUnits="userSpaceOnUse" color-interpolation-filters="sRGB">
<feFlood flood-opacity="0" result="BackgroundImageFix"/>
<feBlend mode="normal" in="SourceGraphic" in2="BackgroundImageFix" result="shape"/>
<feColorMatrix in="SourceAlpha" type="matrix" values="0 0 0 0 0 0 0 0 0 0 0 0 0 0 0 0 0 0 127 0" result="hardAlpha"/>
<feOffset dx="7" dy="5"/>
<feGaussianBlur stdDeviation="2"/>
<feComposite in2="hardAlpha" operator="arithmetic" k2="-1" k3="1"/>
<feColorMatrix type="matrix" values="0 0 0 0 0 0 0 0 0 0 0 0 0 0 0 0 0 0 0.25 0"/>
<feBlend mode="normal" in2="shape" result="effect1_innerShadow_563_6"/>
</filter>
<radialGradient id="paint0_angular_563_6" cx="0" cy="0" r="1" gradientUnits="userSpaceOnUse" gradientTransform="translate(246.835 308.118) rotate(90) scale(50.8819 214.835)">
<stop offset="0.0677083" stop-color="#FFE092"/>
<stop offset="0.333333" stop-color="#FFD792"/>
<stop offset="0.666667" stop-color="#FFD192"/>
<stop offset="1" stop-color="#FFAC5F"/>
</radialGradient>
<radialGradient id="paint1_diamond_563_6" cx="0" cy="0" r="1" gradientUnits="userSpaceOnUse" gradientTransform="translate(692.59 354.083) rotate(-155.036) scale(615.551 581.895)">
<stop offset="0.333674" stop-color="#FEC479"/>
<stop offset="1" stop-color="white" stop-opacity="0"/>
</radialGradient>
<clipPath id="clip0_563_6">
<rect width="329.022" height="329.022" fill="white" transform="translate(188.886)"/>
</clipPath>
</defs>
</svg>
