<svg fill="none" height="520" viewBox="0 0 520 520" width="520" xmlns="http://www.w3.org/2000/svg" xmlns:xlink="http://www.w3.org/1999/xlink"><linearGradient id="a"><stop offset="0" stop-color="#52ce63"/><stop offset="1" stop-color="#51a256"/></linearGradient><linearGradient id="b" gradientUnits="userSpaceOnUse" x1="125.89" x2="144.004" xlink:href="#a" y1="80.7298" y2="160.139"/><linearGradient id="c" gradientUnits="userSpaceOnUse" x1="416.713" x2="335.315" xlink:href="#a" y1="122.67" y2="136.966"/><linearGradient id="d" gradientUnits="userSpaceOnUse" x1="277.206" x2="264.108" y1="10.9507" y2="139.129"><stop offset="0" stop-color="#8ae99c"/><stop offset="1" stop-color="#52ce63"/></linearGradient><linearGradient id="e" gradientUnits="userSpaceOnUse" x1="252.231" x2="227.244" y1="233.711" y2="508.113"><stop offset="0" stop-color="#ffe56c"/><stop offset="1" stop-color="#ffc63a"/></linearGradient><g clip-rule="evenodd" fill-rule="evenodd"><path d="m232.048 242.049c33.691-31.686 24.958-69.589-3.141-115.073-28.099-45.4837-87.156-60.415-98.615-49.6383s-16.365 85.8623 11.734 131.3463 56.33 65.05 90.022 33.365z" fill="url(#b)"/><path d="m260.078 248.586c22.571 36.655 54.797 22.215 95.345-16.059 40.548-38.273 59.169-110.074 51.492-122.541-7.676-12.4671-69.149-10.256-109.696 28.017-40.548 38.274-59.711 73.928-37.141 110.583z" fill="url(#c)"/><path d="m246.313 228.018c37.672 3.85 53.62-33.52 62.293-93.447 8.674-59.9274-18.071-122.2582-30.884-123.5676-12.813-1.30934-57.589 53.7127-66.263 113.6396-8.673 59.927-2.818 99.526 34.854 103.375z" fill="url(#d)"/><path d="m248.058 508.527c83.119 0 150.527-24.145 150.527-133.645s-67.408-199.355-150.527-199.355-150.4735 89.855-150.4735 199.355 67.3545 133.645 150.4735 133.645z" fill="url(#e)"/><path d="m366.24 390.523c-2.191-2.105-5.672-2.036-7.777.154l-74 77c-2.105 2.191-2.036 5.672.154 7.777 2.191 2.105 5.672 2.036 7.777-.154l74-77c2.105-2.191 2.036-5.672-.154-7.777z" fill="#ecb732"/><path d="m294.661 399.481c-2.213 2.081-2.32 5.561-.24 7.775l47 50c2.08 2.213 5.561 2.32 7.774.24 2.214-2.08 2.321-5.561.241-7.774l-47-50c-2.081-2.214-5.561-2.321-7.775-.241z" fill="#ecb732"/><path d="m281.318 214.599c2.147 2.148 2.147 5.631 0 7.779l-49 49c-2.148 2.147-5.631 2.147-7.779 0-2.148-2.148-2.148-5.631 0-7.779l49-49c2.148-2.147 5.631-2.147 7.779 0z" fill="#ffc73b"/><path d="m271.318 271.378c2.147-2.148 2.147-5.631 0-7.779l-49-49c-2.148-2.147-5.631-2.147-7.779 0-2.148 2.148-2.148 5.631 0 7.779l49 49c2.148 2.147 5.631 2.147 7.779 0z" fill="#ffc73b"/></g><path d="m166.768 348.96c11.786 1.447 21.886-1.824 22.559-7.306.673-5.481-8.336-11.098-20.121-12.545-11.786-1.447-21.886 1.823-22.559 7.305s8.336 11.099 20.121 12.546z" fill="#eaadcc"/><path d="m318.987 355.034c11.874 0 21.5-4.477 21.5-10s-9.626-10-21.5-10-21.5 4.477-21.5 10 9.626 10 21.5 10z" fill="#eaadcc"/><path d="m205.452 310.645c-.511 14.627-12.782 26.07-27.409 25.559-14.626-.511-26.07-12.782-25.559-27.409.511-14.626 12.782-26.07 27.409-25.559s26.07 12.782 25.559 27.409z" fill="#fff"/><path d="m196.475 309.831c-.328 9.383-8.2 16.724-17.583 16.396-9.383-.327-16.724-8.199-16.396-17.583.327-9.383 8.199-16.724 17.583-16.396 9.383.328 16.724 8.2 16.396 17.583z" fill="#000"/><path d="m180.589 306.275c-.135 3.863-3.376 6.886-7.24 6.751-3.863-.135-6.886-3.376-6.751-7.24s3.376-6.886 7.24-6.751c3.863.134 6.886 3.376 6.751 7.24z" fill="#fff"/><path d="m335.373 315.182c-.511 14.626-12.782 26.07-27.409 25.559s-26.07-12.782-25.559-27.409c.511-14.626 12.782-26.07 27.409-25.559 14.626.511 26.069 12.782 25.559 27.409z" fill="#fff"/><path d="m326.396 314.368c-.328 9.383-8.2 16.724-17.583 16.396-9.383-.327-16.724-8.199-16.397-17.583.328-9.383 8.2-16.724 17.583-16.396s16.724 8.2 16.397 17.583z" fill="#000"/><path d="m310.51 310.811c-.135 3.864-3.376 6.887-7.24 6.752s-6.886-3.376-6.751-7.24 3.376-6.886 7.24-6.752c3.863.135 6.886 3.377 6.751 7.24z" fill="#fff"/><path clip-rule="evenodd" d="m125.617 390.523c2.191-2.105 5.672-2.036 7.777.154l74 77c2.105 2.191 2.036 5.672-.154 7.777-2.191 2.105-5.672 2.036-7.777-.154l-74-77c-2.105-2.191-2.036-5.672.154-7.777z" fill="#ecb732" fill-rule="evenodd"/><path clip-rule="evenodd" d="m197.195 399.481c2.214 2.081 2.321 5.561.241 7.775l-47 50c-2.081 2.213-5.561 2.32-7.775.24-2.213-2.08-2.32-5.561-.24-7.774l47-50c2.08-2.214 5.561-2.321 7.774-.241z" fill="#ecb732" fill-rule="evenodd"/><path clip-rule="evenodd" d="m218.752 327.146c-1.374.926-1.737 2.791-.811 4.165 4.663 6.92 11.808 10.81 20.997 11.86 9.258 1.057 17.542-1.307 24.655-7.088 1.286-1.045 1.481-2.935.436-4.22-1.045-1.286-2.935-1.481-4.22-.436-5.829 4.736-12.493 6.662-20.19 5.782-7.765-.887-13.187-4.035-16.703-9.251-.926-1.374-2.79-1.737-4.164-.812z" fill="#000" fill-rule="evenodd"/><path clip-rule="evenodd" d="m218.752 327.146c-1.374.926-1.737 2.791-.811 4.165 4.663 6.92 11.808 10.81 20.997 11.86 9.258 1.057 17.542-1.307 24.655-7.088 1.286-1.045 1.481-2.935.436-4.22-1.045-1.286-2.935-1.481-4.22-.436-5.829 4.736-12.493 6.662-20.19 5.782-7.765-.887-13.187-4.035-16.703-9.251-.926-1.374-2.79-1.737-4.164-.812z" fill="#000" fill-rule="evenodd"/></svg>