<svg width="13" height="18" viewBox="0 0 13 18" fill="none" xmlns="http://www.w3.org/2000/svg">
<path d="M5.90003 8.39812C7.11552 7.30053 6.7446 5.94305 5.64378 4.29804C4.54291 2.65307 2.3269 2.06785 1.91348 2.44115C1.50006 2.81445 1.40849 5.4835 2.50932 7.1285C3.61019 8.77348 4.6845 9.49575 5.90003 8.39812Z" fill="url(#paint0_linear_529_33)"/>
<path d="M6.95103 8.55003C7.85025 9.89379 9.05242 9.40244 10.5405 8.05875C12.0285 6.71502 12.6455 4.14107 12.3397 3.68407C12.0338 3.22707 9.70962 3.24994 8.2216 4.59367C6.73358 5.93741 6.05181 7.20634 6.95103 8.55003Z" fill="url(#paint1_linear_529_33)"/>
<path d="M6.45933 7.81082C7.95247 7.98459 8.53966 6.6772 8.81344 4.56389C9.08722 2.45059 7.95861 0.216902 7.45078 0.157804C6.94294 0.098706 5.23681 2.00245 4.96303 4.11581C4.68925 6.22912 4.96619 7.63706 6.45933 7.81082Z" fill="url(#paint2_linear_529_33)"/>
<path d="M6.08333 17.1565C9.21386 17.1565 11.7527 16.2946 11.7527 12.3858C11.7527 8.47705 9.21386 5.26949 6.08333 5.26949C2.95274 5.26949 0.415955 8.477 0.415955 12.3858C0.415955 16.2946 2.95274 17.1565 6.08333 17.1565Z" fill="url(#paint3_linear_529_33)"/>
<path d="M8.94673 11.5878C9.39395 11.5878 9.75649 11.428 9.75649 11.2308C9.75649 11.0337 9.39395 10.8739 8.94673 10.8739C8.49951 10.8739 8.13697 11.0337 8.13697 11.2308C8.13697 11.428 8.49951 11.5878 8.94673 11.5878Z" fill="#EAADCC"/>
<path d="M2.94998 11.3709C3.39387 11.4226 3.77425 11.3058 3.7996 11.1102C3.82495 10.9145 3.48566 10.714 3.04178 10.6623C2.5979 10.6107 2.21751 10.7274 2.19216 10.9231C2.16681 11.1188 2.5061 11.3193 2.94998 11.3709Z" fill="#EAADCC"/>
<path d="M5.14135 10.8975C5.13322 10.8855 5.12263 10.8751 5.11023 10.8671C5.09782 10.859 5.08384 10.8534 5.0691 10.8505C5.05437 10.8476 5.03917 10.8476 5.02441 10.8503C5.00965 10.8531 4.99562 10.8586 4.98314 10.8666C4.97066 10.8745 4.95999 10.8848 4.95175 10.8967C4.9435 10.9087 4.93786 10.922 4.93514 10.9361C4.93242 10.9501 4.93268 10.9645 4.93591 10.9784C4.93914 10.9923 4.94527 11.0055 4.95395 11.0172C5.12732 11.261 5.39396 11.4025 5.74478 11.4406C6.09406 11.4784 6.40592 11.3935 6.67339 11.1875C6.68532 11.1788 6.6953 11.1679 6.70272 11.1554C6.71014 11.143 6.71485 11.1293 6.71659 11.1151C6.71833 11.1009 6.71705 11.0865 6.71284 11.0728C6.70862 11.0591 6.70155 11.0463 6.69203 11.0352C6.68252 11.0241 6.67077 11.0149 6.65746 11.0082C6.64415 11.0015 6.62956 10.9974 6.61454 10.9961C6.59952 10.9948 6.58438 10.9963 6.57001 11.0007C6.55564 11.005 6.54234 11.012 6.53088 11.0213C6.31085 11.1908 6.05973 11.2591 5.77047 11.2277C5.48271 11.1965 5.27605 11.0869 5.14135 10.8975ZM3.46604 9.24671C3.57234 9.24306 3.67835 9.25935 3.77798 9.29466C3.87761 9.32996 3.96889 9.38358 4.04658 9.45244C4.12448 9.52109 4.18729 9.60365 4.2314 9.69538C4.27552 9.78711 4.30007 9.88621 4.30364 9.98696C4.30749 10.0877 4.29029 10.1882 4.25304 10.2826C4.21579 10.377 4.15922 10.4635 4.08658 10.5371C4.01415 10.611 3.92704 10.6705 3.83025 10.7123C3.73346 10.7541 3.62891 10.7774 3.52261 10.7808C3.41631 10.7844 3.3103 10.7681 3.21067 10.7328C3.11105 10.6975 3.01976 10.6439 2.94207 10.575C2.86419 10.5064 2.80141 10.4238 2.75731 10.3321C2.71321 10.2404 2.68868 10.1413 2.68512 10.0405C2.68126 9.93979 2.69845 9.83932 2.73569 9.74491C2.77293 9.65049 2.82949 9.56398 2.90212 9.49035C2.97455 9.41653 3.06165 9.357 3.15843 9.31519C3.25521 9.27338 3.35975 9.25011 3.46604 9.24671Z" fill="black"/>
<path d="M3.50852 9.88824C3.50747 9.85534 3.49957 9.82296 3.48527 9.79296C3.47098 9.76296 3.45057 9.73593 3.42522 9.71343C3.39988 9.69093 3.37009 9.6734 3.33757 9.66184C3.30505 9.65028 3.27044 9.64492 3.23573 9.64607C3.20102 9.64723 3.1669 9.65487 3.13531 9.66856C3.10373 9.68225 3.07531 9.70172 3.05169 9.72585C3.02807 9.74998 3.00971 9.7783 2.99767 9.80917C2.98562 9.84005 2.98014 9.87288 2.98152 9.90577C2.98397 9.97201 3.01409 10.0346 3.06524 10.0798C3.1164 10.125 3.1844 10.1491 3.25429 10.1468C3.32418 10.1444 3.39024 10.1159 3.43793 10.0674C3.48561 10.0189 3.51097 9.95449 3.50852 9.88824Z" fill="white"/>
<path d="M8.37247 9.44154C8.47877 9.43787 8.58478 9.45415 8.68442 9.48945C8.78406 9.52475 8.87535 9.57836 8.95306 9.64721C9.03093 9.71587 9.09372 9.79844 9.13782 9.89017C9.18191 9.9819 9.20645 10.081 9.21001 10.1817C9.21387 10.2825 9.19669 10.3829 9.15945 10.4774C9.1222 10.5718 9.06564 10.6583 8.993 10.732C8.92057 10.8058 8.83345 10.8653 8.73667 10.9071C8.63988 10.9489 8.53533 10.9722 8.42903 10.9755C8.32274 10.9792 8.21674 10.9629 8.11712 10.9276C8.01751 10.8923 7.92623 10.8387 7.84855 10.7698C7.77065 10.7012 7.70784 10.6186 7.66373 10.5269C7.61961 10.4351 7.59506 10.336 7.59148 10.2353C7.58764 10.1346 7.60483 10.0341 7.64208 9.93968C7.67933 9.84526 7.7359 9.75875 7.80854 9.68512C7.88098 9.61131 7.9681 9.55179 8.06488 9.50998C8.16167 9.46818 8.26616 9.44492 8.37247 9.44154Z" fill="black"/>
<path d="M3.4601 9.0862C4.00064 9.06831 4.45413 9.46907 4.473 9.98133C4.49187 10.4936 4.06903 10.9234 3.52849 10.9413C2.98796 10.9592 2.53458 10.5584 2.5157 10.0461C2.49683 9.53384 2.91962 9.10408 3.4601 9.0862ZM4.13423 9.99254C4.12191 9.65759 3.82539 9.39554 3.47193 9.40728C3.11858 9.41896 2.84209 9.69993 2.85447 10.0349C2.8668 10.3699 3.16326 10.6319 3.51666 10.6202C3.87007 10.6085 4.14656 10.3275 4.13423 9.99254ZM8.36658 9.28097C8.90711 9.26309 9.36055 9.66385 9.37942 10.1761C9.39829 10.6884 8.97545 11.1182 8.43497 11.1361C7.89449 11.1539 7.441 10.7532 7.42212 10.2409C7.40325 9.72867 7.8261 9.29886 8.36658 9.28097ZM9.04065 10.1873C9.02833 9.85237 8.73187 9.59037 8.37841 9.60205C8.02495 9.61373 7.74852 9.89476 7.7609 10.2297C7.77328 10.5647 8.06968 10.8267 8.42308 10.815C8.77655 10.8033 9.05298 10.5223 9.04065 10.1873Z" fill="white"/>
<path d="M8.415 10.0831C8.41397 10.0502 8.40609 10.0178 8.39181 9.98773C8.37753 9.95771 8.35713 9.93066 8.33178 9.90813C8.30643 9.88561 8.27664 9.86806 8.24411 9.85648C8.21158 9.84491 8.17695 9.83954 8.14223 9.8407C8.1075 9.84185 8.07336 9.84949 8.04176 9.86319C8.01017 9.87689 7.98174 9.89637 7.95811 9.92052C7.93449 9.94467 7.91613 9.973 7.9041 10.0039C7.89206 10.0348 7.88659 10.0676 7.888 10.1005C7.89081 10.1665 7.92107 10.2288 7.97217 10.2737C8.02326 10.3186 8.09103 10.3425 8.16066 10.3402C8.2303 10.3379 8.29614 10.3095 8.3438 10.2614C8.39145 10.2132 8.41705 10.1491 8.415 10.0831Z" fill="white"/>
<path d="M1.94001 12.6119L3.16865 13.8235L4.05021 12.9347C4.08804 12.8976 4.13978 12.8761 4.19423 12.8748C4.24867 12.8736 4.30145 12.8927 4.34113 12.928C4.38082 12.9634 4.40421 13.0121 4.40626 13.0637C4.40831 13.1153 4.38883 13.1656 4.35206 13.2036L3.45614 14.1071L4.72715 15.3605C4.746 15.3791 4.7608 15.401 4.77071 15.4251C4.78062 15.4491 4.78544 15.4747 4.7849 15.5005C4.78436 15.5263 4.77847 15.5517 4.76756 15.5753C4.75665 15.5989 4.74093 15.6203 4.72132 15.6382C4.7017 15.656 4.67856 15.6701 4.65322 15.6794C4.62788 15.6888 4.60084 15.6934 4.57364 15.6929C4.54644 15.6924 4.51961 15.6868 4.49468 15.6765C4.46976 15.6661 4.44723 15.6512 4.42838 15.6326L3.17201 14.3935L2.5819 14.9885C2.56326 15.0073 2.5409 15.0224 2.5161 15.033C2.4913 15.0436 2.46454 15.0495 2.43735 15.0503C2.41016 15.0511 2.38307 15.0468 2.35763 15.0377C2.33218 15.0285 2.30889 15.0148 2.28907 14.9971C2.26925 14.9794 2.25329 14.9582 2.24211 14.9347C2.23093 14.9112 2.22475 14.8859 2.22391 14.8601C2.22307 14.8343 2.2276 14.8086 2.23723 14.7845C2.24686 14.7604 2.26141 14.7383 2.28004 14.7196L2.88452 14.11L1.64129 12.884C1.62244 12.8654 1.60764 12.8435 1.59773 12.8194C1.58782 12.7954 1.583 12.7698 1.58354 12.744C1.58408 12.7182 1.58998 12.6928 1.60089 12.6692C1.6118 12.6456 1.62751 12.6242 1.64713 12.6063C1.66674 12.5885 1.68988 12.5744 1.71522 12.565C1.74056 12.5557 1.7676 12.5511 1.7948 12.5516C1.822 12.5521 1.84883 12.5577 1.87376 12.568C1.89868 12.5784 1.92116 12.5933 1.94001 12.6119ZM10.1909 12.6119C10.229 12.5743 10.2813 12.5526 10.3362 12.5516C10.3634 12.5511 10.3904 12.5557 10.4158 12.5651C10.4411 12.5745 10.4642 12.5885 10.4839 12.6064C10.5035 12.6242 10.5192 12.6456 10.5301 12.6692C10.541 12.6928 10.5469 12.7182 10.5474 12.744C10.548 12.7698 10.5431 12.7954 10.5332 12.8194C10.5233 12.8435 10.5085 12.8654 10.4897 12.884L9.24638 14.11L9.85096 14.7196C9.88746 14.7564 9.90759 14.8051 9.90716 14.8556C9.90673 14.9061 9.88577 14.9545 9.84865 14.9908L9.84188 14.9971C9.82206 15.0147 9.79876 15.0285 9.77331 15.0377C9.74787 15.0468 9.72078 15.0511 9.69359 15.0503C9.6664 15.0495 9.63964 15.0436 9.61484 15.033C9.59004 15.0224 9.56769 15.0073 9.54905 14.9885L8.95894 14.3935L7.70257 15.6326C7.66564 15.6691 7.6153 15.6906 7.56205 15.6927C7.50879 15.6949 7.4567 15.6775 7.41662 15.6442L7.40963 15.6382C7.39002 15.6203 7.37431 15.5989 7.3634 15.5753C7.35249 15.5517 7.3466 15.5263 7.34607 15.5005C7.34553 15.4747 7.35036 15.4491 7.36028 15.425C7.37019 15.401 7.385 15.3791 7.40386 15.3605L8.67486 14.1071L7.77889 13.2036C7.7424 13.1668 7.72228 13.1181 7.72271 13.0676C7.72314 13.0171 7.74409 12.9687 7.7812 12.9325L7.78797 12.9262C7.82799 12.8905 7.88132 12.8714 7.93622 12.873C7.99112 12.8746 8.04311 12.8968 8.08074 12.9347L8.96225 13.8235L10.1909 12.6119Z" fill="#ECB732"/>
<path d="M7.36072 6.54072C7.39955 6.57753 7.42135 6.62746 7.42135 6.67951C7.42135 6.73156 7.39955 6.78149 7.36072 6.8183L6.39618 7.73252L6.98404 8.28978C7.02174 8.3255 7.04346 8.37361 7.04469 8.42411C7.04592 8.47462 7.02656 8.52363 6.99064 8.56095L6.98404 8.56747C6.94519 8.60429 6.89251 8.62497 6.83757 8.62497C6.78264 8.62497 6.72995 8.60429 6.6911 8.56747L6.10314 8.01021L5.51517 8.56747C5.49595 8.58577 5.47311 8.6003 5.44796 8.61022C5.4228 8.62014 5.39583 8.62526 5.36859 8.62529C5.34134 8.62531 5.31436 8.62025 5.28918 8.61038C5.26401 8.60051 5.24113 8.58603 5.22187 8.56777C5.20261 8.54951 5.18734 8.52782 5.17693 8.50396C5.16652 8.4801 5.16118 8.45452 5.16121 8.4287C5.16124 8.40288 5.16665 8.37732 5.17712 8.35348C5.1876 8.32964 5.20293 8.308 5.22224 8.28978L5.81015 7.73252L4.84561 6.81836C4.80791 6.78264 4.78619 6.73453 4.78496 6.68402C4.78373 6.63352 4.80309 6.58451 4.83901 6.54718L4.84561 6.54066C4.88446 6.50385 4.93714 6.48317 4.99208 6.48317C5.04701 6.48317 5.0997 6.50385 5.13855 6.54066L6.10314 7.45483L7.06773 6.54066C7.08697 6.52243 7.1098 6.50796 7.13494 6.49809C7.16008 6.48822 7.18702 6.48314 7.21422 6.48314C7.24143 6.48314 7.26837 6.48822 7.29351 6.49809C7.31865 6.50796 7.34148 6.52248 7.36072 6.54072Z" fill="#FFC73B"/>
<g clip-path="url(#clip0_529_33)">
<mask id="mask0_529_33" style="mask-type:luminance" maskUnits="userSpaceOnUse" x="5" y="13" width="2" height="2">
<path d="M5 13H7V15H5V13Z" fill="white"/>
</mask>
<g mask="url(#mask0_529_33)">
<path d="M6.94019 13.4375V14.8045C6.94019 14.8406 6.92581 14.8753 6.90023 14.9009C6.87464 14.9265 6.83994 14.9409 6.80375 14.9409H5.19625C5.17833 14.9409 5.16059 14.9374 5.14404 14.9305C5.12749 14.9236 5.11245 14.9136 5.09978 14.9009C5.07419 14.8753 5.05981 14.8406 5.05981 14.8045V13.197C5.05981 13.1216 5.12094 13.0606 5.19625 13.0606H6.59688C6.6525 13.0606 6.70531 13.0854 6.74075 13.1284L6.89763 13.3188C6.92513 13.3523 6.94019 13.3941 6.94019 13.4375Z" fill="#616161"/>
<path d="M6.62406 14.9402H5.375V14.1133C5.375 14.0997 5.3804 14.0867 5.39001 14.0771C5.39962 14.0675 5.41266 14.0621 5.42625 14.0621H6.573C6.58659 14.0621 6.59963 14.0675 6.60924 14.0771C6.61885 14.0867 6.62425 14.0997 6.62425 14.1133V14.9402H6.62406Z" fill="white"/>
<path d="M5.375 14.7487H6.62406V14.9402H5.375V14.7487Z" fill="#039BE5"/>
<path d="M5.26178 13.0599V13.8059C5.26178 13.8338 5.28628 13.8555 5.31878 13.8555H6.51647C6.54897 13.8555 6.57409 13.8339 6.57409 13.8059V13.0599H5.26178Z" fill="#424242"/>
<path d="M5.54688 13.0599V13.7633C5.54688 13.7896 5.56531 13.8099 5.58969 13.8099H6.4875C6.51188 13.8099 6.53075 13.7896 6.53075 13.7633V13.0598L5.54688 13.0599ZM6.34331 13.7269C6.34331 13.7381 6.33406 13.7473 6.32281 13.7473H6.05125C6.04583 13.7473 6.04065 13.7451 6.03681 13.7413C6.03298 13.7375 6.0308 13.7323 6.03075 13.7269V13.1428C6.03075 13.1316 6.04 13.1224 6.05125 13.1224H6.32281C6.33406 13.1224 6.34331 13.1316 6.34331 13.1428V13.7269Z" fill="#E0E0E0"/>
</g>
</g>
<defs>
<linearGradient id="paint0_linear_529_33" x1="664.52" y1="0.156454" x2="385.017" y2="675.342" gradientUnits="userSpaceOnUse">
<stop stop-color="#52CE63"/>
<stop offset="1" stop-color="#51A256"/>
</linearGradient>
<linearGradient id="paint1_linear_529_33" x1="664.604" y1="0.156466" x2="384.793" y2="675.225" gradientUnits="userSpaceOnUse">
<stop stop-color="#52CE63"/>
<stop offset="1" stop-color="#51A256"/>
</linearGradient>
<linearGradient id="paint2_linear_529_33" x1="600.416" y1="0.156464" x2="600.416" y2="999.943" gradientUnits="userSpaceOnUse">
<stop stop-color="#8AE99C"/>
<stop offset="1" stop-color="#52CE63"/>
</linearGradient>
<linearGradient id="paint3_linear_529_33" x1="616.952" y1="297.197" x2="454.455" y2="1690.71" gradientUnits="userSpaceOnUse">
<stop stop-color="#FFE56C"/>
<stop offset="1" stop-color="#FFC63A"/>
</linearGradient>
<clipPath id="clip0_529_33">
<rect width="2" height="2" fill="white" transform="translate(5 13)"/>
</clipPath>
</defs>
</svg>
