<svg width="101" height="100" viewBox="0 0 101 100" fill="none" xmlns="http://www.w3.org/2000/svg">
<path fill-rule="evenodd" clip-rule="evenodd" d="M50.2858 100C77.9 100 100.286 77.6142 100.286 50C100.286 22.3858 77.9 0 50.2858 0C22.6715 0 0.285767 22.3858 0.285767 50C0.285767 77.6142 22.6715 100 50.2858 100ZM50.2858 92.8571C26.6164 92.8571 7.42862 73.6693 7.42862 50C7.42862 26.3307 26.6164 7.14286 50.2858 7.14286C73.9551 7.14286 93.1429 26.3307 93.1429 50C93.1429 73.6693 73.9551 92.8571 50.2858 92.8571ZM42.9304 50.8954H55.5579C60.1617 50.7638 63.7132 47.0808 63.7132 42.477C63.7132 37.8732 59.8986 34.0587 55.2948 34.0587H42.9304V50.8954ZM57.7953 21.4285C68.9759 21.8231 77.9204 31.0307 77.9204 42.3429C77.9204 53.655 68.9759 62.8625 57.7953 63.3886H42.8001V73.3853C42.8001 77.1999 39.7747 80.3571 35.8287 80.3571C31.8825 80.3571 28.8572 77.3316 28.8572 73.3853V28.3999C28.8572 24.5854 31.8825 21.4285 35.8287 21.4285H57.7953Z" fill="#006BD6"/>
</svg>
