<svg xmlns="http://www.w3.org/2000/svg" viewBox="0 0 100 100"><g transform="matrix(1.3595985063 0 0 1.3595985063 50 57.02375128)" id="Vm51gb5THiua7hA8racSB"><linearGradient id="SVGID_6" gradientUnits="userSpaceOnUse" gradientTransform="matrix(1 0 0 1 0 0)" x1="14.8413403" y1="22.5436904" x2="27.4731407" y2="44.6493411"><stop offset="0%" style="stop-color:#909cf7;stop-opacity:1"/><stop offset="100%" style="stop-color:#4b38d8;stop-opacity:1"/></linearGradient><path style="stroke:none;stroke-width:0;stroke-dasharray:none;stroke-linecap:butt;stroke-dashoffset:0;stroke-linejoin:miter;stroke-miterlimit:4;fill:url(#SVGID_6);fill-rule:nonzero;opacity:1" transform=" translate(-22.6799923421, -35.16606415)" d="M 45.2456059 22.6027536 C 44.154503500000004 33.0585159 35.0128573 40.8300361 24.5003187 40.8300343 L 20.452514700000002 40.8300343 L 20.452514700000002 50.4000413 C 20.452514700000002 55.7019698 16.154452400000004 60.0000321 10.852523900000001 60.0000321 L 3.3599854 60.0000321 C 1.5043166999999997 60.0000321 0 58.4957154 0 56.6400467 L 0 36.9375321 L 5.0380685 29.8688978 C 5.9498782 28.589588199999998 7.6260335 28.112198199999998 9.075063 28.7191111 L 11.9407772 29.9193896 C 13.3852589 30.524397699999998 15.0561546 30.048839599999997 15.965574 28.7738813 L 22.6827747 19.356718299999997 C 23.5898905 18.0849895 25.257168999999998 17.6116367 26.697203 18.2169921 L 32.2170708 20.5374108 C 33.6600976 21.1440243 35.3308405 20.6693669 36.2393883 19.3946719 L 42.6988028 10.332096199999999 C 44.7236119 13.891892299999999 45.7133097 18.1208656 45.245606 22.6027535 Z" stroke-linecap="round"/></g><g transform="matrix(1.3595985063 0 0 1.3595985063 47.3964059203 31.9796136252)" id="M6XMPbyzjEtIGsRgkpwiS"><linearGradient id="SVGID_7" gradientUnits="userSpaceOnUse" gradientTransform="matrix(1 0 0 1 0 0)" x1="7.9837957" y1="-1.3582919" x2="21.0009873" y2="21.4217935"><stop offset="0%" style="stop-color:#909cf7;stop-opacity:1"/><stop offset="100%" style="stop-color:#4b38d8;stop-opacity:1"/></linearGradient><path style="stroke:none;stroke-width:0;stroke-dasharray:none;stroke-linecap:butt;stroke-dashoffset:0;stroke-linejoin:miter;stroke-miterlimit:4;fill:url(#SVGID_7);fill-rule:nonzero;opacity:1" transform=" translate(-20.7650196, -16.7458191)" d="M 3.2920959 28.8726296 C 4.1153859 27.7175025 5.3130074 26.8291329 6.7059656 26.5611915 C 7.792121 26.352265 8.8628706 26.4619086 9.8532155 26.8767089 L 12.718205699999999 28.0766601 C 12.883305799999999 28.145812900000003 13.057072899999998 28.1808471 13.234685199999998 28.1808471 C 13.671269699999998 28.1808471 14.083501099999998 27.9683837 14.337346299999998 27.612487700000003 L 20.931556 18.367694800000002 C 21.7547065 17.213673800000002 22.9519627 16.326684900000004 24.3440438 16.059381200000004 C 25.4261814 15.851592000000004 26.4904023 15.960477800000005 27.472295000000003 16.373229900000005 L 32.992131400000005 18.693664500000004 C 33.1586963 18.763732900000004 33.333928300000004 18.799194300000003 33.5128223 18.799194300000003 C 33.948003 18.799194300000003 34.3584644 18.587829600000003 34.610783700000006 18.233825600000003 L 41.5300342 8.526061900000004 C 37.8272145 3.3644409 31.7802174 0 24.9450124 0 L 3.3599904 0 C 1.5043217 0 0.000005 1.5043167 0.000005 3.3599854 L 0.000005 33.491638200000004 L 3.2920958999999996 28.872629700000005 Z" stroke-linecap="round"/></g></svg>