<svg xmlns="http://www.w3.org/2000/svg" fill="none" viewBox="0 0 240 240"><path fill="url(#a)" fill-rule="evenodd" d="M150 15h60v30h30v120h-30v60h-30v-30h-30v30h-30v-30H90v-30H0v-60h30V75h60v30h60V75h-30V45h30V15ZM90 195v30H60v-30h30Z" clip-rule="evenodd"/><path fill="#A0FF63" fill-rule="evenodd" d="M210 15h-30v30h30v30h30V45h-30V15Z" clip-rule="evenodd"/><path fill="#91BD14" fill-rule="evenodd" d="M180 45h30v60h-60V75h30V45Z" clip-rule="evenodd"/><path fill="#000" fill-rule="evenodd" d="M30 75H0v30h30V75Zm60 30H60v30h30v-30Z" clip-rule="evenodd"/><defs><linearGradient id="a" x1="240" x2="-2.05636e-05" y1="15" y2="225" gradientUnits="userSpaceOnUse"><stop stop-color="#A0FF63"/><stop offset="0.691265" stop-color="#FFE100"/></linearGradient></defs></svg>
