<svg width="48" height="48" viewBox="0 0 48 48" fill="none" xmlns="http://www.w3.org/2000/svg">
<path d="M34.5167 21.9898L31.2152 21.2589L33.7858 24.9259V36.2802L42.5817 28.9462V16.4832L38.5492 17.9452L34.5167 21.9777V21.9898ZM33.7858 43.2366L38.5492 38.4731V33.7096L33.7858 37.7421V43.2366ZM39.67 6.32284L45.5056 5.8599L43.3005 15.0213L32.3604 19.0904L39.6457 6.33503L39.67 6.32284ZM9.96853 17.9574L5.93604 16.4954V28.9584L14.732 36.2924V24.9381L17.3025 21.2711L14.001 22.002L9.96853 17.9695V17.9574ZM14.732 37.7421L9.96853 33.7096V38.4731L14.732 43.2366V37.7421ZM8.84772 6.33503L16.133 19.0904L5.20508 15.0213L3 5.8599L8.83553 6.32284L8.84772 6.33503ZM32.6893 25.6447V42.1401L30.4843 45.4294L27.9259 48H20.5919L18.0335 45.4294L15.8284 42.1401V25.6447L18.131 22.2091L24.2589 32.6497L30.3868 22.2091L32.6893 25.6447ZM30.8376 0L30.4964 0.840609L24.2589 15.935L18.0213 0.840609L17.6802 0H30.8376Z" fill="#41B883"/>
<path d="M40.3889 5.12893L32.6894 5.8599L30.4965 0.840609L30.8498 0H35.2599L40.3889 5.12893ZM31.934 6.90761L30.6061 3.75228L24.9899 17.3482V20.8812H27H27.4021H27.5604H27.6092L32.3604 19.1269L39.6823 6.32284L31.934 6.90761ZM8.12896 5.12893L15.8285 5.8599L18.0213 0.840609L17.6802 0H13.2701L8.14114 5.12893H8.12896ZM29.6802 21.198L28.0965 22.1726H20.4213L18.8376 21.198L18.1066 22.1726L18.131 22.2091L24.2589 32.6497L30.3868 22.2091L30.4112 22.1726L29.6802 21.198ZM8.83556 6.32284L16.1574 19.1269L20.9087 20.8812H20.9574H21.5178H23.5279V17.3482L17.9117 3.76447L16.5838 6.9198L8.83556 6.33502V6.32284Z" fill="#455C71"/>
</svg>
