<svg width="60" height="60" viewBox="0 0 60 60" fill="none" xmlns="http://www.w3.org/2000/svg">
<path d="M30.0003 0C13.4323 0 0 13.4309 0 29.9997C0 46.568 13.4323 60 30.0003 60C46.5683 60 60 46.568 60 29.9997C60 13.4309 46.5677 0 30.0003 0V0ZM30.0003 56.1479C25.2864 56.1479 21.4645 52.9989 21.4645 49.1156H38.536C38.536 52.9984 34.7142 56.1479 30.0003 56.1479ZM44.0985 46.7867H15.9004V41.6735H44.0991V46.7867H44.0985ZM43.9974 39.0417H15.9809C15.8877 38.9343 15.7924 38.8284 15.7024 38.7193C12.816 35.2145 12.1363 33.3849 11.4761 31.5202C11.465 31.4588 14.976 32.2376 17.4659 32.7977C17.4659 32.7977 18.7471 33.0942 20.6201 33.4357C18.8217 31.3275 17.7539 28.6476 17.7539 25.9084C17.7539 19.8946 22.3661 14.6396 20.7022 10.392C22.3217 10.5239 24.0539 13.81 24.1709 18.948C25.8925 16.5688 26.6131 12.2238 26.6131 9.55979C26.6131 6.80149 28.4306 3.59743 30.2486 3.48784C28.628 6.15877 30.6684 8.44853 32.4822 14.1287C33.1625 16.2623 33.0756 19.8528 33.6008 22.1299C33.775 17.4005 34.5882 10.5 37.5883 8.11764C36.2648 11.1179 37.7842 14.872 38.8235 16.6768C40.5001 19.5886 41.5166 21.7947 41.5166 25.9671C41.5166 28.7646 40.4837 31.3985 38.7414 33.4574C40.7225 33.0857 42.0905 32.7506 42.0905 32.7506L48.5239 31.4954C48.5244 31.4948 47.5895 35.3395 43.9974 39.0417Z" fill="url(#paint0_linear_1494_16209)"/>
<defs>
<linearGradient id="paint0_linear_1494_16209" x1="10.9468" y1="53.6736" x2="63.5138" y2="0.0338431" gradientUnits="userSpaceOnUse">
<stop stop-color="#54B876"/>
<stop offset="1" stop-color="#37E491"/>
</linearGradient>
</defs>
</svg>
