<svg xmlns="http://www.w3.org/2000/svg" viewBox="0 0 230 230">
  <rect fill="black" width="230" height="230" />
  <g shape-rendering="crispEdges">
    <path fill="white" d="M100,10h10v10h-10zM102.5,10h-2.5v2.5h2.5v-2.5zM105,10h2.5v2.5h2.5v-2.5zM110,17.5h-2.5v2.5h2.5v-2.5zM102.5,17.5h-2.5v2.5h2.5v-2.5zM130,10h10v10h-10zM132.5,10h-2.5v2.5h2.5v-2.5zM135,10h2.5v2.5h2.5v-2.5zM140,17.5h-2.5v2.5h2.5v-2.5zM132.5,17.5h-2.5v2.5h2.5v-2.5zM90,20h10v10h-10zM92.5,20h-2.5v2.5h2.5v-2.5zM95,20h2.5v2.5h2.5v-2.5zM100,27.5h-2.5v2.5h2.5v-2.5zM92.5,27.5h-2.5v2.5h2.5v-2.5zM120,20h10v10h-10zM122.5,20h-2.5v2.5h2.5v-2.5zM125,20h2.5v2.5h2.5v-2.5zM130,27.5h-2.5v2.5h2.5v-2.5zM122.5,27.5h-2.5v2.5h2.5v-2.5zM100,30h10v10h-10zM102.5,30h-2.5v2.5h2.5v-2.5zM105,30h2.5v2.5h2.5v-2.5zM110,37.5h-2.5v2.5h2.5v-2.5zM102.5,37.5h-2.5v2.5h2.5v-2.5zM90,40h10v10h-10zM92.5,40h-2.5v2.5h2.5v-2.5zM95,40h2.5v2.5h2.5v-2.5zM100,47.5h-2.5v2.5h2.5v-2.5zM92.5,47.5h-2.5v2.5h2.5v-2.5zM120,40h10v10h-10zM122.5,40h-2.5v2.5h2.5v-2.5zM125,40h2.5v2.5h2.5v-2.5zM130,47.5h-2.5v2.5h2.5v-2.5zM122.5,47.5h-2.5v2.5h2.5v-2.5zM110,50h10v10h-10zM112.5,50h-2.5v2.5h2.5v-2.5zM115,50h2.5v2.5h2.5v-2.5zM130,50h10v10h-10zM132.5,50h-2.5v2.5h2.5v-2.5zM135,50h2.5v2.5h2.5v-2.5zM90,60h10v10h-10zM92.5,60h-2.5v2.5h2.5v-2.5zM100,60h10v10h-10zM110,60h10v10h-10zM130,60h10v10h-10zM90,70h10v10h-10zM100,77.5h-2.5v2.5h2.5v-2.5zM92.5,77.5h-2.5v2.5h2.5v-2.5zM110,70h10v10h-10zM130,70h10v10h-10zM140,77.5h-2.5v2.5h2.5v-2.5zM132.5,77.5h-2.5v2.5h2.5v-2.5zM110,80h10v10h-10zM120,87.5h-2.5v2.5h2.5v-2.5zM112.5,87.5h-2.5v2.5h2.5v-2.5zM10,90h10v10h-10zM12.5,90h-2.5v2.5h2.5v-2.5zM12.5,97.5h-2.5v2.5h2.5v-2.5zM20,90h10v10h-10zM30,90h10v10h-10zM40,90h10v10h-10zM50,90h10v10h-10zM55,90h2.5v2.5h2.5v-2.5zM60,97.5h-2.5v2.5h2.5v-2.5zM70,90h10v10h-10zM72.5,90h-2.5v2.5h2.5v-2.5zM72.5,97.5h-2.5v2.5h2.5v-2.5zM80,90h10v10h-10zM90,90h10v10h-10zM100,90h10v10h-10zM105,90h2.5v2.5h2.5v-2.5zM120,90h10v10h-10zM122.5,90h-2.5v2.5h2.5v-2.5zM130,90h10v10h-10zM140,90h10v10h-10zM145,90h2.5v2.5h2.5v-2.5zM150,97.5h-2.5v2.5h2.5v-2.5zM160,90h10v10h-10zM162.5,90h-2.5v2.5h2.5v-2.5zM165,90h2.5v2.5h2.5v-2.5zM170,97.5h-2.5v2.5h2.5v-2.5zM162.5,97.5h-2.5v2.5h2.5v-2.5zM180,90h10v10h-10zM182.5,90h-2.5v2.5h2.5v-2.5zM185,90h2.5v2.5h2.5v-2.5zM190,97.5h-2.5v2.5h2.5v-2.5zM182.5,97.5h-2.5v2.5h2.5v-2.5zM200,90h10v10h-10zM202.5,90h-2.5v2.5h2.5v-2.5zM205,90h2.5v2.5h2.5v-2.5zM20,100h10v10h-10zM30,107.5h-2.5v2.5h2.5v-2.5zM22.5,107.5h-2.5v2.5h2.5v-2.5zM80,100h10v10h-10zM90,100h10v10h-10zM100,100h10v10h-10zM110,100h10v10h-10zM120,100h10v10h-10zM170,100h10v10h-10zM172.5,100h-2.5v2.5h2.5v-2.5zM175,100h2.5v2.5h2.5v-2.5zM180,107.5h-2.5v2.5h2.5v-2.5zM172.5,107.5h-2.5v2.5h2.5v-2.5zM190,100h10v10h-10zM192.5,100h-2.5v2.5h2.5v-2.5zM192.5,107.5h-2.5v2.5h2.5v-2.5zM200,100h10v10h-10zM210,100h10v10h-10zM215,100h2.5v2.5h2.5v-2.5zM220,107.5h-2.5v2.5h2.5v-2.5zM10,110h10v10h-10zM12.5,110h-2.5v2.5h2.5v-2.5zM15,110h2.5v2.5h2.5v-2.5zM30,110h10v10h-10zM32.5,110h-2.5v2.5h2.5v-2.5zM32.5,117.5h-2.5v2.5h2.5v-2.5zM40,110h10v10h-10zM50,110h10v10h-10zM55,110h2.5v2.5h2.5v-2.5zM70,110h10v10h-10zM72.5,110h-2.5v2.5h2.5v-2.5zM72.5,117.5h-2.5v2.5h2.5v-2.5zM80,110h10v10h-10zM90,110h10v10h-10zM100,117.5h-2.5v2.5h2.5v-2.5zM110,110h10v10h-10zM120,110h10v10h-10zM130,110h10v10h-10zM140,110h10v10h-10zM150,110h10v10h-10zM155,110h2.5v2.5h2.5v-2.5zM160,117.5h-2.5v2.5h2.5v-2.5zM200,110h10v10h-10zM10,120h10v10h-10zM20,127.5h-2.5v2.5h2.5v-2.5zM12.5,127.5h-2.5v2.5h2.5v-2.5zM50,120h10v10h-10zM52.5,127.5h-2.5v2.5h2.5v-2.5zM60,120h10v10h-10zM65,120h2.5v2.5h2.5v-2.5zM100,120h10v10h-10zM102.5,120h-2.5v2.5h2.5v-2.5zM110,120h10v10h-10zM120,120h10v10h-10zM130,120h10v10h-10zM160,120h10v10h-10zM162.5,120h-2.5v2.5h2.5v-2.5zM162.5,127.5h-2.5v2.5h2.5v-2.5zM170,120h10v10h-10zM180,120h10v10h-10zM190,120h10v10h-10zM200,120h10v10h-10zM210,127.5h-2.5v2.5h2.5v-2.5zM20,130h10v10h-10zM22.5,130h-2.5v2.5h2.5v-2.5zM25,130h2.5v2.5h2.5v-2.5zM30,137.5h-2.5v2.5h2.5v-2.5zM22.5,137.5h-2.5v2.5h2.5v-2.5zM40,130h10v10h-10zM42.5,130h-2.5v2.5h2.5v-2.5zM45,130h2.5v2.5h2.5v-2.5zM50,137.5h-2.5v2.5h2.5v-2.5zM42.5,137.5h-2.5v2.5h2.5v-2.5zM60,130h10v10h-10zM62.5,137.5h-2.5v2.5h2.5v-2.5zM70,130h10v10h-10zM80,130h10v10h-10zM85,130h2.5v2.5h2.5v-2.5zM90,137.5h-2.5v2.5h2.5v-2.5zM100,130h10v10h-10zM110,137.5h-2.5v2.5h2.5v-2.5zM102.5,137.5h-2.5v2.5h2.5v-2.5zM120,130h10v10h-10zM122.5,137.5h-2.5v2.5h2.5v-2.5zM130,130h10v10h-10zM140,130h10v10h-10zM150,130h10v10h-10zM155,130h2.5v2.5h2.5v-2.5zM170,130h10v10h-10zM90,140h10v10h-10zM92.5,140h-2.5v2.5h2.5v-2.5zM95,140h2.5v2.5h2.5v-2.5zM150,140h10v10h-10zM152.5,147.5h-2.5v2.5h2.5v-2.5zM160,140h10v10h-10zM170,140h10v10h-10zM180,147.5h-2.5v2.5h2.5v-2.5zM190,140h10v10h-10zM192.5,140h-2.5v2.5h2.5v-2.5zM192.5,147.5h-2.5v2.5h2.5v-2.5zM200,140h10v10h-10zM210,140h10v10h-10zM215,140h2.5v2.5h2.5v-2.5zM220,147.5h-2.5v2.5h2.5v-2.5zM90,150h10v10h-10zM92.5,157.5h-2.5v2.5h2.5v-2.5zM100,150h10v10h-10zM110,150h10v10h-10zM120,150h10v10h-10zM130,150h10v10h-10zM140,150h10v10h-10zM145,150h2.5v2.5h2.5v-2.5zM150,157.5h-2.5v2.5h2.5v-2.5zM160,150h10v10h-10zM170,157.5h-2.5v2.5h2.5v-2.5zM162.5,157.5h-2.5v2.5h2.5v-2.5zM180,150h10v10h-10zM182.5,150h-2.5v2.5h2.5v-2.5zM185,150h2.5v2.5h2.5v-2.5zM200,150h10v10h-10zM210,157.5h-2.5v2.5h2.5v-2.5zM202.5,157.5h-2.5v2.5h2.5v-2.5zM100,160h10v10h-10zM102.5,167.5h-2.5v2.5h2.5v-2.5zM110,160h10v10h-10zM120,167.5h-2.5v2.5h2.5v-2.5zM130,160h10v10h-10zM180,160h10v10h-10zM182.5,167.5h-2.5v2.5h2.5v-2.5zM190,160h10v10h-10zM195,160h2.5v2.5h2.5v-2.5zM200,167.5h-2.5v2.5h2.5v-2.5zM210,160h10v10h-10zM212.5,160h-2.5v2.5h2.5v-2.5zM215,160h2.5v2.5h2.5v-2.5zM90,170h10v10h-10zM92.5,170h-2.5v2.5h2.5v-2.5zM95,170h2.5v2.5h2.5v-2.5zM120,170h10v10h-10zM122.5,170h-2.5v2.5h2.5v-2.5zM122.5,177.5h-2.5v2.5h2.5v-2.5zM130,170h10v10h-10zM140,170h10v10h-10zM150,170h10v10h-10zM155,170h2.5v2.5h2.5v-2.5zM160,177.5h-2.5v2.5h2.5v-2.5zM200,170h10v10h-10zM202.5,170h-2.5v2.5h2.5v-2.5zM202.5,177.5h-2.5v2.5h2.5v-2.5zM210,170h10v10h-10zM220,177.5h-2.5v2.5h2.5v-2.5zM90,180h10v10h-10zM100,180h10v10h-10zM110,180h10v10h-10zM115,180h2.5v2.5h2.5v-2.5zM140,180h10v10h-10zM150,187.5h-2.5v2.5h2.5v-2.5zM142.5,187.5h-2.5v2.5h2.5v-2.5zM160,180h10v10h-10zM162.5,180h-2.5v2.5h2.5v-2.5zM162.5,187.5h-2.5v2.5h2.5v-2.5zM170,180h10v10h-10zM180,180h10v10h-10zM185,180h2.5v2.5h2.5v-2.5zM90,190h10v10h-10zM100,190h10v10h-10zM110,190h10v10h-10zM120,190h10v10h-10zM130,190h10v10h-10zM135,190h2.5v2.5h2.5v-2.5zM140,197.5h-2.5v2.5h2.5v-2.5zM180,190h10v10h-10zM90,200h10v10h-10zM160,200h10v10h-10zM162.5,200h-2.5v2.5h2.5v-2.5zM165,200h2.5v2.5h2.5v-2.5zM170,207.5h-2.5v2.5h2.5v-2.5zM162.5,207.5h-2.5v2.5h2.5v-2.5zM180,200h10v10h-10zM182.5,207.5h-2.5v2.5h2.5v-2.5zM190,200h10v10h-10zM195,200h2.5v2.5h2.5v-2.5zM200,207.5h-2.5v2.5h2.5v-2.5zM90,210h10v10h-10zM92.5,217.5h-2.5v2.5h2.5v-2.5zM100,210h10v10h-10zM105,210h2.5v2.5h2.5v-2.5zM110,217.5h-2.5v2.5h2.5v-2.5zM120,210h10v10h-10zM122.5,210h-2.5v2.5h2.5v-2.5zM125,210h2.5v2.5h2.5v-2.5zM130,217.5h-2.5v2.5h2.5v-2.5zM122.5,217.5h-2.5v2.5h2.5v-2.5zM150,210h10v10h-10zM152.5,210h-2.5v2.5h2.5v-2.5zM155,210h2.5v2.5h2.5v-2.5zM160,217.5h-2.5v2.5h2.5v-2.5zM152.5,217.5h-2.5v2.5h2.5v-2.5zM200,210h10v10h-10zM202.5,210h-2.5v2.5h2.5v-2.5zM205,210h2.5v2.5h2.5v-2.5zM210,217.5h-2.5v2.5h2.5v-2.5zM202.5,217.5h-2.5v2.5h2.5v-2.5z" />
  </g>
  <g shape-rendering="crispEdges">
    <path fill="white" d="M10,10h70v70h-70z M70,20h-50v50h50z M12.5,10h-2.5v2.5h2.5z M80,10h-2.5v2.5h2.5z M10,80h2.5v-2.5h-2.5z M77.5,80h2.5v-2.5h-2.5z" />
    <path fill="white" d="M30,30h30v30h-30z M32.5,30h-2.5v2.5h2.5z M60,30h-2.5v2.5h2.5z M30,60h2.5v-2.5h-2.5z M57.5,60h2.5v-2.5h-2.5z" />
    <path fill="white" d="M150,10h70v70h-70z M210,20h-50v50h50z M152.5,10h-2.5v2.5h2.5z M220,10h-2.5v2.5h2.5z M150,80h2.5v-2.5h-2.5z M217.5,80h2.5v-2.5h-2.5z" />
    <path fill="white" d="M170,30h30v30h-30z M172.5,30h-2.5v2.5h2.5z M200,30h-2.5v2.5h2.5z M170,60h2.5v-2.5h-2.5z M197.5,60h2.5v-2.5h-2.5z" />
    <path fill="white" d="M10,150h70v70h-70z M70,160h-50v50h50z M12.5,150h-2.5v2.5h2.5z M80,150h-2.5v2.5h2.5z M10,220h2.5v-2.5h-2.5z M77.5,220h2.5v-2.5h-2.5z" />
    <path fill="white" d="M30,170h30v30h-30z M32.5,170h-2.5v2.5h2.5z M60,170h-2.5v2.5h2.5z M30,200h2.5v-2.5h-2.5z M57.5,200h2.5v-2.5h-2.5z" />
  </g>
</svg>
