<svg width="800" height="800" viewBox="0 0 800 800" fill="none" xmlns="http://www.w3.org/2000/svg">
<path fill-rule="evenodd" clip-rule="evenodd" d="M562.721 569.931H236.285H234.138C179.858 568.781 136.207 524.199 136.207 469.399C136.207 416.07 177.543 372.439 229.786 369.074C237.329 327.979 269.751 295.64 310.779 288.404C334.88 252.113 376.01 228.207 422.696 228.207C496.947 228.207 557.136 288.67 557.136 363.256C557.136 365.19 557.097 367.113 557.017 369.027C558.905 368.92 560.805 368.866 562.721 368.866C617.993 368.866 662.797 413.876 662.797 469.399C662.797 523.62 620.067 567.817 566.585 569.858V569.931H562.721Z" fill="#50A5DC"/>
<path d="M235.065 568.43H222.38V581.133H235.065V568.43ZM235.065 568.43L247.75 568.409V555.971L235.331 555.709L235.065 568.43ZM230.738 369.334L231.55 382.011L241.42 381.378L243.213 371.638L230.738 369.334ZM311.275 289.372L313.468 301.884L318.816 300.944L321.827 296.422L311.275 289.372ZM556.127 369.288L543.454 368.754L542.865 382.757L556.84 381.969L556.127 369.288ZM565.643 568.357L565.164 555.666L552.958 556.13V568.357H565.643ZM565.643 568.43V581.133H578.328V568.43H565.643ZM561.8 555.727H237.2V581.133H561.8V555.727ZM237.2 555.727H235.065V581.133H237.2V555.727ZM235.331 555.709C188.243 554.717 150.37 516.175 150.37 468.779H125C125 530.025 173.937 579.825 234.797 581.106L235.331 555.709ZM150.37 468.779C150.37 422.66 186.235 384.92 231.55 382.011L229.928 356.659C171.344 360.419 125 409.175 125 468.779H150.37ZM243.213 371.638C249.753 336.118 277.896 308.138 313.468 301.884L309.082 276.862C263.061 284.952 226.724 321.083 218.263 367.031L243.213 371.638ZM321.827 296.422C343.54 263.829 380.556 242.405 422.563 242.405V217C371.722 217 326.941 242.969 300.723 282.324L321.827 296.422ZM422.563 242.405C489.39 242.405 543.564 296.652 543.564 363.568H568.934C568.934 282.622 503.401 217 422.563 217V242.405ZM543.564 363.568C543.564 365.307 543.527 367.035 543.454 368.754L568.802 369.821C568.888 367.747 568.934 365.662 568.934 363.568H543.564ZM556.84 381.969C558.481 381.877 560.134 381.831 561.8 381.831V356.426C559.659 356.426 557.53 356.487 555.416 356.605L556.84 381.969ZM561.8 381.831C609.755 381.831 648.63 420.759 648.63 468.779H674C674 406.729 623.766 356.426 561.8 356.426V381.831ZM648.63 468.779C648.63 515.672 611.554 553.9 565.164 555.666L566.125 581.051C626.091 578.77 674 529.381 674 468.779H648.63ZM552.958 568.357V568.43H578.328V568.357H552.958ZM565.643 555.727H561.8V581.133H565.643V555.727Z" fill="#163252"/>
<mask id="mask0_8_14" style="mask-type:luminance" maskUnits="userSpaceOnUse" x="303" y="316" width="215" height="214">
<path d="M517.486 316.095H303.644V529.939H517.486V316.095Z" fill="white"/>
</mask>
<g mask="url(#mask0_8_14)">
<path d="M513.228 433.943V412.092C513.228 406.528 508.717 402.018 503.154 402.018H484.443C482.808 396.251 480.508 390.763 477.644 385.634L490.884 372.396C494.819 368.462 494.819 362.083 490.884 358.149L475.433 342.699C471.498 338.764 465.121 338.764 461.186 342.699L447.946 355.938C442.819 353.073 437.332 350.775 431.565 349.139V330.429C431.565 324.865 427.054 320.354 421.49 320.354H399.639C394.076 320.354 389.566 324.865 389.566 330.429V349.139C383.8 350.775 378.311 353.073 373.183 355.938L359.943 342.698C356.01 338.764 349.632 338.764 345.697 342.698L330.247 358.149C326.313 362.083 326.313 368.462 330.247 372.396L343.486 385.634C340.622 390.763 338.324 396.251 336.688 402.018H317.977C312.414 402.018 307.903 406.528 307.903 412.092V433.943C307.903 439.506 312.414 444.016 317.977 444.016H336.688C338.324 449.782 340.622 455.271 343.486 460.399L330.247 473.639C326.313 477.572 326.313 483.95 330.247 487.885L345.698 503.335C349.632 507.269 356.01 507.269 359.945 503.335L373.183 490.097C378.312 492.96 383.8 495.258 389.566 496.894V515.606C389.566 521.168 394.076 525.678 399.639 525.678H421.491C427.054 525.678 431.565 521.169 431.565 515.606V496.894C437.332 495.258 442.819 492.96 447.946 490.097L461.186 503.335C465.121 507.269 471.498 507.269 475.433 503.335L490.884 487.885C494.819 483.95 494.819 477.572 490.884 473.639L477.644 460.399C480.508 455.271 482.808 449.782 484.443 444.016H503.154C508.717 444.016 513.228 439.506 513.228 433.943ZM410.566 462.894C388.542 462.894 370.688 445.04 370.688 423.017C370.688 400.993 388.542 383.139 410.566 383.139C432.589 383.139 450.444 400.993 450.444 423.017C450.444 445.04 432.589 462.894 410.566 462.894Z" fill="#CEF0FF"/>
<path d="M421.492 529.939H399.641C391.737 529.939 385.307 523.51 385.307 515.606V500.046C381.423 498.771 377.628 497.196 373.965 495.339L362.957 506.347C357.369 511.937 348.274 511.937 342.686 506.347L327.235 490.897C321.647 485.308 321.647 476.215 327.235 470.626L338.245 459.617C336.388 455.955 334.813 452.159 333.538 448.275H317.978C310.074 448.275 303.644 441.847 303.644 433.943V412.092C303.644 404.189 310.074 397.758 317.978 397.758H333.538C334.811 393.874 336.388 390.079 338.245 386.418L327.235 375.408C321.647 369.819 321.647 360.725 327.235 355.138L342.686 339.686C348.274 334.099 357.369 334.099 362.957 339.686L373.965 350.695C377.628 348.837 381.423 347.262 385.307 345.989V330.429C385.307 322.525 391.737 316.095 399.641 316.095H421.492C429.395 316.095 435.825 322.525 435.825 330.429V345.989C439.708 347.264 443.502 348.837 447.165 350.695L458.176 339.686C463.764 334.099 472.856 334.099 478.446 339.686L493.897 355.138C499.485 360.725 499.485 369.819 493.897 375.408L482.887 386.416C484.744 390.079 486.321 393.874 487.593 397.758H503.154C511.06 397.758 517.486 404.189 517.486 412.091V433.943C517.486 441.845 511.057 448.275 503.154 448.275H487.593C486.321 452.159 484.744 455.955 482.887 459.616L493.897 470.626C499.485 476.215 499.485 485.307 493.897 490.896L478.446 506.347C472.856 511.935 463.764 511.935 458.176 506.347L447.165 495.337C443.502 497.195 439.708 498.771 435.825 500.044V515.605C435.825 523.51 429.394 529.939 421.492 529.939ZM373.185 485.836C373.893 485.836 374.609 486.014 375.259 486.378C380.164 489.116 385.368 491.276 390.729 492.796C392.562 493.316 393.826 494.99 393.826 496.894V515.606C393.826 518.811 396.434 521.42 399.639 521.42H421.49C424.697 521.42 427.305 518.811 427.305 515.606V496.894C427.305 494.99 428.57 493.316 430.403 492.796C435.761 491.276 440.968 489.116 445.869 486.378C447.534 485.449 449.615 485.737 450.96 487.085L464.2 500.324C466.466 502.59 470.153 502.59 472.419 500.324L487.871 484.874C490.137 482.607 490.137 478.918 487.871 476.651L474.634 463.412C473.286 462.064 472.996 459.987 473.926 458.323C476.662 453.42 478.821 448.215 480.343 442.854C480.865 441.022 482.536 439.756 484.442 439.756H503.154C506.36 439.756 508.968 437.15 508.968 433.943V412.092C508.968 408.887 506.36 406.279 503.154 406.279H484.442C482.536 406.279 480.865 405.014 480.343 403.182C478.821 397.82 476.662 392.617 473.926 387.714C472.996 386.05 473.286 383.971 474.634 382.624L487.871 369.384C490.137 367.118 490.137 363.43 487.871 361.163L472.419 345.711C470.153 343.446 466.466 343.445 464.2 345.711L450.96 358.95C449.615 360.298 447.534 360.586 445.869 359.657C440.968 356.919 435.761 354.76 430.403 353.24C428.568 352.719 427.305 351.046 427.305 349.141V330.429C427.305 327.224 424.697 324.616 421.49 324.616H399.639C396.434 324.616 393.826 327.224 393.826 330.429V349.139C393.826 351.045 392.562 352.717 390.729 353.238C385.368 354.76 380.164 356.918 375.259 359.657C373.597 360.586 371.518 360.298 370.171 358.95L356.931 345.71C354.666 343.445 350.977 343.443 348.71 345.71L333.26 361.162C330.993 363.428 330.993 367.116 333.26 369.383L346.499 382.621C347.846 383.969 348.134 386.048 347.206 387.711C344.468 392.614 342.307 397.819 340.787 403.179C340.266 405.013 338.594 406.277 336.688 406.277H317.978C314.771 406.277 312.164 408.886 312.164 412.091V433.942C312.164 437.148 314.771 439.755 317.978 439.755H336.688C338.594 439.755 340.266 441.019 340.787 442.853C342.307 448.213 344.468 453.418 347.206 458.321C348.134 459.986 347.846 462.063 346.499 463.411L333.26 476.65C330.993 478.916 330.993 482.604 333.26 484.872L348.71 500.322C350.977 502.589 354.665 502.589 356.931 500.322L370.171 487.084C370.992 486.265 372.083 485.836 373.185 485.836ZM410.566 467.154C386.229 467.154 366.43 447.354 366.43 423.017C366.43 398.68 386.229 378.881 410.566 378.881C434.904 378.881 454.702 398.68 454.702 423.017C454.702 447.354 434.904 467.154 410.566 467.154ZM410.566 387.4C390.927 387.4 374.949 403.378 374.949 423.017C374.949 442.657 390.927 458.633 410.566 458.633C430.204 458.633 446.183 442.657 446.183 423.017C446.183 403.378 430.204 387.4 410.566 387.4Z" fill="#163252"/>
<path d="M351.857 420.239C349.724 420.239 347.994 418.542 347.994 416.45C347.994 406.166 350.999 396.19 356.684 387.601C362.219 379.238 370.001 372.589 379.189 368.377C381.122 367.489 383.421 368.307 384.325 370.203C385.229 372.098 384.395 374.354 382.462 375.24C366.216 382.692 355.72 398.868 355.72 416.45C355.72 418.542 353.989 420.239 351.857 420.239Z" fill="#163252"/>
</g>
</svg>
