<svg xmlns="http://www.w3.org/2000/svg" width="120" height="120" fill="none"><g filter="url(#a)"><rect width="120" height="120" fill="url(#b)" rx="30"/></g><g filter="url(#c)"><path fill="#E4FFF2" fill-rule="evenodd" d="M90 8H30A22 22 0 0 0 8 30v60a22 22 0 0 0 22 22h60a22 22 0 0 0 22-22V30A22 22 0 0 0 90 8ZM30 0A30 30 0 0 0 0 30v60a30 30 0 0 0 30 30h60a30 30 0 0 0 30-30V30A30 30 0 0 0 90 0H30Z" clip-rule="evenodd"/></g><path fill="#00DC82" fill-rule="evenodd" d="M67.2 19c.8 0 1.7.7 1.7 1.7v19l13.3-13.5c.7-.7 1.8-.7 2.4 0l10.2 10.2c.5.6.7 1.7 0 2.3v.1L81.3 52.1h19c1 0 1.7.8 1.7 1.7v14.4c0 1-.7 1.7-1.7 1.7h-19l13.5 13.3c.5.7.7 1.8 0 2.4L84.6 95.8c-.6.5-1.7.7-2.3 0h-.1L68.9 82.3v19c0 1-.8 1.7-1.7 1.7H52.8c-1 0-1.7-.7-1.7-1.7v-10c0-3 1.3-6 3.4-8.3L73 64.6c2-2 2-5.2 0-7.2L54.7 39a11.9 11.9 0 0 1-3.6-8.3V20.7c0-1 .8-1.7 1.7-1.7h14.4Zm-29.7 7.4h.2l31 31c2 2 2 5.2 0 7.2l-31 31.2c-.6.7-1.7.7-2.4 0l-10-10c-.6-.6-.8-1.6 0-2.3l13.4-13.6h-19c-1 0-1.7-.8-1.7-1.7V53.8c0-1 .7-1.7 1.7-1.7h19L25.2 38.8a2 2 0 0 1 0-2.4l10-10c.6-.7 1.8-.7 2.3 0Z" clip-rule="evenodd"/><defs><filter id="a" width="120" height="126" x="0" y="-4" color-interpolation-filters="sRGB" filterUnits="userSpaceOnUse"><feFlood flood-opacity="0" result="BackgroundImageFix"/><feBlend in="SourceGraphic" in2="BackgroundImageFix" result="shape"/><feColorMatrix in="SourceAlpha" result="hardAlpha" values="0 0 0 0 0 0 0 0 0 0 0 0 0 0 0 0 0 0 127 0"/><feOffset dy="-4"/><feGaussianBlur stdDeviation="3"/><feComposite in2="hardAlpha" k2="-1" k3="1" operator="arithmetic"/><feColorMatrix values="0 0 0 0 0 0 0 0 0 0 0 0 0 0 0 0 0 0 0.25 0"/><feBlend in2="shape" result="effect1_innerShadow_2311_4558"/><feColorMatrix in="SourceAlpha" result="hardAlpha" values="0 0 0 0 0 0 0 0 0 0 0 0 0 0 0 0 0 0 127 0"/><feOffset dy="2"/><feGaussianBlur stdDeviation="2"/><feComposite in2="hardAlpha" k2="-1" k3="1" operator="arithmetic"/><feColorMatrix values="0 0 0 0 1 0 0 0 0 1 0 0 0 0 1 0 0 0 0.59 0"/><feBlend in2="effect1_innerShadow_2311_4558" result="effect2_innerShadow_2311_4558"/></filter><filter id="c" width="120" height="126" x="0" y="-4" color-interpolation-filters="sRGB" filterUnits="userSpaceOnUse"><feFlood flood-opacity="0" result="BackgroundImageFix"/><feBlend in="SourceGraphic" in2="BackgroundImageFix" result="shape"/><feColorMatrix in="SourceAlpha" result="hardAlpha" values="0 0 0 0 0 0 0 0 0 0 0 0 0 0 0 0 0 0 127 0"/><feOffset dy="-4"/><feGaussianBlur stdDeviation="3"/><feComposite in2="hardAlpha" k2="-1" k3="1" operator="arithmetic"/><feColorMatrix values="0 0 0 0 0 0 0 0 0 0 0 0 0 0 0 0 0 0 0.25 0"/><feBlend in2="shape" result="effect1_innerShadow_2311_4558"/><feColorMatrix in="SourceAlpha" result="hardAlpha" values="0 0 0 0 0 0 0 0 0 0 0 0 0 0 0 0 0 0 127 0"/><feOffset dy="2"/><feGaussianBlur stdDeviation="2"/><feComposite in2="hardAlpha" k2="-1" k3="1" operator="arithmetic"/><feColorMatrix values="0 0 0 0 1 0 0 0 0 1 0 0 0 0 1 0 0 0 0.59 0"/><feBlend in2="effect1_innerShadow_2311_4558" result="effect2_innerShadow_2311_4558"/></filter><radialGradient id="b" cx="0" cy="0" r="1" gradientTransform="matrix(-65.5 76 -76 -65.5 90.5 22.5)" gradientUnits="userSpaceOnUse"><stop stop-color="#fff"/><stop offset="1" stop-color="#D7FFEB"/></radialGradient></defs></svg>