<?xml version="1.0" encoding="utf-8"?>
<!-- Generator: Adobe Illustrator 16.0.4, SVG Export Plug-In . SVG Version: 6.00 Build 0)  -->
<!DOCTYPE svg PUBLIC "-//W3C//DTD SVG 1.1//EN" "http://www.w3.org/Graphics/SVG/1.1/DTD/svg11.dtd">
<svg version="1.1" id="gr_x5F_icon10_x5F_seoMatic" xmlns="http://www.w3.org/2000/svg" xmlns:xlink="http://www.w3.org/1999/xlink"
	 x="0px" y="0px" width="250px" height="250px" viewBox="0 0 250 250" enable-background="new 0 0 250 250" xml:space="preserve">
<g id="gr_x5F_big_10_">
	<path id="gr_104_" fill="#F3BA48" d="M237.666,172.701c0,9.539-6.756,21.251-15.021,26.02l-82.621,47.701
		c-8.262,4.771-21.78,4.771-30.042,0l-82.625-47.701c-8.263-4.769-15.021-16.479-15.021-26.02V77.298
		c0-9.539,6.759-21.25,15.021-26.019l82.624-47.7c8.263-4.771,21.782-4.771,30.043,0l82.621,47.701
		c8.266,4.768,15.021,16.479,15.021,26.019L237.666,172.701L237.666,172.701z"/>
	<g>
		<path fill="#FFFFFF" d="M149.373,113.166c2.338,4.039,0.928,9.305-3.152,11.663c-4.045,2.337-9.312,0.921-11.647-3.118
			c-2.353-4.081-0.964-9.385,3.075-11.719C141.729,107.635,147.016,109.085,149.373,113.166z"/>
		<path fill="#FFFFFF" d="M175.658,105.608c-3.092,1.786-7.061,0.722-8.838-2.368c-1.787-3.09-0.728-7.059,2.363-8.845
			l28.223-16.294c3.098-1.782,7.061-0.718,8.846,2.372c1.785,3.09,0.725,7.056-2.371,8.841L175.658,105.608z"/>
		<path fill="#FFFFFF" d="M153.691,71.125l-83.509,48.214c-6.836,3.945-9.173,12.681-5.232,19.517l20.09,34.795
			c3.948,6.832,12.682,9.173,19.518,5.23l83.508-48.215c6.83-3.948,9.175-12.684,5.226-19.517l-20.09-34.793
			C169.262,69.521,160.521,67.181,153.691,71.125z M103.182,157.593c-4.826,2.783-8.649,2.323-9.995,1.96
			c-0.586-0.156-0.788-0.24-0.788-0.935l-0.035-4.081c0.021-0.655,0.768-0.986,1.137-0.952c0.188-0.01,3.997,0.415,6.445-1.001
			c1.486-0.857,2.023-2.406,1.27-3.703c-0.899-1.556-2.881-1.994-5.984-1.542c-3.914,0.582-9.354,0.408-11.929-4.042
			c-2.12-3.673-1.401-9.029,4.312-12.33c3.857-2.229,7.959-1.974,9.542-1.799c0.593,0,0.907,0.711,0.907,1.057l-0.244,3.951
			c-0.021,0.559-0.496,1.276-0.977,1.211c-0.447,0.004-4.332-0.472-6.592,0.834c-1.34,0.773-1.821,2.241-1.249,3.242
			c0.795,1.375,2.504,1.766,6.124,1.264c3.558-0.522,9.466-0.914,12.375,4.133C109.711,148.678,108.63,154.443,103.182,157.593z
			 M120.775,118.649c0.216,0.37,0.104,0.875-0.3,1.109l-10.275,5.932l2.658,4.602l8.454-4.883c0.369-0.213,0.899-0.07,1.116,0.3
			l2.329,4.038c0.237,0.412,0.077,0.902-0.293,1.115l-8.461,4.884l2.895,5.009l10.276-5.934c0.404-0.236,0.893-0.072,1.107,0.297
			l2.338,4.046c0.209,0.37,0.104,0.876-0.301,1.108l-15.359,8.867c-0.405,0.236-0.9,0.072-1.109-0.298l-14.182-24.557
			c-0.209-0.37-0.104-0.879,0.301-1.113l15.359-8.866c0.404-0.237,0.9-0.073,1.109,0.296L120.775,118.649z M149.646,130.766
			c-7.422,4.282-16.722,1.789-21.004-5.628c-4.284-7.418-1.843-16.797,5.58-21.08c7.422-4.283,16.805-1.737,21.088,5.682
			C159.593,117.158,157.061,126.482,149.646,130.766z M176.814,109.839c-5.127,2.958-11.676,1.207-14.633-3.92
			c-2.966-5.127-1.207-11.677,3.92-14.634c5.119-2.958,11.676-1.207,14.635,3.92C183.693,100.332,181.936,106.881,176.814,109.839z"
			/>
		<path fill="#F3BA48" d="M198.746,80.423c1.82-1.05,4.137-0.425,5.189,1.388c1.047,1.813,0.426,4.136-1.396,5.183l-28.224,16.295
			c-1.813,1.046-4.129,0.425-5.184-1.388c-1.045-1.813-0.426-4.137,1.389-5.183L198.746,80.423 M196.068,75.785L167.846,92.08
			c-4.367,2.521-5.875,8.126-3.35,12.5c2.525,4.37,8.135,5.873,12.5,3.348l28.223-16.295c4.375-2.525,5.873-8.13,3.355-12.5
			C206.049,74.759,200.441,73.26,196.068,75.785L196.068,75.785z"/>
	</g>
</g>
</svg>
