<?xml version="1.0" encoding="utf-8"?>
<!-- Generator: Adobe Illustrator 24.0.1, SVG Export Plug-In . SVG Version: 6.00 Build 0)  -->
<svg version="1.2" baseProfile="tiny" id="Ebene_1" xmlns="http://www.w3.org/2000/svg" xmlns:xlink="http://www.w3.org/1999/xlink"
	 x="0px" y="0px" viewBox="0 0 283.46 283.46" xml:space="preserve">
<g id="XMLID_985_">
	<path id="XMLID_987_" fill="#189EFF" d="M188.45,171.31c-6.83-5.14-16.89-9.04-27.54-13.17c-12.68-4.92-27.05-10.49-37.84-19.07
		c-12.22-9.73-18.17-22-18.17-37.53c0-13.93,5.78-25.84,16.72-34.45c12.26-9.65,30.84-14.76,53.72-14.76
		c6.32,0,12.36,0.39,17.96,1.16c0.49,0.07,0.97-0.2,1.17-0.64c0.21-0.45,0.1-0.98-0.27-1.31c-14.42-12.97-33.06-20.11-52.47-20.11
		c-20.98,0-40.71,8.17-55.55,23.01c-14.84,14.83-23.01,34.56-23.01,55.54c0,20.98,8.17,40.71,23.01,55.54
		c14.83,14.83,34.56,23,55.55,23c16.95,0,33.1-5.32,46.71-15.39c0.28-0.21,0.46-0.55,0.46-0.9
		C188.91,171.86,188.74,171.52,188.45,171.31z"/>
	<path id="XMLID_986_" fill="#189EFF" d="M219.95,102.7c-0.03-0.3-0.17-0.58-0.4-0.77c-16.39-13.6-29.65-19.15-45.76-19.15
		c-8.6,0-15.19,1.72-19.59,5.12c-3.81,2.94-5.83,7.05-5.83,11.86c0,13.49,16.49,19.64,35.58,26.76c9.84,3.67,20.01,7.46,29.35,12.65
		c0.17,0.09,0.36,0.14,0.55,0.14c0.13,0,0.26-0.02,0.38-0.07c0.31-0.11,0.55-0.35,0.67-0.65c3.57-9.14,5.38-18.77,5.38-28.63
		C220.28,107.65,220.17,105.2,219.95,102.7z"/>
</g>
<g id="XMLID_961_">
	<g id="XMLID_983_">
		<path id="XMLID_984_" fill="#189EFF" d="M41.93,224.23c-2.72-1.19-4.95-2.26-4.95-4.04c0-1.25,1.41-2.43,3.77-2.43
			c2.13,0,3.96,0.53,5.85,1.37c0.53,0.24,1.36,0.3,1.77-0.53l0.95-1.9c0.35-0.71,0.06-1.54-0.59-2.02c-1.36-0.89-4.2-2.02-7.98-2.02
			c-6.62,0-9.33,4.04-9.33,7.48c0,4.51,3.48,6.77,7.67,8.67c3.78,1.72,5.85,2.91,5.85,4.75c0,1.54-1.3,2.67-3.6,2.67
			c-3.25,0-5.2-1.13-6.8-2.02c-0.71-0.42-1.48-0.24-1.77,0.36l-1.24,2.55c-0.3,0.59,0.06,1.13,0.47,1.42
			c1.54,1.07,4.67,2.79,8.98,2.79c6.09,0,9.75-3.74,9.75-8.02C50.73,228.21,46.95,226.37,41.93,224.23z"/>
	</g>
	<path id="XMLID_980_" fill="#189EFF" d="M202.22,241c0.82-0.09,1.38-0.7,1.38-1.44v-13.93c0-7.13-0.86-12.65-10-12.65
		c-5.24,0-9.32,1.43-9.81,1.61c-0.68,0.25-1.11,0.68-0.93,1.67l0.56,2.36c0.19,0.8,0.74,1.36,1.6,1.18
		c1.48-0.43,4.69-1.36,7.96-1.36c3.58,0,4.69,2.05,4.57,6.57c0,0-2.78-0.87-5.74-0.87c-7.34,0-11.41,3.97-11.41,9.24
		c0,5.95,3.76,7.97,9.13,7.97c4.38,0,8.89-0.05,10.76-0.17L202.22,241z M197.49,235.95c-0.86,1.43-3.95,1.07-6.6,1.01
		c-2.96-0.06-4.44-1.11-4.44-3.65c0-2.98,2.53-4.71,5.86-4.71c2.59,0,4.81,0.74,5.18,0.99V235.95z"/>
	<path id="XMLID_977_" fill="#189EFF" d="M248.8,212.65c1.79,0,3.24-1.45,3.24-3.25c0-1.8-1.45-3.25-3.24-3.25
		c-1.79,0-3.24,1.45-3.24,3.25C245.56,211.2,247.01,212.65,248.8,212.65z M248.8,206.63c1.51,0,2.73,1.25,2.73,2.78
		c0,1.53-1.23,2.77-2.73,2.77c-1.51,0-2.73-1.25-2.73-2.77C246.07,207.87,247.3,206.63,248.8,206.63z"/>
	<path id="XMLID_974_" fill="#189EFF" d="M247.7,211.05h0.3c0.05,0,0.09-0.04,0.09-0.09v-1.2h0.71l0.61,1.23
		c0.02,0.04,0.05,0.06,0.1,0.06h0.35c0.08,0,0.11-0.07,0.08-0.14l-0.64-1.19c0.41-0.16,0.69-0.52,0.69-0.95
		c0-0.56-0.46-1.01-1.02-1.01h-1.27c-0.05,0-0.09,0.04-0.09,0.09v3.11C247.61,211,247.65,211.05,247.7,211.05z M248.1,208.21h0.83
		c0.3,0,0.57,0.25,0.57,0.56c0,0.33-0.27,0.58-0.57,0.58h-0.83V208.21z"/>
	<path id="XMLID_973_" fill="#189EFF" d="M68.89,212.65c-4.31,0-7.27,2.38-7.92,2.85v-12.25c0-0.65-0.65-1.31-1.3-1.31h-3.31
		c-0.71,0-1.3,0.65-1.3,1.31v36.78c0,0.71,0.59,1.31,1.3,1.31h3.25c0.83,0,1.36-0.53,1.36-1.31v-17.76
		c0.59-1.19,2.96-3.98,7.15-3.98c3.55,0,5.44,2.67,5.44,7.19v14.56c0,0.71,0.59,1.31,1.3,1.31h3.31c0.65,0,1.3-0.59,1.3-1.31V225.6
		C79.47,218.11,76.63,212.65,68.89,212.65z"/>
	<path id="XMLID_970_" fill="#189EFF" d="M138.13,225.89c-0.33-9.32-4.21-13.24-13.17-13.24c-4.3,0-9.43,1.3-10.18,1.63
		c-0.93,0.4-1.62,0.88-1.62,1.54v0.54v1.99v6.44v0.88v25.07c0,0.71,0.59,1.31,1.3,1.31h2.74c0.89,0,1.42-0.53,1.42-1.31l0-9.87
		c0.83,0.22,5.07,0.58,8.62,0.47c6.32-0.2,10.56-4.81,10.92-12.6C138.2,227.68,138.13,225.89,138.13,225.89z M132.42,228.73
		c-0.12,5.28-1.65,7.62-6.08,7.86c-2.19,0.12-7.36-0.49-7.36-0.49c-0.21-0.07-0.36-0.16-0.36-0.36l0-10.71v-6.07
		c0-0.16,0.12-0.3,0.28-0.32c0.61-0.07,2.84-0.79,6.07-0.79c5.39,0,7.29,0.8,7.47,7.65C132.44,226.42,132.44,227.69,132.42,228.73z"
		/>
	<path id="XMLID_969_" fill="#189EFF" d="M177.27,213.24h-2.48c-0.71,0-1.71,0-2.07,0.83l-4.37,15.8h-0.12l-7.33-16.57
		c-0.12-0.36-0.53-0.65-1.18-0.65h-0.41c-0.53,0-0.95,0.3-1.12,0.65l-7.39,16.51h-0.12l-4.49-15.74c-0.12-0.53-0.71-0.83-1.18-0.83
		h-3.55c-0.95,0-1.36,0.71-0.95,1.54l7.98,25.83c0.12,0.42,0.53,0.71,1.12,0.71h0.35c0.59,0,0.95-0.3,1.06-0.65l8.39-18.65h0.12
		l8.33,18.65c0.18,0.36,0.59,0.65,1.18,0.65h0.24c0.59,0,1.12-0.3,1.24-0.71l7.8-25.83C178.75,213.96,178.22,213.24,177.27,213.24z"
		/>
	<path id="XMLID_968_" fill="#189EFF" d="M220.87,212.98c-0.14,0-0.28,0.01-0.42,0.02c-0.24-0.01-0.47-0.02-0.72-0.02
		c-1.42,0-2.78,0.04-4.05,0.11v0c-2.45,0.1-3.9,0.28-4.94,0.4c0,0-0.66,0.06-1.43,0.16c-0.52,0.07-0.9,0.28-1.12,0.58
		c-0.16,0.17-0.25,0.39-0.25,0.65v0.09v0.54v1.99v5.52v17c0,0.71,0.59,1.31,1.3,1.31h2.72c1.12,0,1.89-0.12,1.89-1.31v-17h0v-3.9
		c0-0.16,0.26-0.37,0.4-0.45c0.67-0.4,2.27-0.69,5.49-0.69c0.31,0,0.52,0,0.75,0.01c0.74,0.07,1.91,0.3,2.29,0.52
		c0.59,0.3,1.3,0.12,1.66-0.65l1.42-2.33C226.72,213.69,223.47,212.98,220.87,212.98z"/>
	<path id="XMLID_965_" fill="#189EFF" d="M239.58,212.65c-8.22,0-13.59,6.59-13.59,14.31c0,7.84,5.38,14.37,13.65,14.37
		c4.55,0,8.16-1.66,10.11-3.39c0.83-0.71,0.59-1.25,0.12-1.84l-1.6-2.49c-0.47-0.71-1-0.53-1.6-0.12c-1.66,1.19-3.55,2.32-6.68,2.32
		c-4.79,0-8.1-3.8-8.16-7.48h18.85c0.59,0,1.18-0.48,1.24-1.19c0.06-0.47,0.12-1.42,0.12-1.9
		C252.05,217.94,246.67,212.65,239.58,212.65z M232.13,223.93c0.41-3.44,3.01-6.24,7.33-6.24c4.02,0,6.62,2.91,6.74,6.24H232.13z"/>
	<path id="XMLID_962_" fill="#189EFF" d="M108.42,221.13c-0.62-1.77-1.48-3.28-2.59-4.54c-1.11-1.26-2.44-2.23-3.98-2.92
		c-1.54-0.68-3.72-1.02-5.54-1.02c-1.81,0-3.99,0.34-5.53,1.02c-1.54,0.68-2.87,1.65-3.98,2.92c-1.11,1.26-1.98,2.78-2.59,4.54
		c-0.62,1.77-0.92,3.72-0.92,5.86c0,2.17,0.31,4.13,0.92,5.88c0.62,1.75,1.48,3.26,2.59,4.52c1.11,1.26,2.44,2.23,3.98,2.92
		c1.54,0.68,3.72,1.02,5.53,1.02c1.81,0,4-0.34,5.54-1.02c1.54-0.68,2.86-1.65,3.98-2.92c1.11-1.26,1.98-2.77,2.59-4.52
		c0.62-1.75,0.92-3.71,0.92-5.88C109.35,224.86,109.04,222.9,108.42,221.13z M96.17,236.61c-4.93,0-7.41-4.2-7.41-9.37
		s2.48-9.37,7.41-9.37s7.42,4.2,7.42,9.37S101.1,236.61,96.17,236.61z"/>
</g>
</svg>
