<svg width="512" height="512" viewBox="0 0 512 512" fill="none" xmlns="http://www.w3.org/2000/svg"><path d="M281.014 392H433.428C438.269 392.001 443.025 390.744 447.217 388.356C451.409 385.969 454.89 382.535 457.31 378.399C459.729 374.264 461.002 369.573 461 364.799C460.998 360.024 459.721 355.334 457.298 351.201L354.941 176.344C352.521 172.21 349.041 168.776 344.85 166.389C340.658 164.002 335.903 162.745 331.063 162.745C326.223 162.745 321.469 164.002 317.277 166.389C313.086 168.776 309.605 172.21 307.186 176.344L281.014 221.084L229.843 133.597C227.421 129.463 223.939 126.03 219.747 123.643C215.554 121.256 210.799 120 205.958 120C201.117 120 196.361 121.256 192.169 123.643C187.976 126.03 184.494 129.463 182.073 133.597L54.7021 351.201C52.2789 355.334 51.0021 360.024 51 364.799C50.9979 369.573 52.2706 374.264 54.6901 378.399C57.1095 382.535 60.5905 385.969 64.7828 388.356C68.9751 390.744 73.731 392.001 78.572 392H174.245C212.152 392 240.106 375.578 259.342 343.539L306.042 263.773L331.056 221.084L406.127 349.311H306.042L281.014 392ZM172.685 349.267L105.918 349.253L206.002 178.293L255.941 263.773L222.505 320.906C209.731 341.693 195.218 349.267 172.685 349.267Z" fill="url(#paint0_linear_205_15)"/><defs><linearGradient id="paint0_linear_205_15" x1="51" y1="120" x2="467.065" y2="129.618" gradientUnits="userSpaceOnUse"><stop stop-color="#36E4DA"/><stop offset="1" stop-color="#407CFF"/></linearGradient></defs></svg>