<?xml version="1.0" encoding="UTF-8"?>
<svg width="97px" height="128px" viewBox="0 0 97 128" version="1.1" xmlns="http://www.w3.org/2000/svg" xmlns:xlink="http://www.w3.org/1999/xlink">
    <title>TwicPics Logo</title>
    <g stroke="none" stroke-width="1" fill="none" fill-rule="evenodd">
        <g transform="translate(-16.000000, 0.000000)">
            <g transform="translate(16.000000, 0.000000)">
                <path d="M13.2949406,41.604779 C3.56836717,32.0871147 3.56836717,16.6559124 13.2948564,7.13824817 C23.0214298,-2.37941606 38.7912048,-2.37941606 48.5176941,7.13824817 L49.7328843,8.32734863 L49.7401246,8.33443348 C59.4312543,17.8548163 59.4203097,33.2603979 49.7051018,42.7666934 L32.0937672,60 L13.2949406,41.604779 Z" id="Path" fill="#00FFA3"></path>
                <path d="M32.3590428,60.7486216 L7.38668396,85.4374287 C-2.46221378,95.1742276 -2.46221378,110.960602 7.38659871,120.697401 C17.2354965,130.4342 33.2035969,130.4342 43.0524094,120.697401 L92.2723466,72.0370043 C98.5756003,65.8058069 98.5756003,55.7034039 92.2740516,49.4715324 L50.3355914,8 C60.155931,17.7391588 60.1465537,33.5049688 50.3074595,43.2325813 L32.4745541,60.8628202 L32.3590428,60.7486216 Z" id="Path" fill="#8F00FF" fill-rule="nonzero"></path>
            </g>
        </g>
    </g>
</svg>
