<?xml version="1.0" encoding="UTF-8"?><svg id="Layer_1" xmlns="http://www.w3.org/2000/svg" viewBox="0 0 595.28 260.79"><defs><style>.cls-1{fill:#f18518;}.cls-2{fill:#1d1d1b;}</style></defs><path class="cls-1" d="M272.71,133.21l37.77-38.36V52.72H0v53.18H59.57v150.24h68.58V105.9h101.86l-28.51,29.06v42.14h27.03c17.43,0,24.12,5.23,24.12,13.95,0,10.46-11.05,15.69-26.44,15.69-17.15,0-37.2-4.65-54.64-14.82l-23.24,50.57c21.79,12.2,52.31,18.31,80.21,18.31,65.09,0,92.99-34.87,92.99-69.74,0-28.19-16.86-49.98-48.82-57.83Z"/><path class="cls-2" d="M527.86,85.09h47.53v56.31h-47.53v-56.31Zm9.03-52.26h-39.77v39.77h39.77V32.83Zm28.74,19.88h-19.88v19.88h19.88v-19.88ZM536.89,.63h-19.88V20.52h19.88V.63Zm38.5,22.26v19.88h19.88V22.89h-19.88Zm-58.38,101.79v-39.77h-39.77v39.77h-63.28V52.7h-68.51V255.88h68.51v-74.89h63.28v74.89h68.5v-103.05h-28.74v-28.16Z"/></svg>