<svg xmlns="http://www.w3.org/2000/svg" viewBox="0 0 132 128"><path d="M78.31 0L65.89 82.44l-48.81 6.34-.85 5.5 62.5-1.48 11.35-68.28 41.91-10.46-15.92 91.85-32.15 21.99H0L18.14 15.43 78.31 0zM54.97 64.58l-37.52 9.3-.42 2.85 37.52-9.3.42-2.85zm2.43-15.01l-37.52 9.3-.42 2.85 37.52-9.3.42-2.85zm2.43-15.01l-37.52 9.3-.42 2.85 37.52-9.3.42-2.85zm2.43-15.11l-37.52 9.3-.42 2.85 37.52-9.3.42-2.85z" fill="#4376f8"/><path d="M113.63 106.01l-28.86-.11-3.17 22.09L113.63 106z" fill="rgba(255,255,255,.7)"/></svg>