<svg xmlns="http://www.w3.org/2000/svg" fill="none" viewBox="0 0 240 240"><path fill="#FF4552" d="M0 170h180v20H0z"/><path fill="url(#a)" fill-rule="evenodd" d="M20 50H0v100h20V50Zm80 40H60v20H40v20h20v20h40V90Zm-40 40v-20h20v20H60Zm100-40h-40v20h20v20h-20v20h40V90Zm60 0h20v80h-20v-20h-20v-20h20V90Zm-20 40h-20V90h20v40Zm20 40v20h-20v-20h20Z" clip-rule="evenodd"/><path fill="#FF4552" d="M40 50h200v20H40z"/><defs><linearGradient id="a" x1="120" x2="120" y1="70" y2="190" gradientUnits="userSpaceOnUse"><stop stop-color="#FF4552"/><stop offset="1" stop-color="#FF6E78"/></linearGradient></defs></svg>
