<?xml version="1.0" encoding="UTF-8"?><svg id="_イヤー_2" xmlns="http://www.w3.org/2000/svg" viewBox="0 0 34.05 27.69"><defs><style>.cls-1{fill:#52499b;}.cls-2{fill:#1fb188;}</style></defs><g id="_イヤー_3"><g><circle class="cls-2" cx="2.29" cy="25.4" r="2.29"/><path class="cls-2" d="M2.88,21.99s-.03,0-.04,0c-.25-.02-.43-.24-.41-.49,.01-.14,.34-3.46,3.27-4.32,1.66-.49,2.66,.15,3.47,.67,.66,.42,1.02,.63,1.55,.44,1.23-.46,2.36-2.47,2.69-3.21,.1-.23,.37-.33,.6-.23,.23,.1,.33,.37,.23,.6-.05,.12-1.36,3.01-3.2,3.69-.97,.36-1.71-.11-2.36-.52-.75-.48-1.46-.94-2.72-.56-2.33,.69-2.61,3.41-2.62,3.53-.02,.24-.22,.41-.45,.41Z"/><path class="cls-1" d="M18.81,27.09c-.05,0-.1,0-.15-.01-.59-.08-1-.63-.91-1.22,.94-6.52-.92-11.59-2.79-13.96-.86-1.08-1.78-1.72-2.61-1.8-.59-.05-1.03-.57-.97-1.17s.58-1.03,1.17-.98c1.44,.13,2.86,1.03,4.1,2.6,2.24,2.83,4.27,8.42,3.24,15.6-.08,.54-.54,.92-1.06,.92Z"/><path class="cls-1" d="M24.84,26.28c-.51,0-.98-.3-1.19-.79-.27-.66,.04-1.41,.69-1.69,1.12-.47,3.06-1.72,4.61-3.23,1.74-1.69,2.63-3.31,2.5-4.56-.26-2.46-5.63-2.09-5.69-2.09l-2.88,.25,1.73-2.31c2.22-2.95,2.2-4.07,2.17-5.48-.04-2.49-1.14-3.11-1.51-3.31-3.3-1.84-11.93,1.84-16.6,4.6-.61,.36-1.4,.16-1.77-.45-.36-.61-.16-1.4,.45-1.77,.13-.08,3.31-1.95,7.18-3.48C20-.19,24.03-.58,26.54,.82c1.26,.7,2.77,2.23,2.83,5.52,.03,1.55-.07,2.91-1.31,5.02,2.7,.25,5.64,1.36,5.96,4.38,.22,2.08-.91,4.39-3.27,6.68-1.87,1.82-4.07,3.2-5.41,3.76-.16,.07-.33,.1-.5,.1Z"/></g></g></svg>