<svg width="56" height="56" viewBox="0 0 56 56" fill="none" xmlns="http://www.w3.org/2000/svg">
    <rect x="0.5" y="0.5" width="55" height="55" rx="7.5" fill="url(#paint0_linear_158_212)" style=""/>
    <rect x="0.5" y="0.5" width="55" height="55" rx="7.5" stroke="#2A303F" style="stroke:#2A303F;stroke:color(display-p3 0.1637 0.1864 0.2469);stroke-opacity:1;"/>
    <path d="M27.7858 51.8889H27.6558C27.5065 51.8591 27.3474 51.8528 27.2125 51.8139C26.6751 51.6571 26.2439 51.3174 25.919 50.795C25.7484 50.5214 25.6306 50.2182 25.5657 49.8854C25.5195 49.6503 25.4979 49.3283 25.5009 48.9192C25.5101 47.5854 25.51 42.0749 25.5004 40.5977C25.4968 40.0844 25.5169 39.7108 25.5607 39.4769C25.6816 38.8293 25.9772 38.3095 26.4474 37.9176C26.9461 37.502 27.6019 37.3463 28.1985 37.506C28.7761 37.661 29.2308 38.0212 29.5626 38.5868C29.723 38.86 29.8319 39.1542 29.8893 39.4695C29.9265 39.6751 29.9449 39.9782 29.9446 40.3785C29.9426 42.1156 29.9413 47.8209 29.9407 49.2844C29.9402 49.9839 29.7103 50.6359 29.2843 51.1299C28.8879 51.5897 28.3884 51.8427 27.7858 51.8889Z" fill="white" style="fill:white;fill-opacity:1;"/>
    <path fill-rule="evenodd" clip-rule="evenodd" d="M38.4656 42.421C38.4655 43.2145 39.3398 43.6809 39.9618 43.188C44.5203 39.5755 47.4444 33.9904 47.4444 27.7222C47.4444 16.8299 38.6145 8 27.7222 8C16.8299 8 8 16.8299 8 27.7222C8 33.9933 10.9269 39.5807 15.4891 43.1931C16.1112 43.6857 16.9854 43.2192 16.9854 42.4256C16.9853 39.8378 16.986 36.7558 16.9876 34.1279C16.9891 31.818 17.7084 29.5535 19.0996 27.7154C20.53 25.8259 22.3773 24.5272 24.6416 23.8193C24.6806 23.8072 24.6825 23.7904 24.6475 23.769C23.4403 23.0328 22.5859 21.9133 22.1646 20.5587C22.1611 20.5477 22.1543 20.538 22.1451 20.5312C22.1359 20.5244 22.1248 20.5207 22.1134 20.5207H15.8944C15.4256 20.5207 15.0334 20.37 14.718 20.0687C14.0366 19.4173 14.0293 18.37 14.7026 17.7113C15.023 17.3978 15.4295 17.241 15.9222 17.241C17.9918 17.2401 20.0258 17.2398 22.0243 17.2403C22.0516 17.2403 22.0696 17.2272 22.0784 17.2009C22.5925 15.7135 23.5234 14.5955 24.871 13.8467C25.645 13.4168 26.5002 13.1819 27.4364 13.142H27.8717C28.8093 13.1868 29.6496 13.4168 30.3926 13.8321C31.7689 14.6013 32.7107 15.7318 33.218 17.2235C33.2197 17.2284 33.2228 17.2326 33.227 17.2356C33.2312 17.2387 33.2362 17.2403 33.2414 17.2403C35.3937 17.2398 37.4745 17.2415 39.4837 17.2454C39.9837 17.2464 40.3956 17.4185 40.7194 17.7617C41.3598 18.4423 41.4533 19.4165 40.7683 20.1169C40.4494 20.4426 40.0356 20.6054 39.5268 20.6054C37.4645 20.6059 35.4027 20.6061 33.3414 20.6061C33.3141 20.6061 33.2964 20.6193 33.2881 20.6456C32.849 22.0282 32.0177 23.1008 30.7942 23.8632C30.7699 23.8783 30.7713 23.8899 30.7986 23.8982C31.9325 24.2317 32.9446 24.7098 33.8351 25.3325C36.448 27.1604 38.1817 30.0573 38.4227 33.2625C38.4548 33.6914 38.4706 34.1554 38.4701 34.6544C38.4672 36.4315 38.4657 39.6774 38.4656 42.421ZM30.8855 19.5516C30.85 19.8486 30.7562 20.149 30.6043 20.4528C30.4021 20.8574 30.1151 21.2188 29.7616 21.4993C29.1574 21.9793 28.4607 22.223 27.6716 22.2303C27.1735 22.2347 26.7093 22.1356 26.2789 21.933C25.1485 21.4014 24.4058 20.295 24.3802 19.0507C24.3612 18.1364 24.667 17.352 25.2974 16.6977C25.9216 16.0507 26.6898 15.7172 27.6022 15.6972C28.4515 15.6783 29.3066 16.0193 29.9084 16.6115C30.7005 17.3905 31.0262 18.3705 30.8855 19.5516Z" fill="white" style="fill:white;fill-opacity:1;"/>
    <defs>
        <linearGradient id="paint0_linear_158_212" x1="28" y1="0" x2="28" y2="56" gradientUnits="userSpaceOnUse">
        <stop stop-color="#1B2133" style="stop-color:#1B2133;stop-color:color(display-p3 0.1067 0.1276 0.1989);stop-opacity:1;"/>
        <stop offset="1" stop-color="#292F41" style="stop-color:#292F41;stop-color:color(display-p3 0.1618 0.1833 0.2562);stop-opacity:1;"/>
        </linearGradient>
    </defs>
</svg>
