<svg width="1024" height="1024" viewBox="0 0 1024 1024" fill="none" xmlns="http://www.w3.org/2000/svg">
<path d="M86.1033 616.486L143.649 465.049H184.84L122.751 616.486H86.1033ZM82.7717 616.486L20.6825 465.049H61.8734L119.42 616.486H82.7717ZM203.214 543.493V509.268H294.076V543.493H203.214Z" fill="white"/>
<path d="M419.112 467.909C414.137 473.945 410.368 480.714 407.112 487.775C404.478 493.519 401.99 499.3 399.905 505.263C397.563 512.032 395.624 518.91 394.16 525.935C391.855 536.764 390.868 547.704 391.014 558.753C391.087 565.631 391.49 572.509 393.502 579.168C395.075 584.364 397.49 589.047 402.136 592.266C405.795 594.791 409.819 595.522 414.1 595.193C424.381 594.461 432.064 589.12 438.064 581.071C441.942 575.875 444.833 570.131 446.589 563.875C446.772 563.253 446.918 562.558 446.955 561.899C447.028 560.546 446.406 559.887 444.979 559.924C440.772 559.96 436.564 559.96 432.357 559.924C428.588 559.887 427.015 558.131 427.82 554.509C429.43 547.228 431.149 539.947 432.796 532.667C433.857 527.947 434.991 523.227 435.942 518.471C436.711 514.63 438.394 513.129 442.308 513.129C469.346 513.129 496.42 513.129 523.457 513.129C524.774 513.129 526.128 512.873 527.299 513.861C528.689 515.069 529.421 516.422 529.018 518.325C526.933 527.581 524.884 536.801 522.799 546.057C522.067 549.24 521.335 552.423 520.567 555.643C519.872 558.533 518.116 559.887 515.079 559.924C512.042 559.924 508.969 560.033 505.932 559.887C504.03 559.814 503.188 560.655 502.676 562.338C501.542 566.18 500.408 570.022 499.054 573.79C497.334 578.619 495.505 583.485 493.456 588.205C490.017 596.108 486.029 603.754 481.236 610.925C472.821 623.475 462.321 633.682 448.601 640.268C441.723 643.561 434.442 645.683 426.905 646.963C418.234 648.463 409.49 648.939 400.709 648.646C388.526 648.244 377.148 645.097 367.16 637.999C359.074 632.292 352.562 625.048 347.622 616.45C343.122 608.73 340.049 600.315 338.146 591.608C335.293 578.583 334.451 565.375 335.329 552.058C336.024 541.301 337.451 530.618 339.5 520.044C341.11 511.776 343.232 503.617 345.72 495.531C349.122 484.519 353.403 473.836 358.671 463.591C362.184 456.786 366.208 450.31 370.782 444.127C377.148 435.529 384.392 427.773 392.953 421.334C402.466 414.163 412.893 408.894 424.454 405.968C435.796 403.077 447.321 402.382 458.919 403.772C470.882 405.199 481.749 409.407 490.932 417.492C498.213 423.931 503.298 431.871 506.884 440.871C512.152 454.079 513.506 467.945 513.945 481.958C514.055 485.287 512.811 487.848 508.164 487.812C492.249 487.665 476.37 487.775 460.455 487.775C457.309 487.775 456.467 487.007 456.248 483.86C455.919 479.067 455.626 474.275 454.236 469.628C452.553 464.03 449.918 459.091 443.772 457.372C439.235 456.091 434.771 456.859 430.454 458.762C428.149 459.786 426.21 461.323 424.235 462.823C422.442 464.433 420.649 466.043 419.112 467.909Z" fill="#00E559"/>
<path d="M669.95 440.871C673.682 451.591 674.596 462.713 674.267 473.945C674.194 475.921 672.328 477.641 670.133 477.897C669.108 478.006 668.047 478.006 667.023 478.006C653.01 478.006 638.998 478.006 624.985 478.006C620.485 478.006 618.509 475.994 618.326 471.457C618.18 468.018 617.96 464.579 616.753 461.25C614.265 454.591 609.509 451.664 602.301 452.323C593.777 453.128 588.618 458.872 588.252 468.201C588.033 474.128 589.825 479.58 592.789 484.665C598.606 494.507 606.728 502.41 614.777 510.312C620.96 516.386 626.814 522.679 631.717 529.813C638.924 540.277 643.717 551.692 645.364 564.351C646.571 573.753 646.461 583.193 644.742 592.522C641.998 607.34 635.741 620.401 624.509 630.755C617.119 637.597 608.484 642.28 598.935 645.353C584.85 649.89 570.398 650.109 555.91 648.17C545.885 646.817 536.372 643.561 528.031 637.707C519.067 631.414 512.884 622.889 509.115 612.645C504.908 601.193 504.103 589.303 504.688 577.266C504.762 575.583 505.859 574.375 507.506 573.827C508.237 573.57 509.079 573.534 509.847 573.534C525.213 573.534 540.543 573.534 555.91 573.534C557.41 573.534 558.763 573.753 559.861 574.997C560.629 575.875 560.995 576.79 560.958 577.961C560.922 581.729 560.739 585.498 561.617 589.23C563.154 595.596 566.593 599.364 572.886 599.803C579.362 600.242 584.63 596.803 586.569 590.912C589.679 581.363 587.813 572.583 582.471 564.351C576.764 555.57 569.3 548.326 562.02 540.899C552.58 531.276 544.056 520.996 538.055 508.812C534.287 501.166 531.909 493.153 530.811 484.702C529.64 475.811 529.897 466.957 531.836 458.213C534.141 447.822 538.531 438.42 545.19 430.041C554.08 418.846 565.532 411.346 578.959 406.882C591.033 402.858 603.509 401.687 616.241 402.821C623.375 403.443 630.327 404.724 637.059 407.175C648.437 411.273 657.62 418.187 664.059 428.541C666.474 432.383 668.523 436.481 669.95 440.871Z" fill="#00E559"/>
<path d="M669.95 440.871C668.889 438.566 667.828 436.261 666.84 433.956C666.035 432.09 664.645 430.48 664.096 428.468C666.218 430.7 667.279 433.554 668.486 436.261C669.108 437.725 670.06 439.151 669.95 440.871Z" fill="#00E559"/>
<path d="M419.112 467.909C420.43 465.823 422.113 464.067 424.235 462.786C422.808 464.799 420.978 466.372 419.112 467.909Z" fill="#00E559"/>
<path d="M713.012 465.347C712.39 467.579 711.585 469.738 710.122 471.604C710.854 469.372 711.622 467.213 713.012 465.347Z" fill="#00E559"/>
<path d="M817.467 412.443C817.54 408.529 815.82 406.846 811.759 406.846C788.966 406.846 766.172 406.882 743.379 406.809C740.489 406.809 738.696 407.907 737.562 410.504C735.367 415.553 733.062 420.566 730.83 425.614C727.427 433.188 724.025 440.761 720.622 448.371C718.098 454.042 715.537 459.677 713.012 465.347C711.951 467.396 711.219 469.592 710.122 471.604C706.207 480.385 702.329 489.202 698.378 497.983C694.792 505.959 691.024 513.825 687.548 521.837C683.121 532.008 678.474 542.069 673.974 552.204C670.462 560.107 666.84 568.009 663.254 575.875C657.657 588.059 652.278 600.315 646.79 612.572C642.693 621.755 638.595 630.938 634.497 640.121C633.985 641.219 634.095 642.207 634.571 643.268C635.632 645.536 637.644 645.792 639.802 645.792C655.644 645.792 671.486 645.792 687.328 645.792C688.17 645.792 689.011 645.646 689.889 645.609C691.975 645.5 693.219 644.329 693.987 642.5C697.317 634.45 700.609 626.365 703.902 618.279C704.634 616.486 705.878 615.645 707.817 615.645C723.842 615.682 739.867 615.645 755.892 615.682C759.111 615.682 759.587 616.23 759.44 619.413C759.075 626.328 758.745 633.28 758.453 640.195C758.27 644.329 759.77 645.792 763.941 645.792C779.856 645.792 795.734 645.792 811.649 645.792C812.271 645.792 812.857 645.792 813.479 645.719C815.637 645.463 816.991 644 816.991 641.841C817.028 635.804 817.064 629.804 817.101 623.767C817.137 600.388 817.211 577.01 817.247 553.631C817.284 527.288 817.284 500.91 817.357 474.567C817.357 453.859 817.101 433.151 817.467 412.443ZM765.514 470.799C764.636 490.226 763.758 509.69 762.843 529.118C762.367 539.691 761.855 550.265 761.38 560.838C761.233 564.168 760.758 564.753 757.355 564.826C752.489 564.936 747.623 564.863 742.757 564.863C742.757 564.717 742.757 564.57 742.757 564.387C738.184 564.387 733.61 564.424 729.074 564.387C726.805 564.351 726.366 563.729 727.208 561.46C728.122 558.899 729.183 556.375 730.208 553.814C735.915 539.582 741.623 525.349 747.33 511.081C752.745 497.544 758.16 483.97 763.611 470.396C763.867 469.738 764.16 468.86 765.075 469.043C765.989 469.299 765.55 470.213 765.514 470.799Z" fill="#00E559"/>
<path d="M1001.28 474.97C1001.13 471.97 1000.84 469.043 1000.51 466.079C999.448 457.006 996.96 448.371 992.57 440.322C984.448 425.432 971.496 416.724 955.727 411.748C945.739 408.602 935.385 407.175 924.995 406.955C910.14 406.663 895.25 406.846 880.396 406.882C878.53 406.882 876.7 408.163 876.261 409.882C875.456 413.065 874.725 416.248 873.993 419.431C872.639 425.358 871.322 431.285 869.968 437.176C868.651 442.92 867.298 448.664 865.981 454.408C864.444 461.286 862.944 468.165 861.371 475.043C859.761 482.141 858.041 489.238 856.431 496.336C854.639 504.276 852.883 512.215 851.09 520.154C849.443 527.362 847.76 534.569 846.114 541.813C844.834 547.448 843.553 553.045 842.272 558.68C840.882 564.717 839.492 570.753 838.102 576.79C836.492 583.851 834.882 590.876 833.272 597.937C831.955 603.754 830.638 609.535 829.284 615.352C828.15 620.255 827.016 625.157 825.918 630.06C825.077 633.682 824.199 637.268 823.467 640.89C822.955 643.597 824.199 645.243 826.906 645.646C827.748 645.756 828.589 645.792 829.467 645.792C836.858 645.792 844.212 645.792 851.602 645.792C859.285 645.792 866.968 645.792 874.615 645.792C877.871 645.792 879.152 644.622 879.847 641.438C881.53 633.609 883.066 625.743 885.079 617.987C886.03 614.291 885.042 612.535 881.786 610.852C875.164 607.523 868.651 604.047 862.102 600.608C861.151 600.132 860.273 599.583 860.566 598.23C860.895 596.839 862.029 597.169 862.944 597.169C872.127 597.169 881.347 597.169 890.53 597.205C894.994 597.205 899.421 596.876 903.848 596.364C912.153 595.413 920.202 593.474 928.104 590.766C940.288 586.595 951.447 580.485 961.325 572.253C972.777 562.741 981.85 551.289 988.545 537.899C994.729 525.496 998.46 512.398 1000.29 498.714C1001.31 490.812 1001.68 482.909 1001.28 474.97ZM944.568 488.726C943.946 497.873 942.117 506.763 939.007 515.398C937.946 517.556 937.032 519.752 936.08 521.947C933.3 527.106 929.97 531.825 925.617 535.85C919.36 541.594 912.043 544.484 903.518 544.155C902.311 544.118 902.091 543.533 902.311 542.508C903.189 538.484 904.067 534.459 904.945 530.398C906.299 524.288 907.653 518.178 909.043 512.105C910.653 505.08 912.409 498.056 913.909 490.995C914.897 486.385 915.994 481.775 916.982 477.165C917.494 474.677 917.129 474.201 914.86 472.994C907.689 469.189 900.555 465.311 893.384 461.506C892.396 460.994 891.737 460.445 892.103 459.274C892.433 458.103 893.384 458.14 894.299 458.14C905.018 458.14 915.738 458.323 926.458 458.103C934.836 457.92 940.251 462.567 942.703 470.031C944.678 476.104 945.007 482.36 944.568 488.726Z" fill="#00E559"/>
<path d="M936.044 521.983C936.629 519.605 937.544 517.41 938.971 515.434C938.349 517.739 937.434 519.971 936.044 521.983Z" fill="#00E559"/>
</svg>
