<svg xmlns="http://www.w3.org/2000/svg" width="256" height="256" viewBox="0 0 64 64">
  <path fill="#29abe2" d="M21.23 26c0 1.668-2.375 3-5.309 3H5.311C2.379 29 .004 27.668.004 26s2.375-3 5.307-3h10.611c2.933 0 5.308 1.332 5.308 3m4.02 8c0 1.668-2.375 3-5.309 3H9.331c-2.932 0-5.307-1.332-5.307-3s2.375-3 5.307-3h10.611c2.933 0 5.308 1.332 5.308 3m4.03 8c0 1.668-2.375 3-5.308 3H13.36c-2.931 0-5.306-1.332-5.306-3s2.375-3 5.306-3h10.611c2.934 0 5.309 1.332 5.309 3"/>
  <path fill="#e6e7e8" d="M56.928 48.743c-1.122 3.822-5.357 6.923-9.458 6.923l-31.11-.002c-4.103 0-6.518-3.099-5.395-6.923l6.708-22.817C18.798 22.102 23.035 19 27.136 19l31.11.003c4.102 0 6.514 3.101 5.39 6.923l-6.707 22.817"/>
  <path fill="silver" d="M29.751 37.466c6.05-4.525 3.378-2.57 9.461-6.924h.169c2.686 3.311 2.202 3.05 5.393 6.925l12.154 11.276c-1.122 3.822-5.357 6.923-9.458 6.923l-31.11-.002c-4.103 0-6.518-3.099-5.395-6.923l18.788-11.275"/>
  <path fill="#e6e7e8" d="M30.333 38.609c5.28-3.864 2.949-2.193 8.258-5.915h.149c2.379 2.83 1.95 2.607 4.781 5.915l10.754 9.629c-.959 3.266-4.659 5.912-8.257 5.912H18.7c-3.604-.002-5.743-2.648-4.784-5.914l16.417-9.627"/>
  <path fill="#b4b4b5" d="M28.499 39.27c.124.045 6.73 5.114 6.73 5.114l9.846-5.113l-1.234-1.289l-4.372 2.663l-3.591 1.717l-.998-.199l-3.339-3.064l-1.746-1.414l-1.296 1.585"/>
  <path fill="#b2b2b2" d="M63.63 25.925c1.124-3.822-1.288-6.923-5.39-6.923L27.13 19c-4.101 0-8.338 3.103-9.462 6.925l17.17 17.737c.12.148.24.299.372.464h.173c.291-.208.559-.398.813-.582l27.432-17.619"/>
  <path fill="#f2f2f2" d="M60.796 26.16c.988-3.362-1.133-6.089-4.74-6.089H28.694c-3.606 0-7.332 2.725-8.321 6.088l15.1 15.599l.33.407h.149c.256-.183.491-.351.714-.513l24.13-15.491"/>
</svg>