<svg xmlns="http://www.w3.org/2000/svg" width="149" height="65" fill="none">
  <path fill="#fff" stroke="#214B62" d="M47.0463 1.3904h20.9496c.3792 0 .6204.4056.4393.7388L35.278 63.1444c-.1893.3483-.6893.3483-.8786 0L23.9246 43.8689a.5.5 0 0 1 0-.4775L35.278 22.499 46.607 1.6517a.5.5 0 0 1 .4393-.2613Z"/>
  <path fill="#03BF7A" stroke="#214B62" d="M22.6311 1.3904H1.6815c-.3791 0-.6203.4056-.4393.7388l33.1572 61.0152c.1893.3483.6893.3483.8786 0l10.4748-19.2755a.5.5 0 0 0 0-.4775L34.3994 22.499 23.0704 1.6517a.4998.4998 0 0 0-.4393-.2613Z"/>
  <path fill="#fff" stroke="#214B62" d="M80.9173 63.6096h20.9497c.379 0 .62-.4056.439-.7388L69.149 1.8556c-.1893-.3483-.6893-.3483-.8786 0L57.7956 21.1311a.5.5 0 0 0 0 .4775L69.149 42.501l11.329 20.8473a.5.5 0 0 0 .4393.2613Z"/>
  <path fill="#214B62" stroke="#214B62" d="M56.5021 63.6096H35.5525c-.3792 0-.6204-.4056-.4393-.7388L68.2703 1.8556c.1893-.3483.6894-.3483.8787 0l10.4748 19.2755a.5.5 0 0 1 0 .4775L68.2703 42.501 56.9414 63.3483a.5.5 0 0 1-.4393.2613Z"/>
  <path fill="#fff" stroke="#214B62" d="M126.369 63.6096h20.949c.38 0 .621-.4056.44-.7388L114.601 1.8556c-.19-.3483-.69-.3483-.879 0l-10.475 19.2755a.4995.4995 0 0 0 0 .4775l11.354 20.8924 11.329 20.8473c.087.161.256.2613.439.2613Z"/>
  <path fill="#214B62" stroke="#214B62" d="M101.954 63.6096H81.0041c-.3792 0-.6204-.4056-.4393-.7388L113.722 1.8556c.189-.3483.689-.3483.879 0l10.474 19.2755a.4995.4995 0 0 1 0 .4775L113.722 42.501l-11.329 20.8473a.5004.5004 0 0 1-.439.2613Z"/>
</svg>