<?xml version="1.0" encoding="UTF-8"?>
<svg width="45px" height="39px" viewBox="0 0 45 39" version="1.1" xmlns="http://www.w3.org/2000/svg" xmlns:xlink="http://www.w3.org/1999/xlink">
    <!-- Generator: Sketch 52.6 (67491) - http://www.bohemiancoding.com/sketch -->
    <title>logo</title>
    <desc>Created with Sketch.</desc>
    <g id="Page-1" stroke="none" stroke-width="1" fill="none" fill-rule="evenodd">
        <g id="new-landing-3" transform="translate(-134.000000, -39.000000)">
            <g id="Header" transform="translate(133.000000, 27.000000)">
                <g id="logo-horizontal" transform="translate(0.648413, 11.401345)">
                    <g id="logo">
                        <path d="M44.7811113,0.927219402 C44.6980635,0.794799533 44.5726554,0.7285896 44.4048871,0.7285896 L35.7028472,0.7285896 L22.6990579,23.3927368 L13.7423214,23.3927368 L22.5384097,38.7088294 C22.6274654,38.8502524 22.7485961,38.9209641 22.9018012,38.9209641 C23.0550066,38.9209641 23.177329,38.8488364 23.2687685,38.7045811 L44.7811113,1.36240153 C44.8641589,1.20469998 44.8641589,1.05963926 44.7811113,0.927219402 Z" id="Path-6" fill="#17C495"></path>
                        <path d="M1.02159099,0.927798045 C0.938889908,1.06060367 0.940258674,1.20699155 1.02569728,1.36696168 L11.9181727,20.2449386 L20.837819,20.2449386 L25.5724598,12.0606632 L16.6254564,12.0606632 L14.8536021,8.91286499 L27.3193346,8.90523549 L32.0372282,0.7285896 L1.39714426,0.7285896 C1.22947649,0.7285896 1.10429206,0.79499241 1.02159099,0.927798045 Z" id="Path-7" fill="#35495E"></path>
                    </g>
                </g>
            </g>
        </g>
    </g>
</svg>