<svg width="500" height="500" viewBox="0 0 500 500" fill="none" xmlns="http://www.w3.org/2000/svg">
<g clip-path="url(#clip0_14_13)">
<rect x="19.5999" y="19.5999" width="460.8" height="460.8" rx="230.4" fill="#111111"/>
<path d="M250 120.4C267.92 120.4 284.64 123.766 300.16 130.499C315.84 137.071 329.6 146.288 341.44 158.15C353.44 170.012 362.8 183.798 369.52 199.507C376.24 215.055 379.6 231.806 379.6 249.76C379.6 267.713 376.24 284.544 369.52 300.253C362.8 315.962 353.44 329.828 341.44 341.85C329.6 353.712 315.84 363.009 300.16 369.742C284.64 376.314 267.92 379.6 250 379.6C226 379.6 204.16 373.829 184.48 362.288C164.96 350.586 149.36 334.957 137.68 315.401C126.16 295.685 120.4 273.804 120.4 249.76C120.4 225.875 126.16 204.155 137.68 184.599C149.36 165.043 164.96 149.494 184.48 137.953C204.16 126.251 226 120.4 250 120.4ZM208.24 189.167C201.52 189.167 196 191.251 191.68 195.419C187.36 199.587 185.2 204.716 185.2 210.808C185.2 217.219 187.36 222.589 191.68 226.917C196 231.245 201.52 233.409 208.24 233.409C214.96 233.409 220.48 231.245 224.8 226.917C229.12 222.589 231.28 217.219 231.28 210.808C231.28 204.716 229.12 199.587 224.8 195.419C220.48 191.251 214.96 189.167 208.24 189.167ZM289.84 189.167C283.12 189.167 277.6 191.251 273.28 195.419C268.96 199.587 266.8 204.716 266.8 210.808C266.8 217.219 268.96 222.589 273.28 226.917C277.6 231.245 283.12 233.409 289.84 233.409C296.56 233.409 302.08 231.245 306.4 226.917C310.72 222.589 312.88 217.219 312.88 210.808C312.88 204.716 310.72 199.587 306.4 195.419C302.08 191.251 296.56 189.167 289.84 189.167ZM320.56 266.591H299.92C296.88 279.094 291.2 289.353 282.88 297.368C274.72 305.383 263.76 309.39 250 309.39C236.4 309.39 225.44 305.383 217.12 297.368C208.96 289.353 203.28 279.094 200.08 266.591H179.44C180.88 278.293 184.8 289.032 191.2 298.811C197.6 308.428 205.84 316.123 215.92 321.893C226 327.664 237.36 330.549 250 330.549C262.64 330.549 274 327.664 284.08 321.893C294.16 316.123 302.4 308.428 308.8 298.811C315.2 289.032 319.12 278.293 320.56 266.591Z" fill="white"/>
</g>
<defs>
<clipPath id="clip0_14_13">
<rect width="500" height="500" fill="white"/>
</clipPath>
</defs>
</svg>
