<svg xmlns="http://www.w3.org/2000/svg" width="32" height="32" viewBox="0 0 24 24"><path fill="#00dc82" d="M7 21q-2.075 0-3.537-1.463T2 16q0-1.825 1.138-3.187T6 11.1v2.075q-.875.3-1.437 1.075T4 16q0 1.25.875 2.125T7 19t2.125-.875T10 16v-1h5.875q.2-.225.488-.363T17 14.5q.625 0 1.063.438T18.5 16t-.437 1.063T17 17.5q-.35 0-.638-.137T15.876 17H11.9q-.35 1.725-1.713 2.863T7 21m10 0q-1.4 0-2.537-.687T12.675 18.5h2.675q.35.25.775.375T17 19q1.25 0 2.125-.875T20 16t-.875-2.125T17 13q-.5 0-.925.138t-.8.412l-3.05-5.075q-.525-.1-.875-.5T11 7q0-.625.438-1.062T12.5 5.5t1.063.438T14 7v.213q0 .087-.05.212l2.175 3.65q.2-.05.425-.062T17 11q2.075 0 3.538 1.463T22 16t-1.463 3.538T17 21M7 17.5q-.625 0-1.062-.437T5.5 16q0-.55.35-.95t.85-.525l2.35-3.9q-.725-.675-1.138-1.612T7.5 7q0-2.075 1.463-3.537T12.5 2t3.538 1.463T17.5 7h-2q0-1.25-.875-2.125T12.5 4t-2.125.875T9.5 7q0 1.075.65 1.888t1.65 1.037L8.425 15.55q.05.125.063.225T8.5 16q0 .625-.437 1.063T7 17.5"/></svg>
