<svg width="512" height="512" viewBox="0 0 512 512" fill="none" xmlns="http://www.w3.org/2000/svg">
<g clip-path="url(#clip0_8_19)">
<path d="M404 151.17C403.992 149.286 403.375 147.455 402.241 145.951C401.108 144.448 399.519 143.354 397.713 142.832L321.287 68.1958C320.475 67.2013 319.454 66.3991 318.297 65.8466C317.14 65.2941 315.876 65.005 314.594 65H181.326C177.208 65 173.258 66.6406 170.346 69.561C167.434 72.4814 165.798 76.4422 165.798 80.5723V124.297H123.529C119.41 124.297 115.46 125.937 112.548 128.858C109.636 131.778 108 135.739 108 139.869V406.428C108 410.558 109.636 414.519 112.548 417.439C115.46 420.359 119.41 422 123.529 422H330.789C334.893 421.977 338.82 420.326 341.714 417.408C344.607 414.49 346.231 410.543 346.231 406.428V362.849H388.5C392.604 362.826 396.531 361.175 399.425 358.257C402.318 355.339 403.942 351.391 403.942 347.276C403.942 281.946 403.942 216.626 403.942 151.316L404 151.17ZM183.065 124.297V82.4316H305.903V152.855C305.903 155.167 306.819 157.384 308.449 159.018C310.079 160.653 312.289 161.571 314.594 161.571H386.646C386.646 222.814 386.646 284.058 386.646 345.301H346.086V210.438C346.078 208.553 345.461 206.722 344.328 205.219C343.194 203.716 341.606 202.621 339.8 202.1L263.547 127.492C262.748 126.491 261.734 125.683 260.58 125.13C259.426 124.576 258.163 124.291 256.884 124.297H183.065ZM265.517 154.744L317.405 203.494H265.517V154.744ZM125.383 404.597V141.612H248.221V212.152C248.221 214.464 249.137 216.681 250.767 218.315C252.397 219.95 254.608 220.868 256.913 220.868H328.935C328.935 282.15 328.935 343.393 328.935 404.597H125.383ZM158.207 267.439C158.778 266.772 159.484 266.235 160.278 265.864C161.073 265.494 161.937 265.298 162.814 265.29H264.648C265.526 265.294 266.394 265.485 267.193 265.85C267.992 266.216 268.705 266.748 269.283 267.41C270.477 268.776 271.127 270.534 271.109 272.349C271.111 274.167 270.451 275.923 269.254 277.288C268.679 277.95 267.972 278.483 267.179 278.853C266.385 279.224 265.523 279.423 264.648 279.438H162.814C161.936 279.432 161.069 279.24 160.27 278.875C159.471 278.509 158.758 277.979 158.178 277.317C156.99 275.948 156.336 274.194 156.336 272.378C156.336 270.563 156.99 268.809 158.178 267.439H158.207ZM158.207 351.518C158.772 350.852 159.473 350.315 160.263 349.944C161.053 349.573 161.913 349.377 162.785 349.368H293.04C293.916 349.376 294.781 349.572 295.575 349.943C296.37 350.314 297.076 350.851 297.646 351.518C298.843 352.883 299.503 354.639 299.5 356.457C299.519 358.272 298.869 360.031 297.675 361.396C297.097 362.059 296.384 362.59 295.585 362.956C294.786 363.322 293.918 363.513 293.04 363.517H162.872C161.998 363.511 161.135 363.318 160.341 362.953C159.547 362.587 158.84 362.056 158.265 361.396C157.06 360.035 156.394 358.278 156.394 356.457C156.394 354.637 157.06 352.879 158.265 351.518H158.207ZM293.04 307.329C293.916 307.337 294.781 307.533 295.575 307.904C296.37 308.275 297.076 308.812 297.646 309.479C298.834 310.848 299.489 312.602 299.489 314.418C299.489 316.233 298.834 317.987 297.646 319.357C297.066 320.015 296.353 320.543 295.553 320.903C294.754 321.264 293.887 321.45 293.011 321.448H162.872C162 321.448 161.138 321.261 160.344 320.9C159.55 320.539 158.841 320.013 158.265 319.357C157.057 317.987 156.396 316.217 156.411 314.389C156.405 312.574 157.077 310.822 158.294 309.479C158.859 308.812 159.56 308.275 160.35 307.905C161.14 307.534 162 307.337 162.872 307.329H293.04ZM158.207 225.371C158.784 224.714 159.492 224.185 160.286 223.82C161.079 223.454 161.941 223.26 162.814 223.25H223.045C223.922 223.249 224.788 223.435 225.588 223.795C226.387 224.156 227.1 224.683 227.681 225.342C228.865 226.719 229.517 228.477 229.517 230.296C229.517 232.114 228.865 233.872 227.681 235.249C227.104 235.907 226.396 236.435 225.602 236.801C224.809 237.166 223.947 237.36 223.074 237.37H162.814C161.938 237.369 161.071 237.183 160.272 236.822C159.473 236.462 158.76 235.935 158.178 235.278C156.994 233.901 156.342 232.143 156.342 230.325C156.342 228.506 156.994 226.748 158.178 225.371H158.207ZM158.207 183.332C158.788 182.664 159.505 182.129 160.31 181.763C161.114 181.397 161.988 181.209 162.872 181.211H195.986C196.858 181.212 197.72 181.399 198.514 181.759C199.308 182.12 200.017 182.646 200.592 183.303C201.777 184.68 202.429 186.438 202.429 188.256C202.429 190.075 201.777 191.833 200.592 193.21C200.021 193.867 199.318 194.395 198.529 194.76C197.741 195.126 196.884 195.32 196.015 195.331H162.872C162.001 195.322 161.142 195.132 160.348 194.772C159.555 194.412 158.846 193.89 158.265 193.239C157.062 191.866 156.402 190.099 156.411 188.271C156.409 186.448 157.08 184.688 158.294 183.332H158.207ZM323.257 95.4473L375.145 144.198H323.257V95.4473Z" fill="#4285F4"/>
</g>
<g filter="url(#filter0_d_8_19)">
<circle cx="360" cy="371" r="68" fill="white"/>
</g>
<g clip-path="url(#clip1_8_19)">
<path d="M366.394 397.167H408.401C409.735 397.167 411.046 396.819 412.201 396.158C413.357 395.496 414.316 394.545 414.983 393.4C415.65 392.254 416.001 390.955 416 389.633C415.999 388.311 415.648 387.012 414.98 385.867L386.769 337.438C386.102 336.293 385.143 335.342 383.988 334.681C382.833 334.02 381.522 333.672 380.188 333.672C378.854 333.672 377.544 334.02 376.389 334.681C375.233 335.342 374.274 336.293 373.607 337.438L366.394 349.83L352.291 325.599C351.623 324.454 350.664 323.503 349.508 322.842C348.353 322.181 347.042 321.833 345.708 321.833C344.374 321.833 343.063 322.181 341.908 322.842C340.752 323.503 339.792 324.454 339.125 325.599L304.02 385.867C303.352 387.012 303.001 388.311 303 389.633C302.999 390.955 303.35 392.254 304.017 393.4C304.684 394.545 305.643 395.496 306.799 396.158C307.954 396.819 309.265 397.167 310.599 397.167H336.968C347.415 397.167 355.12 392.618 360.421 383.745L373.292 361.653L380.186 349.83L400.876 385.344H373.292L366.394 397.167ZM336.538 385.331L318.136 385.327L345.72 337.978L359.484 361.653L350.268 377.476C346.748 383.234 342.748 385.331 336.538 385.331Z" fill="#00DC82"/>
</g>
<defs>
<filter id="filter0_d_8_19" x="283" y="294" width="154" height="154" filterUnits="userSpaceOnUse" color-interpolation-filters="sRGB">
<feFlood flood-opacity="0" result="BackgroundImageFix"/>
<feColorMatrix in="SourceAlpha" type="matrix" values="0 0 0 0 0 0 0 0 0 0 0 0 0 0 0 0 0 0 127 0" result="hardAlpha"/>
<feOffset/>
<feGaussianBlur stdDeviation="4.5"/>
<feComposite in2="hardAlpha" operator="out"/>
<feColorMatrix type="matrix" values="0 0 0 0 0 0 0 0 0 0 0 0 0 0 0 0 0 0 0.25 0"/>
<feBlend mode="normal" in2="BackgroundImageFix" result="effect1_dropShadow_8_19"/>
<feBlend mode="normal" in="SourceGraphic" in2="effect1_dropShadow_8_19" result="shape"/>
</filter>
<clipPath id="clip0_8_19">
<rect width="296" height="357" fill="white" transform="translate(108 65)"/>
</clipPath>
<clipPath id="clip1_8_19">
<rect width="113" height="113" fill="white" transform="translate(303 303)"/>
</clipPath>
</defs>
</svg>
