<svg width="305" height="305" viewBox="0 0 305 305" fill="none" xmlns="http://www.w3.org/2000/svg">
<g clip-path="url(#clip0_78_1215)">
<path d="M125.776 36C120.929 36 117 39.9291 117 44.7754V97.4248C117 102.271 120.929 106.2 125.776 106.2H160.875L161.253 106.205C169.032 106.402 175.301 112.673 175.495 120.453L175.5 120.825V179.325C175.5 184.171 179.429 188.101 184.276 188.101H219.375L219.753 188.105C227.53 188.303 233.798 194.571 233.995 202.348L234 202.726V261.225C234 266.071 237.929 270 242.776 270H295.425C300.271 270 304.2 266.071 304.2 261.225V208.575C304.2 203.729 300.271 199.8 295.425 199.8H260.25C252.334 199.76 245.905 193.43 245.705 185.553L245.7 185.176V126.676C245.7 121.829 241.771 117.9 236.925 117.9H201.825C193.874 117.9 187.405 111.555 187.205 103.652L187.2 103.275V44.7754C187.2 39.9291 183.271 36 178.425 36H125.776Z" fill="black"/>
<path d="M67.2755 117.9C62.4293 117.9 58.5002 121.829 58.5002 126.676V179.325C58.5004 184.171 62.4294 188.101 67.2755 188.101H102.375L102.753 188.105C110.53 188.303 116.798 194.571 116.995 202.348L117 202.726V261.225C117 266.071 120.929 270 125.776 270H178.425C183.271 270 187.2 266.071 187.2 261.225V208.575C187.2 203.729 183.271 199.8 178.425 199.8H143.25C135.334 199.76 128.905 193.43 128.705 185.553L128.7 185.176V126.676C128.7 121.829 124.771 117.9 119.925 117.9H67.2755Z" fill="black"/>
<path d="M8.77442 199.8C3.92832 199.8 0 203.729 0 208.575V261.225C0 266.071 3.92832 270 8.77442 270H61.4248C66.2711 270 70.2002 266.071 70.2002 261.225V208.575C70.2002 203.729 66.2711 199.8 61.4248 199.8H8.77442Z" fill="black"/>
</g>
<defs>
<clipPath id="clip0_78_1215">
<rect width="305" height="234" fill="white" transform="translate(0 36)"/>
</clipPath>
</defs>
</svg>
