<svg width="150" height="150" viewBox="0 0 150 150" fill="none" xmlns="http://www.w3.org/2000/svg">
<rect x="28.5" y="25.2" width="63.6683" height="18.0193" rx="9.00966" fill="#D1E2E2"/>
<path d="M104.181 34.0094C104.181 29.1441 108.125 25.2 112.991 25.2C117.856 25.2 121.8 29.1441 121.8 34.0094V34.4098C121.8 39.2751 117.856 43.2193 112.991 43.2193C108.125 43.2193 104.181 39.2751 104.181 34.4098V34.0094Z" fill="#D1E2E2"/>
<path d="M28.5 61.4387C28.5 56.4628 32.5338 52.4291 37.5097 52.4291H54.7281C59.704 52.4291 63.7378 56.4628 63.7378 61.4387C63.7378 66.4146 59.704 70.4484 54.7281 70.4484H37.5097C32.5338 70.4484 28.5 66.4146 28.5 61.4387Z" fill="#D1E2E2"/>
<path d="M76.9519 61.4387C76.9519 56.4628 80.9857 52.4291 85.9616 52.4291H112.79C117.766 52.4291 121.8 56.4628 121.8 61.4387C121.8 66.4146 117.766 70.4484 112.79 70.4484H85.9616C80.9857 70.4484 76.9519 66.4146 76.9519 61.4387Z" fill="#D1E2E2"/>
<path d="M28.5 88.668C28.5 83.6921 32.5338 79.6583 37.5097 79.6583H112.79C117.766 79.6583 121.8 83.6921 121.8 88.668C121.8 93.6439 117.766 97.6776 112.79 97.6776H37.5096C32.5338 97.6776 28.5 93.6439 28.5 88.668Z" fill="#D1E2E2"/>
<path d="M28.5 115.897C28.5 110.921 32.5338 106.887 37.5097 106.887H41.5139C46.4898 106.887 50.5236 110.921 50.5236 115.897C50.5236 120.873 46.4898 124.907 41.5139 124.907H37.5097C32.5338 124.907 28.5 120.873 28.5 115.897Z" fill="#D1E2E2"/>
<path d="M63.7378 115.897C63.7378 110.921 67.7716 106.887 72.7474 106.887H112.79C117.766 106.887 121.8 110.921 121.8 115.897C121.8 120.873 117.766 124.907 112.79 124.907H72.7475C67.7716 124.907 63.7378 120.873 63.7378 115.897Z" fill="#D1E2E2"/>
</svg>
