<svg width="150" height="150" viewBox="0 0 150 150" fill="none" xmlns="http://www.w3.org/2000/svg">
<mask id="mask0_985:707" style="mask-type:alpha" maskUnits="userSpaceOnUse" x="33" y="22" width="75" height="108">
<path d="M56.5168 127.496C76.3717 134.814 98.4126 124.575 105.746 104.629C115.646 77.7017 80.4324 62.4453 93.5288 26.823C98.8725 12.2887 67.9624 34.9825 48.994 57.0138C13.6744 98.0364 46.4603 123.79 56.5168 127.496Z" fill="black"/>
</mask>
<g mask="url(#mask0_985:707)">
<path d="M98.2006 110.769C74.6582 86.6635 30.5037 41.8328 30.2031 39.5787L45.418 28.1206L114.918 1.44751L132.951 61.9315L98.2006 110.769Z" fill="#688282"/>
<path d="M31.518 121.101C24.9437 108.515 111.349 106.637 113.603 106.449L91.2506 135.376C73.5312 134.813 36.7775 131.169 31.518 121.101Z" fill="#D1E2E2"/>
<path d="M79.4691 67.0966C54.311 63.6301 46.7388 36.2937 46.0975 23.0588C39.6537 41.385 -22.2734 88.5351 22.561 108.555C67.3954 128.574 52.3001 100.517 97.7755 115.885C127.316 125.867 110.917 71.4298 79.4691 67.0966Z" fill="#92ADAD"/>
</g>
</svg>
