<svg width="150" height="150" viewBox="0 0 150 150" fill="none" xmlns="http://www.w3.org/2000/svg">
<path d="M47.3671 116.541C31.9765 106.951 31.8986 91.2806 47.1931 81.5389C62.4876 71.7972 87.3627 71.6736 102.753 81.2628C118.144 90.852 118.222 106.523 102.927 116.264C87.6328 126.006 62.7576 126.13 47.3671 116.541Z" fill="#D1E2E2"/>
<path d="M47.3671 101.175C31.9765 91.5859 31.8986 75.9152 47.1931 66.1735C62.4876 56.4318 87.3627 56.3081 102.753 65.8973C118.144 75.4865 118.222 91.1573 102.927 100.899C87.6328 110.641 62.7576 110.764 47.3671 101.175Z" fill="#B2CCCC"/>
<path d="M47.3671 83.3513C31.9765 73.7621 31.8986 58.0913 47.1931 48.3496C62.4876 38.6079 87.3627 38.4843 102.753 48.0735C118.144 57.6626 118.222 73.3334 102.927 83.0751C87.6328 92.8168 62.7576 92.9405 47.3671 83.3513Z" fill="#92ADAD"/>
<path d="M47.3671 66.4654C31.9765 56.8762 31.8986 41.2055 47.1931 31.4638C62.4876 21.722 87.3627 21.5984 102.753 31.1876C118.144 40.7768 118.222 56.4476 102.927 66.1893C87.6328 75.931 62.7576 76.0546 47.3671 66.4654Z" fill="#688282"/>
</svg>
