<svg width="150" height="150" viewBox="0 0 150 150" fill="none" xmlns="http://www.w3.org/2000/svg">
<path d="M5.5997 100.325C2.83846 97.9459 2.52902 93.7785 4.90855 91.0172L69.4696 16.0997C71.8491 13.3385 76.0165 13.029 78.7777 15.4086L118.249 49.4238C121.011 51.8033 121.32 55.9707 118.941 58.7319L54.3796 133.649C52.0001 136.411 47.8327 136.72 45.0714 134.341L5.5997 100.325Z" fill="#92ADAD"/>
<path d="M23.0262 84.649C21.6095 81.2905 23.1837 77.4195 26.5422 76.0028L117.665 37.5659C121.024 36.1492 124.895 37.7234 126.311 41.0819L146.562 89.0917C147.979 92.4502 146.405 96.3213 143.046 97.7379L51.9237 136.175C48.5652 137.592 44.6941 136.017 43.2774 132.659L23.0262 84.649Z" fill="#D1E2E2"/>
<rect x="25.1458" y="89.6676" width="112.099" height="8.75238" transform="rotate(-22.8653 25.1458 89.6676)" fill="#92ADAD"/>
</svg>
