<svg width="150" height="150" viewBox="0 0 150 150" fill="none" xmlns="http://www.w3.org/2000/svg">
<path fill-rule="evenodd" clip-rule="evenodd" d="M146.934 110.367C146.934 89.8251 138.327 71.2933 124.524 58.1809C120.678 54.4345 116.988 51.6691 114.074 49.9429L94.4578 80.2521C104.314 86.6444 110.835 97.7442 110.835 110.367L146.934 110.367Z" fill="#688282"/>
<path fill-rule="evenodd" clip-rule="evenodd" d="M35.8594 49.9428C47.1186 42.6407 60.5475 38.4 74.9668 38.4C89.3861 38.4 102.815 42.6407 114.074 49.9428L94.4576 80.252C88.8461 76.6127 82.1532 74.4992 74.9668 74.4992C67.7803 74.4992 61.0875 76.6127 55.476 80.252L35.8594 49.9428Z" fill="#92ADAD"/>
<path fill-rule="evenodd" clip-rule="evenodd" d="M3 110.394C3 85.0674 16.083 62.7962 35.8595 49.9702L55.4635 80.2601C45.6141 86.6537 39.0991 97.7495 39.0991 110.367C39.0991 110.376 39.0992 110.385 39.0992 110.394H3Z" fill="#D1E2E2"/>
<path d="M70.3281 107.112C68.8697 104.468 69.8311 101.142 72.4754 99.6836L105.52 81.4591C108.164 80.0008 111.49 80.9622 112.948 83.6064V83.6064C114.407 86.2507 113.445 89.5766 110.801 91.035L77.7566 109.259C75.1123 110.718 71.7865 109.756 70.3281 107.112V107.112Z" fill="#D1E2E2"/>
</svg>
