<svg width="150" height="150" viewBox="0 0 150 150" fill="none" xmlns="http://www.w3.org/2000/svg">
<path d="M79.6494 90.5597C76.7811 87.1393 77.2286 82.0413 80.6489 79.1729V79.1729C84.0693 76.3046 89.1673 76.7521 92.0357 80.1724L119.882 113.377C122.75 116.798 122.303 121.896 118.882 124.764V124.764C115.462 127.632 110.364 127.185 107.495 123.765L79.6494 90.5597Z" fill="#D1E2E2"/>
<path fill-rule="evenodd" clip-rule="evenodd" d="M62.0119 83.2436C76.4993 83.2436 88.2436 71.4993 88.2436 57.0119C88.2436 42.5245 76.4993 30.7802 62.0119 30.7802C47.5245 30.7802 35.7802 42.5245 35.7802 57.0119C35.7802 71.4993 47.5245 83.2436 62.0119 83.2436ZM62.0119 94.0238C82.453 94.0238 99.0238 77.453 99.0238 57.0119C99.0238 36.5708 82.453 20 62.0119 20C41.5708 20 25 36.5708 25 57.0119C25 77.453 41.5708 94.0238 62.0119 94.0238Z" fill="#D1E2E2"/>
</svg>
