<svg width="256" height="256" viewBox="0 0 256 256" fill="none" xmlns="http://www.w3.org/2000/svg">
<path d="M120.641 108.016C121.461 108.425 122.484 108.63 123.304 108.63C125.556 108.63 127.809 107.401 128.833 105.148C144.807 73.8146 144.807 35.9274 129.038 4.39044C127.604 1.31866 123.918 0.0896829 120.846 1.72802C117.774 3.16157 116.545 6.84795 118.184 9.91973C132.315 38.1822 132.315 71.766 118.184 100.028C116.545 102.896 117.774 106.582 120.641 108.015L120.641 108.016Z" fill="#5E725A"/>
<path d="M74.7678 56.2025C72.3103 58.66 72.3103 62.5509 74.7678 64.8038C79.6828 69.7188 82.7546 76.4771 83.3691 83.4398C83.5739 86.7165 86.2362 89.174 89.5129 89.174H89.9225C93.4041 88.9692 95.8616 85.8973 95.6567 82.6206C94.8375 72.5857 90.5367 63.1654 83.574 55.9965C81.1165 53.9486 77.2255 53.9486 74.768 56.2013L74.7678 56.2025Z" fill="#5E725A"/>
<path d="M47.9383 34.2903C44.4568 34.2903 41.7946 36.9527 41.7946 40.4341C41.7946 43.9154 44.457 46.5778 47.9383 46.5778C51.4197 46.5778 54.0821 43.9154 54.0821 40.4341C54.0821 36.9527 51.4197 34.2903 47.9383 34.2903Z" fill="#5E725A"/>
<path d="M204.605 209.184C204.605 205.703 201.943 203.04 198.461 203.04C194.98 203.04 192.318 205.703 192.318 209.184C192.318 212.666 194.98 215.328 198.461 215.328C201.943 215.328 204.605 212.666 204.605 209.184Z" fill="#5E725A"/>
<path d="M177.162 31.2189C177.162 27.7373 174.5 25.0751 171.018 25.0751C167.537 25.0751 164.874 27.7375 164.874 31.2189C164.874 34.7003 167.537 37.3627 171.018 37.3627C174.295 37.3627 177.162 34.7003 177.162 31.2189Z" fill="#5E725A"/>
<path d="M106.713 45.3501C103.232 45.3501 100.569 48.0125 100.569 51.4939C100.569 54.9752 103.232 57.6377 106.713 57.6377C110.195 57.6377 112.857 54.9752 112.857 51.4939C112.857 48.0125 109.99 45.3501 106.713 45.3501Z" fill="#5E725A"/>
<path d="M165.49 93.0652C162.009 93.0652 159.347 95.7276 159.347 99.209C159.347 102.69 162.009 105.353 165.49 105.353C168.972 105.353 171.634 102.69 171.634 99.209C171.634 95.7276 168.767 93.0652 165.49 93.0652Z" fill="#5E725A"/>
<path d="M207.677 80.1638C204.195 80.1638 201.533 82.8262 201.533 86.3076C201.533 89.789 204.195 92.4514 207.677 92.4514C211.158 92.4514 213.82 89.789 213.82 86.3076C213.82 82.8262 210.953 80.1638 207.677 80.1638Z" fill="#5E725A"/>
<path d="M249.856 159.009C246.375 159.009 243.712 161.672 243.712 165.153C243.712 168.635 246.375 171.297 249.856 171.297C253.338 171.297 256 168.635 256 165.153C256 161.672 253.133 159.009 249.856 159.009Z" fill="#5E725A"/>
<path d="M194.57 182.149C196.208 182.149 197.642 181.535 198.871 180.306C201.328 177.849 201.328 173.958 198.871 171.705C191.703 164.537 182.282 160.237 172.246 159.622C168.765 159.418 165.898 161.875 165.693 165.357C165.488 168.838 167.946 171.705 171.427 171.91C178.595 172.319 185.148 175.391 190.063 180.511C191.292 181.535 192.93 182.15 194.569 182.15L194.57 182.149Z" fill="#5E725A"/>
<path d="M163.647 205.292C169.79 199.148 168.562 188.089 159.551 172.319C154.841 163.923 148.082 154.502 140.096 145.081C148.697 140.371 155.046 137.095 155.25 136.89C183.513 122.759 217.097 122.759 245.359 136.89C248.841 138.528 252.937 136.89 253.96 132.999C254.78 130.132 253.346 127.06 250.684 125.831C219.145 110.062 181.463 110.062 149.72 126.036C149.311 126.241 141.529 130.132 131.699 135.661C129.446 136.89 127.193 138.119 124.94 139.552C123.916 140.166 122.892 140.371 121.869 140.371C119.821 140.371 117.773 139.347 116.544 137.299C114.906 134.432 115.725 130.541 118.797 128.903C120.845 127.674 121.254 124.807 119.411 123.169C107.123 111.7 94.6305 102.28 83.7782 95.9306C68.2139 87.1246 57.154 85.691 50.806 91.8348C48.7581 93.8827 47.5293 96.3402 47.1197 99.4122L0.632354 239.49C-0.801195 243.996 0.222769 248.706 3.49945 251.983C5.75206 254.235 9.02874 255.669 12.1007 255.669C13.3295 255.669 14.7632 255.464 15.9917 255.055L154.023 208.976C158.119 208.976 161.191 207.747 163.648 205.29L163.647 205.292ZM12.3055 243.384L52.8534 121.533C53.4678 122.762 54.0821 123.786 54.6965 125.015C62.069 138.121 73.947 153.072 88.2825 167.406C102.618 181.74 117.567 193.62 130.674 200.992C131.698 201.606 132.722 202.016 133.746 202.63L12.3055 243.384Z" fill="#5E725A"/>
</svg>
