<svg xmlns="http://www.w3.org/2000/svg" xmlns:xlink="http://www.w3.org/1999/xlink" aria-hidden="true" role="img" width="32" height="32" preserveAspectRatio="xMidYMid meet" viewBox="0 0 36 36"><path fill="#99AAB5" d="M1 22.923v6.538C1 33.073 8.611 36 18 36s17-2.927 17-6.538v-6.538H1z"></path><ellipse cx="18" cy="22.923" fill="#E1E8ED" rx="17" ry="6.538"></ellipse><path fill="#AAB8C2" d="M18 20.308c6.7 0 12.314 1.668 13.913 3.923c.297-.419.472-.855.472-1.308c0-2.889-6.44-5.231-14.385-5.231S3.615 20.034 3.615 22.923c0 .452.175.889.472 1.308C5.686 21.976 11.3 20.308 18 20.308z"></path><ellipse cx="18" cy="24.231" fill="#3B88C3" rx="13.913" ry="3.923"></ellipse><path fill="#50A5E6" d="M18 22.128c-4.497 0-9.625 1.285-9.625 2.103c0 .818 5.129 2.102 9.625 2.102s9.625-1.284 9.625-2.102c0-.818-5.128-2.103-9.625-2.103z"></path><path fill="#E1E8ED" d="M15 22.615V24c0 .553 1.343 1 3 1s3-.447 3-1v-1.385h-6z"></path><ellipse cx="18" cy="22.615" fill="#AAB8C2" rx="3" ry="1"></ellipse><path fill="#1C6399" d="M9 15.786a1 1 0 0 1-1-1V13.5C8 10.467 10.467 8 13.5 8s5.5 2.467 5.5 5.5a1 1 0 1 1-2 0c0-1.93-1.57-3.5-3.5-3.5S10 11.57 10 13.5v1.286a1 1 0 0 1-1 1z"></path><path fill="#88C9F9" d="M26 18a1 1 0 0 1-1-1v-1.143c0-1.654-1.346-3-3-3s-3 1.346-3 3a1 1 0 1 1-2 0c0-2.757 2.243-5 5-5s5 2.243 5 5V17a1 1 0 0 1-1 1z"></path><path fill="#1C6399" d="M32 11.125a1 1 0 0 1-1-1c0-3.309-2.691-6-6-6s-6 2.691-6 6a1 1 0 1 1-2 0c0-4.411 3.589-8 8-8s8 3.589 8 8a1 1 0 0 1-1 1z"></path><path fill="#3B94D9" d="M17 22.659h2V8c0-4.411-3.589-8-8-8S3 3.589 3 8a1 1 0 0 0 2 0c0-3.309 2.691-6 6-6s6 2.691 6 6v14.659z"></path><circle cx="32" cy="14" r="1" fill="#1C6399"></circle><circle cx="26" cy="21" r="1" fill="#BBDDF5"></circle><circle cx="33" cy="2" r="1" fill="#BBDDF5"></circle><circle cx="14" cy="20" r="1" fill="#F2F9FF"></circle><circle cx="26" cy="9" r="1" fill="#50A5E6"></circle><circle cx="20" cy="1" r="1" fill="#1C6399"></circle><circle cx="9" cy="18" r="1" fill="#1C6399"></circle><circle cx="4" cy="13" r="1" fill="#3B94D9"></circle><circle cx="11" cy="5" r="1" fill="#88C9F9"></circle></svg>
