<svg xmlns="http://www.w3.org/2000/svg" viewBox="0 0 64 64"><defs><style>.cls-1{fill:#ff9320;}</style></defs><path class="cls-1" d="M42.86,32.1l-6.79,3.52v.56h6.79v5.43H21.14v-5.43h6.79v-.59l-6.79-3.48v-6.79l10.86,5.83,10.86-5.83"/><path class="cls-1" d="M56.7,40.87V23.13c1.98-.64,3.43-2.48,3.43-4.67,0-2.72-2.21-4.93-4.93-4.93-1.27,0-2.41,.49-3.28,1.28l-15.11-8.81c.08-.34,.12-.7,.12-1.07,0-2.72-2.21-4.93-4.93-4.93s-4.93,2.21-4.93,4.93c0,.37,.05,.72,.12,1.07L12.08,14.81c-.87-.79-2.02-1.28-3.28-1.28-2.72,0-4.93,2.21-4.93,4.93,0,2.2,1.45,4.04,3.43,4.67v17.73c-1.98,.64-3.43,2.48-3.43,4.67,0,2.72,2.21,4.93,4.93,4.93,1.27,0,2.41-.49,3.28-1.28l15.11,8.81c-.08,.34-.12,.7-.12,1.07,0,2.72,2.21,4.93,4.93,4.93s4.93-2.21,4.93-4.93c0-.37-.05-.72-.12-1.07l15.11-8.81c.87,.79,2.02,1.28,3.28,1.28,2.72,0,4.93-2.21,4.93-4.93,0-2.2-1.45-4.03-3.43-4.67Zm-6.43,4.67c0,.37,.05,.72,.12,1.07l-15.11,8.81c-.87-.79-2.02-1.28-3.28-1.28s-2.41,.49-3.28,1.28l-15.11-8.81c.08-.34,.12-.7,.12-1.07,0-2.2-1.45-4.03-3.43-4.67V23.13c1.98-.64,3.43-2.48,3.43-4.67,0-.37-.05-.72-.12-1.07l15.11-8.81c.87,.79,2.02,1.28,3.28,1.28s2.41-.49,3.28-1.28l15.11,8.81c-.08,.34-.12,.7-.12,1.07,0,2.2,1.45,4.04,3.43,4.67v17.73c-1.98,.64-3.43,2.48-3.43,4.67Z"/></svg>
