<?xml version="1.0" encoding="UTF-8"?>
<!-- Generated by Pixelmator Pro 2.4.5 -->
<svg width="1080" height="1449" viewBox="0 0 1080 1449" xmlns="http://www.w3.org/2000/svg" xmlns:xlink="http://www.w3.org/1999/xlink">
    <path id="Flame-Top" fill="#6644ff" fill-rule="evenodd" stroke="none" d="M 747.2453 1135 C 746.525879 1135 745.685608 1134.344238 745.378052 1133.542847 C 745.070557 1132.741455 746.609131 1126.104004 748.79718 1118.792847 C 750.985168 1111.481812 754.151062 1099.425049 755.832458 1092 C 757.513794 1084.574951 759.578735 1073.775024 760.421204 1068 C 761.263672 1062.224976 762.482056 1050.810059 763.128723 1042.633301 C 763.850525 1033.507202 764.057617 1020.378601 763.665161 1008.633301 C 763.313538 998.109985 762.329834 984.325012 761.479187 978 C 760.628601 971.674988 758.824524 961.099976 757.470215 954.5 C 756.115906 947.900024 753.425049 937.065247 751.49054 930.422791 C 749.55603 923.780273 745.958862 912.980286 743.496887 906.422791 C 741.034912 899.865234 734.771423 885.950012 729.578125 875.5 C 723.7005 863.673157 715.998108 850.270691 709.176392 840 C 703.148743 830.924988 693.885559 818.109497 688.591492 811.521118 C 683.297424 804.932678 673.948181 794.200439 667.815308 787.671631 C 661.682495 781.142822 651.546875 771.127808 645.291687 765.416077 C 639.036499 759.704285 629.054443 751.150452 623.109314 746.40741 C 617.164246 741.664429 606.852966 733.893921 600.195496 729.139587 C 593.537964 724.385254 582.557922 717.067749 575.795471 712.878418 C 569.032959 708.689026 555.849976 700.870361 546.5 695.503479 C 537.150024 690.136597 523.424988 681.936951 516 677.281982 C 508.575012 672.627014 497.325012 665.183472 491 660.740723 C 484.674988 656.298035 474.227539 648.658264 467.783386 643.76355 C 461.339233 638.868835 449.479614 629.204224 441.42865 622.28656 C 433.377747 615.368958 420.649902 603.587036 413.144653 596.104553 C 405.639343 588.62207 394.831665 577.099976 389.127563 570.5 C 383.423401 563.900024 373.973724 552.108459 368.128204 544.296631 C 362.282684 536.484802 353.740021 524.177368 349.144501 516.946777 C 344.548981 509.716187 336.912201 496.307739 332.17392 487.150146 C 327.435608 477.992554 321.243958 465.099976 318.414673 458.5 C 315.585419 451.900024 311.222229 440.611572 308.718719 433.414673 C 306.21524 426.217773 302.563904 414.517822 300.604675 407.414673 C 298.645447 400.311646 295.702942 387.75 294.065796 379.5 C 292.428619 371.25 290.281586 357.974976 289.294556 350 C 287.963501 339.244995 287.5 328.397339 287.5 308 C 287.5 284.009644 287.792572 278.73938 289.792389 266.703979 C 291.053192 259.116211 292.587921 251.803711 293.202911 250.453979 C 293.817871 249.10437 295.060211 248 295.963684 248 C 297.116913 248 298.281708 250.096924 299.873077 255.037964 C 301.119781 258.908936 304.167511 266.126587 306.645844 271.077271 C 309.124176 276.027954 313.776245 283.54834 316.983826 287.789185 C 320.191376 292.030151 327.24472 299.817749 332.657867 305.094971 C 338.071045 310.372192 345.875 317.163086 350 320.185791 C 354.125 323.208496 362.151672 328.485962 367.837067 331.913696 C 373.52243 335.341309 380.148254 338.991943 382.561096 340.026123 C 386.948059 341.906616 386.948059 341.906616 387.887634 338.203369 C 388.404419 336.166504 390.442749 326.625 392.417236 317 C 394.391724 307.375 398.232239 290.929688 400.951721 280.454834 C 403.671204 269.980103 408.442993 253.555054 411.555725 243.954834 C 414.668396 234.354736 420.041565 219.300049 423.496033 210.5 C 426.9505 201.699951 432.548401 188.425049 435.935791 181 C 439.323181 173.574951 445.1698 161.875 448.928223 155 C 452.686646 148.125 458.564575 138 461.990173 132.5 C 465.415833 127 471.041504 118.449951 474.491638 113.5 C 477.941833 108.550049 483.977844 100.449951 487.905029 95.5 C 491.832214 90.550049 499.197632 82 504.272705 76.5 C 509.347717 71 518 62.336792 523.5 57.248291 C 529 52.159912 536.650024 45.487183 540.5 42.419922 C 544.349976 39.352661 552.465332 33.541748 558.533997 29.506592 C 564.602722 25.471558 574.394226 19.615723 580.292908 16.493774 C 586.191589 13.371704 594.951294 9.271729 599.758911 7.38269 C 604.566467 5.49353 610.299988 3.05835 612.5 1.971191 C 614.700012 0.884033 617.99823 -0.004272 619.829468 -0.002808 C 622.938904 -0.000244 623.119568 0.181641 622.56311 2.75 C 622.235413 4.262451 620.624023 12.348877 618.982361 20.719727 C 617.340637 29.090454 615.072021 42.81543 613.94104 51.219727 C 612.539612 61.633179 611.698303 74.90332 611.299561 92.883423 C 610.840393 113.58606 611.072144 122.844604 612.375854 135.883423 C 613.289612 145.022583 615.175903 158.125 616.567566 165 C 617.959229 171.875 620.642761 182.900024 622.531006 189.5 C 624.41925 196.099976 627.999756 206.900024 630.487671 213.5 C 632.975647 220.099976 637.821228 231.327515 641.255615 238.449951 C 644.690002 245.57251 650.521057 256.698608 654.213379 263.174805 C 657.905762 269.651001 664.614807 280.473511 669.122375 287.224854 C 673.629944 293.976196 682.375366 306.25 688.556702 314.5 C 694.738037 322.75 708.211243 339.569214 718.497131 351.875977 C 728.783081 364.182861 744.180786 382.407837 752.714355 392.375977 C 761.247925 402.344238 773.690674 417.186157 780.364929 425.358154 C 787.039246 433.530151 797.807312 447.255249 804.294067 455.858154 C 810.780762 464.461182 820.320557 477.800049 825.493652 485.5 C 830.666687 493.199951 838.556458 505.574951 843.026428 513 C 847.496399 520.424988 855.773865 535.752319 861.420776 547.060669 C 867.067688 558.36908 874.490723 574.707825 877.916504 583.36908 C 881.342224 592.030273 886.145874 605.277954 888.591309 612.80835 C 891.036621 620.338745 895.00647 634.375 897.413208 644 C 899.819824 653.625 902.969727 668.025024 904.412964 676 C 905.856201 683.974976 907.691772 695.450012 908.492065 701.5 C 909.292358 707.549988 910.709595 721.618469 911.641357 732.763306 C 912.57373 743.913635 913.372559 763.926392 913.417847 777.263306 C 913.463013 790.593506 912.92749 809.375 912.227783 819 C 911.528076 828.625 910.091309 842.575012 909.03479 850 C 907.978394 857.424988 905.926636 869.575012 904.475342 877 C 903.024048 884.424988 900.320923 896.349976 898.468384 903.5 C 896.615845 910.650024 893.251709 922.266479 890.992554 929.314453 C 888.733398 936.362366 884.179016 948.891907 880.871704 957.157837 C 877.564392 965.423767 872.267334 977.657288 869.100342 984.343445 C 865.933411 991.029541 860.072083 1002.349976 856.075134 1009.5 C 852.078247 1016.650024 844.152222 1029.474976 838.461853 1038 C 832.771484 1046.525024 824.288025 1058.401367 819.609741 1064.39209 C 814.931519 1070.38269 806.018005 1080.909424 799.801941 1087.784912 C 793.585876 1094.6604 783.099976 1105.255005 776.5 1111.328613 C 769.900024 1117.402222 760.911987 1125.212891 756.526672 1128.685791 C 752.141357 1132.158569 747.964722 1135 747.2453 1135 Z"/>
    <path id="Flame-Bottom" fill="#00dc82" fill-rule="evenodd" stroke="none" d="M 526 1180.548584 C 509.647522 1180.858154 502.59552 1180.595581 496.54541 1179.452148 C 492.170349 1178.625244 484.295349 1177.052368 479.04541 1175.956787 C 473.79541 1174.861084 463.563782 1172.390259 456.308411 1170.465942 C 449.053101 1168.541626 437.578064 1165.137207 430.808411 1162.900513 C 424.038818 1160.663818 412.875 1156.557373 406 1153.775146 C 399.125 1150.99292 387.650024 1145.805176 380.5 1142.246826 C 373.350006 1138.688477 363.225006 1133.284302 358 1130.237427 C 352.774994 1127.190674 344 1121.640869 338.5 1117.904541 C 333 1114.168213 323.589874 1107.204224 317.588623 1102.428955 C 311.587402 1097.653564 300.848297 1088.06604 293.723999 1081.123291 C 286.599701 1074.18042 276.595856 1063.550049 271.493225 1057.5 C 266.390594 1051.449951 258.679688 1041.537476 254.35788 1035.472168 C 250.036041 1029.40686 241.703644 1017.256836 235.841431 1008.472168 C 229.979218 999.687439 221.802673 986.424988 217.671326 979 C 213.539978 971.575012 207.364258 959.200012 203.94751 951.5 C 200.530731 943.799988 196.060669 933 194.014008 927.5 C 191.967346 922 188.18338 910.436401 185.605194 901.803162 C 183.027008 893.169922 179.609222 880.119934 178.010132 872.803162 C 176.411041 865.48645 174.203796 854.099976 173.105103 847.5 C 172.006439 840.900024 170.403564 829.424988 169.543213 822 C 168.682831 814.575012 167.535248 801.299988 166.993011 792.5 C 166.450745 783.700012 166.009857 767.5 166.013214 756.5 C 166.016602 745.5 166.472046 728.849976 167.02533 719.5 C 167.578613 710.150024 168.715424 695.75 169.551544 687.5 C 170.387665 679.25 172.186584 664.731812 173.549164 655.237305 C 174.911713 645.742859 176.497772 635.777405 177.0737 633.091919 C 178.007233 628.739075 178.444611 628.161743 181.104462 627.771362 C 182.745422 627.530518 184.28894 627.658508 184.534485 628.055847 C 184.780029 628.453125 187.225586 638.840576 189.969055 651.139099 C 192.712524 663.437561 197.244751 682.049988 200.04068 692.5 C 202.836609 702.950012 208.403259 721.400024 212.411011 733.5 C 216.418762 745.599976 223.633087 765.400024 228.442841 777.5 C 233.252594 789.599976 241.826599 808.950012 247.496185 820.5 C 253.165771 832.049988 261.041199 847.125 264.997162 854 C 268.953125 860.875 276.479462 873.025024 281.722351 881 C 286.96524 888.974976 295.130035 900.674988 299.866302 907 C 304.60257 913.325012 312.443451 923.123779 317.290466 928.775146 C 322.137482 934.426453 331.744415 944.671021 338.639221 951.540833 C 345.534027 958.410706 355.878845 967.900085 361.627716 972.628418 C 367.376556 977.356689 377.651306 984.945801 384.460449 989.492981 C 391.269653 994.040222 401.489075 1000.021851 407.17041 1002.785522 C 412.851685 1005.549255 422.189331 1009.439697 427.920715 1011.430969 C 433.652161 1013.422241 442.652161 1015.756531 447.920715 1016.618225 C 454.416992 1017.680664 460.150574 1017.977844 465.735718 1017.541443 C 470.265381 1017.187561 476.565369 1016.243286 479.735718 1015.443115 C 482.906067 1014.642944 489.762756 1011.896484 494.972839 1009.339966 C 500.760986 1006.499756 506.461548 1002.785217 509.628113 999.790344 C 512.589783 996.989319 516.372681 991.916321 518.455994 987.951782 C 520.460999 984.136292 522.745789 977.973755 523.533325 974.257263 C 524.320923 970.540771 524.973083 963.480652 524.982666 958.568115 C 524.994324 952.559082 524.306763 947.066956 522.881531 941.784973 C 521.71637 937.466858 518.121948 928.577271 514.893982 922.030457 C 511.665955 915.483643 505.352478 904.58606 500.863953 897.813599 C 494.533081 888.26123 489.652954 882.462463 479.101501 871.954468 C 471.620667 864.504395 460.976868 854.829407 455.448608 850.454468 C 449.920349 846.079468 439.616028 838.450012 432.55011 833.5 C 425.484253 828.549988 414.409607 820.674988 407.93988 816 C 401.470154 811.325012 391.2995 803.482361 385.338379 798.57196 C 379.377258 793.66156 365.701843 780.836548 354.948517 770.07196 C 344.195221 759.307373 330.853851 744.850769 325.301025 737.946106 C 319.74823 731.041443 311.520874 720.016479 307.018036 713.446106 C 302.515167 706.875732 295.945313 696.659058 292.418335 690.74231 C 288.891357 684.825562 282.786957 673.575562 278.852997 665.74231 C 274.919067 657.909058 269.808716 647 267.496704 641.5 C 265.184692 636 261.397003 626.099976 259.07959 619.5 C 256.762177 612.900024 253.318634 602.011536 251.427307 595.303406 C 249.53595 588.595215 246.872437 577.944824 245.508392 571.635742 C 244.144318 565.326721 242.35437 556.190186 241.530731 551.332397 C 240.707062 546.474548 239.351776 537.099976 238.518951 530.5 C 237.686127 523.900024 236.574585 511.558838 236.048859 503.075317 C 235.442902 493.297241 235.440613 479.386475 236.042633 465.075317 C 236.564941 452.658936 237.693207 436.552612 238.549866 429.283691 C 239.406555 422.014648 240.663696 414.139648 241.343536 411.783691 C 242.236755 408.68811 243.165192 407.414917 244.690857 407.193359 C 246.605682 406.915405 247.376099 408.68335 252.970306 426.193359 C 256.362823 436.812012 262.076202 452.925049 265.666718 462 C 269.257233 471.074951 275.899689 486.169556 280.427704 495.543457 C 284.95575 504.917358 292.380463 519.092285 296.927063 527.043396 C 301.473663 534.994568 309.470886 547.995605 314.6987 555.934692 C 319.926514 563.873779 327.956085 575.365051 332.542206 581.470886 C 337.128326 587.576721 345.717407 598.406128 351.629059 605.536194 C 357.54068 612.666321 373.205048 629.344055 386.438721 642.597961 C 399.672424 655.851868 416.799988 671.980408 424.5 678.439209 C 432.200012 684.89801 445.539795 695.502319 454.143982 702.004333 C 462.748169 708.506348 476.698181 718.448853 485.143982 724.098755 C 493.589783 729.748657 506.125 737.817383 513 742.029236 C 519.875 746.241089 533.599976 754.312378 543.5 759.965454 C 553.400024 765.61853 567.799988 774.439453 575.5 779.567505 C 583.200012 784.695618 594.450012 792.753174 600.5 797.473267 C 606.549988 802.193298 615.775024 809.907593 621 814.616089 C 626.224976 819.324585 635.148499 828.199707 640.830017 834.338501 C 646.511536 840.477356 655.135986 850.751343 659.995483 857.169678 C 664.854919 863.587952 671.695618 873.712952 675.197021 879.669678 C 678.698425 885.626343 683.899902 895.474609 686.75592 901.554688 C 689.611877 907.634766 693.961731 918.65979 696.422302 926.054688 C 698.882813 933.449646 701.798035 944 702.900513 949.5 C 704.003052 955 705.376465 963.313171 705.952515 967.973755 C 706.528625 972.634338 707 983.748779 707 992.672546 C 707 1001.596313 706.307922 1014.177063 705.462036 1020.629761 C 704.61615 1027.08252 703.061279 1036.218018 702.006653 1040.93103 C 700.952087 1045.643921 698.74176 1054 697.094788 1059.5 C 695.447876 1065 692.348145 1073.78894 690.206543 1079.031006 C 688.064941 1084.273193 684.007324 1093.048096 681.189575 1098.531006 C 678.371826 1104.013916 673.797119 1111.954834 671.023499 1116.177368 C 668.249878 1120.399902 662.547058 1127.504639 658.350464 1131.965576 C 654.15387 1136.426514 646.845764 1142.996826 642.110168 1146.56604 C 637.374573 1150.135376 627.782898 1155.924194 620.79541 1159.430298 C 613.807861 1162.936279 603.907837 1167.189087 598.79541 1168.881104 C 593.682922 1170.572998 584.775024 1173.071289 579 1174.432861 C 573.224976 1175.794434 563.775024 1177.635864 558 1178.525024 C 551.812988 1179.477539 538.668579 1180.308716 526 1180.548584 Z"/>
    <text id="NUXTUS" xml:space="preserve" x="-22" y="1444" font-family="Publica Play" font-size="288" fill="#ffffff">NUXTUS</text>
</svg>
