<svg width="502" height="496" viewBox="0 0 502 496" fill="none" xmlns="http://www.w3.org/2000/svg">
<path d="M246.65 2.90186C110.435 2.90186 0 113.279 0 249.444C0 385.605 110.435 495.991 246.65 495.991C382.865 495.991 493.295 385.605 493.295 249.444C493.295 113.279 382.86 2.90186 246.65 2.90186V2.90186ZM246.65 464.334C207.894 464.334 176.472 438.455 176.472 406.541H316.827C316.827 438.451 285.405 464.334 246.65 464.334ZM362.56 387.402H130.726V345.381H362.564V387.402H362.56ZM361.728 323.753H131.388C130.622 322.87 129.838 322 129.099 321.103C105.368 292.3 99.7793 277.264 94.3516 261.94C94.2602 261.435 123.127 267.835 143.597 272.439C143.597 272.439 154.13 274.875 169.53 277.682C154.744 260.356 145.965 238.332 145.965 215.821C145.965 166.399 183.885 123.212 170.205 88.3052C183.519 89.3886 197.761 116.394 198.723 158.62C212.878 139.067 218.802 103.359 218.802 81.4657C218.802 58.7976 233.744 32.4661 248.691 31.5654C235.368 53.5156 252.143 72.3332 267.055 119.014C272.648 136.548 271.934 166.055 276.252 184.769C277.684 145.902 284.369 89.1928 309.036 69.6139C298.154 94.2703 310.646 125.122 319.19 139.954C332.975 163.884 341.332 182.014 341.332 216.304C341.332 239.294 332.84 260.939 318.516 277.86C334.803 274.806 346.05 272.051 346.05 272.051L398.943 261.736C398.948 261.731 391.261 293.327 361.728 323.753Z" fill="url(#paint0_linear_1484_16395)"/>
<defs>
<linearGradient id="paint0_linear_1484_16395" x1="90" y1="444" x2="522" y2="3.00001" gradientUnits="userSpaceOnUse">
<stop stop-color="#64D98B"/>
<stop offset="1" stop-color="#71E0D5"/>
</linearGradient>
</defs>
</svg>
