<svg xmlns="http://www.w3.org/2000/svg" width="32" height="32" viewBox="0 0 128 128">
    <linearGradient id="a" x1="69.845" x2="69.845" y1="72.22" y2="82.027"
                    gradientTransform="scale(-1 1) rotate(-45 4.557 224.572)" gradientUnits="userSpaceOnUse">
        <stop stop-color="#eee" offset="0"/>
        <stop stop-color="#9E9E9E" offset="1"/>
    </linearGradient>
    <path fill="url(#a)" d="m29.22 90.08 8.45 8.5L71.46 64.6l-8.45-8.49z"/>
    <path d="m63.02 60.37 4.22 4.24-29.56 29.72-4.22-4.24 29.56-29.72m0-4.26L29.23 90.09l8.45 8.49L71.47 64.6l-8.45-8.49z"
          fill="#424242" opacity=".2"/>
    <radialGradient id="b" cx="43.358" cy="4.333" r="82.01" gradientTransform="matrix(-1.0004 0 0 1 128.03 0)"
                    gradientUnits="userSpaceOnUse">
        <stop stop-color="#E0E0E0" offset="0"/>
        <stop stop-color="#DBDBDB" offset=".227"/>
        <stop stop-color="#CDCDCD" offset=".494"/>
        <stop stop-color="#B5B5B5" offset=".779"/>
        <stop stop-color="#9E9E9E" offset="1"/>
    </radialGradient>
    <path d="M54.33 16.02c-15.94 16.02-15.94 42 0 58.03s41.78 16.02 57.72 0 15.94-42 0-58.03-41.78-16.03-57.72 0z"
          fill="url(#b)"/>
    <radialGradient id="c" cx="39.5" cy="75.25" r="49.092" gradientUnits="userSpaceOnUse">
        <stop stop-color="#001e26" offset="0"/>
        <stop stop-color="#001e26" offset=".01"/>
        <stop stop-color="#001e26" offset=".2"/>
        <stop stop-color="#001e26" offset="1"/>
    </radialGradient>
    <path d="M19.68 89.31c6.48-6.52 13.55-11.1 19.48-13.06 1.62-.54 3.07-1.49 4.28-2.71l1.78-1.79 10.75 10.8-1.78 1.79c-1.21 1.21-2.16 2.67-2.69 4.3-1.96 5.96-6.51 13.06-12.99 19.58-7.31 7.35-15.36 12.23-21.69 13.69l-.88.89a4.05 4.05 0 0 1-5.74 0l-1.59-1.6c-.37-.24-.71-.51-1.02-.81-.31-.31-.58-.65-.81-1.02l-1.59-1.6a4.086 4.086 0 0 1 0-5.77l.88-.89c1.45-6.35 6.3-14.45 13.61-21.8z"
          fill="url(#c)"/>
    <path d="M83.19 7c10.1 0 19.59 3.95 26.73 11.13 14.75 14.83 14.75 38.97 0 53.8-7.14 7.18-16.63 11.13-26.73 11.13S63.6 79.11 56.46 71.93c-14.75-14.83-14.75-38.97 0-53.8C63.6 10.95 73.09 7 83.19 7m0-3a40.58 40.58 0 0 0-28.86 12.02c-15.94 16.02-15.94 42 0 58.03 7.97 8.01 18.41 12.02 28.86 12.02s20.89-4.01 28.86-12.02c15.94-16.02 15.94-42 0-58.03A40.597 40.597 0 0 0 83.19 4zM45.22 76l6.53 6.56c-1.42 1.52-2.49 3.29-3.1 5.15-1.89 5.75-6.36 12.46-12.27 18.4-6.64 6.68-14.21 11.49-20.23 12.88l-.84.19-.61.61-.88.89a1.042 1.042 0 0 1-1.48 0l-1.59-1.6-.23-.23-.27-.18c-.2-.13-.36-.26-.51-.41s-.28-.32-.41-.51l-.17-.28-.23-.23-1.59-1.6c-.42-.43-.42-1.12 0-1.54l.88-.89.61-.61.17-.82c1.38-6.06 6.17-13.67 12.82-20.35C27.73 85.49 34.4 81 40.12 79.1c1.84-.62 3.59-1.69 5.1-3.1m.01-4.25-1.78 1.79c-1.21 1.21-2.66 2.17-4.28 2.71-5.93 1.97-12.99 6.55-19.48 13.06-7.31 7.35-12.17 15.44-13.61 21.8l-.89.89a4.086 4.086 0 0 0 0 5.77l1.59 1.6a5.676 5.676 0 0 0 1.83 1.83l1.59 1.6c.79.8 1.83 1.2 2.87 1.2s2.08-.4 2.87-1.2l.88-.89c6.32-1.45 14.38-6.34 21.69-13.69 6.48-6.52 11.04-13.62 12.99-19.58.54-1.63 1.49-3.09 2.69-4.3l1.78-1.79-10.74-10.8z"
          fill="#424242" opacity=".2"/>
    <radialGradient id="d" cx="23.025" cy="23.5" r="65.078" gradientTransform="translate(38.548)"
                    gradientUnits="userSpaceOnUse">
        <stop stop-color="#B3E5FC" offset="0"/>
        <stop stop-color="#ADE3FC" offset=".17"/>
        <stop stop-color="#9DDDFB" offset=".2"/>
        <stop stop-color="#81D4FA" offset=".3"/>
        <stop stop-color="#5CC7F8" offset=".5"/>
        <stop stop-color="#4FC3F7" offset="1"/>
    </radialGradient>
    <path d="M106.64 21.46c12.9 12.97 12.9 34 0 46.98s-33.82 12.97-46.72 0-12.9-34 0-46.98 33.81-12.97 46.72 0z"
          fill="url(#d)"/>
    <path d="M83.27 14.73c8.02 0 15.56 3.14 21.23 8.84 11.72 11.78 11.72 30.96 0 42.74-5.67 5.7-13.21 8.84-21.23 8.84s-15.56-3.14-21.23-8.84c-11.72-11.78-11.72-30.96 0-42.74 5.67-5.7 13.21-8.84 21.23-8.84m0-3c-8.46 0-16.91 3.24-23.36 9.73-12.9 12.97-12.9 34 0 46.98 6.45 6.49 14.91 9.73 23.36 9.73s16.91-3.24 23.36-9.73c12.9-12.97 12.9-34 0-46.98a32.816 32.816 0 0 0-23.36-9.73z"
          fill="#039BE5" opacity=".2"/>
    <radialGradient id="e" cx="77.192" cy="74.667" r="12.886" gradientTransform="matrix(-1.0004 0 0 1 128.03 0)"
                    gradientUnits="userSpaceOnUse">
        <stop stop-color="#E0E0E0" offset="0"/>
        <stop stop-color="#9E9E9E" offset="1"/>
    </radialGradient>
    <path d="m40.81 77.1 9.99 10.05a2.873 2.873 0 0 0 4.09 0l.96-.97a2.915 2.915 0 0 0 0-4.11l-9.99-10.05a2.873 2.873 0 0 0-4.09 0l-.96.97a2.915 2.915 0 0 0 0 4.11z"
          fill="url(#e)"/>
    <path d="M43.82 73.17c.14 0 .4.03.63.26l9.99 10.05c.35.36.35.93 0 1.29l-.96.97c-.23.23-.49.26-.63.26s-.4-.03-.63-.26l-9.99-10.05a.924.924 0 0 1 0-1.29l.96-.97c.23-.22.49-.26.63-.26m0-2c-.74 0-1.48.28-2.04.85l-.96.97a2.915 2.915 0 0 0 0 4.11l9.99 10.05c.56.57 1.3.85 2.04.85s1.48-.28 2.04-.85l.96-.97a2.915 2.915 0 0 0 0-4.11l-9.99-10.05c-.56-.56-1.3-.85-2.04-.85z"
          fill="#424242" opacity=".2"/>
</svg>
