<svg xmlns="http://www.w3.org/2000/svg" xmlns:xlink="http://www.w3.org/1999/xlink" width="500" zoomAndPan="magnify" viewBox="0 0 375 374.999991" height="500" preserveAspectRatio="xMidYMid meet" version="1.0"><defs><g/><clipPath id="id1"><path d="M 137.386719 64.21875 L 275.386719 64.21875 L 275.386719 182.71875 L 137.386719 182.71875 Z M 137.386719 64.21875 " clip-rule="nonzero"/></clipPath><clipPath id="id2"><path d="M 100 86.125 L 237.847656 86.125 L 237.847656 204.625 L 100 204.625 Z M 100 86.125 " clip-rule="nonzero"/></clipPath><clipPath id="id3"><path d="M 137.386719 108.03125 L 275.386719 108.03125 L 275.386719 226.53125 L 137.386719 226.53125 Z M 137.386719 108.03125 " clip-rule="nonzero"/></clipPath></defs><rect x="-37.5" width="450" fill="#ffffff" y="-37.499999" height="449.999989" fill-opacity="1"/><rect x="-37.5" width="450" fill="#ffffff" y="-37.499999" height="449.999989" fill-opacity="1"/><rect x="-37.5" width="450" fill="#111f25" y="-37.499999" height="449.999989" fill-opacity="1"/><g fill="#ffffff" fill-opacity="1"><g transform="translate(81.079101, 291.530532)"><g><path d="M 14.300781 -1.539062 C 7.535156 -1.539062 5.773438 -5.167969 5.773438 -8.800781 L 3.574219 -8.800781 L 3.574219 -8.578125 C 3.574219 -4.566406 6.105469 0.550781 14.300781 0.550781 C 21.117188 0.550781 25.023438 -2.914062 25.023438 -7.589844 L 25.023438 -7.808594 C 25.023438 -12.871094 22.4375 -15.179688 15.125 -15.730469 C 7.808594 -16.335938 6.214844 -18.257812 6.214844 -21.722656 C 6.214844 -25.519531 9.238281 -27.609375 14.300781 -27.609375 C 20.679688 -27.609375 22.550781 -24.582031 22.550781 -19.800781 L 24.75 -19.800781 L 24.75 -20.019531 C 24.75 -25.519531 22.054688 -29.699219 14.300781 -29.699219 C 7.480469 -29.699219 3.90625 -26.289062 3.90625 -21.835938 L 3.90625 -21.558594 C 3.90625 -17.597656 5.773438 -14.628906 13.472656 -13.914062 C 19.910156 -13.363281 22.714844 -12.375 22.714844 -7.699219 C 22.714844 -3.90625 19.6875 -1.539062 14.300781 -1.539062 Z M 14.300781 -1.539062 "/></g></g></g><g fill="#ffffff" fill-opacity="1"><g transform="translate(109.677026, 291.530532)"><g><path d="M 4.398438 0 L 6.601562 0 L 6.601562 -29.148438 L 4.398438 -29.148438 Z M 7.148438 -40.421875 L 3.851562 -40.421875 L 3.851562 -37.125 L 7.148438 -37.125 Z M 7.148438 -40.421875 "/></g></g></g><g fill="#ffffff" fill-opacity="1"><g transform="translate(120.676228, 291.530532)"><g><path d="M 14.300781 -29.699219 C 6.324219 -29.699219 3.023438 -23.097656 3.023438 -15.125 L 3.023438 -14.023438 C 3.023438 -6.050781 6.324219 0.550781 14.300781 0.550781 C 18.917969 0.550781 21.667969 -1.648438 23.097656 -4.125 L 23.648438 0 L 25.300781 0 L 25.023438 -8.25 L 25.023438 -43.996094 L 22.824219 -43.996094 L 22.824219 -25.519531 C 21.285156 -27.773438 18.644531 -29.699219 14.300781 -29.699219 Z M 22.824219 -6.601562 C 21.449219 -4.398438 19.027344 -1.539062 14.574219 -1.539062 C 8.359375 -1.539062 5.335938 -6.433594 5.335938 -14.023438 L 5.335938 -15.125 C 5.335938 -22.714844 8.359375 -27.609375 14.574219 -27.609375 C 19.027344 -27.609375 21.449219 -24.75 22.824219 -22.550781 Z M 22.824219 -6.601562 "/></g></g></g><g fill="#ffffff" fill-opacity="1"><g transform="translate(149.549132, 291.530532)"><g><path d="M 26.671875 -13.53125 L 26.671875 -15.125 C 26.671875 -23.097656 23.152344 -29.699219 14.847656 -29.699219 C 6.542969 -29.699219 3.023438 -23.097656 3.023438 -15.125 L 3.023438 -14.023438 C 3.023438 -6.050781 6.601562 0.550781 15.125 0.550781 C 23.265625 0.550781 26.671875 -4.949219 26.671875 -9.128906 L 26.671875 -9.347656 L 24.472656 -9.347656 C 24.472656 -5.773438 21.890625 -1.539062 15.125 -1.539062 C 8.359375 -1.539062 5.445312 -6.378906 5.335938 -13.53125 Z M 14.847656 -27.609375 C 21.230469 -27.609375 24.199219 -22.769531 24.363281 -15.621094 L 5.335938 -15.621094 C 5.445312 -22.769531 8.414062 -27.609375 14.847656 -27.609375 Z M 14.847656 -27.609375 "/></g></g></g><g fill="#ffffff" fill-opacity="1"><g transform="translate(179.246983, 291.530532)"><g><path d="M 6.050781 -43.996094 L 3.851562 -43.996094 L 3.851562 -8.25 L 3.574219 0 L 5.226562 0 L 5.71875 -4.125 C 7.203125 -1.648438 9.898438 0.550781 14.574219 0.550781 C 22.550781 0.550781 25.847656 -6.050781 25.847656 -14.023438 L 25.847656 -15.125 C 25.847656 -23.097656 22.550781 -29.699219 14.574219 -29.699219 C 10.230469 -29.699219 7.535156 -27.773438 6.050781 -25.519531 Z M 6.050781 -6.601562 L 6.050781 -22.550781 C 7.425781 -24.75 9.84375 -27.609375 14.300781 -27.609375 C 20.515625 -27.609375 23.539062 -22.714844 23.539062 -15.125 L 23.539062 -14.023438 C 23.539062 -6.433594 20.515625 -1.539062 14.300781 -1.539062 C 9.84375 -1.539062 7.425781 -4.398438 6.050781 -6.601562 Z M 6.050781 -6.601562 "/></g></g></g><g fill="#ffffff" fill-opacity="1"><g transform="translate(208.119887, 291.530532)"><g><path d="M 22.273438 0 L 23.925781 0 L 23.648438 -8.25 L 23.648438 -18.972656 C 23.648438 -25.1875 21.339844 -29.699219 13.75 -29.699219 C 5.5 -29.699219 3.851562 -24.199219 3.851562 -20.019531 L 3.851562 -19.523438 L 6.050781 -19.523438 C 6.050781 -23.925781 7.425781 -27.609375 13.75 -27.609375 C 19.632812 -27.609375 21.449219 -24.640625 21.449219 -18.972656 L 21.449219 -17.875 L 11.988281 -16.390625 C 7.699219 -15.730469 2.75 -14.023438 2.75 -7.699219 L 2.75 -7.148438 C 2.75 -2.476562 6.050781 0.550781 11 0.550781 C 16.5 0.550781 19.855469 -1.871094 21.722656 -4.398438 Z M 11.273438 -1.539062 C 6.875 -1.539062 4.949219 -4.234375 4.949219 -7.148438 L 4.949219 -7.699219 C 4.949219 -11.496094 7.699219 -13.53125 11.824219 -14.246094 L 21.449219 -15.839844 L 21.449219 -7.039062 C 20.402344 -5.167969 17.765625 -1.539062 11.273438 -1.539062 Z M 11.273438 -1.539062 "/></g></g></g><g fill="#ffffff" fill-opacity="1"><g transform="translate(235.617898, 291.530532)"><g><path d="M 14.300781 -1.539062 C 7.535156 -1.539062 5.773438 -5.167969 5.773438 -8.800781 L 3.574219 -8.800781 L 3.574219 -8.578125 C 3.574219 -4.566406 6.105469 0.550781 14.300781 0.550781 C 21.117188 0.550781 25.023438 -2.914062 25.023438 -7.589844 L 25.023438 -7.808594 C 25.023438 -12.871094 22.4375 -15.179688 15.125 -15.730469 C 7.808594 -16.335938 6.214844 -18.257812 6.214844 -21.722656 C 6.214844 -25.519531 9.238281 -27.609375 14.300781 -27.609375 C 20.679688 -27.609375 22.550781 -24.582031 22.550781 -19.800781 L 24.75 -19.800781 L 24.75 -20.019531 C 24.75 -25.519531 22.054688 -29.699219 14.300781 -29.699219 C 7.480469 -29.699219 3.90625 -26.289062 3.90625 -21.835938 L 3.90625 -21.558594 C 3.90625 -17.597656 5.773438 -14.628906 13.472656 -13.914062 C 19.910156 -13.363281 22.714844 -12.375 22.714844 -7.699219 C 22.714844 -3.90625 19.6875 -1.539062 14.300781 -1.539062 Z M 14.300781 -1.539062 "/></g></g></g><g fill="#ffffff" fill-opacity="1"><g transform="translate(264.215822, 291.530532)"><g><path d="M 26.671875 -13.53125 L 26.671875 -15.125 C 26.671875 -23.097656 23.152344 -29.699219 14.847656 -29.699219 C 6.542969 -29.699219 3.023438 -23.097656 3.023438 -15.125 L 3.023438 -14.023438 C 3.023438 -6.050781 6.601562 0.550781 15.125 0.550781 C 23.265625 0.550781 26.671875 -4.949219 26.671875 -9.128906 L 26.671875 -9.347656 L 24.472656 -9.347656 C 24.472656 -5.773438 21.890625 -1.539062 15.125 -1.539062 C 8.359375 -1.539062 5.445312 -6.378906 5.335938 -13.53125 Z M 14.847656 -27.609375 C 21.230469 -27.609375 24.199219 -22.769531 24.363281 -15.621094 L 5.335938 -15.621094 C 5.445312 -22.769531 8.414062 -27.609375 14.847656 -27.609375 Z M 14.847656 -27.609375 "/></g></g></g><g clip-path="url(#id1)"><path fill="#ffffff" d="M 269.425781 182.71875 L 143.351562 182.71875 C 141.316406 182.71875 139.476562 181.679688 138.460938 179.902344 C 137.445312 178.148438 137.445312 176.042969 138.460938 174.289062 L 200.207031 67.777344 C 201.5 65.558594 203.804688 64.21875 206.386719 64.21875 C 208.96875 64.21875 211.277344 65.53125 212.566406 67.777344 L 274.316406 174.316406 C 275.332031 176.070312 275.332031 178.175781 274.316406 179.929688 C 273.273438 181.679688 271.457031 182.71875 269.425781 182.71875 Z M 141.839844 176.234375 C 141.371094 177.027344 141.675781 177.710938 141.839844 177.984375 C 142.003906 178.257812 142.441406 178.859375 143.351562 178.859375 L 269.398438 178.859375 C 270.304688 178.859375 270.773438 178.257812 270.910156 177.984375 C 271.074219 177.710938 271.375 177.027344 270.910156 176.234375 L 209.191406 69.691406 C 208.613281 68.679688 207.570312 68.078125 206.386719 68.078125 C 205.207031 68.078125 204.164062 68.679688 203.585938 69.691406 Z M 141.839844 176.234375 " fill-opacity="1" fill-rule="nonzero"/></g><g clip-path="url(#id2)"><path fill="#585e63" d="M 231.886719 204.625 L 105.808594 204.625 C 103.777344 204.625 101.9375 203.585938 100.921875 201.808594 C 99.90625 200.054688 99.90625 197.949219 100.921875 196.195312 L 162.667969 89.683594 C 163.960938 87.46875 166.265625 86.125 168.847656 86.125 C 171.429688 86.125 173.738281 87.441406 175.027344 89.683594 L 236.777344 196.222656 C 237.792969 197.976562 237.792969 200.082031 236.777344 201.835938 C 235.730469 203.585938 233.917969 204.625 231.886719 204.625 Z M 104.300781 198.140625 C 103.832031 198.933594 104.136719 199.617188 104.300781 199.890625 C 104.464844 200.164062 104.902344 200.765625 105.808594 200.765625 L 231.859375 200.765625 C 232.765625 200.765625 233.234375 200.164062 233.371094 199.890625 C 233.535156 199.617188 233.835938 198.933594 233.371094 198.140625 L 171.652344 91.597656 C 171.074219 90.585938 170.03125 89.984375 168.847656 89.984375 C 167.667969 89.984375 166.625 90.585938 166.046875 91.597656 Z M 104.300781 198.140625 " fill-opacity="1" fill-rule="nonzero"/></g><g clip-path="url(#id3)"><path fill="#5bf3c7" d="M 269.425781 226.53125 L 143.351562 226.53125 C 141.316406 226.53125 139.476562 225.492188 138.460938 223.714844 C 137.445312 221.960938 137.445312 219.855469 138.460938 218.105469 L 200.207031 111.589844 C 201.5 109.375 203.804688 108.03125 206.386719 108.03125 C 208.96875 108.03125 211.277344 109.347656 212.566406 111.589844 L 274.316406 218.132812 C 275.332031 219.882812 275.332031 221.988281 274.316406 223.742188 C 273.273438 225.492188 271.457031 226.53125 269.425781 226.53125 Z M 141.839844 220.046875 C 141.371094 220.839844 141.675781 221.523438 141.839844 221.796875 C 142.003906 222.070312 142.441406 222.675781 143.351562 222.675781 L 269.398438 222.675781 C 270.304688 222.675781 270.773438 222.070312 270.910156 221.796875 C 271.074219 221.523438 271.375 220.839844 270.910156 220.046875 L 209.191406 113.507812 C 208.613281 112.492188 207.570312 111.890625 206.386719 111.890625 C 205.207031 111.890625 204.164062 112.492188 203.585938 113.507812 Z M 141.839844 220.046875 " fill-opacity="1" fill-rule="nonzero"/></g></svg>