<svg width="140" height="140" viewBox="0 0 140 140" fill="none" xmlns="http://www.w3.org/2000/svg">
<rect width="140" height="140" fill="#01BEFE"/>
<rect width="140" height="140" fill="#01BEFE"/>
<path d="M109.08 60.4334L105.048 79.7075H122.328V102.366H100.296L95.544 124.877H72.504L77.256 102.366H53.352L48.6 124.877H25.56L30.312 102.366H9V79.7075H35.064L39.096 60.4334H18.216V37.7753H43.704L48.312 16H71.352L66.744 37.7753H90.648L95.256 16H118.296L113.688 37.7753H131.544V60.4334H109.08ZM86.04 60.4334H62.136L58.104 79.7075H82.008L86.04 60.4334Z" fill="white"/>
<path d="M68.3172 98.56C62.2372 98.56 57.2772 97.2533 53.4372 94.64C49.6505 91.9733 47.7572 88.2133 47.7572 83.36C47.7572 82.88 47.8105 82.16 47.9172 81.2H62.1572C61.9972 83.2266 62.4772 84.8266 63.5972 86C64.7172 87.1733 66.4239 87.76 68.7172 87.76C70.7972 87.76 72.4239 87.3066 73.5972 86.4C74.8239 85.4933 75.4372 84.2133 75.4372 82.56C75.4372 80.8533 74.6639 79.4666 73.1172 78.4C71.6239 77.3333 69.2772 76.1333 66.0772 74.8C62.9839 73.52 60.4505 72.32 58.4772 71.2C56.5572 70.0266 54.8772 68.4533 53.4372 66.48C51.9972 64.5066 51.2772 62.0266 51.2772 59.04C51.2239 55.36 52.1305 52.16 53.9972 49.44C55.8639 46.72 58.4505 44.64 61.7572 43.2C65.0639 41.76 68.8505 41.04 73.1172 41.04C76.9572 41.04 80.3705 41.6533 83.3572 42.88C86.3439 44.0533 88.6639 45.7866 90.3172 48.08C91.9705 50.32 92.7972 52.9866 92.7972 56.08C92.7972 56.88 92.7705 57.4666 92.7172 57.84H78.1572C78.2105 57.6266 78.2372 57.3066 78.2372 56.88C78.2372 55.3866 77.7039 54.1866 76.6372 53.28C75.6239 52.32 74.2105 51.84 72.3972 51.84C70.4772 51.84 68.9039 52.32 67.6772 53.28C66.5039 54.1866 65.9172 55.44 65.9172 57.04C65.9172 58.64 66.6639 60 68.1572 61.12C69.6505 62.1866 71.9705 63.44 75.1172 64.88C78.2639 66.32 80.8239 67.6533 82.7972 68.88C84.8239 70.1066 86.5572 71.76 87.9972 73.84C89.4372 75.8666 90.1572 78.3733 90.1572 81.36C90.1572 84.6666 89.2772 87.6266 87.5172 90.24C85.7572 92.8533 83.2239 94.9066 79.9172 96.4C76.6105 97.84 72.7439 98.56 68.3172 98.56Z" fill="black"/>
</svg>
