<svg width="150" height="150" viewBox="0 0 150 150" fill="none" xmlns="http://www.w3.org/2000/svg">
<mask id="mask0_980:518" style="mask-type:alpha" maskUnits="userSpaceOnUse" x="33" y="22" width="75" height="108">
<path d="M56.5171 127.496C76.372 134.814 98.4129 124.576 105.746 104.629C115.646 77.7017 80.4327 62.4453 93.5291 26.823C98.8728 12.2887 67.9627 34.9825 48.9943 57.0138C13.6747 98.0365 46.4606 123.79 56.5171 127.496Z" fill="black"/>
</mask>
<g mask="url(#mask0_980:518)">
<path d="M98.2008 110.77C74.6584 86.6636 30.5039 41.8328 30.2034 39.5788L45.4183 28.1206L114.918 1.4476L132.951 61.9315L98.2008 110.77Z" fill="#688282"/>
<path d="M31.518 121.101C24.9437 108.515 111.349 106.637 113.603 106.449L91.2506 135.376C73.5312 134.813 36.7775 131.169 31.518 121.101Z" fill="#D1E2E2"/>
<path d="M79.4693 67.0967C54.3113 63.6301 46.7391 36.2937 46.0978 23.0588C39.6539 41.3851 -22.2731 88.5352 22.5613 108.555C67.3956 128.574 52.3003 100.517 97.7757 115.885C127.316 125.867 110.917 71.4298 79.4693 67.0967Z" fill="#92ADAD"/>
</g>
</svg>
