<svg width="150" height="150" viewBox="0 0 150 150" fill="none" xmlns="http://www.w3.org/2000/svg">
<mask id="mask0_980:530" style="mask-type:alpha" maskUnits="userSpaceOnUse" x="13" y="29" width="124" height="92">
<path d="M46.0695 41.6257L39.2543 52.4338L46.0695 41.6257Z" fill="#C4C4C4" stroke="black" stroke-width="68"/>
</mask>
<g mask="url(#mask0_980:530)">
</g>
<mask id="mask1_980:530" style="mask-type:alpha" maskUnits="userSpaceOnUse" x="13" y="41" width="124" height="68">
<path d="M15.3924 70.7856C15.3269 70.851 15.2614 70.9165 15.1959 70.982C15.0773 71.0888 14.9644 71.2017 14.8575 71.3202C14.7467 71.4204 14.6411 71.526 14.5408 71.6366C14.447 71.7508 14.3664 71.8753 14.3006 72.0076C14.1914 72.1167 14.1478 72.2913 14.0823 72.444C14.0167 72.5968 13.9512 72.575 13.9512 72.6841L13.9076 72.8368C13.8093 72.935 13.7984 73.1424 13.7547 73.2951C13.711 73.4479 13.6783 73.5679 13.6455 73.7097C13.6095 73.8568 13.5839 74.0063 13.5691 74.1571C13.54 74.3047 13.5218 74.4542 13.5145 74.6044C13.5 74.7531 13.4964 74.9026 13.5036 75.0518C13.4964 75.201 13.5 75.3505 13.5145 75.4991C13.5218 75.6494 13.54 75.7989 13.5691 75.9465C13.5839 76.0972 13.6095 76.2467 13.6455 76.3939L13.7547 76.8085L13.9076 77.2668L14.1368 77.4959C14.2422 77.7504 14.3701 77.9951 14.519 78.2269L14.7374 78.4451C14.9193 78.8226 15.1388 79.1809 15.3924 79.5144L41.5963 105.701C42.7546 106.859 44.3256 107.509 45.9636 107.509C47.6017 107.509 49.1727 106.859 50.3309 105.701C51.4892 104.544 52.14 102.974 52.14 101.337C52.14 99.6996 51.4892 98.1297 50.331 96.9722L34.7069 81.3584L47.3295 81.3257C47.5479 81.3257 47.7553 81.2711 47.9628 81.2602L115.438 81.3475L98.7112 98.0633C97.5529 99.2208 96.9022 100.791 96.9022 102.428C96.9022 104.065 97.5529 105.635 98.7112 106.792C99.8695 107.95 101.441 108.6 103.079 108.6C104.717 108.6 106.288 107.95 107.446 106.792L134.742 79.5144C134.807 79.449 134.873 79.3835 134.938 79.318C135.004 79.2526 135.168 79.0889 135.277 78.9798C135.386 78.8707 135.484 78.7725 135.593 78.6634C135.676 78.54 135.774 78.5178 135.844 78.3867C135.953 78.2776 136.161 77.8123 136.227 77.6595C136.161 77.725 136.292 77.5068 136.227 77.6595C136.325 77.5613 136.379 77.1141 136.423 76.9613C136.473 76.8225 136.448 76.7109 136.478 76.5664C136.514 76.4193 136.463 76.3148 136.478 76.164C136.435 75.9466 136.555 75.8115 136.467 75.6083C136.481 75.4596 136.485 75.3101 136.478 75.1609C136.485 75.0117 136.481 74.8622 136.467 74.7135C136.467 74.5608 136.434 74.419 136.423 74.2771C136.405 74.1225 136.375 73.9694 136.336 73.8188L136.227 73.4042L136.074 72.9459L136.03 72.7932L135.899 72.5531L135.681 72.1167C135.615 71.9844 135.534 71.8599 135.44 71.7457L135.124 71.4293C135.017 71.3108 134.904 71.1979 134.785 71.0911L108.407 44.7298C107.248 43.5723 105.677 42.922 104.039 42.922C102.401 42.922 100.83 43.5723 99.672 44.7298C98.5137 45.8874 97.863 47.4573 97.863 49.0943C97.863 50.7313 98.5137 52.3012 99.672 53.4587L115.285 69.0616L47.395 68.9088C47.183 68.9198 46.9716 68.9416 46.7618 68.9743L34.7069 68.9416L51.4228 52.2367C52.5811 51.0792 53.2318 49.5092 53.2318 47.8722C53.2318 46.2353 52.5811 44.6653 51.4228 43.5078C50.2645 42.3503 48.6935 41.7 47.0555 41.7C45.4174 41.7 43.8464 42.3503 42.6882 43.5078L15.3924 70.7856Z" fill="black"/>
</mask>
<g mask="url(#mask1_980:530)">
<path d="M110.84 2.85704H10.8095H8.4598L-17.1001 73.8567C-17.1001 73.8567 64.0424 116.457 89.8052 93.5338C115.568 70.611 125.508 29.4312 125.508 29.4312L110.84 2.85704Z" fill="#D1E2E2"/>
<path d="M154.111 137.351C162.23 111.003 120.214 8.37157 93.6595 19.6941C87.7708 22.205 95.4757 51.7244 84.1253 66.5539C65.5933 90.7661 8.85317 63.924 6.63414 76.0882C3.6579 92.4034 -8.18201 107.294 -10.6086 114.834L154.111 137.351Z" fill="#D1E2E2"/>
<path d="M127.942 56.4111C78.1208 77.1836 85.951 112.94 96.0939 128.222L133.419 125.179C152.353 93.6014 177.764 35.6386 127.942 56.4111Z" fill="#D1E2E2"/>
</g>
</svg>
