<svg width="150" height="150" viewBox="0 0 150 150" fill="none" xmlns="http://www.w3.org/2000/svg">
<path d="M19.3821 27C19.3821 20.3726 24.7547 15 31.3821 15L118.618 15C125.245 15 130.618 20.3726 130.618 27V123C130.618 129.627 125.245 135 118.618 135H31.3821C24.7547 135 19.3821 129.627 19.3821 123L19.3821 27Z" fill="#D1E2E2"/>
<path d="M30 31.5C30 28.1863 32.6863 25.5 36 25.5H113.7C117.014 25.5 119.7 28.1863 119.7 31.5V118.8C119.7 122.114 117.014 124.8 113.7 124.8H36C32.6863 124.8 30 122.114 30 118.8V31.5Z" fill="#D1E2E2"/>
<path d="M37.9666 81.1321C37.9666 79.3628 39.4008 77.9286 41.1701 77.9286H70.5845C72.3537 77.9286 73.788 79.3628 73.788 81.1321V111.42C73.788 113.189 72.3537 114.624 70.5845 114.624H41.1701C39.4008 114.624 37.9666 113.189 37.9666 111.42V81.1321Z" fill="#92ADAD"/>
<path d="M37.9666 40.3597C37.9666 37.7862 40.0528 35.7 42.6263 35.7H69.1283C71.7018 35.7 73.788 37.7862 73.788 40.3597V63.367C73.788 65.9405 71.7018 68.0267 69.1283 68.0267H42.6263C40.0528 68.0267 37.9666 65.9405 37.9666 63.367V40.3597Z" fill="#92ADAD"/>
<path d="M84.8547 38.9035C84.8547 37.1343 86.289 35.7 88.0583 35.7H108.736C110.505 35.7 111.939 37.1343 111.939 38.9035V111.42C111.939 113.189 110.505 114.624 108.736 114.624H88.0583C86.289 114.624 84.8547 113.189 84.8547 111.42V38.9035Z" fill="#92ADAD"/>
</svg>
